<svg version="1.1" id="Layer_1" xmlns="http://www.w3.org/2000/svg" xmlns:xlink="http://www.w3.org/1999/xlink" x="0px" y="0px"
	 width="100%" viewBox="0 0 736 1024" enable-background="new 0 0 736 1024" xml:space="preserve">
<path fill="#000000" opacity="1.000000" stroke="none" 
	d="
M737.000000,840.531372 
	C734.451965,844.376282 733.501221,848.508789 731.709351,852.244934 
	C718.957153,878.833496 698.913757,898.961304 675.314148,915.891663 
	C638.551208,942.265381 597.297852,958.870239 554.118103,971.212585 
	C516.877136,981.857300 478.877808,988.132996 440.315582,991.518311 
	C406.886261,994.453125 373.410706,995.081360 339.988159,992.967346 
	C275.673828,988.899292 212.981155,976.778076 152.945923,952.583923 
	C120.276321,939.418091 89.579285,922.888733 63.016823,899.465393 
	C38.188377,877.571045 19.453985,851.806152 13.395267,818.380493 
	C9.122075,794.805542 13.883974,772.710815 24.741280,751.713745 
	C30.760910,740.072266 38.822369,729.881165 47.977402,720.579468 
	C50.611870,717.902771 51.826313,715.207092 51.858707,711.378357 
	C52.122337,680.223267 52.211369,649.058594 53.133137,617.919861 
	C53.877903,592.760498 53.139832,567.594604 54.063408,542.453186 
	C55.073120,514.966919 54.551243,487.472687 54.978912,459.984467 
	C55.727940,411.841064 55.972660,363.687622 57.061508,315.552673 
	C57.660782,289.060730 57.520546,262.571350 57.965084,236.083435 
	C58.722710,190.940079 59.191608,145.791565 60.059139,100.650551 
	C60.286373,88.826660 60.673317,77.005173 60.721020,65.176285 
	C60.728092,63.423016 60.276134,61.425819 63.435478,59.569035 
	C124.615921,163.680069 185.053329,268.204712 245.951920,373.988556 
	C287.812286,269.783020 329.256714,166.612885 370.701172,63.442741 
	C371.268799,63.449234 371.836456,63.455727 372.404114,63.462219 
	C413.822418,166.178757 455.240753,268.895294 497.188721,372.925354 
	C557.765503,266.965210 617.417114,162.001556 678.032227,57.598232 
	C678.671265,57.816086 679.310242,58.033943 679.949280,58.251797 
	C680.281372,64.466499 680.703064,70.678078 680.919617,76.896812 
	C681.122559,82.724640 681.121216,88.559883 681.187683,94.392113 
	C681.593933,130.045776 681.724365,165.705139 682.464355,201.351837 
	C683.380859,245.495361 683.757812,289.644440 684.468079,333.789001 
	C685.264160,383.266937 685.832092,432.746399 686.514587,482.224792 
	C687.162598,529.203979 687.533691,576.191406 688.580688,623.159668 
	C689.182129,650.141541 688.676941,677.139832 689.953857,704.108398 
	C690.109985,707.406189 690.577454,710.100159 693.311584,712.480957 
	C712.867737,729.509766 728.044067,749.665466 736.865845,774.673645 
	C737.000000,796.687561 737.000000,818.375122 737.000000,840.531372 
M80.302773,663.500183 
	C80.302773,672.719177 80.302773,681.938171 80.302773,691.064514 
	C83.304947,691.378296 84.616081,689.917542 86.133469,688.987122 
	C99.490036,680.797424 113.018288,672.908630 127.295349,666.414124 
	C192.948944,636.549072 262.460785,623.701721 333.963593,619.662964 
	C338.879608,619.385315 343.786285,618.942383 349.303650,618.531189 
	C348.322845,616.408142 347.755707,614.873779 346.947845,613.478760 
	C337.183044,596.616577 327.850769,579.548645 319.649475,561.837891 
	C313.424622,548.395203 305.799500,535.640808 298.582031,522.691711 
	C261.599487,456.340118 223.340424,390.718018 185.596939,324.801849 
	C157.205826,275.218903 128.476944,225.829361 99.902885,176.351151 
	C95.896637,169.414017 91.915916,162.462112 87.205681,154.268616 
	C86.910225,157.984436 86.640305,160.116074 86.586052,162.253189 
	C85.901108,189.233612 86.052345,216.223740 85.565735,243.210556 
	C84.682762,292.179016 84.444908,341.159698 83.456535,390.130554 
	C82.844719,420.444092 83.439110,450.768799 82.491478,481.090302 
	C81.690239,506.727539 82.119514,532.392029 81.557938,558.049011 
	C80.796089,592.856201 81.334854,627.689087 80.302773,663.500183 
M660.699890,612.500610 
	C660.148621,576.852966 659.661743,541.204163 659.025879,505.558044 
	C658.514832,476.903473 659.047791,448.242157 658.032654,419.587372 
	C657.153809,394.778412 657.972778,369.939209 657.075623,345.115387 
	C656.136841,319.140198 656.795410,293.138641 656.126770,267.145081 
	C655.201416,231.169479 655.121826,195.172150 654.684143,159.184067 
	C654.662964,157.442764 654.681396,155.700974 654.681396,152.584656 
	C648.602356,163.197861 643.217346,172.538696 637.888855,181.911621 
	C587.006287,271.413940 536.114136,360.910797 485.271088,450.435577 
	C472.602051,472.743225 459.651001,494.907990 447.648773,517.572266 
	C435.712433,540.112122 420.560333,560.913330 412.116669,585.400452 
	C408.850891,594.871460 402.611542,603.312256 397.786316,612.254456 
	C396.794586,614.092407 395.166443,615.710327 395.333557,618.458801 
	C441.600586,620.890930 487.503174,625.674011 532.602356,636.601868 
	C577.736328,647.538208 620.982605,663.206604 660.703186,687.784851 
	C660.703186,662.399475 660.703186,637.950073 660.699890,612.500610 
M288.289948,342.695984 
	C280.736725,361.552429 273.247375,380.434875 265.573853,399.242249 
	C264.122437,402.799591 264.184723,405.805511 266.115326,409.155151 
	C274.849121,424.308289 283.557007,439.479279 292.031708,454.778137 
	C305.510406,479.110474 319.041016,503.430756 332.925995,527.513672 
	C343.420868,545.716492 353.888031,563.817322 362.431091,583.029785 
	C364.897034,588.575317 367.724274,594.068481 371.532532,599.088257 
	C373.796661,597.402222 374.617432,595.175476 375.707489,593.180054 
	C381.298370,582.945862 386.171753,572.393127 390.634125,561.599792 
	C397.211853,545.689819 407.083679,531.528870 415.578735,516.633057 
	C436.538177,479.881012 457.234375,442.978882 478.172089,406.214355 
	C479.764404,403.418457 479.152527,401.283051 478.130432,398.741730 
	C445.634369,317.943573 413.168182,237.133392 380.696075,156.325592 
	C377.868896,149.290131 375.031830,142.258621 371.781250,134.187057 
	C343.745667,204.190292 316.154907,273.082916 288.289948,342.695984 
M401.247620,693.970154 
	C416.842926,695.146912 432.428894,696.343628 447.927277,698.582581 
	C486.214508,704.113647 523.369995,713.390869 557.933533,731.349365 
	C560.792175,732.834717 563.032410,732.727783 565.804626,731.132996 
	C580.966553,722.410461 596.236572,713.876160 611.453186,705.248352 
	C615.619080,702.886353 619.728821,700.425232 624.238831,697.790833 
	C620.598267,694.380737 616.503784,692.916321 612.680969,691.070557 
	C573.241028,672.027527 531.493164,660.588745 488.494080,653.085144 
	C455.954163,647.406799 423.149139,644.418457 390.203430,643.507446 
	C352.371948,642.461426 314.673157,644.814087 277.156830,650.171387 
	C239.626678,655.530579 202.917404,664.033264 167.382843,677.339661 
	C159.190567,680.407288 150.929428,683.365784 142.790192,687.710693 
	C143.736038,688.490601 144.179001,688.965576 144.715424,689.282288 
	C164.081757,700.718140 183.478256,712.103088 202.806259,723.603210 
	C205.538666,725.228943 207.842758,724.483337 210.343170,723.369812 
	C224.067184,717.257751 238.295761,712.605957 252.779663,708.674744 
	C301.133087,695.550537 350.463562,692.253296 401.247620,693.970154 
M242.559906,887.322510 
	C240.108521,886.273499 238.359955,886.891785 236.479431,888.936340 
	C224.640137,901.808289 212.624496,914.517700 200.713104,927.323669 
	C197.352615,930.936462 194.146103,934.692444 190.209351,939.125549 
	C280.119568,967.857117 371.075836,975.038757 463.613403,963.540527 
	C507.713501,958.060791 550.877136,948.386353 591.992676,931.152649 
	C591.482544,928.985046 590.347168,928.476135 589.455811,927.775024 
	C571.912659,913.974976 554.291199,900.273010 536.863586,886.328674 
	C533.427002,883.578979 530.497559,883.292725 526.415466,884.733826 
	C490.538879,897.399902 453.353607,903.565796 415.534485,906.109924 
	C386.083862,908.091003 356.659546,907.475464 327.259277,904.449829 
	C298.696716,901.510376 270.739258,895.836548 242.559906,887.322510 
M180.663589,773.167908 
	C174.273972,779.812500 169.699722,787.305298 168.752197,796.769714 
	C168.311661,801.169983 169.608429,803.379211 174.208618,803.643433 
	C190.326401,804.569275 206.431717,805.715210 222.550888,806.613770 
	C251.789902,808.243896 280.975037,810.335754 310.110870,813.468628 
	C337.427887,816.406006 362.757202,824.760132 386.403503,838.406982 
	C406.888885,850.229736 427.152985,862.435852 447.514313,874.473511 
	C449.669769,875.747803 451.715240,876.806091 454.509735,876.364868 
	C473.781799,873.322083 492.715790,868.913940 511.207733,862.682312 
	C532.161438,855.621094 552.189209,846.736572 569.393921,832.460266 
	C570.961304,831.159607 573.165771,830.164917 573.069763,827.567444 
	C572.059692,826.324890 570.678650,826.343750 569.370605,826.184509 
	C555.176453,824.456360 540.984436,822.710571 526.786682,821.012634 
	C505.317230,818.445190 483.840668,815.937256 462.372711,813.357605 
	C437.106384,810.321533 411.650146,808.988342 386.483154,805.148438 
	C377.313019,803.749329 367.997162,802.060608 360.411133,795.941956 
	C349.500305,787.141418 346.275726,774.936279 345.771484,761.723572 
	C345.295166,749.242920 345.200165,736.747803 344.909454,724.259766 
	C344.875671,722.808777 345.240662,721.225647 343.498077,719.644348 
	C337.953094,720.128845 332.005310,720.610779 326.065186,721.173767 
	C294.606903,724.155273 263.857330,730.479675 234.253510,741.631287 
	C214.851654,748.939880 196.213287,757.795044 180.663589,773.167908 
M184.858185,861.715576 
	C173.331299,854.248230 162.545197,845.917847 154.216843,834.825867 
	C139.547485,815.288635 136.000259,794.404602 147.505020,772.165222 
	C153.421555,760.728088 162.375000,751.786987 172.787399,744.272339 
	C174.306213,743.176208 176.460068,742.583801 177.032394,739.730530 
	C156.789200,727.766907 136.445099,715.770081 116.141411,703.705261 
	C113.994301,702.429382 112.376488,703.266052 110.621979,704.336121 
	C91.275398,716.135437 73.643707,729.963806 59.879498,748.174316 
	C40.830196,773.377136 34.181080,800.863525 45.739342,831.256836 
	C53.138580,850.713623 66.032356,866.338989 81.353592,880.032837 
	C103.455803,899.787537 129.095886,913.834412 155.953796,925.941162 
	C160.529160,928.003601 163.409760,927.552673 166.756927,923.840515 
	C179.807526,909.366516 193.133270,895.140869 206.307053,880.777283 
	C207.606796,879.360168 209.276657,878.035522 209.246429,875.468445 
	C201.379425,871.052612 193.421097,866.585449 184.858185,861.715576 
M614.159790,796.848999 
	C615.110413,812.753601 610.122620,826.592346 600.070068,838.882446 
	C592.051575,848.685547 582.421204,856.501587 571.856262,863.296082 
	C568.414307,865.509644 564.949219,867.687317 561.439575,869.916321 
	C562.072815,870.828125 562.275391,871.331299 562.645081,871.621887 
	C581.510559,886.445984 600.401672,901.237549 619.249573,916.083984 
	C620.977295,917.444946 622.493042,917.300781 624.290710,916.376160 
	C653.091492,901.562561 679.022949,883.149597 697.858032,856.249634 
	C719.142639,825.851196 720.184082,794.483154 701.223450,762.537231 
	C689.941406,743.528503 673.864807,729.166992 656.360413,716.135498 
	C653.306641,713.862122 651.034363,713.863281 647.869629,715.682922 
	C633.861877,723.736511 619.713440,731.544861 605.652588,739.506836 
	C599.647705,742.907227 593.732483,746.466003 587.242126,750.265686 
	C601.742676,762.877197 611.711243,777.237793 614.159790,796.848999 
M521.530029,743.063904 
	C505.857269,736.912842 489.710419,732.401733 473.290222,728.721619 
	C442.147797,721.742126 410.550598,719.180664 378.740540,718.318726 
	C374.346497,718.199707 372.860809,719.563965 373.092194,723.990845 
	C373.787109,737.285950 372.786957,750.622681 374.115967,763.920288 
	C375.100769,773.774170 378.075714,777.361450 387.680450,779.661682 
	C396.772705,781.839111 406.066498,782.567566 415.306854,783.603516 
	C441.073364,786.492188 466.878540,789.038757 492.637909,791.987244 
	C522.194397,795.370300 551.716614,799.052551 581.257568,802.572937 
	C586.323242,803.176697 587.264038,802.110596 586.369202,797.115051 
	C584.749146,788.070007 579.990356,780.748108 573.606995,774.418213 
	C558.999756,759.933594 540.909851,751.152039 521.530029,743.063904 
M374.852203,862.713745 
	C356.082184,851.577026 336.322388,843.124268 314.568665,839.712097 
	C299.594299,837.363220 284.522095,836.148438 269.451050,834.735168 
	C244.423782,832.388245 219.314636,831.311279 194.259094,829.431274 
	C192.541794,829.302490 190.542328,828.800415 188.863373,831.199951 
	C191.790009,835.132996 195.979980,837.730347 200.088882,840.404541 
	C220.306061,853.562683 242.760010,861.455566 265.819183,867.642883 
	C309.404205,879.337708 353.871094,883.253845 398.885895,881.653625 
	C400.463593,881.597595 402.215546,881.893616 403.909576,879.767822 
	C394.341522,874.146118 384.918304,868.609558 374.852203,862.713745 
z"/>
</svg>