<svg version="1.1" id="Layer_1" xmlns="http://www.w3.org/2000/svg" xmlns:xlink="http://www.w3.org/1999/xlink" x="0px" y="0px"
	 width="100%" viewBox="0 0 736 1024" enable-background="new 0 0 736 1024" xml:space="preserve">
<path fill="#000000" opacity="1.000000" stroke="none" 
	d="
M213.088959,937.068481 
	C178.340240,926.217102 145.564438,912.050903 115.731758,891.637146 
	C91.959496,875.370422 71.249199,856.089539 56.635681,830.881104 
	C30.379156,785.588318 35.688320,732.316711 70.312920,692.988953 
	C77.713333,684.583252 85.599686,676.724365 94.429146,669.833679 
	C96.602127,668.137756 97.977913,665.987000 99.096657,663.491028 
	C118.241371,620.780151 137.457031,578.101013 156.622070,535.399231 
	C179.127930,485.253693 201.582581,435.085144 224.091721,384.941071 
	C246.738342,334.490814 269.505035,284.094330 292.071747,233.608383 
	C316.338257,179.319855 340.443024,124.959023 364.582306,70.613716 
	C366.247345,66.865158 368.465088,63.909695 372.910950,63.775230 
	C377.578979,63.634041 380.071533,66.578072 381.929138,70.443085 
	C397.661224,103.176140 412.369446,136.379272 427.368439,169.447876 
	C464.383392,251.055389 501.128632,332.785675 538.308228,414.317993 
	C576.522888,498.119995 615.127319,581.744202 653.539185,665.456299 
	C654.684021,667.951416 656.386169,669.833008 658.492188,671.582336 
	C678.158691,687.917419 694.369812,707.050598 703.227051,731.304443 
	C718.178894,772.247498 710.543945,809.996094 685.083557,844.516479 
	C664.883545,871.904785 637.954041,891.351501 608.357910,907.318115 
	C563.900208,931.302246 516.135864,945.210327 466.510773,953.427124 
	C427.060944,959.959106 387.314453,961.643555 347.484222,959.995422 
	C301.906219,958.109497 257.114746,950.817871 213.088959,937.068481 
M435.155243,229.267853 
	C414.679382,184.731445 394.203491,140.195038 373.727631,95.658630 
	C373.211548,95.684219 372.695465,95.709816 372.179382,95.735413 
	C290.076355,280.159729 207.374863,464.315369 123.923836,649.313232 
	C202.786255,604.088745 287.696625,587.863342 376.178925,587.969421 
	C464.650116,588.075439 549.239868,605.562927 627.914307,650.247192 
	C563.045044,509.651123 498.836212,369.997040 435.155243,229.267853 
M109.348129,866.138123 
	C111.698952,867.999756 113.999710,869.928894 116.408073,871.712830 
	C156.385803,901.326477 201.897400,918.384399 249.794098,929.564697 
	C299.027100,941.056885 348.991516,945.335327 399.548157,942.961182 
	C426.868164,941.678223 453.979126,938.850769 480.806580,933.614990 
	C528.569641,924.293335 574.179382,908.944519 615.890076,883.419128 
	C639.954102,868.692871 661.786011,851.229126 677.196838,827.064575 
	C697.217712,795.671387 700.997803,762.912720 684.189209,728.857544 
	C672.657104,705.492920 654.736450,687.939575 633.282410,673.674805 
	C630.969971,672.137268 628.676147,672.336670 626.123413,672.839600 
	C604.962402,677.008179 586.414368,687.070618 568.460693,698.412720 
	C563.610046,701.476990 558.721069,704.604309 554.181763,709.046021 
	C560.646484,714.728333 566.574219,720.301331 571.509094,726.818909 
	C582.883118,741.840820 588.296997,758.516968 585.213318,777.382324 
	C582.500549,793.978210 573.960571,807.479126 562.058411,819.010498 
	C538.648010,841.691589 509.895721,854.512634 479.043457,862.987732 
	C434.654022,875.181458 389.444946,879.640686 343.518036,875.351379 
	C313.815857,872.577332 284.301910,868.758423 256.041351,858.412659 
	C228.341873,848.272339 202.684784,835.003845 182.834091,812.356384 
	C159.828018,786.108887 158.886963,751.994690 180.520340,724.611328 
	C184.824677,719.162903 190.097290,714.656982 195.216888,709.546997 
	C182.296539,699.525635 168.934067,691.148132 154.819901,683.904907 
	C145.871628,679.312744 136.554657,675.856140 126.765526,673.581055 
	C122.893974,672.681213 119.603523,672.999207 115.945320,675.164734 
	C99.417046,684.948486 86.051537,698.104797 75.333023,713.763184 
	C52.833881,746.631714 49.643440,781.211792 67.828606,817.155518 
	C77.643456,836.554932 92.179169,852.014709 109.348129,866.138123 
M483.117279,691.431946 
	C452.460480,681.730530 420.995941,676.555176 388.918640,675.506165 
	C351.436127,674.280396 314.446899,678.076599 278.236603,688.226013 
	C270.920197,690.276733 263.569366,692.277893 256.823547,695.345520 
	C256.549805,697.537476 257.696686,698.627441 258.519684,699.840027 
	C282.936066,735.812317 307.376221,771.768555 331.749603,807.769897 
	C333.644806,810.569214 335.934296,812.139099 339.297180,812.862000 
	C370.646240,819.600525 401.989929,819.822571 433.513153,813.883179 
	C444.147095,811.879639 451.790314,808.197449 457.355743,797.547485 
	C473.314941,767.008240 490.766449,737.245361 507.828705,707.289795 
	C510.324585,702.907776 509.035156,701.125061 504.890625,699.635803 
	C497.842377,697.103027 490.876984,694.339661 483.117279,691.431946 
M340.612457,659.833557 
	C345.093475,659.500732 349.569153,659.017273 354.056335,658.859497 
	C384.581482,657.785950 414.957184,658.915710 445.060150,664.700012 
	C477.160706,670.868103 508.050446,680.380188 536.358459,697.129944 
	C539.126465,698.767822 540.894043,698.017334 543.014038,696.327759 
	C553.990295,687.580200 565.828064,680.174316 578.182739,673.522949 
	C588.001465,668.236877 598.273254,663.979736 608.736694,659.653931 
	C566.382019,633.512268 458.909515,594.400513 320.455444,607.424133 
	C257.499084,613.346069 197.010513,628.109863 140.703796,659.183899 
	C141.781769,660.045715 142.108948,660.470703 142.534012,660.623840 
	C165.984680,669.070251 186.716705,682.296387 206.485077,697.163574 
	C209.283859,699.268494 211.236511,698.259216 213.669617,696.839172 
	C227.813553,688.584412 242.716522,681.996399 258.223083,676.742249 
	C284.688477,667.774902 312.000824,662.927795 340.612457,659.833557 
M208.728058,814.774597 
	C228.745361,830.348267 251.469971,840.323792 275.681641,847.273499 
	C278.911011,848.200378 281.427856,847.482483 283.996948,845.477478 
	C294.363098,837.387451 304.712646,829.267944 315.303284,821.478821 
	C318.607178,819.048889 318.413116,817.301208 316.315582,814.253723 
	C303.481110,795.606934 290.818665,776.841736 278.090240,758.121948 
	C266.204742,740.641907 254.301987,723.173706 242.425461,705.687561 
	C241.062653,703.681152 239.931702,701.850159 236.888336,703.335571 
	C221.076187,711.053345 206.110153,719.925537 194.451843,733.472961 
	C178.794998,751.666870 176.644577,773.158447 188.595276,792.475403 
	C193.816849,800.915527 200.631760,807.953491 208.728058,814.774597 
M545.885254,723.618225 
	C539.399292,718.537109 532.866821,713.531799 525.033752,710.180481 
	C523.280518,713.240173 521.783447,715.818420 520.318359,718.414734 
	C503.147980,748.844238 486.028870,779.302917 468.753601,809.672729 
	C466.709595,813.266052 466.946411,815.193787 470.527954,817.716003 
	C479.091309,823.746338 487.253510,830.347595 495.553253,836.750000 
	C497.028442,837.887878 498.314178,839.028137 500.452667,838.141541 
	C523.131409,828.739319 544.664612,817.510437 559.529785,797.092224 
	C571.754028,780.301636 573.765930,762.356873 563.167664,743.755310 
	C558.821716,736.127441 552.964050,729.821472 545.885254,723.618225 
M455.830536,851.203857 
	C463.222961,849.462158 470.680573,847.942627 478.134491,845.032715 
	C477.491028,844.150818 477.218384,843.528137 476.745911,843.166992 
	C469.866791,837.908203 462.941864,832.709290 456.073730,827.436340 
	C454.175598,825.979065 452.362366,826.667847 450.402252,827.172607 
	C414.711273,836.363708 378.748657,837.980591 342.612061,830.302368 
	C335.970032,828.891052 330.824982,829.129211 325.494629,834.027100 
	C318.479401,840.473328 310.572906,845.949524 302.168457,852.533020 
	C354.079742,862.514587 404.587921,862.521606 455.830536,851.203857 
z"/>
</svg>