<svg version="1.1" id="Layer_1" xmlns="http://www.w3.org/2000/svg" xmlns:xlink="http://www.w3.org/1999/xlink" x="0px" y="0px"
	 width="100%" viewBox="0 0 752 1024" enable-background="new 0 0 752 1024" xml:space="preserve">
<path fill="#000000" opacity="1.000000" stroke="none" 
	d="
M637.118774,413.046936 
	C600.899658,494.690826 564.338989,575.765686 527.363403,656.653503 
	C491.565002,734.965942 455.760040,813.275452 419.915283,891.566711 
	C408.267517,917.007446 396.497833,942.392578 384.733978,967.779968 
	C384.001801,969.360107 383.733154,971.362122 381.535370,972.297424 
	C378.853729,969.686401 377.951172,966.060364 376.452911,962.836914 
	C360.516724,928.551392 344.628723,894.243286 328.800018,859.907959 
	C302.302521,802.429932 275.868347,744.922791 249.387619,687.437012 
	C227.715485,640.389954 205.963135,593.379883 184.339478,546.310608 
	C158.890366,490.914154 134.559265,435.019012 110.069016,379.195892 
	C100.435265,357.236725 91.026497,335.178619 81.571625,313.141388 
	C80.605331,310.889221 79.075439,309.355896 77.145111,307.924469 
	C57.532139,293.380341 40.108707,276.753143 29.211592,254.485336 
	C10.718755,216.696030 13.938283,180.310898 37.590904,145.778854 
	C53.954399,121.888710 76.513046,104.842094 101.170898,90.444939 
	C143.635727,65.650688 189.777176,50.782162 237.641556,40.759155 
	C279.778748,31.935440 322.345886,27.349670 365.430206,26.472427 
	C436.383881,25.027733 506.015717,33.065845 573.993225,53.723923 
	C612.290527,65.362312 648.707031,81.209938 681.395081,104.739822 
	C700.921570,118.795570 718.023254,135.184509 729.934021,156.417786 
	C750.520325,193.116989 748.086670,229.019882 726.079163,264.173676 
	C715.592590,280.924561 701.565186,294.384766 686.049316,306.376373 
	C683.574524,308.289093 681.873657,310.502747 680.639282,313.339691 
	C666.221558,346.476624 651.737915,379.584839 637.118774,413.046936 
M513.963379,638.518860 
	C562.557251,532.558411 611.462402,426.737518 657.376831,319.329590 
	C570.979858,365.404968 478.516327,385.877075 381.666046,386.670502 
	C284.911713,387.463165 192.172943,368.890137 105.624298,323.110199 
	C194.030670,524.712097 290.045197,722.392029 381.174988,922.667236 
	C383.720367,920.795654 384.024628,919.069397 384.708191,917.599304 
	C407.041016,869.570557 429.385651,821.547241 451.644470,773.484192 
	C472.362915,728.747314 492.985596,683.966064 513.963379,638.518860 
M718.624146,237.131638 
	C723.325134,226.122498 726.367920,214.685745 725.405518,202.669250 
	C723.969727,184.742401 717.001953,168.865387 706.122925,154.648453 
	C688.962097,132.222366 666.629761,116.119003 642.132080,102.794037 
	C599.877136,79.810455 554.493286,65.965012 507.446930,56.941406 
	C454.022400,46.694450 400.188751,43.277481 345.877594,46.018112 
	C307.866669,47.936203 270.300476,52.870136 233.195938,61.254131 
	C193.067047,70.321495 154.190155,82.938049 118.106598,103.121284 
	C95.137077,115.969215 73.722244,130.860321 57.182384,151.759949 
	C31.169289,184.629868 29.058105,219.298553 51.144581,252.441879 
	C66.259766,275.123993 87.630905,290.497864 111.233940,303.217194 
	C113.882767,304.644592 115.657364,303.413696 117.673553,302.306274 
	C133.006241,293.884308 148.348312,285.479218 163.656311,277.012604 
	C171.899887,272.453217 180.082123,267.783020 188.153519,263.240753 
	C187.466187,260.930664 185.995590,260.303894 184.856445,259.381287 
	C153.311737,233.833572 151.341141,196.740204 180.109207,168.306732 
	C194.446167,154.136505 211.742172,144.480286 230.069870,136.653351 
	C274.634338,117.621872 321.578186,109.797409 369.677429,107.952911 
	C395.036224,106.980461 420.259338,109.013840 445.361084,112.654472 
	C484.246185,118.294174 521.652771,128.624847 555.906677,148.416519 
	C571.448242,157.396347 585.618408,168.207306 595.298340,183.820251 
	C601.699402,194.144547 605.072205,205.257797 603.727722,217.565521 
	C601.832947,234.910858 592.352600,247.772812 579.640625,258.780914 
	C578.197510,260.030609 576.137146,260.789246 575.795044,262.966675 
	C575.961853,263.224884 576.017456,263.418335 576.142456,263.489258 
	C599.180725,276.551971 622.227600,289.599518 645.258301,302.675476 
	C646.744995,303.519562 648.038940,303.315826 649.493225,302.613586 
	C679.245850,288.246674 703.797791,268.365448 718.624146,237.131638 
M291.673309,176.188889 
	C278.493866,186.072357 267.047058,197.607361 258.203796,211.578476 
	C248.076080,227.578903 241.193573,244.708664 240.115082,263.867065 
	C239.938293,267.007263 240.848862,268.851410 244.024963,269.752228 
	C248.023148,270.886261 251.881287,272.504486 255.854797,273.736542 
	C287.329376,283.495544 319.533478,289.127533 352.432220,291.016571 
	C390.159088,293.182831 427.634583,291.442627 464.822174,284.490173 
	C482.690552,281.149536 500.225616,276.560394 517.384766,270.556427 
	C520.037476,269.628204 522.581116,268.990540 522.343750,264.921204 
	C521.666565,253.314651 519.217163,242.180481 514.647644,231.520340 
	C497.400970,191.285645 465.920868,167.169174 425.662689,152.976425 
	C422.239197,151.769531 421.037628,152.946152 420.108704,156.268890 
	C415.089752,174.221375 399.605011,186.147675 381.585876,186.242447 
	C363.597107,186.337067 348.049469,174.451065 342.778809,156.599350 
	C342.324371,155.060135 342.405670,153.267563 340.940186,152.182404 
	C329.889771,153.796204 309.206970,163.818924 291.673309,176.188889 
M518.799805,351.205261 
	C555.550842,342.534454 591.039307,330.368134 626.260071,313.292694 
	C602.851562,300.125580 580.795227,287.745209 558.779541,275.292938 
	C556.691040,274.111664 555.024841,274.746674 553.164551,275.634918 
	C530.224854,286.587891 506.220337,294.348602 481.436890,299.913391 
	C446.996338,307.646606 412.082214,310.986023 376.875641,310.777893 
	C357.589752,310.663910 338.331604,309.147308 319.162140,306.473755 
	C281.850494,301.269928 245.665497,292.220001 211.443298,276.192139 
	C207.987183,274.573456 205.436142,274.768524 202.218430,276.575256 
	C181.164291,288.396790 160.000610,300.023102 138.904449,311.770172 
	C137.428207,312.592255 135.377396,312.992737 135.030121,315.525909 
	C149.856934,322.735168 164.976120,329.237396 180.494919,334.810547 
	C229.858932,352.538330 280.807678,362.322083 333.077454,366.086426 
	C365.397156,368.414001 397.657623,368.094299 429.872559,365.475220 
	C459.572235,363.060669 488.983612,358.353516 518.799805,351.205261 
M556.240479,252.729828 
	C563.599731,248.072403 570.553589,242.873810 576.016479,236.035568 
	C583.005981,227.286484 587.470825,217.655350 584.656067,206.036896 
	C581.266724,192.046585 571.579407,182.691635 560.742432,174.399216 
	C544.025940,161.607880 525.049194,153.161194 505.303986,146.220627 
	C478.118530,136.664734 449.925934,131.995544 421.465485,128.554031 
	C420.366699,128.421158 419.060822,128.160828 418.401886,130.603104 
	C482.778564,151.368332 530.192383,188.723465 541.497559,260.400146 
	C546.740112,258.928772 551.044312,255.737061 556.240479,252.729828 
M247.857574,193.410614 
	C255.076614,183.758575 263.283539,175.027512 272.607147,167.396820 
	C292.754181,150.907944 315.514221,139.456848 340.551941,132.439850 
	C342.140747,131.994568 344.153076,131.713882 344.114258,128.917282 
	C333.870148,129.492233 323.976746,130.739761 314.141724,132.340714 
	C282.915558,137.423706 252.604385,145.584198 224.336655,160.172943 
	C209.420776,167.870880 195.491257,176.998932 185.723923,191.109131 
	C178.591232,201.413254 175.790787,212.568726 181.175140,224.601685 
	C188.957550,241.993774 203.984970,251.362808 220.202347,259.331207 
	C220.402740,259.429688 220.797775,259.132019 221.513489,258.866669 
	C224.203278,235.037567 233.218567,213.461700 247.857574,193.410614 
M402.788239,146.497238 
	C402.122498,131.651932 388.706360,121.681480 375.158234,125.963432 
	C364.629761,129.291016 358.403259,139.697418 360.396667,150.634613 
	C362.264374,160.882324 372.146637,168.311523 383.086548,167.692169 
	C393.507263,167.102219 402.056366,158.273361 402.788239,146.497238 
z"/>
</svg>