<svg version="1.1" id="Layer_1" xmlns="http://www.w3.org/2000/svg" xmlns:xlink="http://www.w3.org/1999/xlink" x="0px" y="0px"
	 width="100%" viewBox="0 0 736 1024" enable-background="new 0 0 736 1024" xml:space="preserve">
<path fill="#000000" opacity="1.000000" stroke="none" 
	d="
M737.000000,250.531342 
	C735.281433,255.497513 733.659607,260.034882 731.826782,264.485352 
	C725.321228,280.282501 715.353882,293.758667 703.540283,305.919525 
	C701.139343,308.391083 700.185364,310.926239 700.153687,314.329010 
	C699.871582,344.651886 699.454712,374.973541 699.057983,405.295319 
	C698.377930,457.274963 697.682800,509.254364 696.995667,561.233887 
	C696.341553,610.714233 695.992554,660.201172 694.904846,709.671997 
	C694.384644,733.332581 694.794312,756.997314 694.029297,780.643860 
	C693.113159,808.963013 693.459412,837.291931 692.970154,865.612793 
	C692.423279,897.261536 691.863708,928.910034 691.291199,960.558350 
	C691.259216,962.327332 691.663818,964.252075 688.927979,966.697937 
	C668.169983,931.967468 648.221680,897.208557 628.033142,862.596252 
	C607.720215,827.770752 587.486450,792.898926 567.290771,758.005249 
	C547.105957,723.130127 527.011414,688.202698 506.073669,651.905151 
	C464.184967,756.181824 422.756134,859.313721 381.327301,962.445679 
	C380.769470,962.471924 380.211639,962.498169 379.653809,962.524475 
	C338.188141,859.713501 296.722504,756.902527 254.815277,652.996765 
	C194.178635,759.067810 134.473679,864.123840 73.854507,968.649536 
	C73.232643,968.432068 72.610786,968.214539 71.988930,967.997070 
	C71.668839,962.441528 71.215584,956.889648 71.061592,951.329529 
	C70.858612,944.000854 70.901985,936.665588 70.819695,929.333313 
	C70.423256,894.012024 70.085732,858.689880 69.602875,823.369751 
	C68.999344,779.222717 68.410568,735.074707 67.564781,690.932007 
	C66.655106,643.454407 66.187645,595.971985 65.502914,548.492310 
	C64.827812,501.679749 64.480057,454.858734 63.436131,408.057037 
	C62.800789,379.572906 63.285488,351.076416 62.122723,322.601318 
	C61.944649,318.240417 60.624805,315.257690 57.343441,312.340546 
	C35.969395,293.338898 19.697723,270.847351 12.781091,242.702057 
	C4.230677,207.908554 14.167651,177.170624 35.225971,149.451920 
	C56.045033,122.048164 83.690559,103.041107 113.828529,87.392258 
	C156.614044,65.176277 202.306351,51.591755 249.497589,42.781567 
	C281.264252,36.851013 313.336578,33.719685 345.660034,32.485771 
	C371.846802,31.486113 397.999756,31.679085 424.043182,33.891674 
	C496.762695,40.069767 567.174438,55.592949 632.765137,88.858124 
	C662.888550,104.135605 690.116455,123.438644 711.542603,150.021332 
	C722.950500,164.174728 731.413757,179.942688 736.800354,197.707031 
	C737.000000,215.354233 737.000000,232.708450 737.000000,250.531342 
M536.515137,649.053223 
	C579.014587,722.841492 621.514099,796.629761 664.013550,870.418030 
	C664.462646,870.304749 664.911743,870.191467 665.360840,870.078186 
	C667.570923,691.490417 669.781006,512.902649 671.991028,334.316040 
	C669.099854,334.181732 667.952942,335.559174 666.590210,336.421204 
	C647.687073,348.379120 628.061279,358.958771 607.259277,367.239258 
	C546.310852,391.500549 482.717499,402.975372 417.458588,406.367126 
	C412.729431,406.612915 408.014099,407.123505 403.418945,407.500610 
	C444.128906,490.137207 490.673065,568.982300 536.515137,649.053223 
M114.651649,843.173401 
	C143.398254,792.631226 172.167892,742.102173 200.884018,691.542786 
	C222.933472,652.721191 244.632904,613.697693 267.014069,575.068787 
	C285.976532,542.340332 303.550629,508.840698 322.654968,476.198792 
	C326.607361,469.445618 332.118744,463.112244 334.095734,455.821777 
	C336.501831,446.949158 340.414001,439.095459 344.620026,431.198334 
	C348.729584,423.482269 352.951324,415.825928 357.412109,407.612610 
	C263.356323,402.821686 172.962936,387.394745 91.222458,338.440125 
	C90.028931,340.519257 90.306114,342.211792 90.335754,343.818207 
	C90.495575,352.478729 90.785042,361.137146 90.907753,369.798004 
	C91.648964,422.112854 92.307625,474.428925 93.097702,526.743042 
	C93.470093,551.400452 93.366859,576.058167 93.878311,600.719604 
	C94.952774,652.527771 95.320686,704.350525 95.968407,756.167419 
	C96.426613,792.823792 96.865082,829.480408 97.325554,866.136719 
	C97.348389,867.954712 97.497353,869.771179 97.645256,872.749329 
	C103.664192,862.278076 108.972969,853.042297 114.651649,843.173401 
M461.435852,689.029236 
	C469.140045,669.872864 476.497253,650.565735 484.722229,631.635620 
	C487.934601,624.242126 487.336914,618.522705 483.285950,611.687439 
	C456.707733,566.841370 432.511475,520.627869 405.661774,475.931366 
	C397.233795,461.901337 392.357880,446.109070 383.860443,432.119568 
	C382.775330,430.333130 382.236877,428.111725 380.207001,427.005493 
	C378.747894,427.647949 378.454254,429.065399 377.788300,430.160370 
	C370.318176,442.442963 365.221985,455.852692 359.299774,468.880157 
	C353.224213,482.244873 344.982758,494.439117 337.709229,507.158997 
	C316.376648,544.465271 295.359497,581.951782 274.103027,619.301819 
	C272.583191,621.972412 272.722198,624.101868 273.801178,626.763794 
	C284.747131,653.768982 295.625275,680.801758 306.469330,707.848022 
	C327.537750,760.395142 348.565186,812.958618 369.627563,865.508179 
	C372.995209,873.910217 376.455841,882.275085 380.306580,891.719238 
	C407.564606,823.575562 434.335327,756.650208 461.435852,689.029236 
M446.966156,379.424866 
	C456.197998,378.220673 465.433167,377.041199 474.661133,375.808014 
	C518.093201,370.004120 560.193726,359.162994 600.715149,342.386993 
	C603.528870,341.222076 606.223938,339.770477 609.594238,338.154968 
	C588.809937,325.905518 568.855591,314.189545 548.964417,302.367279 
	C546.409668,300.848877 544.287231,301.514130 541.910767,302.533630 
	C496.447113,322.037262 448.515198,329.995087 399.497955,332.097412 
	C364.846344,333.583557 330.258759,331.987366 295.956451,326.325073 
	C260.651001,320.497192 226.288483,311.572510 194.368835,294.846161 
	C191.344116,293.261200 188.934219,293.370117 186.021393,295.033234 
	C168.375580,305.108429 150.635788,315.018890 132.969421,325.058319 
	C131.215744,326.054901 129.069824,326.778656 127.950768,329.131348 
	C140.087387,335.718201 152.330124,341.332367 164.888046,346.227875 
	C228.981583,371.213684 295.976105,380.495270 364.232147,382.623840 
	C391.558746,383.476013 418.824097,381.660217 446.966156,379.424866 
M360.528290,57.374985 
	C334.734375,58.050327 309.024933,59.638123 283.429993,63.177273 
	C244.573425,68.550171 206.524902,77.102875 169.712143,90.803368 
	C166.357834,92.051735 162.939667,93.278381 160.143906,95.818710 
	C160.663986,96.454414 160.915115,96.903503 161.288452,97.197350 
	C179.741165,111.721306 198.237869,126.189735 216.631210,140.788406 
	C219.471375,143.042618 222.053162,142.473831 225.002167,141.432190 
	C257.041412,130.115540 290.168671,123.805794 323.915802,120.903816 
	C353.295013,118.377449 382.707581,118.215202 412.185760,120.481911 
	C444.859467,122.994339 476.808380,128.858353 508.101471,138.414749 
	C511.622314,139.489944 513.848389,138.966324 516.344604,136.238022 
	C530.284058,121.002602 544.407959,105.936111 558.454468,90.798500 
	C559.331360,89.853485 560.472473,88.985977 559.980286,86.520943 
	C495.748535,65.404175 429.321045,56.846897 360.528290,57.374985 
M478.764832,296.134521 
	C484.724945,294.587708 490.734894,293.209534 496.636444,291.464630 
	C520.902710,284.289764 544.258606,275.068207 564.329346,259.187042 
	C573.468872,251.955261 581.081421,243.414871 583.021423,231.195282 
	C584.087891,224.477844 582.937012,222.841614 576.072815,222.414185 
	C567.930786,221.907181 559.767639,221.701294 551.635376,221.080704 
	C517.619385,218.484879 483.542145,216.870087 449.564423,213.546204 
	C419.743408,210.628952 391.709137,202.848526 365.816132,187.741852 
	C345.381836,175.819946 325.045990,163.728912 304.703003,151.651382 
	C302.025299,150.061630 299.545868,149.212784 296.258911,149.951874 
	C288.475494,151.701981 280.513580,152.668427 272.745483,154.474838 
	C244.389236,161.068848 216.878510,169.890457 192.321732,186.166534 
	C187.078796,189.641495 182.280609,193.612991 177.182816,198.726883 
	C187.119324,200.940521 196.204895,201.593399 205.213867,202.694107 
	C226.515610,205.296738 247.818115,207.900391 269.141571,210.315903 
	C289.139313,212.581238 309.164886,214.600632 329.177246,216.737122 
	C345.210510,218.448822 361.373352,219.149002 377.077759,223.338760 
	C393.342438,227.677994 403.379700,238.889496 405.318512,255.678406 
	C407.021179,270.422668 406.659454,285.271423 407.119690,300.077911 
	C407.180054,302.019531 406.622040,304.085144 408.175323,306.208038 
	C431.653503,305.239075 454.918091,301.580200 478.764832,296.134521 
M648.080872,128.433289 
	C631.629883,116.915283 613.610535,108.302513 595.488831,99.846146 
	C591.358154,97.918564 588.589661,98.455322 585.503418,101.901619 
	C575.395630,113.188728 564.878784,124.109154 554.745483,135.374054 
	C550.441895,140.158142 545.540222,144.474655 541.742859,150.500717 
	C545.372253,152.339966 548.758789,154.023590 552.116333,155.763382 
	C566.083008,163.000549 579.273438,171.388275 590.368164,182.665466 
	C602.393250,194.888336 610.972473,208.993378 611.202148,226.682724 
	C611.484985,248.461853 600.084839,264.426788 584.278931,277.886780 
	C581.276184,280.443848 578.003052,282.683472 574.791382,285.117645 
	C575.337585,285.848053 575.542297,286.367310 575.921753,286.593994 
	C595.791931,298.463196 615.699463,310.270233 635.530518,322.204315 
	C637.874878,323.615082 639.494202,322.839783 641.425964,321.653625 
	C660.438232,309.979218 677.601318,296.211700 691.593811,278.633484 
	C716.574524,247.251144 718.622192,209.810883 696.844299,176.102341 
	C684.342407,156.751480 667.626160,141.647369 648.080872,128.433289 
M49.114685,260.423950 
	C60.663956,281.105530 77.649658,296.625763 96.474510,310.424988 
	C99.282372,312.483276 101.678986,311.673584 104.307648,310.184296 
	C120.675392,300.911194 137.117874,291.768860 153.426819,282.393951 
	C156.936371,280.376556 161.012436,279.029755 163.867691,275.315491 
	C160.673126,271.969635 157.553909,268.784973 154.524750,265.516815 
	C133.622055,242.965012 132.176926,212.886139 150.809738,188.529694 
	C160.076874,176.415878 172.089935,167.568207 184.954437,159.699554 
	C186.824738,158.555573 189.356186,158.044235 190.242813,155.416962 
	C189.776550,154.880356 189.414261,154.302032 188.909225,153.905441 
	C170.184097,139.200775 151.433090,124.528969 132.730209,109.796097 
	C130.998978,108.432358 129.481827,108.556053 127.697525,109.484566 
	C101.612350,123.058456 77.906334,139.683884 59.192188,162.740250 
	C34.428555,193.249756 30.766396,227.319916 49.114685,260.423950 
M378.825226,300.357056 
	C378.461334,287.207977 379.058624,274.037506 377.781586,260.906799 
	C377.007385,252.946579 374.200378,249.337555 366.454041,247.073761 
	C357.455231,244.443939 348.145111,243.801941 338.890045,242.790634 
	C316.246979,240.316422 293.604767,237.833145 270.970123,235.283142 
	C251.970337,233.142624 232.977524,230.938644 213.989594,228.695114 
	C199.459183,226.978287 184.949341,225.085098 170.413177,223.420319 
	C165.590088,222.867935 164.752106,223.974808 165.616592,228.727097 
	C167.193985,237.398621 171.622543,244.560974 177.656998,250.757645 
	C191.671951,265.149353 209.110016,274.216797 227.397278,281.633545 
	C273.898102,300.492767 322.782532,306.395905 372.483521,307.736877 
	C377.526184,307.872955 379.726624,306.432556 378.825226,300.357056 
M490.376831,191.832840 
	C515.067566,194.169693 539.810547,195.520279 565.334534,196.771744 
	C563.232422,193.373352 560.879517,192.020233 558.774841,190.447205 
	C538.131042,175.017807 514.413879,166.282425 489.938171,159.441544 
	C444.981018,146.876160 399.038452,142.818176 352.508423,144.354202 
	C350.961548,144.405258 349.242035,144.226517 348.073456,146.124756 
	C351.717194,148.343613 355.075867,150.483490 358.522186,152.471466 
	C375.679291,162.368439 392.389282,173.196899 411.261810,179.701904 
	C436.567566,188.424316 463.075867,189.731934 490.376831,191.832840 
z"/>
</svg>