<svg version="1.1" id="Layer_1" xmlns="http://www.w3.org/2000/svg" xmlns:xlink="http://www.w3.org/1999/xlink" x="0px" y="0px"
	 width="100%" viewBox="0 0 880 1024" enable-background="new 0 0 880 1024" xml:space="preserve">
<path fill="#000000" opacity="1.000000" stroke="none" 
	d="
M658.003967,100.862534 
	C687.387268,112.672905 715.077942,126.822647 740.122131,145.727325 
	C760.932495,161.436157 779.284241,179.482239 791.250244,203.058990 
	C809.358521,238.737808 807.380554,273.637451 786.518616,307.600372 
	C782.060364,314.858276 777.098572,321.790497 770.997253,327.752625 
	C768.001831,330.679626 766.970093,333.796509 766.944763,337.932343 
	C765.884155,511.419434 766.609619,684.908142 766.406128,858.395813 
	C766.363159,895.058044 766.405945,931.720459 766.358398,968.382690 
	C766.356384,969.924988 767.093140,971.688354 765.250244,973.438171 
	C700.346008,867.786255 635.541748,762.296997 570.005371,655.615967 
	C528.223206,761.416199 486.926208,865.987793 445.629211,970.559448 
	C445.136108,970.611755 444.643005,970.664124 444.149902,970.716431 
	C401.312042,865.909302 358.474152,761.102112 315.033081,654.819153 
	C251.134155,761.814453 188.635117,868.106445 124.387062,973.742188 
	C122.157745,971.518616 122.782333,969.767456 122.782028,968.202515 
	C122.742180,762.044312 122.721626,555.886169 122.801735,349.727997 
	C122.803185,345.983978 121.625366,343.638702 118.725281,341.352539 
	C101.563515,327.823364 86.773880,312.115295 75.799332,293.078644 
	C65.958267,276.008148 60.275013,257.652344 60.797688,237.865356 
	C61.502605,211.179138 71.826775,188.027008 88.701675,167.730896 
	C113.017052,138.485870 144.412704,118.937759 178.520142,103.325989 
	C217.381714,85.538116 258.198761,74.115608 300.303162,67.389603 
	C331.201111,62.453789 362.292419,59.453178 393.637054,58.433903 
	C419.001404,57.609104 444.290680,58.175850 469.518524,59.977318 
	C511.741150,62.992340 553.526550,69.172081 594.526306,80.096870 
	C615.957092,85.807320 637.007385,92.619057 658.003967,100.862534 
M738.654785,656.500061 
	C738.654785,556.936401 738.654785,457.372772 738.654785,356.805939 
	C730.208923,361.965973 723.090942,366.539459 715.765869,370.753021 
	C673.101929,395.294189 626.664307,409.373688 578.829956,419.161591 
	C543.560669,426.378448 507.856750,430.583038 471.811340,431.413483 
	C469.865845,431.458313 467.934967,431.578094 465.909973,433.011993 
	C556.641479,580.424622 647.215759,727.581726 737.789978,874.738831 
	C738.078125,874.633362 738.366211,874.527954 738.654358,874.422485 
	C738.654358,802.115051 738.654358,729.807556 738.654785,656.500061 
M290.709564,640.257751 
	C331.759247,571.040710 372.808960,501.823730 414.250885,431.945343 
	C321.366333,427.276978 233.161133,409.703033 151.700607,364.724731 
	C151.700607,534.695740 151.700607,703.932800 151.700607,874.549316 
	C198.395584,795.858398 244.372711,718.377258 290.709564,640.257751 
M507.577728,737.161255 
	C521.682922,701.547546 535.751892,665.919373 549.959839,630.346741 
	C551.136353,627.401123 550.990417,625.247498 549.307434,622.523865 
	C513.574524,564.695801 477.946533,506.802887 442.277008,448.935608 
	C441.547333,447.751923 441.200348,446.033569 438.820282,446.082733 
	C434.184509,453.932220 429.462677,461.945923 424.723297,469.949280 
	C394.926758,520.266357 365.147797,570.593933 335.274719,620.865601 
	C333.464630,623.911682 333.374756,626.432312 334.737762,629.703491 
	C346.011719,656.760620 357.114746,683.889038 368.242126,711.007202 
	C392.709503,770.635925 417.158661,830.272156 441.628845,889.899719 
	C442.405487,891.792297 443.331329,893.623657 444.552216,896.275513 
	C465.720215,842.821045 486.500458,790.345581 507.577728,737.161255 
M291.264160,334.398590 
	C276.643982,329.702698 262.439423,323.960297 248.808258,316.904297 
	C245.520950,315.202606 243.026474,315.469086 240.039749,317.259247 
	C222.891846,327.537415 205.672104,337.695679 188.494019,347.923615 
	C187.594376,348.459229 186.175110,348.659363 186.384766,350.451721 
	C187.477966,351.042145 188.624725,351.707458 189.810104,352.294891 
	C207.011246,360.819122 224.863876,367.750946 243.083313,373.719513 
	C301.100861,392.725708 360.798553,401.948273 421.700256,403.549408 
	C461.030609,404.583435 500.206116,402.622253 539.223389,396.910553 
	C582.913269,390.514801 625.401428,379.913971 666.379456,363.416290 
	C667.927429,362.793121 670.012207,362.704834 670.754822,360.276855 
	C654.745300,351.657837 638.358337,343.732880 622.950317,334.221924 
	C612.841064,327.981781 604.466309,327.530609 593.168213,331.904144 
	C558.500488,345.323975 522.061462,351.380096 485.048920,354.457642 
	C450.061981,357.366760 415.155212,356.861084 380.327057,353.028137 
	C350.343597,349.728333 320.774780,344.065460 291.264160,334.398590 
M606.879150,174.795853 
	C609.697754,176.234909 612.561768,177.592133 615.327576,179.126358 
	C632.625854,188.721893 648.899841,199.677704 661.160767,215.550003 
	C669.831421,226.774612 675.349304,239.401474 674.612061,253.856735 
	C673.686035,272.014038 664.951050,286.443390 651.702332,298.381226 
	C647.427307,302.233185 642.979248,305.893005 638.535339,309.705078 
	C639.096313,310.332245 639.347473,310.809570 639.741760,311.025726 
	C660.041016,322.152740 680.357483,333.248260 700.653076,344.381836 
	C702.338562,345.306396 703.719360,345.031433 705.300232,344.094421 
	C724.796387,332.538361 742.743835,319.079895 756.427673,300.764374 
	C770.984009,281.281097 778.361267,259.852936 772.727173,235.208847 
	C768.208191,215.442352 756.897888,199.802383 742.897644,185.864883 
	C718.403564,161.480637 688.723328,145.176224 657.372375,131.525009 
	C654.585815,130.311646 652.770752,131.310394 650.678467,133.043335 
	C639.521606,142.283768 628.253967,151.390259 617.046143,160.569351 
	C612.350403,164.415085 607.707703,168.325500 602.688782,172.499283 
	C604.271973,173.404129 605.261414,173.969666 606.879150,174.795853 
M280.306519,158.663300 
	C318.677277,145.873718 358.213226,139.759995 398.529175,138.786072 
	C417.662079,138.323853 436.808105,138.450089 455.972351,139.486664 
	C494.431610,141.566910 531.980408,148.227051 568.683411,159.768631 
	C571.258179,160.578278 572.944214,160.200912 574.971558,158.523346 
	C589.343811,146.630737 603.835327,134.882294 618.225525,123.011253 
	C619.644104,121.841034 621.735046,121.043045 621.957031,118.102303 
	C556.952759,96.404182 489.964844,86.985832 421.704163,86.553993 
	C353.580994,86.123001 286.573639,93.975716 220.727051,117.218315 
	C239.106949,131.485748 256.331146,144.839478 273.528046,158.228256 
	C275.467255,159.738052 277.417725,159.942886 280.306519,158.663300 
M156.638702,333.451233 
	C157.419952,333.204498 158.285660,333.099182 158.970093,332.690369 
	C177.552917,321.590942 196.121719,310.467957 214.673279,299.316345 
	C215.763626,298.660950 217.138474,298.156311 217.427338,295.594788 
	C215.063232,293.426392 212.102295,290.998932 209.472763,288.253998 
	C184.038712,261.703705 183.465347,227.401672 207.906128,201.379166 
	C216.760941,191.951309 226.877274,184.180008 238.087021,177.767853 
	C240.580322,176.341644 243.445953,175.342178 245.450439,172.624496 
	C243.801315,171.274658 242.421783,170.092636 240.988174,168.980316 
	C227.699677,158.670135 214.304855,148.494049 201.136932,138.032303 
	C190.269363,129.398163 190.295792,129.070023 178.098877,135.237732 
	C152.642258,148.110611 128.954834,163.473557 110.854477,186.030197 
	C85.403854,217.746719 82.535988,250.514648 103.842033,283.796509 
	C117.113724,304.528015 135.401123,320.139526 156.638702,333.451233 
M344.057800,172.702057 
	C315.067932,177.124298 287.137054,184.916626 260.338928,198.116898 
	C263.255066,201.242920 266.285431,202.251587 269.128754,203.542465 
	C318.353882,225.890411 370.625763,233.704453 424.052460,235.588516 
	C450.032501,236.504700 475.956512,235.004715 501.768158,231.762085 
	C535.104919,227.574112 567.709351,220.571625 598.574219,206.815567 
	C599.676270,206.324417 601.242615,206.346848 601.578796,204.503433 
	C593.818359,200.260269 585.828003,196.542267 577.633789,193.274109 
	C535.381531,176.422302 491.096466,169.541916 446.009796,167.474030 
	C412.208191,165.923737 378.423462,167.018112 344.057800,172.702057 
M632.600891,277.100830 
	C635.554443,274.153717 638.276489,271.018555 640.551392,267.505157 
	C647.430420,256.881104 647.382263,246.200287 640.177795,235.739853 
	C638.012451,232.595978 635.311340,229.825089 633.073547,226.725967 
	C630.875977,223.682404 628.683716,223.645966 625.470825,225.387680 
	C607.691406,235.025635 588.864075,242.070374 569.413452,247.519089 
	C529.419556,258.722595 488.503876,263.190979 447.126068,264.084991 
	C442.617981,264.182373 441.071289,265.394867 441.136658,270.039307 
	C441.380432,287.352966 441.393036,304.674286 441.141693,321.987640 
	C441.072601,326.746429 442.789001,327.930817 447.227417,327.836548 
	C459.872986,327.567932 472.486908,327.043121 485.089081,325.874298 
	C517.144653,322.901215 548.695312,317.529938 579.174377,306.812775 
	C598.451843,300.034363 616.902527,291.766449 632.600891,277.100830 
M254.933868,287.541046 
	C265.880463,293.573029 277.063843,299.105621 288.816284,303.410492 
	C311.695312,311.791077 335.209686,317.751709 359.263336,321.540070 
	C375.354065,324.074341 391.483856,326.353363 407.802826,326.897095 
	C410.591217,326.989990 412.748901,326.807251 412.738220,323.126892 
	C412.684082,304.476196 412.711731,285.825165 412.766693,267.174408 
	C412.774780,264.436707 411.635712,263.428223 408.895752,263.260376 
	C401.261017,262.792664 393.647339,261.993896 386.017731,261.428192 
	C354.854065,259.117584 324.426239,252.840591 294.599945,243.782242 
	C274.490936,237.675049 255.201889,229.430389 237.071075,218.659744 
	C235.277985,217.594559 233.680862,216.056793 231.400970,218.306183 
	C218.291428,231.240311 214.117691,247.310593 226.250961,263.456848 
	C233.821564,273.531372 243.807510,280.619843 254.933868,287.541046 
z"/>
</svg>