<svg version="1.1" id="Layer_1" xmlns="http://www.w3.org/2000/svg" xmlns:xlink="http://www.w3.org/1999/xlink" x="0px" y="0px"
	 width="100%" viewBox="0 0 800 1024" enable-background="new 0 0 800 1024" xml:space="preserve">
<path fill="#000000" opacity="1.000000" stroke="none" 
	d="
M158.172653,460.745026 
	C140.612320,423.309998 123.192047,386.222778 105.872093,349.088745 
	C104.608185,346.378937 102.747574,344.522705 100.455605,342.765839 
	C80.371063,327.370514 61.889484,310.421906 48.720299,288.442963 
	C23.651510,246.603973 25.274546,205.285660 51.526470,164.666656 
	C69.695816,136.553650 95.345711,116.547653 123.620316,99.606636 
	C168.016815,73.006042 216.446762,57.216064 266.811737,46.719109 
	C290.121399,41.860962 313.632538,38.082443 337.330231,36.046478 
	C368.354523,33.381050 399.430206,32.047455 430.636932,33.500179 
	C471.143860,35.385838 511.235809,40.012577 550.842102,48.690235 
	C595.822327,58.545303 639.133911,73.010078 679.264221,96.011208 
	C706.961487,111.886215 732.117920,130.846420 751.382935,156.753754 
	C767.844788,178.891495 777.598083,203.407043 777.215149,231.348083 
	C776.846069,258.281433 766.401306,281.476715 750.256287,302.469269 
	C737.639832,318.873871 722.213074,332.301300 705.427917,344.194122 
	C700.786987,347.482361 697.600159,351.271729 695.164856,356.520477 
	C673.573486,403.056396 651.673096,449.449005 629.845581,495.875275 
	C599.939087,559.484924 569.980835,623.070190 540.112549,686.697876 
	C517.393005,735.096741 494.716370,783.515991 472.137054,831.980408 
	C452.441681,874.254700 432.878052,916.590515 413.346954,958.940979 
	C411.116669,963.777100 408.415070,967.925354 402.595734,967.963379 
	C396.651276,968.002319 393.555542,964.054443 391.222900,958.982056 
	C368.466156,909.496704 345.732330,860.000183 322.755463,810.616882 
	C298.653259,758.814880 274.357178,707.102783 250.027084,655.407288 
	C219.527039,590.602234 188.906128,525.854004 158.172653,460.745026 
M461.048615,426.749786 
	C348.462311,435.835663 240.320419,420.550446 138.615906,368.034393 
	C226.169006,555.478882 315.611572,741.889648 402.231628,931.093445 
	C488.912048,742.610962 577.279846,556.597168 665.656372,369.070770 
	C600.963074,403.175903 532.934570,420.166962 461.048615,426.749786 
M157.121262,105.725624 
	C148.607758,109.940239 140.265396,114.465332 132.156616,119.419342 
	C106.281586,135.227493 83.077774,153.936111 67.053459,180.239532 
	C49.194126,209.555038 47.154137,239.560333 63.229168,270.451691 
	C76.140648,295.263641 96.075562,313.383057 118.216820,329.529724 
	C120.133499,330.927521 122.270660,330.861511 124.434288,330.843384 
	C143.824646,330.680786 160.254349,322.785461 175.217743,311.221436 
	C182.566956,305.541870 189.669861,299.558716 195.991348,291.795837 
	C190.646713,287.370422 185.620590,283.037811 181.240891,278.067871 
	C170.748978,266.162079 163.285461,252.916077 162.637375,236.550232 
	C161.879089,217.401566 170.170761,202.018814 182.792160,188.648499 
	C198.914322,171.569733 219.164230,160.651077 240.603470,151.962097 
	C285.251770,133.866821 332.085785,125.982002 379.943024,123.946030 
	C406.569489,122.813263 433.212402,123.419937 459.774109,126.537567 
	C498.160736,131.043121 535.665833,139.022552 571.500977,153.790146 
	C593.265625,162.759308 613.419922,174.331680 629.123108,192.380692 
	C642.114197,207.312424 648.745056,224.368378 645.229736,244.398285 
	C642.594177,259.415680 634.604248,271.523254 623.904602,282.035492 
	C621.453369,284.443817 619.008118,286.858307 616.506042,289.323273 
	C622.196899,297.018372 628.919495,303.218079 635.925171,309.125244 
	C648.906677,320.071198 663.387451,327.817505 680.449402,330.298340 
	C684.679321,330.913452 688.155823,330.346832 691.684509,327.827942 
	C707.499390,316.538788 721.999268,303.901764 733.987000,288.487793 
	C759.345398,255.881760 762.861816,218.586502 743.499695,183.829529 
	C732.100220,163.366425 715.947632,147.158401 697.223694,133.377457 
	C672.491577,115.174438 645.408569,101.306671 616.760620,90.494598 
	C551.667542,65.927711 483.862610,56.079147 414.707977,54.500900 
	C374.684967,53.587494 334.853729,56.745499 295.329437,63.320766 
	C247.620682,71.257607 201.408615,84.092056 157.121262,105.725624 
M561.556824,253.924210 
	C520.649109,207.650360 470.855988,174.422440 413.170380,152.738068 
	C409.840881,151.486496 406.896454,151.546463 403.556732,152.737793 
	C387.506439,158.463211 372.129547,165.651886 357.144318,173.703796 
	C306.319244,201.013184 265.728607,240.069611 229.967850,284.653381 
	C229.359192,285.412201 228.598145,286.159760 229.260773,287.992310 
	C234.470169,290.496674 240.081863,293.386597 245.845337,295.933014 
	C276.088959,309.295227 307.921844,316.829376 340.495453,321.685242 
	C362.945496,325.031982 385.544617,326.696289 408.192749,326.444397 
	C432.667450,326.172272 457.037170,323.890869 481.193604,319.661652 
	C514.500854,313.830353 546.778198,304.788971 577.021362,289.311462 
	C579.935303,287.820251 582.929199,286.415527 585.558777,283.858765 
	C577.950500,273.642181 570.247864,263.845886 561.556824,253.924210 
M560.946350,387.361481 
	C595.745911,377.765900 629.191345,364.889557 661.703186,346.556519 
	C636.753601,337.859680 618.088135,322.622467 601.974182,303.933594 
	C599.903381,301.531860 598.310242,302.080872 596.011719,303.384613 
	C585.718628,309.222839 575.137939,314.501526 564.149414,318.918823 
	C514.189575,339.002380 461.916656,347.035828 408.439636,347.935394 
	C377.422882,348.457123 346.635864,345.310913 316.125702,339.409027 
	C281.762909,332.761841 248.552979,322.849457 217.753662,305.883911 
	C214.375885,304.023285 212.444656,304.174225 209.763702,307.020630 
	C196.643127,320.950836 181.907410,332.839783 164.421890,340.938324 
	C159.402481,343.263092 154.113403,345.005707 148.853912,347.051819 
	C150.041428,348.995575 151.699402,349.515442 153.119385,350.326263 
	C167.035461,358.272247 181.621811,364.819977 196.477829,370.755463 
	C248.276215,391.450775 302.355316,402.203613 357.737274,406.482208 
	C389.631439,408.946228 421.610260,408.670288 453.554352,405.936859 
	C489.629272,402.849854 525.208557,397.110352 560.946350,387.361481 
M203.887848,270.584076 
	C210.641998,276.463867 210.524109,276.364349 216.338776,269.476837 
	C224.394302,259.934998 232.536804,250.461533 240.837738,241.132904 
	C271.660034,206.494537 306.998291,177.483887 347.848022,155.310791 
	C352.366943,152.857941 357.368195,151.102554 362.389191,146.995285 
	C353.153442,147.077805 345.267853,148.214493 337.390717,149.314499 
	C305.802246,153.725677 274.829895,160.578827 245.416702,173.290344 
	C227.120514,181.197433 209.764862,190.592377 196.134308,205.677582 
	C180.808640,222.638824 179.779648,240.740982 193.199677,259.143341 
	C196.163010,263.206818 199.594574,266.809113 203.887848,270.584076 
M606.595337,268.976410 
	C608.005249,267.560547 609.483337,266.205658 610.813782,264.718658 
	C618.140747,256.529236 624.309021,247.757690 624.807495,236.210114 
	C625.365356,223.289551 619.462036,213.045761 611.012512,204.086548 
	C597.471069,189.728149 580.415161,180.699432 562.462158,173.264252 
	C532.912659,161.026443 501.974121,154.024490 470.436401,149.392502 
	C467.805573,149.006119 465.171204,148.624817 462.526825,148.355515 
	C459.899902,148.087982 457.258301,147.964874 453.181183,147.676407 
	C514.594849,176.674667 563.440491,218.394699 601.807434,271.942627 
	C604.134094,271.730377 604.963623,270.347260 606.595337,268.976410 
z"/>
</svg>