<svg version="1.1" id="Layer_1" xmlns="http://www.w3.org/2000/svg" xmlns:xlink="http://www.w3.org/1999/xlink" x="0px" y="0px"
	 width="100%" viewBox="0 0 800 1024" enable-background="new 0 0 800 1024" xml:space="preserve">
<path fill="#000000" opacity="1.000000" stroke="none" 
	d="
M70.468948,709.465576 
	C77.564575,701.900024 84.807449,694.930603 92.991600,689.202209 
	C101.045006,683.565369 106.201485,676.312317 110.321426,667.439026 
	C136.905869,610.183411 163.895340,553.115845 190.761383,495.990936 
	C232.870346,406.455353 275.112335,316.982025 317.052917,227.367661 
	C342.117706,173.811768 366.740753,120.048988 391.479492,66.341019 
	C393.705811,61.507668 396.930145,58.198578 402.330536,58.136696 
	C407.586517,58.076462 410.681274,61.351383 412.829956,65.993721 
	C443.122314,131.442078 473.376984,196.908249 503.859741,262.267944 
	C528.570862,315.252228 553.566772,368.103668 578.453064,421.006195 
	C608.087463,484.002045 637.753540,546.983032 667.376282,609.984314 
	C677.368652,631.235901 687.292603,652.519714 697.182861,673.818909 
	C698.289307,676.201538 699.971680,677.819458 702.070068,679.299133 
	C723.593140,694.477295 743.301636,711.551086 757.635498,734.001160 
	C783.304565,774.204590 784.024780,815.159180 760.022827,856.176392 
	C742.038513,886.909912 715.160645,908.597351 685.054382,926.605652 
	C648.869202,948.250061 609.841736,962.832031 569.057434,973.036255 
	C529.380798,982.963379 489.108612,988.693665 448.315308,991.516418 
	C412.142365,994.019470 376.049561,993.520081 340.023773,990.132202 
	C278.350983,984.332458 218.270493,971.595520 161.450607,946.125061 
	C127.780693,931.032043 96.443604,912.147766 70.657455,885.277283 
	C54.190788,868.118225 41.309551,848.593628 34.865040,825.385315 
	C25.752724,792.569519 32.810108,762.463501 50.605843,734.277222 
	C56.227329,725.373474 62.795734,717.194519 70.468948,709.465576 
M372.344849,159.793213 
	C364.076691,177.619904 355.869781,195.475311 347.529449,213.268173 
	C316.710968,279.015106 285.931091,344.780365 254.981155,410.465393 
	C217.074539,490.914551 179.007278,571.288025 141.040634,651.708923 
	C140.091675,653.718933 138.715973,655.662537 138.759888,658.693787 
	C221.106476,614.629761 309.296539,597.056396 401.311249,596.797119 
	C493.278076,596.538025 581.639404,613.415100 664.523621,655.587585 
	C577.183105,468.964447 488.826172,283.049286 402.315796,94.928413 
	C392.039093,117.176933 382.353851,138.144913 372.344849,159.793213 
M557.372131,953.762817 
	C598.397644,943.861755 637.745850,929.677246 674.107361,907.914612 
	C700.260132,892.261902 723.819092,873.698914 740.195190,847.411743 
	C759.729370,816.055298 761.636841,783.997559 743.188904,751.430969 
	C730.141235,728.397583 710.885437,711.410645 689.353699,696.684143 
	C686.922302,695.021240 684.319031,695.321411 681.650024,695.639282 
	C665.077881,697.612427 650.751526,704.730469 637.981628,715.108948 
	C630.129761,721.490479 622.524048,728.207764 616.279480,737.004028 
	C620.735291,741.350403 625.292969,745.258362 629.223633,749.718750 
	C652.436279,776.059937 651.560669,809.710876 627.598816,835.375977 
	C611.398987,852.727356 591.439880,864.096008 569.858521,872.976501 
	C542.939148,884.053467 514.823486,890.881348 486.209290,895.855164 
	C457.082428,900.918213 427.684875,903.011841 398.192627,902.755310 
	C375.399536,902.557007 352.644928,900.811340 330.039764,897.413086 
	C295.139008,892.166443 261.056976,884.006531 228.999512,868.901245 
	C208.972122,859.464478 190.260925,847.994446 176.587860,829.902344 
	C162.227081,810.900330 158.015152,790.407654 167.799454,768.006409 
	C173.121994,755.820312 181.857391,746.269531 191.810318,737.708496 
	C193.149948,736.556274 195.013092,735.819336 195.429886,733.610291 
	C193.262619,730.283325 190.192169,727.693848 187.281433,725.005249 
	C171.757034,710.666077 154.838150,698.775940 133.213654,695.811584 
	C128.222015,695.127258 122.771439,693.411560 118.166069,696.691467 
	C99.465988,710.009521 82.306435,724.983948 69.702621,744.472290 
	C52.197746,771.538879 46.299698,800.102539 59.384026,830.833923 
	C68.326622,851.837646 82.572342,868.870667 99.839752,883.446472 
	C128.868881,907.950378 162.286423,924.691528 197.722000,937.600525 
	C261.137817,960.702515 326.988739,970.111694 394.149323,971.609680 
	C421.980530,972.230408 449.749878,970.563721 477.418671,967.590027 
	C504.079956,964.724609 530.494995,960.310852 557.372131,953.762817 
M279.137177,717.712036 
	C261.716217,723.265076 244.610855,729.559753 228.841721,738.524353 
	C228.927643,740.569885 230.007690,741.475891 230.845200,742.458557 
	C250.083603,765.029663 269.236755,787.653259 291.928467,806.990540 
	C325.342316,835.464844 362.091095,858.202209 403.484894,873.187561 
	C406.568604,874.303955 409.341766,874.718018 412.609100,873.495239 
	C474.803894,850.220764 527.547302,813.616943 569.841187,762.247925 
	C575.215149,755.720886 580.663574,749.231018 585.395508,742.016846 
	C584.739807,741.391663 584.348206,740.813965 583.803467,740.530640 
	C577.894775,737.456970 572.072021,734.188049 566.017334,731.429993 
	C536.094116,717.799377 504.573730,709.867859 472.141266,705.028320 
	C445.071442,700.989075 417.950531,699.109253 390.555145,699.966370 
	C352.891907,701.144775 316.067596,707.092529 279.137177,717.712036 
M656.714417,676.623779 
	C584.614807,637.959961 506.771271,621.819031 425.842438,618.439880 
	C382.815674,616.643250 340.018860,619.568604 297.543365,627.183716 
	C251.568146,635.426208 207.161713,648.390930 165.254044,669.291504 
	C159.663620,672.079590 154.210846,675.143677 147.772308,678.570679 
	C153.983871,680.977173 159.150421,682.706238 164.088181,684.940857 
	C181.504410,692.822693 196.094147,704.640686 209.194946,718.333496 
	C212.333939,721.614441 214.778107,721.835999 218.605423,719.675354 
	C228.910614,713.857605 239.678986,708.946533 250.761124,704.773193 
	C299.149384,686.550903 349.470673,678.877625 400.910736,678.075623 
	C428.076019,677.652161 455.099579,680.159546 481.931854,684.641113 
	C521.291382,691.215149 559.203918,702.158386 594.264587,721.656982 
	C598.464905,723.992981 600.834656,723.582764 603.911804,719.974365 
	C613.250305,709.023743 623.982605,699.582886 636.101624,691.730225 
	C643.778076,686.756287 651.975342,682.872559 661.160706,679.511536 
	C659.467285,678.404053 658.379700,677.692810 656.714417,676.623779 
M295.888397,836.650574 
	C284.203217,827.245056 272.763885,817.574463 262.029327,807.063843 
	C245.449371,790.829773 230.381241,773.255798 215.560959,755.449829 
	C210.676575,749.581482 210.635666,749.479797 204.812622,754.459106 
	C201.907745,756.943054 199.051498,759.567444 196.603546,762.488831 
	C179.577118,782.807983 179.075943,801.466553 197.463257,821.769897 
	C206.425583,831.666199 217.453903,838.830872 229.168991,844.973328 
	C261.141754,861.737244 295.562653,870.436462 331.009460,875.744324 
	C341.709412,877.346558 352.414642,878.801147 363.335602,878.915222 
	C339.490723,867.336426 317.406311,853.118286 295.888397,836.650574 
M478.878143,875.262146 
	C511.394745,870.028015 543.169373,862.167847 573.066589,847.966614 
	C589.753784,840.040100 605.297607,830.452576 616.469727,815.169189 
	C631.067017,795.200317 626.989258,772.544128 601.988525,753.757324 
	C563.245483,807.865051 514.105652,849.736572 453.900421,878.664062 
	C461.940308,877.591309 469.980164,876.518494 478.878143,875.262146 
z"/>
</svg>