<svg version="1.1" id="Layer_1" xmlns="http://www.w3.org/2000/svg" xmlns:xlink="http://www.w3.org/1999/xlink" x="0px" y="0px"
	 width="100%" viewBox="0 0 736 1024" enable-background="new 0 0 736 1024" xml:space="preserve">
<path fill="#000000" opacity="1.000000" stroke="none" 
	d="
M215.181091,936.988770 
	C173.488235,923.856506 134.496613,906.235168 100.497070,878.861023 
	C79.061592,861.602722 60.992653,841.546448 50.503067,815.648682 
	C34.038498,774.999451 40.044971,737.069519 64.947639,701.634460 
	C73.143082,689.972778 83.134491,679.961609 94.222023,671.045166 
	C96.249962,669.414246 97.552727,667.391052 98.611176,665.089172 
	C134.308411,587.455688 170.243378,509.930603 205.667084,432.172607 
	C244.406754,347.135773 282.604126,261.852081 321.183929,176.742203 
	C337.207458,141.393082 353.629333,106.224640 369.812531,70.947601 
	C371.676941,66.883423 374.073578,63.645683 378.978027,63.774319 
	C383.904022,63.903526 385.888550,67.379555 387.698425,71.458015 
	C403.237274,106.473717 418.913757,141.428360 434.564819,176.394226 
	C472.331055,260.767273 510.060455,345.156860 547.891541,429.500824 
	C577.814453,496.213531 607.871704,562.866028 637.855408,629.551453 
	C642.567871,640.032288 647.356995,650.483154 651.808472,661.074829 
	C653.681091,665.530518 656.414307,668.920471 660.131409,671.983948 
	C681.508179,689.601074 698.234070,710.703735 706.722046,737.425659 
	C717.604126,771.684692 711.793335,803.888367 693.418152,834.172607 
	C676.480286,862.087891 652.109375,882.331848 624.700317,899.135803 
	C583.593262,924.337769 538.584045,939.372742 491.652618,949.237915 
	C444.919983,959.061340 397.625702,962.002075 350.047821,960.020752 
	C304.297760,958.115479 259.353455,950.837830 215.181091,936.988770 
M495.369080,354.081024 
	C456.837708,267.960602 418.306366,181.840179 379.774994,95.719765 
	C379.264526,95.715851 378.754028,95.711929 378.243530,95.708008 
	C293.406433,280.143402 210.021790,465.245422 124.000031,650.257507 
	C202.930099,605.553162 287.566528,588.001221 376.145355,587.963440 
	C464.567291,587.925720 549.421753,604.205383 628.016052,649.267151 
	C583.586609,550.408142 539.626465,452.593414 495.369080,354.081024 
M607.519409,889.985535 
	C632.715881,875.472412 655.714600,858.301575 673.204224,834.684692 
	C691.586182,809.862793 700.453857,782.426453 693.580627,751.548340 
	C686.674622,720.523438 667.410767,697.771423 642.625977,679.199219 
	C636.340881,674.489624 629.840637,671.640747 621.030762,674.370728 
	C597.856262,681.551880 577.791626,694.038757 558.579102,708.284790 
	C558.110962,708.631958 557.915588,709.347046 557.452637,710.127014 
	C560.984985,713.613586 564.538818,716.868347 567.807190,720.388062 
	C591.400269,745.795105 593.655334,778.545227 573.597229,806.738892 
	C564.889526,818.978455 553.644775,828.643372 541.019531,836.644714 
	C513.623291,854.007385 483.651825,864.385864 451.740234,869.767761 
	C416.135315,875.772522 380.464600,878.621643 344.347015,875.521851 
	C313.497253,872.874146 283.298889,867.274231 254.117828,857.002441 
	C229.216873,848.237244 206.130676,836.016235 187.663589,816.606628 
	C170.754852,798.834961 162.120163,778.225952 167.722382,753.262512 
	C171.055588,738.409790 179.360626,726.540649 190.110031,716.159058 
	C192.576385,713.777222 195.096939,711.451538 197.510468,709.177368 
	C197.052353,708.450073 196.937866,708.092407 196.693085,707.904846 
	C175.180328,691.423828 151.927856,678.480713 125.163330,672.626099 
	C122.292564,671.998108 120.044022,672.807068 117.694710,674.358093 
	C102.095558,684.656860 88.504608,697.129639 77.733238,712.398010 
	C59.183853,738.691467 51.840080,767.343567 61.474335,798.920898 
	C68.314987,821.341797 81.663551,839.679504 98.740974,855.407166 
	C131.660095,885.724548 171.018036,904.664978 212.953110,918.470215 
	C273.880066,938.527832 336.621704,945.667603 400.619415,942.978943 
	C428.450195,941.809753 456.060791,938.921387 483.383636,933.594055 
	C526.625305,925.162903 568.179199,911.796326 607.519409,889.985535 
M449.764832,764.280640 
	C465.152557,741.617615 480.540283,718.954529 495.859955,696.391724 
	C493.531006,694.161987 491.367828,693.744324 489.331757,693.067749 
	C441.040039,677.021118 391.521057,672.466553 340.990570,677.083923 
	C308.957306,680.011108 277.880310,686.824463 248.124298,699.248413 
	C241.444351,702.037476 241.378601,702.068298 244.959274,708.453430 
	C263.209534,740.997437 281.494751,773.521973 299.690002,806.096680 
	C301.103455,808.627136 302.898224,810.009644 305.703400,810.760193 
	C340.641327,820.107971 375.748199,820.339661 411.086334,813.245667 
	C415.750702,812.309265 418.699158,810.080688 421.264221,806.212830 
	C430.471008,792.329651 439.967682,778.638733 449.764832,764.280640 
M180.578598,641.205017 
	C167.742050,646.256165 155.381668,652.290222 143.323868,658.746033 
	C143.666046,660.170898 144.546127,660.334961 145.282776,660.615662 
	C168.485779,669.458496 189.992920,681.325989 209.490631,696.738892 
	C211.701187,698.486328 213.489380,698.296265 215.802658,696.970032 
	C259.899017,671.687744 308.092407,661.373230 358.219788,658.868408 
	C381.174530,657.721375 404.153564,658.521484 427.020752,661.679016 
	C466.455780,667.124390 504.409912,677.078796 539.120728,697.280090 
	C541.653870,698.754456 543.466553,698.732910 545.827209,696.893005 
	C553.186646,691.157104 560.860474,685.853149 568.800232,680.929626 
	C582.108521,672.677002 595.822998,665.241760 611.480042,659.794617 
	C604.834167,655.247253 598.392029,652.221802 591.990967,649.179321 
	C532.527466,620.915833 469.245453,608.708679 404.024170,605.488159 
	C366.208191,603.620911 328.458740,605.384338 290.967957,611.304260 
	C253.337677,617.246277 216.586349,626.361023 180.578598,641.205017 
M467.055817,768.509155 
	C455.815582,784.983643 444.575378,801.458191 433.321472,817.952698 
	C433.993896,818.799438 434.312805,819.411499 434.808624,819.794556 
	C446.268768,828.649292 457.762878,837.460083 469.212097,846.328857 
	C471.629272,848.201172 474.087036,847.880615 476.768188,847.112854 
	C486.703094,844.268066 496.449371,840.870972 505.889435,836.695190 
	C524.920105,828.277100 542.699768,817.936157 556.476746,801.888428 
	C576.344604,778.745911 576.298035,754.179932 555.812988,731.513794 
	C544.904907,719.444336 531.135864,711.414551 516.780273,704.177979 
	C513.116089,702.330872 511.307220,703.015076 509.124481,706.277771 
	C495.334534,726.890137 481.359100,747.378479 467.055817,768.509155 
M261.212128,770.241211 
	C250.606140,751.573425 239.908813,732.956360 229.471649,714.194641 
	C227.400955,710.472290 225.598007,710.155151 222.126099,712.311157 
	C211.881500,718.672729 202.380859,725.817810 194.648163,735.205322 
	C178.182571,755.194519 178.002411,779.604248 194.294373,799.642822 
	C209.381699,818.199768 229.582245,829.149414 251.191391,838.046082 
	C253.224991,838.883240 254.623764,838.272949 256.184845,837.063416 
	C264.868225,830.335510 273.609802,823.682739 282.301483,816.965515 
	C283.442841,816.083435 284.910217,815.413025 285.264221,813.370178 
	C277.452728,799.351990 269.518280,785.113159 261.212128,770.241211 
M434.749115,855.102051 
	C439.405365,854.320862 444.173401,854.043030 449.416077,852.120056 
	C440.332977,845.065613 431.696014,838.608154 423.374359,831.767212 
	C420.188965,829.148621 417.223877,828.680481 413.337524,829.554382 
	C378.173462,837.461792 342.988464,837.127441 308.050598,828.493591 
	C300.578918,826.647156 294.873291,826.885498 289.132599,832.317932 
	C284.405609,836.791016 278.847534,840.385864 273.274261,844.664368 
	C306.645630,856.621216 369.874542,865.801025 434.749115,855.102051 
z"/>
</svg>