<svg version="1.1" id="Layer_1" xmlns="http://www.w3.org/2000/svg" xmlns:xlink="http://www.w3.org/1999/xlink" x="0px" y="0px"
	 width="100%" viewBox="0 0 720 1024" enable-background="new 0 0 720 1024" xml:space="preserve">
<path fill="#000000" opacity="1.000000" stroke="none" 
	d="
M191.936447,932.253784 
	C164.971802,924.317505 139.133072,914.609802 115.101562,900.671082 
	C91.602982,887.041443 69.649986,871.274475 53.983681,848.603271 
	C30.289761,814.315063 27.520443,775.594238 50.063282,737.788879 
	C55.645710,728.426880 62.477348,720.088745 70.135391,712.395203 
	C71.825249,710.697510 72.928711,708.685486 73.973358,706.597900 
	C97.671898,659.240417 121.497482,611.945923 145.019012,564.500671 
	C157.510071,539.304932 169.614029,513.914062 181.636932,488.490387 
	C193.801529,462.767120 205.763809,436.946503 217.605957,411.072998 
	C229.724503,384.595612 241.748001,358.072235 253.521515,331.440094 
	C265.364105,304.651794 277.394012,277.952362 289.565155,251.311523 
	C301.390747,225.427002 313.109985,199.496811 325.200623,173.732239 
	C336.439148,149.783447 347.209778,125.615242 358.226654,101.562080 
	C359.461273,98.866524 360.333954,95.955162 362.331879,93.670197 
	C364.300110,93.872429 364.640289,95.461830 365.246552,96.773621 
	C376.000366,120.042740 386.793091,143.294022 397.481750,166.593048 
	C413.582245,201.688736 429.686066,236.783264 445.641541,271.944946 
	C457.880188,298.915710 470.105560,325.896271 481.943542,353.043976 
	C493.386719,379.286407 505.463165,405.232513 517.495789,431.202209 
	C530.156067,458.526642 542.501465,486.003937 555.608337,513.112793 
	C574.376648,551.931274 593.642578,590.510071 612.830505,629.124451 
	C623.871155,651.342834 635.623169,673.219910 646.165894,695.668213 
	C651.082092,706.135925 657.988525,714.822327 665.277100,723.427917 
	C681.217896,742.249329 690.091980,764.014709 691.013245,788.574158 
	C691.667297,806.008911 686.962036,822.444397 678.490601,837.802490 
	C666.517883,859.507996 648.666809,875.336243 628.617371,889.259827 
	C607.382568,904.006836 584.273621,915.018860 560.159973,923.787109 
	C527.078308,935.816345 492.797180,943.360168 457.972382,948.331787 
	C423.636566,953.233582 389.082886,955.522644 354.424835,954.902161 
	C308.595276,954.081787 263.093536,949.956116 218.378510,939.116760 
	C209.650818,937.001099 200.886246,935.085571 191.936447,932.253784 
M475.697510,387.733582 
	C473.223969,382.092499 470.795410,376.431183 468.269135,370.813812 
	C457.279510,346.377747 446.268341,321.951294 435.251953,297.527283 
	C421.977295,268.096558 408.721161,238.657410 395.394745,209.250137 
	C388.042206,193.025345 380.592499,176.844330 373.125580,160.671768 
	C369.907257,153.701233 366.534485,146.802017 363.112061,139.618896 
	C360.828003,141.894150 360.079559,144.144836 359.123566,146.247711 
	C344.316956,178.817780 329.693878,211.472244 314.717957,243.964142 
	C298.414490,279.336273 282.669861,314.955811 266.771423,350.508789 
	C251.076538,385.606659 235.279648,420.666107 218.940140,455.466644 
	C199.062637,497.802551 178.746460,539.935547 158.284760,581.993164 
	C144.090973,611.167542 129.307312,640.054688 114.849327,669.101074 
	C112.674789,673.469849 110.840134,678.007812 108.490692,683.268005 
	C133.651352,668.048462 159.767288,657.291443 187.096970,649.585205 
	C219.929413,640.327393 253.135956,633.054260 287.312988,630.446045 
	C306.390228,628.990173 325.419464,626.903259 344.566803,626.707886 
	C366.054565,626.488708 387.558807,626.236755 409.010040,627.782532 
	C424.766968,628.918091 440.544891,630.088379 456.213470,632.044189 
	C476.838928,634.618713 497.250244,638.733887 517.405640,643.742126 
	C547.499207,651.219666 576.919861,660.763245 604.242554,675.853333 
	C608.443359,678.173462 613.310730,679.141663 616.894653,682.711365 
	C611.233948,670.284424 605.454651,658.300293 599.400330,646.456726 
	C583.120300,614.609253 567.557739,582.409912 551.885376,550.262878 
	C535.616821,516.893005 520.026978,483.207336 504.337616,449.564148 
	C494.842987,429.204559 485.425751,408.810211 475.697510,387.733582 
M369.445709,860.659363 
	C384.061829,859.981506 398.674591,859.440369 413.246155,857.852478 
	C435.942078,855.379272 458.304749,851.175720 480.129456,844.618408 
	C503.525085,837.589172 525.859009,828.313538 543.934753,810.909302 
	C555.965454,799.325684 557.557800,782.738708 547.254578,770.046631 
	C540.522217,761.753357 531.990295,755.650879 522.668640,750.767700 
	C510.277893,744.276672 497.244598,739.434814 483.787323,735.372253 
	C452.156647,725.823425 419.684052,722.075439 386.942535,720.459106 
	C354.141724,718.839905 321.428009,720.443787 288.859283,725.256592 
	C263.228271,729.044128 238.241104,734.985657 214.462265,745.324158 
	C199.560623,751.803162 185.583008,759.770203 175.979385,773.642395 
	C171.839355,779.622620 170.690811,786.132080 171.746262,793.106750 
	C173.247009,803.024170 179.793564,809.786316 187.035400,815.737244 
	C209.088181,833.858643 235.449097,842.402344 262.607971,849.060181 
	C297.383820,857.585327 332.763336,860.568481 369.445709,860.659363 
M183.111908,670.739929 
	C170.932755,675.297546 158.418854,679.046448 146.203461,685.179871 
	C150.551071,689.884155 155.756058,691.626953 160.086182,694.612549 
	C174.736633,704.714294 189.616043,714.483582 204.381683,724.419006 
	C206.746078,726.010071 208.905548,726.341248 211.771042,725.299194 
	C223.640793,720.982727 235.390579,716.266174 247.768280,713.479187 
	C275.044128,707.337585 302.511169,702.819946 330.525574,701.460022 
	C371.223724,699.484375 411.688232,700.759399 451.838898,708.048767 
	C471.654968,711.646484 491.278961,716.113953 509.956268,723.883911 
	C516.771484,726.719055 522.411011,726.422791 528.804993,721.814270 
	C544.323242,710.629517 560.472168,700.320496 576.342834,689.622803 
	C577.777222,688.655884 579.687622,688.066223 580.139709,685.656555 
	C578.080505,684.605164 576.090088,683.409241 573.967163,682.534729 
	C561.964905,677.590393 549.822388,672.964722 537.405396,669.214722 
	C504.700256,659.337524 471.251831,652.869019 437.289551,649.529175 
	C405.986542,646.450867 374.606659,644.789795 343.074097,645.909119 
	C313.099121,646.973267 283.365509,649.768188 253.731216,654.275513 
	C230.000916,657.884888 206.809006,663.624451 183.111908,670.739929 
M346.519531,935.694946 
	C368.829987,935.720154 391.110870,935.648804 413.404388,933.910706 
	C437.820923,932.006958 461.890961,927.938293 486.013214,924.106140 
	C503.631073,921.307251 520.601990,915.797974 537.727234,911.014038 
	C545.644165,908.802551 553.551514,906.249084 561.269226,902.124268 
	C558.707397,900.336853 556.544922,898.854004 554.408997,897.333801 
	C537.321228,885.172913 520.225586,873.022888 503.171844,860.814392 
	C501.252808,859.440552 499.384155,858.800171 497.138000,859.739258 
	C491.894196,861.931519 486.290192,862.883118 480.872253,864.472961 
	C447.433563,874.285583 413.158173,878.406494 378.451874,879.291931 
	C352.466888,879.954895 326.601288,878.647522 300.714233,875.630371 
	C276.601959,872.820129 253.361786,866.886047 230.250809,860.030090 
	C227.107880,859.097717 224.786285,859.019348 221.977219,861.055847 
	C206.075623,872.583130 190.007538,883.880615 174.030792,895.304871 
	C171.009811,897.465027 168.144623,899.843140 164.435272,902.719604 
	C223.427505,924.725830 283.871460,933.493713 346.519531,935.694946 
M60.355289,760.820007 
	C57.253197,768.218323 55.015659,775.838745 54.289051,783.867859 
	C51.991501,809.256042 62.351929,830.231934 78.612961,848.242249 
	C95.616737,867.075134 116.852242,880.609680 139.696777,891.564514 
	C142.318604,892.821716 144.504959,893.023621 147.078217,891.162476 
	C161.767548,880.538330 176.592834,870.102356 191.311829,859.518860 
	C195.424973,856.561279 199.334778,853.320801 203.657196,849.961975 
	C190.772003,842.290710 178.293564,835.306580 168.092590,825.009155 
	C154.248871,811.034485 146.377457,790.202637 155.317017,770.300171 
	C160.199142,759.430847 168.056610,751.356445 177.431168,744.458679 
	C180.710693,742.045654 183.991257,739.633972 188.005020,736.682129 
	C167.543518,723.165527 147.833298,710.166199 128.158691,697.113220 
	C126.348061,695.911987 125.022728,696.222961 123.200508,697.257019 
	C114.797569,702.026001 106.790756,707.282654 99.142738,713.251892 
	C82.759453,726.038879 68.928093,740.751831 60.355289,760.820007 
M531.981934,857.508423 
	C535.390625,859.886658 538.816956,862.240051 542.204712,864.647705 
	C552.786499,872.168396 563.825378,879.144287 573.764648,887.436951 
	C580.651978,893.183350 585.713440,892.259705 593.003052,888.257141 
	C616.559937,875.322449 638.270081,860.509155 654.653015,838.628662 
	C675.464600,810.833496 677.305786,778.476440 659.216309,748.493774 
	C645.637756,725.988037 625.698242,710.528381 603.462830,697.508789 
	C600.932800,696.027344 599.436096,697.460510 597.667786,698.629517 
	C583.232605,708.171753 568.721313,717.601807 554.408630,727.324402 
	C549.562500,730.616333 544.241028,733.375549 539.819153,737.871582 
	C547.628174,743.580872 555.064026,748.920349 561.235596,755.773438 
	C576.076477,772.253235 578.207825,793.388916 567.259766,812.621094 
	C560.514404,824.470398 550.259338,832.473572 539.127319,839.633545 
	C533.731628,843.104004 528.225037,846.402100 522.354553,850.034485 
	C525.688477,852.610474 528.560547,854.829590 531.981934,857.508423 
z"/>
<path fill="#000000" opacity="1.000000" stroke="none" 
	d="
M279.479187,801.735718 
	C279.387299,809.159668 279.226837,816.158203 279.397827,823.148560 
	C279.482361,826.605286 278.149445,827.779297 274.777954,827.952759 
	C259.704712,828.728027 259.705200,828.802490 259.704742,814.123718 
	C259.704132,794.969299 259.815735,775.813782 259.632538,756.661133 
	C259.590271,752.242432 260.734375,750.512634 265.487640,750.560791 
	C279.345642,750.701538 279.222412,750.509033 279.415497,764.484558 
	C279.483246,769.391113 277.176453,775.600769 280.619873,778.875061 
	C283.804932,781.903687 289.871002,779.861694 294.655060,779.868896 
	C342.790894,779.941833 390.926849,779.919189 439.062775,779.917053 
	C445.889008,779.916748 445.901428,779.901306 445.928040,772.939758 
	C445.949677,767.276794 446.046722,761.610901 445.900452,755.951721 
	C445.804718,752.247498 446.995239,750.634399 451.045013,750.584106 
	C465.422882,750.405518 465.355896,750.270386 465.434570,764.542542 
	C465.539215,783.525330 465.629211,802.510193 466.013855,821.488342 
	C466.117004,826.578003 464.307037,828.154663 459.339722,827.998962 
	C443.904388,827.515381 446.206543,829.939392 445.865173,814.830627 
	C445.754303,809.924133 448.107056,803.751343 444.626251,800.431519 
	C441.406464,797.360596 435.384949,799.431885 430.613312,799.424194 
	C382.477509,799.346863 334.341492,799.360107 286.205658,799.428284 
	C283.916748,799.431519 281.061523,798.231018 279.479187,801.735718 
z"/>
</svg>