<svg version="1.1" id="Layer_1" xmlns="http://www.w3.org/2000/svg" xmlns:xlink="http://www.w3.org/1999/xlink" x="0px" y="0px"
	 width="100%" viewBox="0 0 784 1024" enable-background="new 0 0 784 1024" xml:space="preserve">
<path fill="#000000" opacity="1.000000" stroke="none" 
	d="
M1.000000,769.468628 
	C3.607357,764.092041 3.767206,758.481873 5.570155,753.301819 
	C11.832590,735.309204 22.215975,720.000244 35.235645,706.355469 
	C37.717876,703.754089 38.755104,701.109863 38.816208,697.509460 
	C39.449509,660.192932 40.223495,622.878723 41.008186,585.564880 
	C41.617599,556.585815 42.260937,527.607361 42.957340,498.630280 
	C43.557663,473.651154 44.260700,448.674469 44.906635,423.696411 
	C45.927250,384.229553 46.933605,344.762268 47.954708,305.295410 
	C48.587994,280.818298 49.077564,256.336121 49.916954,231.865997 
	C51.178925,195.076843 52.361374,158.287918 53.028439,121.481552 
	C53.432903,99.164818 54.176811,76.854187 54.785946,54.541302 
	C54.816624,53.417675 54.500523,52.198837 56.417999,50.143723 
	C119.948959,157.541000 183.265884,264.576447 247.092789,372.473999 
	C278.036377,262.144562 323.392822,158.389130 371.470856,55.244476 
	C420.481537,157.827560 466.611420,261.317963 497.729706,372.509003 
	C560.270203,264.027374 622.806458,157.305618 685.514160,50.803059 
	C687.516174,51.593102 687.258728,52.731731 687.285034,53.659103 
	C687.969360,77.799667 688.627197,101.940979 689.291565,126.082108 
	C690.331909,163.882019 691.338257,201.682907 692.429626,239.481354 
	C692.987122,258.788727 693.637451,278.093872 694.353149,297.396057 
	C695.717102,334.185699 696.635681,370.986115 697.475281,407.791168 
	C698.174194,438.428864 699.203674,469.061493 700.372070,499.685486 
	C702.175720,546.961426 703.649536,594.243286 704.457825,641.548218 
	C704.782104,660.527954 705.871033,679.494995 706.160767,698.474670 
	C706.234985,703.331970 707.834778,706.447205 711.431946,709.478027 
	C726.224609,721.941345 738.529785,736.597168 747.887573,753.529419 
	C771.228027,795.762634 763.105530,838.573303 732.882385,873.905579 
	C706.735352,904.472656 672.890015,923.757629 636.335022,938.812988 
	C592.326233,956.938354 546.365356,967.415588 499.245850,973.481567 
	C457.984375,978.793396 416.573547,980.334351 375.081726,978.879944 
	C307.542328,976.512634 241.223846,966.260315 176.846649,945.239685 
	C136.441727,932.046570 97.811714,914.962585 63.446983,889.425781 
	C43.890770,874.893250 26.785938,858.028870 14.458078,836.695312 
	C7.607285,824.839966 3.538042,812.106812 1.131841,798.353333 
	C1.000000,788.645752 1.000000,779.291565 1.000000,769.468628 
M672.293091,681.129456 
	C673.867737,681.853760 675.084534,683.604126 677.660522,682.753296 
	C677.716248,673.380310 677.366028,663.940979 677.139221,654.479248 
	C676.229248,616.508728 675.704285,578.529114 674.970947,540.554138 
	C674.359924,508.913422 673.659363,477.274384 672.993591,445.634735 
	C672.313843,413.327148 671.615784,381.019989 670.948547,348.712189 
	C670.294922,317.069885 669.662476,285.427124 669.034607,253.784286 
	C668.234863,213.477631 667.453552,173.170593 666.631287,132.864410 
	C666.610718,131.859818 667.208374,130.625473 666.061707,129.779892 
	C573.732544,287.167206 483.437988,445.550415 396.727142,605.917603 
	C398.490814,607.519104 400.358093,607.582520 402.153992,607.607849 
	C407.986176,607.690063 413.787018,608.182129 419.603302,608.557983 
	C452.038727,610.653870 484.173401,614.831848 515.955811,621.687195 
	C570.843445,633.526550 623.475952,651.295776 672.293091,681.129456 
M69.390785,482.636597 
	C68.711029,547.992615 68.031281,613.348694 67.351265,678.729797 
	C69.769073,678.748596 70.765717,677.488464 71.976173,676.682190 
	C87.826637,666.124573 104.499657,657.035156 122.050339,649.697754 
	C188.025055,622.115662 257.281982,610.479248 328.324921,607.660950 
	C335.878510,607.361389 343.422394,606.818115 351.583038,606.352966 
	C261.703064,445.604675 169.639832,287.036743 75.736870,127.975555 
	C73.604912,246.909256 71.500755,364.292053 69.390785,482.636597 
M458.081726,442.609772 
	C465.124390,429.945892 472.123657,417.257538 479.248657,404.640137 
	C480.570740,402.298889 480.932770,400.134583 480.224731,397.520630 
	C469.467072,357.804382 457.108917,318.593079 443.164520,279.883545 
	C424.581238,228.296356 402.922119,177.979828 380.269348,128.077805 
	C377.547333,122.081390 375.371979,115.804482 371.810913,110.098434 
	C369.958832,111.334015 369.614594,113.060074 368.979950,114.538109 
	C352.423492,153.097916 335.541412,191.516312 320.156952,230.574951 
	C299.148224,283.912842 280.880859,338.140778 265.763855,393.443787 
	C264.272888,398.898102 264.905640,403.162262 267.690094,407.999847 
	C299.932159,464.015533 331.987427,520.138794 364.089722,576.234924 
	C367.284363,581.817322 370.462219,587.409302 373.942688,593.513855 
	C402.128265,542.980896 429.937469,493.122650 458.081726,442.609772 
M507.381226,701.939392 
	C529.164368,708.296143 550.520203,715.772156 570.658264,726.372742 
	C573.075928,727.645447 574.875488,727.228027 577.068176,725.833252 
	C595.624939,714.029724 614.258423,702.346863 632.837830,690.578735 
	C634.016785,689.832092 635.703430,689.470154 636.041748,687.103943 
	C629.919128,684.078491 623.747620,680.822266 617.410217,677.929321 
	C551.367310,647.780701 481.420380,634.161133 409.476654,629.455261 
	C383.213806,627.737488 356.893921,627.754333 330.561768,629.105164 
	C300.942230,630.624634 271.475800,633.186768 242.245087,638.334900 
	C205.896713,644.736633 170.374542,653.997498 136.271759,668.302917 
	C133.799591,669.339844 131.396820,670.542236 128.309647,671.969116 
	C151.577072,685.830139 173.913025,699.098206 196.191452,712.462219 
	C198.635147,713.928162 200.584000,713.037598 202.755249,712.124451 
	C230.432999,700.484009 259.511536,694.059265 289.056641,689.815002 
	C326.081299,684.496277 363.306335,683.596375 400.684692,685.513123 
	C436.580658,687.353943 471.841034,692.727051 507.381226,701.939392 
M326.584717,888.181213 
	C298.677887,884.536133 270.998138,879.765015 244.072342,871.334595 
	C241.763123,870.611633 240.132492,870.945251 238.190948,872.489624 
	C221.641403,885.653625 204.974213,898.669495 188.374832,911.771057 
	C184.771957,914.614746 181.300049,917.624390 177.745285,920.576294 
	C179.222382,922.407593 180.945190,922.616577 182.473740,923.132874 
	C245.422913,944.398865 310.329346,954.566589 376.556427,956.628174 
	C416.863617,957.882874 457.092041,956.559326 497.137848,950.966736 
	C532.026001,946.094482 566.170837,938.333374 599.449280,926.790710 
	C601.048157,926.236206 603.110840,926.165039 603.902466,923.889893 
	C602.877625,923.012878 601.912415,922.120667 600.880554,921.313721 
	C582.773865,907.153992 564.413574,893.302551 546.681641,878.688538 
	C540.627502,873.698914 535.669189,872.672913 528.018555,874.961792 
	C485.088348,887.805603 440.890533,891.838745 396.281067,891.948608 
	C373.299774,892.005188 350.363495,890.545715 326.584717,888.181213 
M129.322495,901.139160 
	C135.042297,903.841370 140.817078,906.434814 146.460052,909.288940 
	C149.542969,910.848206 151.802444,910.424500 154.538498,908.229187 
	C169.474655,896.245483 184.644928,884.553833 199.599960,872.593201 
	C204.193619,868.919434 209.275726,865.762878 213.360748,861.219421 
	C210.701920,858.950439 207.729568,858.266174 205.041306,857.038818 
	C185.684738,848.201782 167.382095,837.814087 152.473862,822.231750 
	C134.711731,803.666443 129.975143,780.238464 140.127914,759.946960 
	C145.868301,748.474121 154.980469,740.015076 165.058533,732.439026 
	C167.765335,730.404236 170.946396,728.901489 173.396347,725.783630 
	C150.680054,712.238220 128.383987,698.948853 106.097687,685.643066 
	C104.460846,684.665833 103.025810,684.907837 101.440918,685.850037 
	C78.199936,699.665039 56.530117,715.372314 41.649330,738.538635 
	C29.421200,757.575378 24.096914,778.246643 29.207865,800.899170 
	C34.537064,824.518921 48.697044,842.555115 65.836288,858.606750 
	C84.470566,876.058472 105.975227,889.333008 129.322495,901.139160 
M634.486938,717.047668 
	C621.614441,725.219482 608.741882,733.391296 595.311462,741.917236 
	C600.777100,746.260986 605.367493,750.328552 609.596741,754.776855 
	C632.293091,778.648926 632.045105,809.456787 608.925232,832.808594 
	C598.493713,843.344727 586.213135,851.244690 573.007080,857.825317 
	C570.270874,859.188843 567.254272,860.159119 564.864319,862.366821 
	C565.382751,863.026367 565.620911,863.488953 565.993225,863.779907 
	C586.730530,879.989807 607.496155,896.163513 628.201904,912.413513 
	C630.452148,914.179504 632.425232,913.647339 634.680237,912.672363 
	C645.250488,908.102539 655.381958,902.698486 665.245483,896.775513 
	C685.427307,884.656311 703.566345,870.171326 717.427917,850.904785 
	C737.394653,823.152283 740.255981,793.955261 723.682373,763.662537 
	C709.352966,737.471741 686.963928,719.207336 662.575317,703.036804 
	C660.021118,701.343262 657.981018,701.985291 655.719666,703.454407 
	C648.875549,707.901245 641.979614,712.268311 634.486938,717.047668 
M163.598114,798.880188 
	C170.551743,811.646729 181.714325,820.040100 193.704727,827.439392 
	C218.515091,842.749939 245.875336,851.656555 273.920319,858.674683 
	C298.845886,864.912170 324.256378,868.350769 349.808105,870.493774 
	C363.712433,871.659851 360.597717,872.091003 362.528351,858.622864 
	C365.099030,840.689392 366.708893,822.619629 369.150940,804.665466 
	C369.746277,800.288330 368.987152,798.903992 364.553558,799.247803 
	C344.806702,800.779114 325.038025,802.036499 305.301147,803.680176 
	C301.835571,803.968750 298.753265,803.525757 295.553711,802.482178 
	C256.769592,789.831543 220.977493,771.210205 187.404922,748.201782 
	C184.694321,746.344116 182.852966,746.399109 180.380768,748.416992 
	C175.194916,752.650024 170.209244,757.047180 166.335220,762.550842 
	C158.396515,773.829041 156.479782,785.649902 163.598114,798.880188 
M466.148346,867.574036 
	C474.018616,866.280640 481.942993,865.250427 489.749115,863.645081 
	C514.607910,858.533020 538.892456,851.614441 561.491516,839.703186 
	C574.714905,832.733643 587.021423,824.618347 595.764343,812.075256 
	C598.963501,807.485474 601.019226,802.482178 601.750366,796.911499 
	C602.270630,792.947266 601.108521,790.999390 596.672424,791.314758 
	C590.367371,791.763000 584.031921,791.821594 577.707520,791.951965 
	C537.916504,792.772095 498.121155,793.417053 458.335297,794.435242 
	C440.038818,794.903503 421.754181,795.971924 403.477264,797.000610 
	C395.968170,797.423157 396.154083,797.720093 395.312866,805.561707 
	C393.876373,818.952820 392.233643,832.322205 390.617310,845.693420 
	C389.566803,854.384094 388.409424,863.061890 387.201202,872.518005 
	C413.759399,872.655273 439.571350,871.315979 466.148346,867.574036 
M205.104172,734.474304 
	C205.452026,735.975586 206.842148,736.435303 207.911301,737.132446 
	C236.334717,755.665161 266.453094,770.816162 298.388580,782.314697 
	C300.563446,783.097717 302.782471,783.799561 305.197571,783.639832 
	C325.940002,782.268066 346.684174,780.921875 367.430695,779.613708 
	C371.010864,779.387939 372.483612,777.839539 372.895355,774.060547 
	C374.567963,758.708801 376.656830,743.402710 378.554382,728.075073 
	C379.506500,720.384644 380.377441,712.684265 381.257812,705.219543 
	C379.271332,703.897644 377.557587,704.255981 375.932465,704.227722 
	C336.860901,703.548523 298.154175,706.839478 260.008942,715.498047 
	C241.179504,719.772156 222.674759,725.197571 205.104172,734.474304 
M558.207275,743.337280 
	C550.971436,739.957458 543.852295,736.295837 536.480347,733.244873 
	C496.411804,716.661987 454.240326,709.429138 411.360687,705.421631 
	C408.722748,705.175110 407.462372,706.020020 407.193726,708.905701 
	C406.515778,716.187378 405.533234,723.441467 404.629333,730.701172 
	C402.904755,744.552856 401.128082,758.398010 399.425201,772.252258 
	C399.063385,775.196228 398.720276,777.643616 403.453827,777.453003 
	C438.199188,776.054138 472.951233,774.766663 507.711029,773.800232 
	C532.498108,773.111084 557.301025,773.003357 582.095520,772.560425 
	C585.631409,772.497192 589.159607,772.005615 593.524536,771.643066 
	C583.958984,758.687683 571.536499,751.026978 558.207275,743.337280 
z"/>
</svg>