<svg version="1.1" id="Layer_1" xmlns="http://www.w3.org/2000/svg" xmlns:xlink="http://www.w3.org/1999/xlink" x="0px" y="0px"
	 width="100%" viewBox="0 0 736 1024" enable-background="new 0 0 736 1024" xml:space="preserve">
<path fill="#000000" opacity="1.000000" stroke="none" 
	d="
M737.000000,827.531372 
	C733.113586,839.168945 728.785889,850.101501 722.582214,860.277039 
	C707.221130,885.472961 685.700867,904.364258 661.428894,920.404236 
	C625.614502,944.072021 586.090881,959.348022 545.030945,970.944946 
	C507.782257,981.465393 469.797241,987.930603 431.251221,991.468079 
	C393.489807,994.933594 355.715302,995.053589 317.981140,992.104980 
	C256.897552,987.331787 197.398300,975.240112 140.703918,951.257446 
	C109.193108,937.927734 79.673721,921.275818 54.537189,897.733093 
	C32.908497,877.475769 16.820122,853.859070 11.365784,824.024414 
	C6.394248,796.830505 13.426647,772.167725 27.240639,749.061951 
	C35.501610,735.244507 46.062698,723.219727 58.340492,712.776855 
	C60.811207,710.675415 62.059433,708.387390 62.081913,705.077576 
	C62.157707,693.917053 62.511711,682.758789 62.664516,671.598389 
	C63.141289,636.777222 63.293312,601.948547 64.152229,567.137146 
	C64.538689,551.473999 64.499702,535.817749 64.717613,520.159485 
	C65.151176,489.005035 65.477257,457.849121 65.914856,426.694733 
	C66.563042,380.547760 67.266861,334.401520 67.952118,288.255035 
	C68.639847,241.942535 69.296829,195.629547 70.038605,149.317902 
	C70.505493,120.168747 71.101845,91.021667 71.648438,61.873810 
	C71.672798,60.574314 71.451767,59.213398 73.213966,56.811619 
	C84.236107,74.118179 93.529686,91.742371 103.577057,108.895706 
	C113.765648,126.290146 123.719009,143.822525 133.750183,161.308945 
	C143.864304,178.939926 153.951538,196.586334 164.043045,214.230286 
	C174.051987,231.729843 184.042130,249.240158 194.057861,266.735840 
	C204.073502,284.231323 214.134354,301.700989 224.131577,319.207001 
	C234.112259,336.684052 244.038651,354.192169 254.753677,373.031403 
	C296.677948,269.077850 338.137146,166.277420 379.596344,63.476990 
	C380.158081,63.476223 380.719788,63.475452 381.281494,63.474686 
	C422.687469,166.569473 464.093445,269.664276 506.010132,374.030640 
	C566.882935,268.202698 627.371460,163.630569 688.634399,59.427917 
	C691.792542,61.431416 691.267212,63.432755 691.291870,65.176201 
	C691.671509,91.999229 691.855896,118.825874 692.387878,145.645691 
	C693.418701,197.621414 693.809631,249.604523 694.523560,301.583435 
	C695.180298,349.397919 695.818665,397.212433 696.463806,445.027008 
	C697.196655,499.339233 697.749451,553.654053 698.588684,607.963074 
	C698.949158,631.287231 699.048401,654.611084 699.378174,677.933472 
	C699.545471,689.758545 700.023254,701.579468 700.155457,713.404602 
	C700.189636,716.463989 701.829224,718.287415 703.704224,720.219177 
	C717.209839,734.133545 728.045288,749.761353 734.379150,768.256592 
	C735.185120,770.610046 735.917236,772.988770 736.841797,775.677856 
	C737.000000,793.020874 737.000000,810.041809 737.000000,827.531372 
M570.602600,645.737122 
	C606.086487,656.623108 639.682007,671.647156 671.768616,692.934265 
	C671.768616,689.852478 671.786255,688.091736 671.765991,686.331360 
	C671.543518,667.010742 671.460083,647.691162 671.101257,628.368713 
	C670.111572,575.071777 669.670288,521.764709 669.012573,468.461609 
	C668.340515,413.992462 667.630249,359.523773 667.009216,305.054077 
	C666.494507,259.908478 666.105713,214.761475 665.598816,169.615784 
	C665.545166,164.844666 665.071472,160.078232 664.750793,154.594498 
	C663.947388,155.753143 663.632446,156.143478 663.385132,156.572800 
	C627.144226,219.504608 590.870117,282.417389 554.682739,345.380005 
	C518.495728,408.341888 482.301971,471.299133 446.662109,534.574951 
	C434.393402,556.357117 425.055359,579.621399 412.178131,601.069031 
	C408.878204,606.565186 405.875031,612.239502 402.864319,617.602539 
	C404.233459,619.031616 405.275452,618.846497 406.248413,618.901428 
	C428.343658,620.148254 450.389099,621.890869 472.363403,624.618469 
	C505.476440,628.728821 537.898010,635.949951 570.602600,645.737122 
M348.518127,601.917664 
	C344.369110,593.761353 338.462067,586.263245 336.381104,577.356140 
	C334.261841,568.285156 329.227966,561.046021 324.763947,553.338562 
	C324.263153,552.473877 323.769928,551.604675 323.279510,550.734009 
	C295.488953,501.396942 267.828949,451.985809 239.879837,402.738770 
	C193.679260,321.332306 147.294754,240.030212 100.964355,158.697495 
	C100.115120,157.206650 99.691254,155.316345 97.305443,154.278687 
	C94.994263,332.223663 92.687531,509.826111 90.371468,688.146545 
	C172.749390,638.486694 263.487274,623.267273 357.646545,618.366028 
	C354.472382,612.654907 351.668640,607.610352 348.518127,601.917664 
M323.478271,275.857483 
	C306.947449,316.956390 290.441162,358.065186 273.833313,399.132904 
	C272.669098,402.011749 272.614655,404.251434 274.299347,407.024841 
	C278.708466,414.283264 282.718719,421.783417 286.912781,429.173126 
	C305.004059,461.048981 323.028900,492.962952 341.235138,524.773071 
	C349.502502,539.217896 358.389557,553.265259 364.365723,568.968140 
	C368.366180,579.479614 373.598724,589.538452 380.309540,599.562988 
	C382.070618,596.658997 383.516937,594.291443 384.946472,591.913757 
	C392.095825,580.022644 396.413849,566.762390 403.023743,554.600952 
	C408.201385,545.074646 414.658966,536.290771 419.689026,526.741516 
	C430.797546,505.652740 442.996460,485.189087 454.547668,464.357574 
	C464.727142,445.999817 475.209564,427.809143 485.663239,409.605011 
	C487.741455,405.985992 488.037109,402.707458 486.339874,398.760101 
	C482.197113,389.125275 478.469086,379.312164 474.575928,369.570068 
	C443.735535,292.396484 412.897034,215.222122 382.040253,138.055099 
	C381.639465,137.052795 381.651031,135.693512 379.860779,135.291092 
	C361.178406,181.890579 342.483093,228.522324 323.478271,275.857483 
M207.114304,665.700134 
	C179.660339,673.521790 152.967743,683.202759 126.988976,697.588440 
	C148.013474,709.485046 167.861984,720.690674 187.673340,731.961609 
	C189.935211,733.248352 191.768631,732.467712 193.770493,731.485596 
	C199.300262,728.772766 204.768143,725.901733 210.434372,723.504150 
	C257.543304,703.570801 307.152466,695.707336 357.856598,693.850952 
	C383.146759,692.925049 408.438995,693.668457 433.666138,696.542480 
	C470.906006,700.785217 507.187164,708.647522 541.754150,723.441284 
	C545.095276,724.871216 547.611755,724.477783 550.573425,722.697083 
	C564.420227,714.372131 578.365906,706.211609 592.277710,697.994629 
	C597.809570,694.727234 603.345154,691.465942 609.579651,687.788635 
	C606.691406,686.393921 604.663635,685.292297 602.544373,684.410583 
	C585.932312,677.499329 569.031616,671.396667 551.744446,666.383301 
	C500.764160,651.598633 448.529663,645.200745 395.656189,643.449341 
	C364.326630,642.411499 333.052307,644.181885 301.914795,647.581421 
	C270.126678,651.051941 238.712067,656.757080 207.114304,665.700134 
M409.234467,967.669861 
	C460.728821,963.868408 511.427399,955.977905 560.167603,939.278137 
	C560.294128,937.153809 559.528320,936.440308 558.862305,935.721558 
	C544.369568,920.082031 529.819702,904.494995 515.409058,888.780273 
	C513.293640,886.473450 511.253235,886.621765 508.725311,887.458008 
	C496.546600,891.486816 484.123535,894.692261 471.581940,897.262329 
	C424.810974,906.846619 377.624969,909.256409 330.022797,905.489624 
	C294.024200,902.641052 258.790436,896.354431 224.665939,884.400940 
	C221.083130,883.145935 218.473633,883.699463 215.549286,886.032288 
	C202.400299,896.521301 188.994812,906.690002 175.897324,917.241760 
	C170.534241,921.562378 164.656784,925.329041 159.369080,930.912598 
	C163.606018,932.656677 167.212952,934.284241 170.917877,935.645081 
	C230.604477,957.568848 292.551453,966.888855 355.834595,968.618164 
	C373.324127,969.096008 390.807922,968.468262 409.234467,967.669861 
M335.024994,808.631958 
	C333.374512,808.839172 331.727020,809.074341 330.073120,809.249268 
	C309.729156,811.400574 289.371765,813.432312 269.042969,815.718079 
	C247.554443,818.134155 226.084213,820.719849 204.623749,823.374939 
	C195.767746,824.470581 186.821426,825.020386 177.295700,827.149841 
	C182.005676,832.530151 187.094208,836.435425 192.487396,839.944641 
	C223.263138,859.970154 257.825439,869.280212 293.430817,875.774292 
	C298.978088,876.786011 303.287720,875.408508 307.895599,872.600159 
	C324.962982,862.197876 342.120819,851.936157 359.420502,841.925476 
	C376.021454,832.319031 393.054932,823.575562 411.828613,818.851624 
	C433.221130,813.468872 455.130829,811.588928 477.002899,809.939453 
	C510.189941,807.436646 543.434265,805.692444 576.654358,803.628601 
	C582.831604,803.244812 584.096313,801.518921 583.175659,795.299805 
	C581.334106,782.861694 573.560547,774.310364 564.393127,766.801636 
	C552.158813,756.780945 538.135071,749.758545 523.579651,743.887817 
	C490.111176,730.388550 455.040741,723.760193 419.271118,720.448730 
	C415.431030,720.093140 411.425751,719.152405 407.102844,720.573486 
	C407.102844,722.498413 407.152405,724.309204 407.095032,726.116577 
	C406.624939,740.920105 407.238281,755.799805 405.242462,770.500916 
	C403.088348,786.368042 394.814880,797.660706 378.815186,802.177856 
	C364.803101,806.133972 350.418152,807.662354 335.024994,808.631958 
M586.530518,925.053528 
	C588.710388,927.909912 591.280396,928.135254 594.453918,926.624878 
	C609.345154,919.537476 624.352600,912.694458 638.359070,903.888672 
	C662.012024,889.018127 683.445374,871.754456 698.169373,847.492493 
	C715.962097,818.174011 717.100403,788.408203 699.262634,758.678467 
	C685.178284,735.204346 664.449402,718.642212 641.540405,704.447754 
	C638.137939,702.339661 635.563782,703.749451 632.794556,705.404419 
	C615.205383,715.916992 597.595459,726.395142 580.050781,736.981506 
	C578.310913,738.031311 575.940186,738.415588 574.921143,740.936340 
	C578.603149,743.806458 582.376770,746.510925 585.887390,749.521973 
	C614.380310,773.959351 620.543274,807.498291 595.981689,837.172241 
	C583.514771,852.234070 567.426575,862.506104 550.231689,871.273132 
	C547.609314,872.610229 544.627563,873.400757 542.073242,876.335449 
	C556.198364,892.892212 571.418518,908.444763 586.530518,925.053528 
M38.486572,819.997009 
	C41.626675,837.940491 50.435356,853.045410 62.074940,866.667908 
	C79.880104,887.506775 101.847511,902.919373 125.955376,915.577637 
	C129.276505,917.321594 131.542450,917.150024 134.435928,914.859375 
	C151.413605,901.418701 168.542328,888.168945 185.545593,874.760315 
	C187.262848,873.406128 189.699402,872.523682 190.239471,869.599792 
	C188.277008,868.367126 186.337997,867.108765 184.360626,865.913818 
	C173.905731,859.595947 164.119614,852.422974 155.826340,843.381653 
	C145.143021,831.734680 137.961853,818.420593 137.807739,802.258850 
	C137.647232,785.426880 144.416733,771.284851 155.683731,759.045410 
	C158.424149,756.068481 161.908569,753.703186 164.149246,749.625000 
	C143.266449,737.857300 122.666939,726.272217 102.101700,714.626648 
	C99.920403,713.391357 98.338409,714.259155 96.652222,715.485046 
	C89.911514,720.385681 83.231094,725.387146 77.174744,731.110352 
	C51.908943,754.986145 33.487885,781.932800 38.486572,819.997009 
M327.235962,784.640442 
	C330.044525,784.320068 332.855652,784.020874 335.661163,783.675537 
	C346.052979,782.396240 356.507690,781.635010 366.706970,778.951843 
	C373.640503,777.127625 376.890656,772.664062 377.745270,765.848267 
	C379.556213,751.405396 378.165466,736.888062 378.886841,722.423645 
	C379.039032,719.372009 377.704193,718.189575 374.734467,718.371521 
	C370.081177,718.656738 365.422424,718.938904 360.762543,719.016296 
	C329.170135,719.541077 298.054352,723.766663 267.426514,731.395569 
	C238.299652,738.650391 210.409454,748.930725 186.250397,767.377747 
	C176.277298,774.992920 168.138885,784.138245 165.682892,797.076660 
	C164.721176,802.143127 165.575134,803.160706 170.704834,802.565674 
	C193.833069,799.883057 216.946198,797.069458 240.077408,794.413208 
	C268.822449,791.112305 297.579926,787.919861 327.235962,784.640442 
M356.766663,881.689026 
	C387.294861,882.749146 417.607025,880.736938 447.762054,875.787048 
	C479.792877,870.529175 510.868805,862.241943 539.892822,847.391235 
	C548.895447,842.784973 557.555786,837.481323 565.463379,829.490784 
	C561.680115,829.490784 558.724731,829.306396 555.798279,829.519226 
	C525.108704,831.750793 494.404236,833.814026 463.744324,836.402893 
	C442.318390,838.212158 421.008972,841.256836 401.199066,850.277039 
	C386.496582,856.971619 372.482178,865.043640 358.697632,873.479126 
	C355.217102,875.609070 351.768494,877.791260 347.979950,880.152161 
	C350.877106,881.933594 353.413177,881.524353 356.766663,881.689026 
z"/>
</svg>