<svg version="1.1" id="Layer_1" xmlns="http://www.w3.org/2000/svg" xmlns:xlink="http://www.w3.org/1999/xlink" x="0px" y="0px"
	 width="100%" viewBox="0 0 784 1024" enable-background="new 0 0 784 1024" xml:space="preserve">
<path fill="#000000" opacity="1.000000" stroke="none" 
	d="
M785.000000,812.531372 
	C777.278381,836.930786 763.141113,856.654602 744.830627,873.504700 
	C722.180359,894.348511 696.141846,910.072510 668.367493,923.032349 
	C623.419067,944.005981 576.154114,957.400269 527.496582,966.484619 
	C471.747955,976.892944 415.541992,980.694824 358.949158,978.925598 
	C294.193604,976.901245 230.653824,967.478577 169.460999,945.352173 
	C134.142426,932.581482 100.794403,916.087646 72.503502,890.755310 
	C56.419666,876.353455 43.067162,859.856323 34.991028,839.620911 
	C21.843712,806.679199 26.799810,775.650879 45.448425,746.213196 
	C54.348240,732.164429 65.272774,719.846497 77.926498,709.123413 
	C81.448257,706.138977 82.692383,703.013794 82.793571,698.449951 
	C83.716644,656.817200 84.875183,615.189575 86.013809,573.561707 
	C86.560280,553.583008 87.201889,533.606750 87.817657,513.629944 
	C89.228851,467.848694 90.666656,422.068237 92.060936,376.286469 
	C92.694702,355.476349 93.220352,334.662964 93.848404,313.852661 
	C95.214928,268.573151 96.622330,223.294876 97.999466,178.015686 
	C98.601997,158.204773 99.168037,138.392776 99.756592,118.581429 
	C100.399467,96.942131 101.046104,75.302948 101.708115,53.664223 
	C101.732788,52.857571 101.936172,52.056389 102.758850,50.917297 
	C166.171280,157.159225 228.564789,263.936310 291.231934,372.513641 
	C322.287292,261.495239 368.419708,157.961624 417.515686,55.184212 
	C441.988831,106.388824 464.803833,158.043365 485.938660,210.439163 
	C507.127106,262.967743 525.994385,316.308380 541.899231,372.351166 
	C605.806213,264.348541 669.048096,157.469910 732.188477,50.762836 
	C734.595276,51.480900 734.220642,52.829750 734.245911,53.905148 
	C734.953735,84.050056 735.576172,114.197090 736.339050,144.340576 
	C737.304016,182.469757 738.208496,220.601807 739.469299,258.721710 
	C740.289795,283.529327 740.880554,308.338501 741.424377,333.152283 
	C742.293091,372.788116 743.232788,412.423920 744.468506,452.049561 
	C745.268127,477.689209 745.838135,503.330322 746.422974,528.974487 
	C747.516785,576.941772 748.874756,624.902527 749.445068,672.881165 
	C749.547974,681.540100 750.053650,690.193604 750.243591,698.852478 
	C750.297363,701.306091 750.826294,703.311707 752.621521,705.139709 
	C767.072632,719.855103 778.029175,736.774475 784.813110,756.702026 
	C785.000000,775.354248 785.000000,793.708435 785.000000,812.531372 
M118.378380,313.636780 
	C118.145012,329.293579 117.840889,344.949066 117.505943,360.603424 
	C116.839539,391.748840 116.286446,422.895630 115.447861,454.039154 
	C114.506210,489.010345 113.944046,523.992432 113.345352,558.971985 
	C112.800735,590.792786 112.433357,622.616638 111.967621,654.438843 
	C111.940849,656.267517 111.633705,658.093079 111.624199,659.920898 
	C111.584030,667.644836 111.607178,675.369080 111.607178,683.091980 
	C114.228706,683.167114 115.584633,681.775330 117.095291,680.842407 
	C153.684189,658.248047 193.266769,642.618103 234.492966,631.072876 
	C284.382233,617.101562 335.313599,609.493408 387.096924,607.626038 
	C388.857178,607.562561 390.810059,607.826416 392.290344,605.758545 
	C305.709290,445.620575 215.600784,287.363373 122.557579,129.080902 
	C121.145699,191.248398 119.766853,251.961609 118.378380,313.636780 
M446.238556,590.672729 
	C443.405487,595.693054 440.572449,600.713440 437.863586,605.513733 
	C438.939606,606.976135 440.020325,606.691040 440.970093,606.728516 
	C457.764008,607.390503 474.536469,608.271484 491.306213,609.527466 
	C528.751770,612.331787 565.649780,618.256958 601.948853,627.797424 
	C643.087341,638.609985 682.566223,653.381226 718.034546,677.489563 
	C718.933655,678.100647 719.797119,679.115784 721.236328,678.638306 
	C722.304810,677.001282 721.760803,675.129272 721.742493,673.370667 
	C721.586609,658.381958 721.381226,643.394226 721.109070,628.406494 
	C720.162476,576.275024 719.752625,524.133972 719.015686,471.998322 
	C718.431824,430.695038 717.678040,389.394073 716.980591,348.092438 
	C716.302856,307.956055 715.566223,267.820618 714.920532,227.683746 
	C714.411316,196.036606 714.007019,164.387787 713.521545,132.740234 
	C713.503601,131.571808 714.104858,130.171844 712.685852,129.014130 
	C622.528015,282.014526 533.421265,435.364227 446.238556,590.672729 
M429.959625,137.455704 
	C426.007690,128.342697 422.055756,119.229691 418.020966,109.925674 
	C415.730194,111.554787 415.221985,113.578781 414.439575,115.341927 
	C404.038208,138.780502 393.569397,162.190552 383.376801,185.720078 
	C353.620636,254.412018 328.433411,324.719574 308.948578,397.036346 
	C308.150452,399.998627 308.381714,402.414368 309.878815,405.097900 
	C343.878754,466.042725 377.807465,527.027222 411.780365,587.987122 
	C412.630676,589.512878 413.116272,591.444702 415.306305,592.158691 
	C417.007935,590.769348 417.851288,588.759705 418.901367,586.909912 
	C431.811035,564.167908 444.645630,541.382996 457.633514,518.685791 
	C478.976196,481.387939 500.361969,444.114380 521.892151,406.924744 
	C524.348694,402.681488 524.748901,398.839142 523.464539,394.173676 
	C513.208252,356.919006 501.829559,320.022614 488.858490,283.619812 
	C471.297882,234.336578 451.263824,186.050644 429.959625,137.455704 
M171.299576,700.151245 
	C184.680298,708.594055 198.110458,716.960327 211.400955,725.542847 
	C214.133713,727.307556 216.247910,727.462280 219.148773,725.939575 
	C229.329361,720.595764 239.859055,715.991516 250.656876,712.017883 
	C301.373871,693.353760 354.050049,685.851624 407.793732,684.730164 
	C428.432831,684.299438 449.051056,684.801331 469.669861,686.540039 
	C509.523468,689.900635 548.488647,697.023926 585.729492,712.033447 
	C589.267029,713.459229 591.849304,713.101501 594.952759,711.219604 
	C609.905273,702.152222 624.969238,693.268494 639.990784,684.314941 
	C646.660645,680.339294 653.323792,676.352539 660.382019,672.136719 
	C659.335144,671.444458 658.850830,671.004700 658.282104,670.766541 
	C652.294189,668.259094 646.357849,665.610840 640.284668,663.327454 
	C598.310242,647.546265 554.846558,638.054321 510.360443,633.135254 
	C470.425262,628.719360 430.395569,627.139893 390.204620,629.025818 
	C352.050140,630.816162 314.300720,635.365234 276.985016,643.466431 
	C235.495132,652.473816 195.353180,665.422852 157.456818,684.824280 
	C155.812393,685.666138 153.598236,685.988586 152.941986,688.594177 
	C158.867493,692.327637 164.775009,696.049744 171.299576,700.151245 
M500.632050,882.293457 
	C467.347687,888.730774 433.677307,891.264038 399.852722,891.896057 
	C379.866150,892.269531 359.921234,891.154114 339.984894,889.492859 
	C311.842010,887.147766 284.272705,881.916443 257.234650,873.947266 
	C252.711884,872.614258 249.609604,872.925842 245.954590,875.865723 
	C232.589798,886.615723 218.971008,897.049683 205.470535,907.631531 
	C198.570801,913.039612 191.719147,918.508972 184.491531,924.231079 
	C188.856033,927.184021 193.244446,928.239563 197.443008,929.606934 
	C249.257736,946.482117 302.576874,954.788696 356.905731,956.538635 
	C396.372467,957.809753 435.776062,956.798279 475.086853,952.018799 
	C514.020691,947.285034 552.294922,939.719543 589.872437,928.578125 
	C596.977173,926.471558 603.940552,923.888550 611.508728,921.343933 
	C610.419678,920.073730 609.988525,919.373230 609.382690,918.892944 
	C589.801270,903.368774 570.183899,887.889893 550.636292,872.323303 
	C548.641663,870.734863 546.743958,870.791321 544.585083,871.477417 
	C530.448425,875.970459 515.971741,879.093994 500.632050,882.293457 
M761.688171,787.335876 
	C762.138000,768.714294 756.617065,751.893860 746.203247,736.609741 
	C731.096130,714.437378 709.893250,699.280640 687.367859,685.642029 
	C684.972839,684.191956 683.295837,685.304688 681.433289,686.418091 
	C662.561462,697.700500 643.657166,708.929321 624.849976,720.318542 
	C621.816223,722.155640 618.307678,723.410034 615.568420,726.311096 
	C620.529053,730.097595 625.255554,733.489868 629.743347,737.173096 
	C641.061279,746.461853 650.161072,757.393372 653.210510,772.151123 
	C657.303894,791.960815 649.529907,808.137146 636.509705,822.189758 
	C621.500488,838.388977 602.475586,848.712891 582.575806,857.594543 
	C580.224121,858.644165 577.611206,859.279419 575.467896,861.362427 
	C576.592468,862.400269 577.385498,863.238037 578.282104,863.944092 
	C595.689575,877.652466 613.304932,891.107361 630.414612,905.177307 
	C636.015503,909.783264 640.379639,910.609375 647.129211,907.351562 
	C680.058289,891.457397 711.383911,873.426331 735.812439,845.440491 
	C750.167847,828.994690 760.224976,810.572632 761.688171,787.335876 
M115.693222,891.782166 
	C127.740479,899.588806 140.346939,906.363403 153.369583,912.396729 
	C156.589890,913.888672 159.128586,913.734985 162.048492,911.437866 
	C181.689346,895.986206 201.461075,880.700928 221.165024,865.329224 
	C222.259964,864.475037 223.937805,863.977295 223.836624,861.729431 
	C220.248749,859.920959 216.533493,858.092285 212.857620,856.187561 
	C200.049011,849.550598 188.268341,841.497925 178.330261,830.935791 
	C162.076172,813.661194 158.292160,793.099182 167.726334,771.943115 
	C172.516159,761.201965 180.566360,752.994873 189.360382,745.444336 
	C190.657684,744.330444 192.636414,743.744568 192.912338,741.418091 
	C172.665833,728.554321 152.409241,715.721985 132.209503,702.800903 
	C129.737228,701.219360 127.798111,702.062073 125.790031,703.395691 
	C104.832657,717.313660 85.598602,733.089050 71.186348,754.065247 
	C61.348579,768.383545 54.984337,784.059143 54.604496,801.519470 
	C54.218674,819.254700 60.450150,835.123840 70.539970,849.553162 
	C82.467888,866.611145 97.902756,879.930969 115.693222,891.782166 
M499.025391,800.617920 
	C494.870392,801.755798 490.977814,804.248047 486.566528,803.970703 
	C477.437866,803.396973 468.339661,802.356079 459.216919,801.666260 
	C447.433594,800.775391 435.636322,800.069763 423.849731,799.219238 
	C420.398529,798.970215 419.087585,800.033630 419.577942,803.796875 
	C422.284515,824.568054 424.841095,845.359558 427.280579,866.163818 
	C427.707855,869.807922 428.717224,871.244446 432.819336,870.947083 
	C466.773376,868.485352 500.262512,863.406067 532.976990,853.796875 
	C558.510620,846.296997 583.121277,836.730835 604.884338,820.959106 
	C612.919739,815.135864 620.006775,808.381042 624.982788,799.686340 
	C631.061279,789.065308 631.663513,778.307739 625.677368,767.355286 
	C621.589661,759.876099 615.518433,754.269897 609.173035,748.810303 
	C606.237793,746.284790 604.006836,746.441833 600.860840,748.612915 
	C569.444519,770.293335 535.829102,787.724731 499.025391,800.617920 
M231.499039,792.184143 
	C218.340805,791.909058 205.180145,791.713318 192.025925,791.307983 
	C188.332260,791.194214 186.873199,792.429932 187.212357,796.205750 
	C187.751038,802.202698 189.989578,807.468689 193.405533,812.313293 
	C203.982895,827.314148 219.221359,836.231934 235.367859,843.635193 
	C262.047180,855.867859 290.231934,862.860901 319.237335,867.071228 
	C344.509430,870.739502 369.888062,872.271240 395.375244,872.596069 
	C401.938324,872.679749 401.837830,872.597595 400.990051,866.259399 
	C399.799561,857.358948 398.740967,848.440125 397.694092,839.521179 
	C396.277985,827.456360 394.855713,815.391418 393.585480,803.310791 
	C393.139130,799.065857 391.666565,796.933960 386.826599,796.893616 
	C378.181824,796.821533 369.550781,795.695190 360.901642,795.456360 
	C318.103333,794.274597 275.317535,792.578796 231.499039,792.184143 
M524.183472,768.616699 
	C544.936646,758.843140 565.080261,747.998962 585.483093,734.238403 
	C527.827393,709.226562 468.529816,703.466003 408.297394,704.205139 
	C407.876343,705.368713 407.635345,705.693359 407.671478,705.983459 
	C410.443298,728.229553 413.538544,750.441956 415.831848,772.736816 
	C416.460663,778.849915 419.338348,779.483398 424.134979,779.748657 
	C437.579193,780.492493 451.020142,781.382202 464.436432,782.520081 
	C478.131256,783.681702 491.552887,784.011719 504.265015,777.255798 
	C510.414368,773.987671 517.069031,771.670410 524.183472,768.616699 
M235.410904,740.984070 
	C220.524979,748.664551 206.333328,757.226257 195.476196,771.585449 
	C197.774109,771.855286 198.913849,772.046448 200.060944,772.115417 
	C221.835724,773.424561 243.652023,772.635620 265.447144,773.556274 
	C294.540192,774.785156 323.668915,775.153625 352.779053,776.002747 
	C363.253998,776.308228 373.736023,776.719971 384.181763,777.516418 
	C388.655518,777.857544 390.241180,776.714233 389.654297,772.146362 
	C386.965088,751.216248 384.335815,730.277222 381.929657,709.313232 
	C381.488312,705.468201 379.652374,705.148743 376.602081,705.524353 
	C366.373505,706.783997 356.108917,707.771790 345.900909,709.174927 
	C307.795471,714.413086 270.799866,723.585876 235.410904,740.984070 
z"/>
</svg>