<svg version="1.1" id="Layer_1" xmlns="http://www.w3.org/2000/svg" xmlns:xlink="http://www.w3.org/1999/xlink" x="0px" y="0px"
	 width="100%" viewBox="0 0 880 1024" enable-background="new 0 0 880 1024" xml:space="preserve">
<path fill="#000000" opacity="1.000000" stroke="none" 
	d="
M767.255737,93.999969 
	C767.274231,287.148895 767.322876,479.797882 767.171570,672.446655 
	C767.166687,678.685059 768.747375,682.854797 773.736633,686.780823 
	C789.301270,699.028198 802.700073,713.410828 812.792236,730.555298 
	C835.596069,769.294312 834.709778,807.714966 810.506714,845.531555 
	C794.882385,869.944214 772.990295,887.759399 748.713623,902.815613 
	C712.110474,925.516479 672.168396,940.040771 630.530762,950.327087 
	C602.350769,957.288696 573.731812,961.430115 544.896667,964.391479 
	C517.861938,967.168030 490.758514,968.540955 463.604340,967.971741 
	C400.777313,966.654602 338.804443,959.041992 278.374207,941.174744 
	C241.675339,930.324097 206.214569,916.379150 173.479599,896.278564 
	C147.292389,880.198608 123.543251,861.298340 106.114357,835.440063 
	C92.475418,815.204651 85.240578,793.069702 86.762405,768.547302 
	C88.362556,742.762939 98.999535,720.618591 116.042610,701.654053 
	C121.253662,695.855530 123.206825,690.163208 123.189445,682.511230 
	C122.987793,593.686646 123.052849,504.861328 123.135696,416.036285 
	C123.170349,378.888306 123.741798,341.737946 123.445137,304.593628 
	C123.260162,281.433350 123.167938,258.273743 123.134308,235.113998 
	C123.069229,190.295227 123.075951,145.476242 123.137558,100.657463 
	C123.157707,85.997360 123.433693,71.337540 123.615807,56.677879 
	C123.629814,55.549782 123.362862,54.341049 124.835014,52.552868 
	C189.770645,158.250336 254.531219,263.662842 320.027588,370.273010 
	C361.871704,264.365967 403.188599,159.793411 444.505463,55.220871 
	C444.969727,55.216129 445.434021,55.211384 445.898285,55.206638 
	C488.664795,159.892700 531.431274,264.578735 574.197815,369.264801 
	C574.762268,369.375336 575.326721,369.485901 575.891174,369.596436 
	C638.946228,263.817413 701.519043,157.746353 765.429626,52.485394 
	C766.038086,52.640289 766.646545,52.795181 767.255005,52.950073 
	C767.255005,66.466705 767.255005,79.983337 767.255737,93.999969 
M265.468414,617.811951 
	C317.198181,603.350037 370.022308,595.882996 424.880432,594.068054 
	C333.581940,445.761536 243.085510,298.757874 151.926147,150.677353 
	C151.926147,324.199799 151.926147,496.129456 151.926147,669.207214 
	C187.002472,644.892578 225.099304,629.788147 265.468414,617.811951 
M738.727661,500.500031 
	C738.727661,384.325012 738.727661,268.149994 738.727661,150.613068 
	C650.726807,298.948456 563.492615,445.991455 475.681213,594.007507 
	C568.442200,598.943115 656.778992,616.099365 738.726929,661.635498 
	C738.726929,607.685303 738.726929,554.592651 738.727661,500.500031 
M479.106262,532.665466 
	C504.336517,490.106018 529.535583,447.527985 554.857544,405.023193 
	C556.832947,401.707275 556.461304,398.952606 555.084900,395.659637 
	C545.129883,371.843628 535.241272,347.999359 525.450378,324.115387 
	C499.360992,260.473206 473.335327,196.804916 447.237518,133.166199 
	C446.863770,132.254837 446.917297,130.774216 445.158966,130.633392 
	C444.435028,132.281036 443.648010,133.920715 442.982697,135.608368 
	C425.821106,179.142212 408.713074,222.697235 391.509399,266.214447 
	C374.673340,308.801727 357.791016,351.370972 340.774506,393.886292 
	C339.122345,398.014099 339.073486,401.279663 341.698669,405.017090 
	C345.330933,410.188202 348.412262,415.746216 351.732544,421.136688 
	C383.186523,472.202148 414.634583,523.271240 446.119904,574.317383 
	C447.372253,576.347778 448.316528,578.707642 450.867432,580.398926 
	C460.280396,564.495056 469.512665,548.896423 479.106262,532.665466 
M610.754395,641.895325 
	C477.933258,610.257690 347.280243,615.294495 219.101547,664.530518 
	C220.853500,666.473633 222.673752,667.534546 224.525818,668.536621 
	C239.469238,676.621948 254.664352,684.281555 269.270569,692.935425 
	C277.520935,697.823669 285.096100,700.850403 293.804596,694.814087 
	C293.935577,694.723267 294.120453,694.712830 294.276733,694.655396 
	C338.639923,678.346130 384.745758,671.509460 431.722351,669.959595 
	C470.089386,668.693848 508.197632,671.499878 546.005432,678.503845 
	C579.426514,684.695190 611.738525,694.124878 642.104675,709.618164 
	C644.721313,710.953125 646.725586,710.610229 649.060791,709.216248 
	C666.082520,699.056091 683.150269,688.973267 700.183350,678.832092 
	C701.390015,678.113708 703.048889,677.704712 703.139954,675.311707 
	C674.014954,660.630188 643.289062,649.992493 610.754395,641.895325 
M115.370171,779.151489 
	C115.871391,782.267151 116.298615,785.396912 116.885788,788.496277 
	C120.805946,809.188477 132.472229,825.473328 146.939041,839.904175 
	C171.396317,864.300720 201.072357,880.677246 232.388687,894.421997 
	C235.097778,895.611084 237.013428,894.950195 239.145706,893.152100 
	C246.022263,887.353088 253.041351,881.723328 259.994537,876.015015 
	C268.970459,868.646179 277.935699,861.264282 287.489349,853.407898 
	C279.268158,849.473755 271.764313,845.561584 264.610413,841.050171 
	C247.687515,830.378296 232.064804,818.330383 222.315536,800.221497 
	C213.967697,784.715698 213.097488,768.761780 220.025513,752.593750 
	C224.345139,742.513062 230.773254,733.836060 239.174026,726.692383 
	C243.267044,723.211731 247.345505,719.714050 251.998169,715.739136 
	C230.659744,704.151245 210.175552,693.043213 189.712921,681.895630 
	C187.021423,680.429321 184.931183,681.739502 182.763214,683.041931 
	C165.228455,693.576538 149.076508,705.798340 136.134888,721.827087 
	C122.864456,738.263062 114.886665,756.708496 115.370171,779.151489 
M355.188232,875.450073 
	C343.844574,872.794556 332.460510,870.274658 321.451782,866.393250 
	C319.012024,865.533081 317.253906,865.744202 315.140656,867.489380 
	C300.244965,879.790466 285.211182,891.924255 270.235352,904.128418 
	C269.254333,904.927979 267.886993,905.499756 267.957062,907.118896 
	C308.819092,923.608215 419.655823,949.607849 548.759216,935.558289 
	C589.437866,931.131531 629.467468,923.304871 668.341370,908.975159 
	C667.631042,907.893738 667.451050,907.386597 667.093140,907.108215 
	C650.263062,894.018494 633.394592,880.977844 616.600037,867.842773 
	C614.243713,865.999817 612.125610,866.477112 609.627502,867.315430 
	C571.276917,880.186035 531.720398,886.065002 491.412628,887.308533 
	C471.604858,887.919678 451.804474,887.732117 432.001068,886.434143 
	C406.376129,884.754578 380.999023,881.570496 355.188232,875.450073 
M702.684570,710.229492 
	C692.531738,716.369995 682.378906,722.510559 671.742737,728.943420 
	C677.424255,734.719482 682.605896,739.415405 686.741211,745.100220 
	C703.031860,767.495300 704.532837,790.798523 690.973572,812.744934 
	C684.937988,822.513916 677.048218,830.525574 667.980469,837.499023 
	C660.609802,843.167358 652.571716,847.812012 644.351868,852.691406 
	C645.100708,853.639771 645.409790,854.237854 645.892395,854.612488 
	C663.000671,867.892029 680.146484,881.123413 697.221741,894.445129 
	C699.479736,896.206787 701.413757,895.660522 703.686707,894.679199 
	C712.888306,890.706543 721.653992,885.893188 730.209106,880.728333 
	C749.440308,869.118103 767.170776,855.676086 780.946838,837.632324 
	C801.475464,810.744202 807.220886,781.948181 791.240417,750.846069 
	C778.603882,726.251831 758.267883,708.905823 735.839539,693.671265 
	C733.382385,692.002197 731.566101,692.956421 729.477478,694.218567 
	C720.780457,699.473694 712.037415,704.652527 702.684570,710.229492 
M308.518860,812.090149 
	C301.785187,814.670044 294.991974,817.124207 287.624390,821.387146 
	C295.167267,824.937988 301.507416,828.213684 308.067902,830.963745 
	C351.327118,849.097412 396.910156,856.300171 443.353027,858.498474 
	C467.945343,859.662537 492.593414,859.275513 517.206055,856.968811 
	C547.008423,854.175659 576.165222,848.677734 604.419983,838.739624 
	C612.986938,835.726257 621.385681,832.248230 629.339905,827.891418 
	C628.566162,825.687317 626.986633,825.296875 625.690552,824.696594 
	C611.932068,818.323792 597.951294,812.540833 583.360596,808.281616 
	C532.352539,793.392090 480.286652,788.511353 427.324860,791.003723 
	C387.040680,792.899536 347.563049,798.945496 308.518860,812.090149 
M425.130615,698.820190 
	C418.504089,699.475647 411.845520,699.440491 405.200562,700.071045 
	C372.967163,703.129822 341.236450,708.513794 310.583008,719.286804 
	C291.934204,725.840759 273.925629,733.708374 259.146729,747.230957 
	C249.397919,756.151062 241.641281,766.358643 245.498505,780.898438 
	C247.430298,788.180359 252.385956,793.704407 257.038086,799.399170 
	C259.253387,802.110901 261.154297,802.409485 264.223206,800.747192 
	C294.137360,784.544373 326.510834,775.786377 359.702515,769.624023 
	C387.266022,764.506470 415.156677,762.732056 443.121094,761.877808 
	C446.411865,761.777344 448.881653,761.673950 448.838348,757.178284 
	C448.663300,739.021851 448.731873,720.862488 448.821136,702.704651 
	C448.836487,699.581299 447.863647,698.057922 444.535370,698.202393 
	C438.381714,698.469543 432.219971,698.550659 425.130615,698.820190 
M492.788849,763.636597 
	C499.631927,763.715210 506.383636,764.752197 513.164856,765.519531 
	C562.747437,771.129883 610.515503,782.738525 654.134216,808.075073 
	C655.790466,809.037170 657.041382,809.348633 658.528625,807.835083 
	C669.445129,796.725159 675.107117,783.941956 667.772766,769.036255 
	C663.958862,761.285156 658.103577,755.120117 651.417480,749.735352 
	C637.508118,738.533142 621.714172,730.663635 605.213379,724.220337 
	C580.937134,714.740845 555.787659,708.384460 530.052246,704.368896 
	C514.273865,701.906921 498.456665,699.782776 482.471161,699.081177 
	C478.531982,698.908264 477.178833,700.191772 477.210205,704.143677 
	C477.353210,722.140686 477.339081,740.140076 477.210175,758.137329 
	C477.184814,761.674561 478.532654,762.799866 481.910614,762.778992 
	C485.225128,762.758484 488.543152,763.301514 492.788849,763.636597 
z"/>
</svg>