<svg version="1.1" id="Layer_1" xmlns="http://www.w3.org/2000/svg" xmlns:xlink="http://www.w3.org/1999/xlink" x="0px" y="0px"
	 width="100%" viewBox="0 0 800 1024" enable-background="new 0 0 800 1024" xml:space="preserve">
<path fill="#000000" opacity="1.000000" stroke="none" 
	d="
M169.439148,76.340546 
	C212.588058,58.258419 257.237549,47.302284 303.042053,40.561123 
	C342.501678,34.753757 382.158478,31.913378 422.012238,33.060482 
	C485.751343,34.895077 548.321045,44.134182 608.897583,64.714195 
	C649.408936,78.477348 687.467163,97.011292 720.729858,124.368385 
	C743.897949,143.423157 762.537292,165.967224 772.304016,194.818146 
	C783.930420,229.162445 777.677063,261.158173 758.672607,291.199951 
	C746.211670,310.897949 729.508240,326.637329 711.173767,340.714996 
	C706.961548,343.949219 703.943726,347.596863 701.670227,352.491272 
	C682.654907,393.427582 663.391113,434.248657 644.151489,475.080597 
	C610.501160,546.496521 576.898560,617.935120 543.121155,689.290955 
	C505.637329,768.476746 469.037659,848.072021 432.360504,927.631958 
	C427.618805,937.917542 422.736237,948.139832 418.127502,958.484375 
	C415.800262,963.708130 412.688354,967.994385 406.535461,967.952637 
	C400.551239,967.911987 397.813751,963.532654 395.506226,958.532593 
	C368.496094,900.004944 341.513397,841.463989 314.253387,783.052490 
	C283.682922,717.547607 252.844131,652.167847 222.107285,586.740662 
	C185.634109,509.102905 149.118622,431.484985 112.741432,353.802277 
	C110.927696,349.929047 108.161430,347.473419 104.862793,345.124512 
	C85.060638,331.023682 67.169144,314.988586 53.258892,294.787872 
	C22.357899,249.912888 25.916216,199.799377 56.985233,157.544022 
	C76.431686,131.095932 102.024719,111.933044 130.154968,95.794006 
	C142.737534,88.575058 155.762863,82.224846 169.439148,76.340546 
M596.786072,399.382599 
	C541.419434,417.887726 484.391388,427.122192 426.192261,429.152374 
	C383.148285,430.653931 340.333405,427.537079 297.857361,420.287445 
	C255.182892,413.003937 213.744339,401.492371 174.073334,383.930176 
	C164.092911,379.511902 154.278214,374.752563 143.341263,369.082367 
	C231.706131,556.741333 320.127228,742.809570 406.540558,930.617371 
	C412.455963,920.414368 669.664612,370.327759 669.843323,367.218048 
	C646.442505,379.945709 622.523376,390.778992 596.786072,399.382599 
M61.756470,266.707153 
	C74.383591,293.115723 94.992966,312.189697 118.502342,328.643555 
	C121.528641,330.761627 124.606964,330.869232 127.994820,330.395081 
	C145.936340,327.884186 161.077515,319.602234 174.545181,307.872589 
	C181.042114,302.214081 187.450485,296.460907 192.671051,289.013672 
	C185.281494,282.653809 178.620575,275.938690 173.399231,267.936401 
	C165.990891,256.582245 161.990387,244.185623 162.976410,230.602249 
	C164.064789,215.608780 170.488876,202.827988 180.424347,191.666275 
	C194.810730,175.504288 212.788788,164.478943 232.345383,156.007919 
	C280.190277,135.283691 330.691589,126.365547 382.426117,123.957863 
	C419.446686,122.234947 456.354919,124.195770 492.902832,130.813721 
	C527.987732,137.166763 562.084412,146.650940 593.487244,164.085876 
	C611.161865,173.898849 627.091919,185.839386 637.586914,203.687668 
	C649.649353,224.201691 649.516357,244.739868 637.408142,265.221893 
	C632.080627,274.233887 624.912781,281.617737 617.059082,288.408142 
	C615.727112,289.559723 613.815674,290.251984 613.656433,293.067841 
	C616.715942,296.034271 619.970032,299.365906 623.409546,302.493622 
	C638.432861,316.155151 654.890137,327.227875 675.560669,330.186340 
	C680.576233,330.904205 686.170532,332.670898 690.643799,329.466583 
	C710.543945,315.211395 728.795837,299.161835 741.546326,277.882996 
	C753.999695,257.099792 760.538025,234.980621 754.644775,210.577789 
	C749.069763,187.492859 736.333496,168.621674 719.660828,152.191864 
	C696.052246,128.927185 667.944702,112.471748 637.877197,99.232964 
	C574.716309,71.423065 508.030182,59.249138 439.558380,55.343178 
	C412.921417,53.823673 386.305328,54.262112 359.673126,56.089092 
	C329.233154,58.177280 299.075684,62.070477 269.210541,68.296234 
	C222.956299,77.938499 178.483292,92.480682 137.506882,116.489983 
	C112.887909,130.914963 90.176559,147.713501 73.502495,171.371765 
	C52.813190,200.727081 46.038887,232.001801 61.756470,266.707153 
M296.367004,207.900162 
	C268.258789,229.600693 244.265305,255.199509 222.913788,284.813263 
	C288.995850,319.350281 359.193756,329.361481 431.712402,325.401581 
	C483.512817,322.572998 533.775757,311.949036 579.957703,287.792236 
	C580.095398,285.473206 579.107483,284.705139 578.371094,283.848816 
	C565.662720,269.071075 553.334412,253.960007 539.570862,240.113144 
	C501.578461,201.890808 457.912964,172.356216 407.261444,153.470932 
	C403.487091,152.063660 399.990662,151.059067 395.764313,152.664749 
	C360.173553,166.186447 327.033691,184.066391 296.367004,207.900162 
M349.902069,405.562836 
	C360.032135,406.268127 370.151855,407.296539 380.294098,407.622406 
	C422.668060,408.983917 464.832275,406.882263 506.692322,399.707062 
	C558.240173,390.871246 607.834900,376.167664 654.091675,351.280212 
	C656.070679,350.215424 658.395996,349.542603 659.960266,347.074799 
	C654.717285,345.009369 649.557007,343.225647 644.605591,340.981171 
	C626.863708,332.938843 612.231567,320.646484 598.825867,306.792480 
	C596.677673,304.572479 595.170166,303.708191 592.141907,305.446289 
	C584.198059,310.006012 575.947693,314.019684 567.475464,317.525757 
	C515.949158,338.848846 461.914307,347.281189 406.541107,347.964569 
	C375.685760,348.345398 345.042633,345.147278 314.725006,339.213806 
	C279.719849,332.362915 245.893890,322.052673 214.774139,304.210052 
	C210.247910,301.614929 208.082489,302.446106 204.939011,306.107330 
	C193.123886,319.868530 179.418884,331.403259 163.216171,339.812958 
	C158.400803,342.312317 153.355453,344.285492 148.227905,346.070251 
	C149.001007,348.061707 150.358459,348.434204 151.500351,349.053009 
	C188.953598,369.349335 228.683395,383.469543 270.144653,392.964447 
	C296.151978,398.920349 322.464050,402.853119 349.902069,405.562836 
M478.303802,150.316528 
	C467.542114,148.574234 456.739899,147.216034 444.738525,146.687134 
	C446.944733,147.871277 448.207581,148.591400 449.506195,149.239990 
	C491.866760,170.396759 528.759888,198.793365 561.050903,233.319580 
	C572.665405,245.737991 583.655334,258.695587 594.468689,271.799805 
	C597.542114,275.524353 599.903381,275.710388 603.271667,272.289764 
	C606.889160,268.616058 610.963684,265.383026 614.134033,261.272003 
	C621.655762,251.518646 627.180908,241.073532 624.622742,228.162415 
	C622.859924,219.265182 618.428345,211.719498 612.339111,205.075790 
	C599.919312,191.525177 584.368347,182.609009 567.862549,175.178909 
	C539.563721,162.440125 509.740021,155.085632 478.303802,150.316528 
M322.683319,165.127762 
	C333.240753,159.374435 343.798218,153.621109 354.923950,147.558075 
	C332.067230,149.773651 310.174622,153.664856 288.604462,159.327515 
	C264.376556,165.687851 240.775085,173.715866 219.351318,187.029587 
	C207.686523,194.278625 196.914703,202.642441 189.868271,214.846191 
	C181.515610,229.312164 182.243851,243.368927 191.901123,256.983765 
	C194.702606,260.933258 197.845490,264.579834 201.318390,267.958771 
	C206.196869,272.705231 206.308029,272.766724 210.261765,267.470367 
	C240.988510,226.309357 277.769379,191.794281 322.683319,165.127762 
z"/>
</svg>