<svg version="1.1" id="Layer_1" xmlns="http://www.w3.org/2000/svg" xmlns:xlink="http://www.w3.org/1999/xlink" x="0px" y="0px"
	 width="100%" viewBox="0 0 720 1024" enable-background="new 0 0 720 1024" xml:space="preserve">
<path fill="#000000" opacity="1.000000" stroke="none" 
	d="
M592.348511,115.561569 
	C617.349915,127.848495 640.539734,142.214279 659.572815,162.287338 
	C679.764038,183.581894 692.155151,208.512131 691.258545,238.573257 
	C690.575500,261.472656 682.433472,282.077911 667.945068,299.515015 
	C657.762634,311.769745 649.107971,324.642670 642.102295,338.895935 
	C624.103943,375.513977 605.681641,411.923431 587.534119,448.468567 
	C577.020874,469.639801 566.475098,490.800354 556.363586,512.164368 
	C540.058228,546.615295 523.915955,581.146240 508.045410,615.799255 
	C491.899048,651.054321 476.084534,686.462219 460.272278,721.869202 
	C444.390656,757.431335 428.409058,792.944458 411.867340,828.207458 
	C400.280609,852.907593 389.122650,877.808838 377.781677,902.624146 
	C373.226562,912.591309 368.694244,922.568909 364.245209,932.336060 
	C361.901428,932.455078 361.610504,930.892090 361.113159,929.805786 
	C353.421295,913.003967 345.828796,896.156616 338.126892,879.359497 
	C332.092255,866.198608 325.877258,853.120239 319.852173,839.955017 
	C309.947083,818.311523 300.135284,796.625427 290.275909,774.960999 
	C280.139954,752.689026 269.893860,730.466553 259.880920,708.139404 
	C249.939545,685.971802 240.356384,663.643250 230.372803,641.494934 
	C223.325195,625.859985 215.882446,610.402954 208.596619,594.875610 
	C197.003662,570.169067 185.347580,545.492065 173.802124,520.763367 
	C151.682343,473.386017 128.318024,426.620422 104.769356,379.943909 
	C94.643074,359.872314 84.691101,339.712646 74.524338,319.661713 
	C70.941193,312.595001 64.535286,307.708679 59.766315,301.523590 
	C38.799698,274.330933 29.424906,244.575363 38.636536,210.394913 
	C45.410477,185.259720 60.590446,165.988144 80.195862,149.626892 
	C96.408134,136.097321 114.199837,125.079758 133.179031,115.985687 
	C163.802505,101.312119 196.015015,91.466675 229.235626,84.633293 
	C254.995758,79.334503 280.883026,75.337692 307.155853,73.498772 
	C327.931488,72.044617 348.698761,70.575684 369.511139,71.027061 
	C416.329132,72.042465 462.781250,76.086685 508.506226,87.147209 
	C530.075012,92.364517 551.163635,98.820717 571.860840,106.667473 
	C578.697021,109.259216 585.296021,112.476463 592.348511,115.561569 
M481.623627,626.166748 
	C490.045013,607.695251 498.170105,589.081482 506.954254,570.784180 
	C521.793701,539.873535 535.809082,508.573364 551.211975,477.927490 
	C561.072266,458.309265 570.245361,438.346771 579.984375,418.666168 
	C590.315796,397.788269 600.975647,377.072998 611.436096,356.258575 
	C613.622559,351.907898 615.564514,347.434357 617.801086,342.626312 
	C615.354370,344.113068 613.407410,345.391815 611.375122,346.516418 
	C588.568848,359.137299 564.672424,369.226288 539.589966,376.264923 
	C506.575562,385.529480 473.203857,392.919647 438.850952,395.530731 
	C420.931915,396.892792 403.053589,398.930176 385.077118,399.235962 
	C358.095215,399.694977 331.107391,399.685974 304.192047,397.243439 
	C292.431732,396.176178 280.647461,395.256042 268.939117,393.759857 
	C250.628540,391.419922 232.608337,387.474243 214.577667,383.519897 
	C187.160324,377.506866 160.736374,368.636169 135.201645,357.115021 
	C126.411118,353.148743 118.005844,348.328674 109.003395,343.681183 
	C113.724388,354.025085 118.920830,363.504791 123.760612,373.162598 
	C136.796234,399.175354 149.217896,425.496399 162.308258,451.480927 
	C176.767227,480.182159 190.385498,509.282776 204.137695,538.317261 
	C218.027405,567.642090 231.459824,597.185242 244.915375,626.713562 
	C258.092834,655.631592 271.036011,684.656433 284.102051,713.625366 
	C299.634460,748.062561 315.159515,782.503235 330.745392,816.916382 
	C338.093201,833.140076 345.546082,849.316528 353.010712,865.486938 
	C356.184113,872.361389 359.509857,879.165405 362.893188,886.267639 
	C365.394989,883.835999 366.197449,881.257629 367.286926,878.859192 
	C378.434998,854.316284 389.528595,829.748596 400.707794,805.219910 
	C410.647644,783.410522 420.781952,761.689331 430.642303,739.844421 
	C447.624054,702.222534 464.459656,664.534668 481.623627,626.166748 
M287.105988,171.768509 
	C273.276031,174.646835 259.309509,176.968430 245.823135,181.294693 
	C223.061844,188.596191 201.259094,197.456772 183.098648,213.977127 
	C169.337662,226.495331 168.127274,246.199112 182.052643,259.697205 
	C193.940216,271.220062 208.130432,278.758606 223.307938,284.360565 
	C242.971176,291.618134 263.150665,297.115723 284.043579,299.981171 
	C301.349274,302.354645 318.641846,304.943848 336.085175,305.555389 
	C367.215088,306.646698 398.278503,305.973450 429.272614,301.874756 
	C454.456177,298.544434 479.093597,293.235596 502.823456,284.312958 
	C519.877625,277.900452 536.114990,269.776947 548.001648,255.133759 
	C556.775452,244.325256 557.003357,230.765182 548.416626,219.791901 
	C542.914001,212.759964 536.084778,207.090805 528.572632,202.435181 
	C507.988892,189.678574 485.367432,182.090057 461.909790,176.575531 
	C426.390167,168.225464 390.352478,164.877914 353.971069,165.501404 
	C331.850403,165.880508 309.771515,167.601303 287.105988,171.768509 
M365.500366,325.331299 
	C343.013000,325.409088 320.610535,324.587250 298.264282,321.532013 
	C270.019104,317.670227 242.062408,312.763947 215.549866,301.908081 
	C208.172943,298.887573 202.616974,300.341156 196.347351,304.782532 
	C180.737656,315.840332 164.654678,326.229858 148.770599,336.900879 
	C147.585495,337.697052 145.978134,338.156281 145.903625,340.172882 
	C146.393784,340.524750 146.882874,340.969543 147.449844,341.264679 
	C148.926315,342.033264 150.402740,342.819061 151.938965,343.453186 
	C183.437637,356.455109 216.058014,365.259125 249.663696,371.016113 
	C286.190948,377.273621 322.962891,380.112488 359.912292,380.504059 
	C398.062378,380.908417 436.004395,377.674896 473.694885,371.569672 
	C508.136505,365.990662 541.646790,357.153809 573.865356,343.651550 
	C575.757996,342.858337 578.070312,342.496918 578.935791,339.975922 
	C575.173157,335.961700 569.990479,334.182404 565.644043,331.169983 
	C551.288147,321.220154 536.653870,311.672272 522.142822,301.945709 
	C519.509827,300.180878 517.039246,299.657349 513.786804,300.855774 
	C500.066467,305.911407 486.291901,310.631348 471.923309,313.872162 
	C437.170715,321.710541 402.088715,325.623718 365.500366,325.331299 
M340.568695,146.732330 
	C363.207214,146.700058 385.811432,146.495590 408.442535,148.469635 
	C438.592957,151.099625 467.932953,157.162094 496.704834,166.287827 
	C499.348236,167.126251 501.291809,166.892166 503.579956,165.208954 
	C515.375977,156.531494 527.296326,148.022720 539.199158,139.491104 
	C546.415100,134.318909 553.677795,129.212021 562.236389,123.141777 
	C456.578735,86.607086 350.317535,82.034508 242.460678,101.442230 
	C216.196945,106.168114 190.493759,113.190033 165.513397,123.190025 
	C166.131622,124.358086 166.208221,124.741219 166.440201,124.907211 
	C185.387939,138.464722 204.354202,151.996323 223.296326,165.561630 
	C225.102142,166.854858 227.006424,167.149506 228.953888,166.305725 
	C233.719971,164.240738 238.825653,163.376541 243.754135,161.895782 
	C275.019379,152.502197 307.159271,148.717834 340.568695,146.732330 
M541.936707,286.326080 
	C540.956177,287.299683 539.090515,287.494659 539.163818,290.032562 
	C558.349915,302.705566 577.803467,315.518372 597.200684,328.415924 
	C599.539124,329.970825 601.382202,329.502106 603.618408,328.250000 
	C611.770386,323.685638 619.415039,318.442627 626.834229,312.741028 
	C643.209534,300.156769 656.837463,285.409912 665.187622,266.290924 
	C677.307068,238.541641 672.756714,212.778091 655.889648,188.411102 
	C646.846252,175.346497 635.188110,164.960052 622.488403,155.781647 
	C610.892578,147.401062 598.604370,140.023819 585.470581,134.175507 
	C583.133057,133.134659 581.277710,133.099930 579.031921,134.725601 
	C564.605896,145.168152 550.034607,155.409882 535.580139,165.813538 
	C531.183289,168.978210 527.004456,172.445801 522.409790,176.020523 
	C523.756897,176.907089 524.541016,177.497513 525.390381,177.970901 
	C537.050598,184.469543 548.406250,191.372543 557.870178,200.992661 
	C577.050049,220.489029 581.113464,245.911850 562.539490,268.760590 
	C556.897400,275.701233 549.650696,280.769745 541.936707,286.326080 
M104.554710,316.911133 
	C109.832085,321.002441 115.689407,324.190308 121.300568,327.764282 
	C123.983948,329.473450 125.823944,329.090240 128.425049,327.432953 
	C142.881607,318.222076 156.489288,307.746033 171.238388,298.965912 
	C176.417526,295.882751 181.148575,292.046875 186.233688,288.448944 
	C180.406586,283.783508 175.045410,279.824310 170.057159,275.440765 
	C146.057587,254.350510 145.919266,221.913101 169.287292,200.069839 
	C176.293182,193.521072 183.963974,188.072937 192.053955,183.087524 
	C195.798569,180.779922 199.578735,178.530014 203.892593,175.921494 
	C198.483017,171.879837 193.769989,168.212570 188.908310,164.754257 
	C175.488129,155.207886 161.865936,145.937668 148.636917,136.135422 
	C144.876984,133.349442 142.120789,132.913391 137.986557,135.100479 
	C122.959435,143.050171 108.349808,151.558945 95.235275,162.501709 
	C82.346954,173.255722 71.167282,185.268784 63.347778,200.373474 
	C49.669434,226.795471 51.977501,252.269821 66.749969,277.316742 
	C76.143684,293.243896 89.236137,305.654175 104.554710,316.911133 
z"/>
<path fill="#000000" opacity="1.000000" stroke="none" 
	d="
M265.361389,198.072083 
	C268.980927,198.058731 272.148254,198.104553 275.313385,198.040558 
	C278.639984,197.973297 280.160675,199.423325 280.090759,202.850510 
	C279.968414,208.847519 280.245361,214.856247 280.005371,220.846054 
	C279.839417,224.987823 280.956421,226.742188 285.555267,226.730072 
	C337.552002,226.593216 389.549316,226.618256 441.546234,226.721680 
	C445.501831,226.729538 446.860809,225.376160 446.710266,221.487244 
	C446.478333,215.496719 446.885132,209.478821 446.583740,203.494537 
	C446.368195,199.214035 448.181213,197.979080 452.125977,198.030762 
	C469.685760,198.260834 466.049561,196.200714 466.240112,211.762619 
	C466.474792,230.925339 466.148041,250.095032 466.393860,269.257446 
	C466.456451,274.135925 464.855621,275.507507 460.110291,275.444275 
	C446.656128,275.264954 446.653564,275.450806 446.650818,262.096161 
	C446.650116,258.596344 446.383514,255.070999 446.715668,251.603012 
	C447.157166,246.993271 445.050995,245.958755 440.890564,246.028702 
	C428.894531,246.230377 416.893066,246.111862 404.893738,246.112381 
	C365.562592,246.114105 326.231415,246.110550 286.900269,246.114868 
	C280.076355,246.115616 280.072693,246.128708 280.067810,253.112228 
	C280.063751,258.945221 279.997192,264.779480 280.099518,270.610687 
	C280.156891,273.880066 279.083099,275.607513 275.483124,275.393036 
	C271.995544,275.185303 268.477600,275.189056 264.988861,275.383881 
	C261.557526,275.575470 260.452148,274.419312 260.485443,270.813690 
	C260.674683,250.316757 260.585114,229.817169 260.569305,209.318497 
	C260.567780,207.321686 260.584442,205.302368 260.309113,203.333145 
	C259.800354,199.694397 261.199493,197.928055 265.361389,198.072083 
z"/>
</svg>