<svg version="1.1" id="Layer_1" xmlns="http://www.w3.org/2000/svg" xmlns:xlink="http://www.w3.org/1999/xlink" x="0px" y="0px"
	 width="100%" viewBox="0 0 784 1024" enable-background="new 0 0 784 1024" xml:space="preserve">
<path fill="#000000" opacity="1.000000" stroke="none" 
	d="
M785.000000,268.531342 
	C779.771606,283.707550 772.610535,297.358032 762.721863,309.495117 
	C760.303284,312.463501 757.964539,315.573395 755.134583,318.111511 
	C751.178406,321.659790 750.218262,325.814697 750.138672,330.968567 
	C749.569885,367.782623 748.733337,404.592651 747.941223,441.403107 
	C747.389343,467.050385 746.811340,492.697205 746.176514,518.342529 
	C745.174622,558.805847 744.116272,599.267761 743.079773,639.730225 
	C742.418579,665.541382 741.751953,691.352356 741.090576,717.163513 
	C740.429138,742.973633 739.977478,768.791199 739.062378,794.592285 
	C737.763672,831.213562 736.743408,867.839905 735.979675,904.475525 
	C735.514465,926.791260 734.849365,949.102966 734.253113,971.415894 
	C734.223206,972.534424 733.992920,973.647522 733.855957,974.763184 
	C733.381592,974.982178 732.907227,975.201172 732.432922,975.420166 
	C669.112488,868.392273 605.792053,761.364380 541.962708,653.476379 
	C510.961853,763.914612 465.516571,867.735413 417.553650,970.845703 
	C368.596008,867.936707 322.249420,764.387390 291.268463,653.461975 
	C228.899094,761.628845 166.262878,868.494141 103.499527,975.166565 
	C101.360710,974.408142 101.750992,973.063049 101.720543,971.994507 
	C101.018646,947.356079 100.348358,922.716736 99.669975,898.077576 
	C98.647644,860.945312 97.864738,823.804443 96.526154,786.683533 
	C95.397804,755.392944 94.390472,724.102295 93.608986,692.801331 
	C92.748383,658.331116 91.652962,623.866516 90.596260,589.401428 
	C89.652039,558.604858 88.712456,527.807556 87.605286,497.016571 
	C86.258430,459.559692 85.214653,422.097626 84.573730,384.621033 
	C84.231995,364.639374 83.227562,344.669617 82.770996,324.688843 
	C82.688713,321.088196 80.648575,319.318542 78.382416,317.365265 
	C63.352692,304.410645 50.460712,289.596924 40.988136,272.141022 
	C20.062246,233.579117 24.013870,196.448349 48.946449,161.236526 
	C66.754631,136.086349 90.986183,118.274185 117.778389,103.728386 
	C159.479614,81.088303 204.312698,67.700790 250.659256,58.682659 
	C304.055298,48.292828 358.001282,45.531418 412.210419,47.079609 
	C450.517914,48.173649 488.520355,52.395435 526.269104,59.320850 
	C577.133667,68.652496 626.435791,82.766151 673.143494,105.191963 
	C699.701477,117.943245 724.576599,133.382721 746.101135,153.728531 
	C763.549805,170.221664 777.319641,189.206726 784.835815,212.687805 
	C785.000000,231.354233 785.000000,249.708450 785.000000,268.531342 
M309.731812,570.257263 
	C337.354431,520.190491 364.977051,470.123688 393.229156,418.915924 
	C342.927246,416.574677 294.510681,410.567169 246.993256,398.225708 
	C199.373489,385.857697 153.888702,368.423279 112.015053,342.008942 
	C110.870468,344.482483 111.284363,346.496674 111.322021,348.434235 
	C111.878868,377.079498 112.500214,405.723511 113.079048,434.368347 
	C113.745415,467.345001 114.378860,500.322296 115.037712,533.299072 
	C115.763123,569.607483 116.486313,605.915955 117.238548,642.223755 
	C117.804382,669.534363 118.448364,696.843323 118.996964,724.154236 
	C119.786583,763.463318 120.515335,802.773621 121.281944,842.083191 
	C121.626228,859.737366 121.997719,877.391113 122.368294,895.044739 
	C122.377472,895.481628 122.285675,896.073608 123.312317,896.049255 
	C129.729919,884.932922 136.221527,873.691895 142.709839,862.449036 
	C177.764359,801.707092 212.954208,741.042725 247.820770,680.193115 
	C268.607605,643.915710 288.886353,607.347229 309.731812,570.257263 
M562.994080,640.585022 
	C577.180664,665.091309 591.306152,689.633179 605.566833,714.096313 
	C634.089600,763.025085 662.669617,811.920532 691.264465,860.807190 
	C698.302917,872.840271 705.489197,884.786865 713.312073,897.959595 
	C716.664490,713.512085 719.921875,530.451355 721.790344,346.239044 
	C719.326233,347.770020 717.796021,348.647766 716.341309,349.636658 
	C708.341309,355.075073 699.998108,359.942261 691.476746,364.500824 
	C662.965454,379.752869 632.617188,390.136841 601.455078,398.343719 
	C555.376831,410.478912 508.421600,416.446655 460.884918,418.359650 
	C453.306641,418.664612 445.737610,419.199127 437.089081,419.688324 
	C479.217133,493.602905 520.922668,566.776245 562.994080,640.585022 
M321.306976,600.701416 
	C317.559631,607.385437 313.904694,614.123779 310.021332,620.727844 
	C308.371521,623.533447 308.213104,626.104614 309.062469,629.256226 
	C319.204742,666.889465 330.919861,704.028442 343.965851,740.746826 
	C362.100677,791.787964 383.360474,841.552429 405.605743,890.909302 
	C409.348541,899.213623 413.107056,907.510864 417.365295,916.933167 
	C418.754700,914.075439 419.668976,912.371094 420.430817,910.601074 
	C429.452087,889.641785 438.497803,868.692810 447.446442,847.702454 
	C477.256866,777.777466 503.226715,706.502319 523.150208,633.080444 
	C524.717468,627.304810 524.120972,622.726685 521.147034,617.564514 
	C489.297913,562.281921 457.654419,506.880920 425.963074,451.507477 
	C422.430481,445.335083 418.950531,439.132629 415.074066,432.286957 
	C383.663971,488.695923 352.660675,544.374329 321.306976,600.701416 
M246.258209,375.095917 
	C253.189468,376.865387 260.095245,378.742706 267.056122,380.386749 
	C309.954620,390.518707 353.529846,395.804657 397.502991,397.489838 
	C417.283417,398.247864 437.115906,398.008270 456.941040,397.003326 
	C487.042603,395.477478 516.995728,392.986176 546.704346,387.705688 
	C583.860779,381.101318 620.176392,371.664459 654.907349,356.665649 
	C656.485046,355.984344 658.573120,355.869049 659.248840,353.568359 
	C658.770081,353.138977 658.343323,352.612488 657.796814,352.286896 
	C636.191589,339.414825 614.559875,326.587097 592.984802,313.664795 
	C590.800476,312.356506 588.996216,312.771942 586.891418,313.627228 
	C540.602722,332.436584 491.978821,339.455811 442.499603,341.138123 
	C403.183350,342.474884 364.017456,340.431396 325.115295,333.530945 
	C288.340363,327.007874 252.762695,317.134064 219.368912,300.169464 
	C216.285889,298.603241 214.013458,298.737366 211.168182,300.554871 
	C194.187500,311.401855 177.105545,322.090240 160.069366,332.850494 
	C157.594131,334.413849 155.181961,336.076965 151.993759,338.188599 
	C182.217987,354.544525 213.347626,365.966217 246.258209,375.095917 
M248.105896,82.758766 
	C226.718018,87.548553 205.560059,93.109619 184.647064,101.066948 
	C185.435532,102.142097 185.716888,102.768501 186.195358,103.143242 
	C207.042679,119.471527 227.925262,135.754883 248.741867,152.122147 
	C250.768311,153.715454 252.548126,153.427109 254.748337,152.750397 
	C289.947784,141.924637 326.076141,136.592209 362.772858,134.798172 
	C386.070404,133.659210 409.339508,134.163467 432.640472,135.517883 
	C470.681152,137.729065 508.012939,143.697754 544.536743,154.582718 
	C546.963257,155.305862 548.778992,155.189697 550.906372,153.487793 
	C566.770935,140.795715 582.798523,128.307510 598.678833,115.634850 
	C602.884338,112.278831 607.541199,109.382523 611.143250,105.044708 
	C531.756042,74.374916 382.815491,54.014992 248.105896,82.758766 
M642.126770,210.433228 
	C655.663696,229.227707 659.054688,248.872818 646.868530,269.684906 
	C641.916687,278.141846 634.815430,284.729889 627.328369,290.877808 
	C623.652283,293.896362 619.715088,296.596863 615.933594,299.413361 
	C616.353455,300.113678 616.450500,300.502655 616.693481,300.648621 
	C638.672058,313.851685 660.671082,327.020874 682.634583,340.248932 
	C684.511841,341.379517 686.033997,341.015137 687.727722,340.003448 
	C710.344849,326.493408 731.421509,311.178772 746.376587,288.920593 
	C757.992493,271.632202 763.850281,252.683243 761.011169,231.736786 
	C757.388000,205.005585 742.105530,184.904999 723.051392,167.231262 
	C699.318359,145.217636 671.455872,129.711273 642.110596,116.602287 
	C639.339355,115.364311 637.377197,115.560081 634.924561,117.518173 
	C619.832031,129.567337 604.583618,141.421143 589.402588,153.359634 
	C584.764221,157.007294 580.174683,160.717026 575.081116,164.782791 
	C583.115540,168.636337 590.384583,171.878616 597.429688,175.550507 
	C614.235840,184.309769 629.831848,194.695007 642.126770,210.433228 
M167.525635,119.007309 
	C165.422867,117.370941 163.228302,115.837746 161.242020,114.070435 
	C159.064026,112.132538 156.897964,112.093498 154.360260,113.262421 
	C125.544632,126.535469 98.711220,142.585419 77.726387,167.047836 
	C50.429729,198.868073 47.290131,234.785278 69.379234,269.151459 
	C83.987762,291.879364 104.386169,308.621429 126.813782,323.143616 
	C129.571655,324.929413 131.421890,323.610901 133.573746,322.244537 
	C148.192245,312.962494 162.844421,303.733521 177.465836,294.456055 
	C182.735535,291.112335 187.950439,287.682281 193.247223,284.254822 
	C188.052200,279.286316 183.114182,275.045563 178.732651,270.291840 
	C156.758377,246.451004 157.254547,216.595047 179.837204,193.462494 
	C190.325470,182.718796 202.772308,174.792389 216.125809,168.147583 
	C218.851288,166.791336 221.797409,165.716187 224.437469,163.146698 
	C205.404541,148.391357 186.741333,133.922653 167.525635,119.007309 
M609.379761,276.858185 
	C615.519714,271.920563 621.078247,266.451813 625.081238,259.575806 
	C630.970947,249.458832 631.456909,239.200714 626.238220,228.597305 
	C622.234558,220.462631 616.193665,214.098495 609.311218,208.500412 
	C596.675781,198.222916 582.453552,190.602341 567.466614,184.375015 
	C524.566101,166.549057 479.525543,158.565140 433.469513,155.115295 
	C429.065552,154.785400 427.736908,156.082886 427.258575,160.281479 
	C424.887726,181.092728 422.291870,201.879120 419.628479,222.655426 
	C419.220367,225.838989 420.167725,227.012680 423.276581,226.787659 
	C428.918304,226.379288 434.568542,226.088043 440.209686,225.672577 
	C454.805481,224.597610 469.405243,223.563553 483.985870,222.308975 
	C486.721222,222.073608 489.258575,222.178650 491.833862,223.015503 
	C530.928223,235.719452 567.157104,254.200043 601.001648,277.410339 
	C604.027039,279.485077 606.251038,279.778961 609.379761,276.858185 
M397.626862,187.221542 
	C398.745880,177.981308 399.792969,168.731598 401.009552,159.504211 
	C401.800507,153.504898 401.863525,153.341034 395.554535,153.441528 
	C377.572723,153.727890 359.619781,154.432175 341.698029,156.176208 
	C309.067078,159.351669 277.110443,165.505814 246.531281,177.562683 
	C228.625961,184.622452 211.502640,193.227280 198.158279,207.695862 
	C192.415222,213.922714 188.099365,220.925598 187.242630,229.655991 
	C186.891190,233.237305 187.982666,234.950394 191.870728,234.703171 
	C197.851227,234.322891 203.849625,234.093048 209.842087,234.053329 
	C244.496674,233.823654 279.135620,232.955856 313.774933,231.932037 
	C337.745483,231.223557 361.710632,230.498428 385.644440,228.971497 
	C392.938110,228.506165 392.834534,228.416199 393.670776,220.801682 
	C394.868347,209.896957 396.227051,199.009949 397.626862,187.221542 
M502.454651,248.167847 
	C495.839508,246.134415 489.826263,242.018280 482.481659,242.507095 
	C473.019714,243.136841 463.552704,243.691055 454.089172,244.297577 
	C443.300446,244.989014 432.514618,245.726669 421.724304,246.391617 
	C418.302765,246.602478 416.504150,247.718658 416.104584,251.704239 
	C414.878113,263.937103 413.042938,276.107758 411.550690,288.315582 
	C410.223206,299.175537 409.037476,310.052826 407.683044,321.846558 
	C468.595612,322.416290 527.877075,316.887238 583.911133,291.558807 
	C558.466492,273.817535 531.514221,259.819061 502.454651,248.167847 
M231.500961,253.214874 
	C219.658554,253.534729 207.776428,252.837494 195.285614,253.944565 
	C199.308548,259.859528 203.642395,264.150330 208.493118,267.997528 
	C224.606140,280.776947 242.882751,289.520905 262.015442,296.603088 
	C299.284180,310.398560 338.054871,317.016113 377.469391,320.523529 
	C380.504822,320.793671 381.570862,319.807953 381.838257,316.790955 
	C382.454163,309.841583 383.391022,302.919312 384.261566,295.994110 
	C386.022858,281.982788 387.826202,267.976807 389.613037,253.968689 
	C390.037476,250.641464 389.963165,248.095047 385.239655,248.416992 
	C374.117523,249.175034 362.974823,249.738617 351.831177,250.053940 
	C312.056519,251.179398 272.278015,252.168518 231.500961,253.214874 
z"/>
</svg>