<svg version="1.1" id="Layer_1" xmlns="http://www.w3.org/2000/svg" xmlns:xlink="http://www.w3.org/1999/xlink" x="0px" y="0px"
	 width="100%" viewBox="0 0 736 1024" enable-background="new 0 0 736 1024" xml:space="preserve">
<path fill="#000000" opacity="1.000000" stroke="none" 
	d="
M737.000000,251.531342 
	C731.680359,264.215302 726.266602,276.357605 717.980164,286.984924 
	C710.894897,296.071716 703.532410,304.892609 694.650940,312.280334 
	C691.301514,315.066437 689.984070,318.168335 689.932678,322.587555 
	C689.396118,368.736938 688.619141,414.883453 687.961914,461.031494 
	C687.314148,506.513336 687.007507,552.002136 686.011230,597.476135 
	C685.398071,625.468811 685.442993,653.461731 684.990723,681.452026 
	C684.315125,723.267029 683.701599,765.083191 683.072449,806.898926 
	C682.380615,852.879578 681.731934,898.860779 680.985535,944.840515 
	C680.862366,952.426025 680.334167,960.004883 679.074707,967.950745 
	C662.703308,942.569763 648.135986,916.275635 633.040771,890.304688 
	C617.803528,864.089294 602.823425,837.724182 587.774414,811.399597 
	C572.808105,785.219727 557.916687,758.997070 542.954651,732.814819 
	C527.949219,706.556580 512.897034,680.325073 497.238831,652.988098 
	C455.401367,756.736389 413.978729,859.455933 372.556091,962.175537 
	C371.914917,962.233765 371.273712,962.291931 370.632507,962.350159 
	C329.138367,859.350037 288.364929,756.056152 245.823669,652.231812 
	C185.190277,757.640503 124.698761,862.123779 63.676533,966.159180 
	C60.081486,964.919434 60.768768,962.634888 60.720505,960.794922 
	C60.419064,949.303955 60.106670,937.811951 59.966995,926.318298 
	C59.493164,887.328613 59.321217,848.333923 58.602699,809.349060 
	C57.641613,757.203247 57.258339,705.051514 56.504486,652.904724 
	C55.808422,604.755493 55.149731,556.606995 54.545982,508.456512 
	C53.871201,454.640350 53.084225,400.825714 52.494953,347.007935 
	C52.371048,335.691833 51.775745,324.363556 51.831776,313.036804 
	C51.847691,309.819336 50.298843,307.797943 48.260162,305.719940 
	C35.515759,292.729584 25.132858,278.103210 18.786213,260.960815 
	C5.304140,224.545471 12.116264,190.898270 33.429958,159.481674 
	C52.313316,131.647430 78.320404,111.819008 107.101288,95.433800 
	C146.061539,73.253387 188.092941,59.055969 231.569809,48.769333 
	C260.763092,41.862194 290.333313,37.463806 320.171600,34.618431 
	C352.740265,31.512691 385.370575,31.084156 417.996399,32.846748 
	C473.091919,35.823250 527.152527,44.853825 579.508545,62.665501 
	C615.479614,74.902962 649.794922,90.582741 680.270325,113.734734 
	C705.275269,132.730850 725.555237,155.457932 736.802795,185.714050 
	C737.000000,207.687561 737.000000,229.375122 737.000000,251.531342 
M260.558350,570.112854 
	C291.997559,517.170410 320.308655,462.532196 348.979889,407.387482 
	C254.062592,402.422333 162.555267,386.226990 80.210320,333.386536 
	C80.210320,336.160156 80.189064,337.939911 80.213600,339.719025 
	C80.463974,357.874298 80.284599,376.028137 80.885658,394.187683 
	C81.855576,423.491180 81.018028,452.822845 81.982193,482.141266 
	C82.863670,508.945221 82.064178,535.780396 82.974800,562.598816 
	C83.845428,588.239746 83.299278,613.903625 83.818329,639.560791 
	C84.923508,694.191040 85.411430,748.833984 86.081055,803.472656 
	C86.305664,821.799683 86.271393,840.129822 86.457123,858.457520 
	C86.494522,862.148499 86.991676,865.834778 87.276863,869.523254 
	C96.552750,855.303345 104.742630,841.020386 112.967773,826.757812 
	C141.592728,777.121277 170.276855,727.518799 198.846527,677.850464 
	C219.360184,642.187500 239.727036,606.440063 260.558350,570.112854 
M522.834045,641.719666 
	C566.421631,718.381470 610.009155,795.043213 653.596741,871.705017 
	C653.948120,871.600403 654.299561,871.495789 654.650940,871.391174 
	C656.995178,693.789612 659.339478,516.187988 661.694397,337.775940 
	C653.454346,342.443268 646.110901,346.938782 638.478271,350.873474 
	C568.778564,386.804199 493.636993,401.005096 416.282593,406.289276 
	C409.248901,406.769775 402.210968,407.187469 395.123230,407.637634 
	C395.485870,410.541046 396.957245,412.219116 397.974731,414.102386 
	C404.223541,425.668274 411.409027,436.760773 416.058838,449.135590 
	C417.672974,453.431396 418.162842,458.002991 420.742249,462.116516 
	C427.464264,472.836487 433.985748,483.709442 440.016571,494.830841 
	C466.699310,544.036255 494.894043,592.385986 522.834045,641.719666 
M459.234070,586.214233 
	C441.813385,556.462402 426.176758,525.679138 407.846619,496.463562 
	C396.897766,479.012665 389.232330,460.027832 380.475128,441.536560 
	C378.086334,436.492554 375.108032,431.727722 372.362183,426.765930 
	C369.943085,428.212677 369.295013,430.171692 368.276031,431.833435 
	C360.933960,443.806854 356.803101,457.370178 349.887390,469.515991 
	C338.191101,490.057709 326.232605,510.448059 314.706787,531.091370 
	C298.956696,559.300598 282.923279,587.352356 266.879181,615.396057 
	C264.444580,619.651550 264.066589,623.392212 266.059937,628.048950 
	C271.233093,640.134033 275.832092,652.464050 280.714966,664.674438 
	C309.827362,737.474182 338.951050,810.269470 368.095734,883.056274 
	C369.104919,885.576660 369.760712,888.314026 371.971649,890.985046 
	C373.153290,888.166382 374.138977,885.905701 375.054840,883.617065 
	C394.352722,835.395020 413.599243,787.152405 432.948151,738.950806 
	C448.081940,701.249817 463.325256,663.592773 478.580963,625.940918 
	C479.543701,623.564819 479.438446,621.718018 478.107422,619.433838 
	C471.819397,608.642395 465.755280,597.720459 459.234070,586.214233 
M388.329865,382.673676 
	C396.813354,382.308472 405.310699,382.139587 413.777771,381.541992 
	C441.164246,379.609192 468.451721,376.839813 495.469482,371.747681 
	C533.546265,364.571198 570.706909,354.414825 605.975891,338.079803 
	C612.093994,335.246124 618.515137,332.878906 623.929749,328.680084 
	C623.593567,328.085876 623.505859,327.676880 623.263855,327.539368 
	C603.713318,316.430786 584.137268,305.366791 564.607422,294.221954 
	C562.403870,292.964478 560.573975,293.375031 558.512146,294.406647 
	C553.152710,297.088226 547.831726,299.880280 542.324768,302.228119 
	C496.049622,321.957184 447.286713,330.005768 397.424744,332.069611 
	C370.975403,333.164337 344.513275,332.525848 318.113068,329.482941 
	C281.047668,325.210815 244.926910,317.435608 210.522598,302.698151 
	C207.034790,301.204071 204.402023,301.518036 201.251556,303.398071 
	C184.230591,313.555328 167.097961,323.525360 150.016464,333.581421 
	C147.647568,334.976044 145.348816,336.489807 142.418274,338.323364 
	C144.661377,339.422058 146.106339,340.206055 147.609558,340.855133 
	C195.405777,361.492554 245.611420,372.725006 297.111511,378.526489 
	C327.075592,381.901978 357.191864,383.216461 388.329865,382.673676 
M218.140625,117.362923 
	C224.155045,123.825813 230.258865,130.208954 236.135529,136.794754 
	C238.200073,139.108414 240.095963,139.593582 243.071335,138.651138 
	C283.829193,125.741379 325.741699,120.038879 368.360779,118.924728 
	C390.190002,118.354073 411.951538,119.479706 433.681732,121.593170 
	C465.601440,124.697639 496.847687,130.902802 527.118103,141.610123 
	C530.690308,142.873718 533.300598,142.491791 536.259705,140.134262 
	C552.672852,127.057892 569.224182,114.154984 585.712891,101.173309 
	C587.841125,99.497734 589.881104,97.710007 593.242432,94.906097 
	C500.279144,59.331669 405.677246,51.230362 309.044312,61.486061 
	C269.072479,65.728294 229.652802,73.331932 190.532318,87.350685 
	C200.151917,97.813492 208.902573,107.331161 218.140625,117.362923 
M339.618103,207.306488 
	C338.160950,207.650558 336.711517,208.032333 335.245483,208.333206 
	C299.402954,215.689392 262.930084,216.833664 226.594620,219.292236 
	C209.157806,220.472076 191.700424,221.345810 174.260071,222.476898 
	C169.217850,222.803909 168.221893,224.552628 168.775116,229.752136 
	C169.702042,238.464172 173.943405,245.482697 179.666275,251.742966 
	C189.870499,262.905396 202.752716,270.253571 216.185181,276.652161 
	C252.604935,294.000793 291.556152,301.453156 331.311401,305.559296 
	C335.675781,306.010071 340.127045,305.620148 345.733337,305.620148 
	C345.733337,291.422516 345.450256,277.605316 345.814606,263.805237 
	C346.164276,250.561584 349.699249,238.413712 360.766876,229.786758 
	C368.430817,223.812927 377.744080,221.974792 386.940979,220.836273 
	C413.838837,217.506424 440.813934,214.804443 467.750610,211.783356 
	C497.831482,208.409622 527.906555,204.983353 557.976196,201.510818 
	C563.321960,200.893463 568.628723,199.938873 573.993896,199.133942 
	C573.573669,196.674133 571.960266,195.875549 570.778381,194.783325 
	C564.375793,188.866241 557.137512,184.095612 549.539612,179.906403 
	C520.888062,164.108963 489.818542,155.783920 457.834717,150.180908 
	C453.203522,149.369614 449.491211,150.156189 445.605286,152.507187 
	C429.786377,162.077698 413.895111,171.529648 397.980225,180.940247 
	C379.736603,191.727844 361.074188,201.622498 339.618103,207.306488 
M153.687439,101.259766 
	C147.818588,104.044502 141.875565,106.684044 136.093445,109.638527 
	C107.512093,124.242744 81.087318,141.667374 61.259548,167.579697 
	C49.583672,182.838531 41.590618,199.666962 40.296436,219.105576 
	C38.968700,239.048187 45.238350,256.836090 56.454746,273.069611 
	C70.764107,293.779572 89.983406,308.994141 111.179237,322.033722 
	C113.718994,323.596161 115.537407,322.741028 117.587715,321.528503 
	C127.052444,315.931427 136.536774,310.367157 145.977570,304.729980 
	C156.383728,298.516388 166.750092,292.236084 177.733780,285.623657 
	C173.734924,282.495239 170.198074,279.827484 166.767715,277.029205 
	C133.830658,250.161102 131.990952,211.894791 162.217407,182.009613 
	C174.451645,169.913528 188.934662,161.112137 204.245758,153.532379 
	C206.108505,152.610214 208.415009,152.198822 209.449005,149.942230 
	C208.704483,147.388245 206.756607,145.747620 205.089691,143.932388 
	C192.691040,130.430679 180.266495,116.952728 167.854538,103.463234 
	C162.190552,97.307526 162.195145,97.303307 153.687439,101.259766 
M668.401733,138.120148 
	C654.967834,127.057037 640.396545,117.753044 624.897400,109.861702 
	C622.628845,108.706665 620.902832,108.359108 618.602295,110.182320 
	C600.716187,124.357506 582.701233,138.369995 564.748169,152.460907 
	C563.501526,153.439407 561.812988,154.183319 561.888428,156.510483 
	C564.035278,157.847382 566.275269,159.266388 568.538452,160.647461 
	C578.393433,166.661270 587.601257,173.495407 595.568298,181.908478 
	C620.480774,208.215744 620.545654,240.773117 595.902893,267.279602 
	C593.273254,270.108124 589.813354,272.289917 587.792847,276.314178 
	C608.504883,288.001099 628.958740,299.515564 649.373047,311.099731 
	C651.595032,312.360596 653.333679,312.057312 655.302246,310.610077 
	C673.423523,297.287323 690.013062,282.450989 701.572937,262.827576 
	C718.363892,234.324310 719.370239,205.537262 702.455078,176.660645 
	C693.756531,161.811050 682.095520,149.526428 668.401733,138.120148 
M493.077728,292.516327 
	C497.213196,291.242950 501.371979,290.040131 505.480255,288.684296 
	C526.298279,281.813782 546.301575,273.246124 563.929504,259.920227 
	C574.053650,252.266830 582.811096,243.501938 585.937256,230.563156 
	C587.614502,223.621185 586.604248,222.640808 579.440063,223.608551 
	C569.550903,224.944382 559.643738,226.154160 549.731995,227.312820 
	C528.590027,229.784302 507.443756,232.219330 486.292664,234.611343 
	C463.320648,237.209290 440.337219,239.706039 417.366791,242.317535 
	C406.304932,243.575150 395.154449,244.231628 384.357941,247.332733 
	C378.100952,249.129944 374.916779,253.345093 374.335083,259.573792 
	C372.969940,274.191803 373.438904,288.866516 373.152130,303.518494 
	C373.092865,306.545685 374.331818,307.789551 377.289703,307.645020 
	C382.941254,307.368896 388.594086,307.072205 394.250031,306.941376 
	C427.509827,306.172058 460.142883,301.126251 493.077728,292.516327 
M287.401184,189.723251 
	C331.105560,188.175201 368.464813,169.920486 403.833099,145.555832 
	C403.035736,145.177490 402.488342,144.785980 401.885834,144.661865 
	C400.916077,144.462143 399.911865,144.383682 398.918915,144.349060 
	C356.627136,142.874008 314.756500,146.236511 273.635681,156.431534 
	C244.939285,163.546173 216.968124,172.722961 192.817413,190.719803 
	C190.752380,192.258636 188.609283,193.717224 186.678497,196.828827 
	C220.607819,195.066422 253.580963,192.966095 287.401184,189.723251 
z"/>
</svg>