<svg version="1.1" id="Layer_1" xmlns="http://www.w3.org/2000/svg" xmlns:xlink="http://www.w3.org/1999/xlink" x="0px" y="0px"
	 width="100%" viewBox="0 0 784 1024" enable-background="new 0 0 784 1024" xml:space="preserve">
<path fill="#000000" opacity="1.000000" stroke="none" 
	d="
M1.000000,225.468658 
	C3.275033,221.861557 2.804507,217.976181 3.809065,214.482758 
	C11.050949,189.298553 25.983873,169.171860 44.998749,151.811020 
	C77.556320,122.085541 116.263016,102.981995 157.087143,87.677322 
	C189.596451,75.489807 223.065247,66.659561 257.147217,60.251392 
	C293.488251,53.418461 330.121643,49.047062 367.120270,47.525036 
	C399.965698,46.173862 432.776520,46.334644 465.511261,48.959099 
	C525.063293,53.733578 583.250854,64.985809 638.658447,88.141869 
	C671.509338,101.870956 702.105896,119.252014 726.918701,145.395844 
	C744.763184,164.197525 757.366150,185.723694 760.612915,211.969116 
	C763.452026,234.918823 757.749634,255.938324 746.138489,275.542023 
	C736.894348,291.149353 725.350159,304.904449 711.383789,316.515350 
	C707.776062,319.514526 706.269226,322.757782 706.167480,327.591858 
	C705.276855,369.893860 704.112122,412.190277 702.958557,454.486420 
	C702.472717,472.300751 701.794250,490.109741 701.246094,507.922485 
	C699.791077,555.203857 698.349548,602.485718 696.922852,649.767944 
	C696.340088,669.080505 695.855469,688.396179 695.246033,707.707825 
	C693.664795,757.814819 691.997131,807.919067 690.459290,858.027344 
	C690.055664,871.180115 689.906311,884.336670 689.396423,897.491882 
	C688.428833,922.454468 687.971802,947.436890 687.284851,972.410583 
	C687.262817,973.209595 687.044739,974.003174 686.256653,975.104309 
	C622.967285,868.755066 560.507141,761.987915 497.797791,653.436951 
	C466.727142,764.526794 420.547089,868.050842 371.481812,970.809753 
	C323.715851,867.912537 278.346008,764.370972 247.089584,653.558350 
	C183.172562,761.613831 119.948608,868.497620 56.831974,975.199951 
	C54.593445,974.484985 54.809109,973.360474 54.779778,972.416199 
	C54.469532,962.428284 54.129974,952.440796 53.903252,942.450806 
	C53.120773,907.972656 52.568642,873.487976 51.557259,839.016724 
	C50.883198,816.042480 50.190865,793.069641 49.560848,770.093811 
	C48.469517,730.294189 47.256371,690.499573 46.559818,650.689209 
	C46.140224,626.708069 45.453480,602.728943 44.624710,578.757996 
	C43.127998,535.468201 42.377125,492.163635 41.527466,448.858765 
	C40.929409,418.377350 39.764557,387.907990 39.583576,357.415314 
	C39.522285,347.088837 38.945431,336.766174 38.800362,326.438995 
	C38.760433,323.596588 37.288334,321.853027 35.541542,320.008423 
	C22.213600,305.934357 11.580105,290.185150 5.239539,271.696838 
	C3.334586,266.142212 2.924182,260.290619 1.123509,254.356842 
	C1.000000,244.645767 1.000000,235.291550 1.000000,225.468658 
M676.066223,426.756836 
	C676.658691,398.696259 677.251221,370.635681 677.861450,341.732544 
	C590.885620,394.789429 495.628204,414.006226 396.414093,418.974945 
	C402.633881,437.159760 657.841431,887.548157 666.430115,895.820374 
	C667.155701,867.764587 668.124207,839.627747 668.547852,811.482727 
	C669.034424,779.164429 669.877014,746.856201 670.541931,714.543213 
	C671.179504,683.564026 671.796387,652.585205 672.479858,621.606750 
	C673.177979,589.964233 673.717224,558.319153 674.536743,526.677124 
	C675.390930,493.697449 675.566223,460.700165 676.066223,426.756836 
M230.444794,632.972534 
	C270.765533,562.095215 311.086304,491.217926 351.453735,420.258575 
	C348.797882,418.898590 346.939056,419.337036 345.150299,419.244781 
	C331.016205,418.515961 316.854401,418.152985 302.750214,417.049591 
	C270.871613,414.555664 239.203461,410.451782 207.986923,403.312653 
	C164.932648,393.466278 123.168777,380.152863 84.938011,357.394684 
	C79.276077,354.024200 73.746567,350.431244 68.108513,346.911713 
	C66.763580,348.964417 67.267967,350.837585 67.290672,352.595215 
	C67.805115,392.414368 68.292381,432.234161 68.935425,472.051392 
	C69.417084,501.875641 69.182938,531.703186 69.972763,561.529663 
	C71.022423,601.167908 71.373863,640.824524 72.053078,680.472778 
	C72.706596,718.620483 73.435555,756.766907 74.056221,794.915161 
	C74.552284,825.405396 74.936081,855.897400 75.367966,886.388611 
	C75.413368,889.594177 75.393745,892.807068 76.502998,896.724243 
	C85.258881,881.795654 93.606277,867.591125 101.927216,853.371155 
	C124.224640,815.266113 146.550369,777.177612 168.789780,739.038818 
	C189.266800,703.922424 209.646149,668.749146 230.444794,632.972534 
M355.398224,880.185974 
	C360.621979,892.109436 365.845703,904.032837 371.551178,917.055908 
	C373.363007,913.216980 374.611023,910.713928 375.740051,908.158264 
	C385.564240,885.919861 395.462372,863.713440 405.158478,841.419250 
	C434.878723,773.083252 459.839508,703.060425 479.605164,631.191467 
	C480.902985,626.472412 480.269470,622.692505 477.904236,618.463562 
	C445.630737,560.761108 413.511108,502.972534 381.344727,445.210114 
	C379.045074,441.080566 376.676361,436.989471 374.068237,432.402985 
	C372.794250,434.507385 371.906830,435.896057 371.094086,437.327209 
	C358.183167,460.062897 345.343689,482.839386 332.364594,505.536072 
	C310.456268,543.847229 288.487579,582.123901 266.454559,620.363403 
	C264.565674,623.641663 264.240234,626.645691 265.225891,630.299500 
	C271.728699,654.405579 278.777344,678.353638 286.470245,702.098022 
	C306.039795,762.499878 329.723053,821.322754 355.398224,880.185974 
M617.701965,325.842987 
	C604.320496,317.394348 590.885864,309.027924 577.598938,300.433136 
	C574.666260,298.536163 572.430481,298.631897 569.432861,300.265137 
	C560.799194,304.969208 551.777466,308.900757 542.593445,312.409546 
	C491.760010,331.830505 438.788116,339.763214 384.702362,341.232635 
	C363.065399,341.820496 341.435547,341.347321 319.806396,339.528778 
	C279.783691,336.163635 240.644455,329.084259 203.240417,314.019348 
	C199.697250,312.592285 197.149796,312.953644 194.016159,314.843292 
	C176.613983,325.337280 159.087524,335.624969 141.617859,346.007263 
	C137.393478,348.517792 133.223038,351.119141 128.331467,354.103546 
	C138.919067,359.174438 148.979065,363.061371 159.160660,366.604980 
	C218.063141,387.105408 279.107117,395.335754 341.087555,397.525116 
	C366.207581,398.412445 391.353912,397.818085 416.486237,396.008484 
	C448.412781,393.709686 480.002594,389.419617 511.279846,382.695740 
	C552.645508,373.803131 592.644653,360.933197 630.446594,341.693695 
	C632.404053,340.697418 634.808289,340.179504 636.246887,337.570618 
	C630.111145,333.681488 624.218384,329.946411 617.701965,325.842987 
M180.683929,107.938637 
	C199.757019,123.040161 218.866287,138.096512 237.854996,153.303406 
	C240.096680,155.098633 241.955933,155.399780 244.620117,154.577362 
	C285.140411,142.069092 326.805542,136.638580 369.018768,134.722534 
	C391.164886,133.717331 413.275757,134.237717 435.421906,135.507065 
	C469.177673,137.441833 502.182648,143.211273 534.531128,152.884338 
	C537.106812,153.654541 538.837463,153.282761 540.880676,151.674713 
	C561.044495,135.805222 581.283203,120.031044 601.473694,104.195442 
	C602.417847,103.454956 604.021912,103.063286 603.697327,101.313133 
	C603.418152,101.053764 603.215454,100.743324 602.932129,100.623291 
	C601.706665,100.104134 600.470825,99.603127 599.215271,99.162338 
	C545.494019,80.301987 489.903320,71.554871 433.236603,69.513344 
	C393.263184,68.073227 353.336639,69.213409 313.520081,74.060875 
	C274.414337,78.821785 235.963181,86.417152 198.242340,97.714752 
	C191.354935,99.777557 184.613312,102.327057 177.200760,104.857986 
	C178.691238,106.211327 179.421570,106.874458 180.683929,107.938637 
M111.750587,134.303284 
	C108.173813,136.435837 104.547951,138.490677 101.028168,140.713470 
	C77.140938,155.798721 55.609062,173.395416 40.384335,197.708267 
	C22.298180,226.590622 23.372400,261.483826 42.872654,289.388519 
	C57.929657,310.934906 78.302177,326.214325 100.434341,339.585480 
	C103.808640,341.624084 106.377609,340.346588 109.190331,338.657715 
	C126.042534,328.538818 142.955841,318.521149 159.764786,308.331177 
	C164.238708,305.618988 169.072540,303.386810 173.467346,299.511505 
	C166.507690,294.662231 159.974899,290.053192 154.238525,284.488312 
	C145.235352,275.754211 138.002884,265.880096 135.687912,253.214859 
	C132.142838,233.819672 139.468658,217.895050 152.246796,204.045151 
	C167.121170,187.923172 185.975006,177.656662 205.669983,168.741409 
	C208.196289,167.597839 210.714859,166.437210 213.067337,165.362015 
	C212.884354,163.480652 211.804443,162.880188 210.918808,162.182968 
	C191.807251,147.137146 172.653107,132.145111 153.597946,117.028305 
	C151.178192,115.108665 149.185455,115.576904 146.741211,116.661385 
	C135.007797,121.867371 123.484100,127.477409 111.750587,134.303284 
M732.685364,207.790405 
	C730.094604,195.692459 724.730103,184.843964 717.462708,174.949188 
	C696.057556,145.805191 666.365784,127.768158 634.195068,113.068581 
	C631.494141,111.834473 629.616211,112.535049 627.417908,114.256599 
	C609.980347,127.912033 592.447571,141.445847 574.963440,155.041885 
	C571.507935,157.728958 568.135803,160.523178 564.134094,163.743713 
	C568.086487,165.736252 571.188416,167.274445 574.267639,168.856827 
	C587.829651,175.826187 600.405823,184.104233 610.970215,195.301453 
	C628.236816,213.602371 631.289795,238.265015 618.599365,259.174835 
	C613.707520,267.235016 607.439514,274.082916 600.211975,280.094421 
	C598.725159,281.331146 596.817871,282.203644 596.099243,284.542877 
	C616.499146,297.489471 636.887085,310.406921 657.240967,323.377838 
	C659.364746,324.731262 660.996399,323.881195 662.731995,322.752533 
	C683.986877,308.930328 703.361816,293.010773 717.783020,271.866302 
	C730.803101,252.776108 737.644104,232.047913 732.685364,207.790405 
M196.862885,271.337585 
	C223.760880,253.819351 252.218018,239.345215 282.268921,228.088547 
	C288.774170,225.651779 295.254761,222.138306 302.268188,222.166565 
	C311.384491,222.203278 320.490570,223.599304 329.610229,224.288177 
	C341.388275,225.177826 353.175049,225.952972 364.959015,226.763138 
	C367.709412,226.952240 370.021637,226.762955 369.527344,222.886826 
	C366.835114,201.774841 364.210938,180.654129 361.598450,159.532074 
	C361.204651,156.348221 359.787109,154.950500 356.345001,155.110947 
	C345.692261,155.607529 335.135437,156.959717 324.572205,158.270233 
	C288.399414,162.757980 253.113190,170.805206 219.516769,185.244308 
	C201.368759,193.043991 184.082214,202.358170 170.563629,217.272598 
	C164.282654,224.202057 159.718201,232.069870 159.283737,241.710815 
	C158.659317,255.566818 166.396011,265.224091 175.976837,273.723236 
	C183.452560,280.354980 183.599548,280.182281 191.646378,274.726685 
	C193.162674,273.698669 194.709991,272.716461 196.862885,271.337585 
M512.087341,167.471176 
	C497.388275,163.849182 482.620300,160.669357 467.595306,158.575058 
	C442.651947,155.098251 417.595978,153.729324 392.449005,153.341660 
	C388.117157,153.274902 387.036865,154.671829 387.735718,158.987320 
	C389.248474,168.328979 390.191772,177.763229 391.350922,187.161697 
	C392.876740,199.532990 394.433807,211.900772 395.869568,224.282562 
	C396.233032,227.417191 397.431030,228.760208 400.854126,228.973190 
	C422.784515,230.337631 444.737732,231.061890 466.695190,231.716980 
	C487.163361,232.327652 507.629944,233.019791 528.101685,233.476425 
	C551.241821,233.992615 574.387573,234.254044 597.529175,234.713455 
	C600.775146,234.777878 602.012695,233.612778 601.810547,230.323883 
	C601.384277,223.391006 598.538391,217.487823 594.496155,212.058029 
	C588.021118,203.360123 579.594116,196.884338 570.436462,191.298416 
	C552.508606,180.363007 532.941528,173.402756 512.087341,167.471176 
M222.928085,279.487305 
	C216.901230,283.234283 210.874374,286.981262 204.847519,290.728241 
	C204.912247,291.294952 204.976974,291.861694 205.041702,292.428406 
	C261.220245,316.846558 320.535156,322.526825 381.460236,321.793335 
	C378.627594,298.639893 376.033020,276.543213 373.167755,254.481705 
	C372.128998,246.483597 371.822815,246.719452 363.525299,246.260651 
	C345.079956,245.240723 326.637665,244.123917 308.215576,242.757431 
	C304.261871,242.464142 300.649231,242.848404 296.992157,244.181183 
	C271.408051,253.505066 246.955338,265.197327 222.928085,279.487305 
M488.230865,251.398056 
	C458.695312,250.511414 429.159760,249.624771 399.808014,248.743637 
	C399.501617,249.704376 399.284271,250.030533 399.319183,250.326950 
	C401.985046,272.948517 404.673798,295.567383 407.350861,318.187622 
	C407.668182,320.868896 409.593903,320.691772 411.459259,320.498260 
	C416.421204,319.983490 421.370697,319.344696 426.335968,318.867554 
	C461.460999,315.492188 495.728516,308.199219 528.810120,295.850830 
	C548.550781,288.482208 567.422668,279.353577 583.535522,265.389618 
	C587.116455,262.286224 590.481323,258.956451 593.413574,253.754486 
	C558.039185,252.932083 523.578064,253.150314 488.230865,251.398056 
z"/>
</svg>