<svg version="1.1" id="Layer_1" xmlns="http://www.w3.org/2000/svg" xmlns:xlink="http://www.w3.org/1999/xlink" x="0px" y="0px"
	 width="100%" viewBox="0 0 752 1024" enable-background="new 0 0 752 1024" xml:space="preserve">
<path fill="#000000" opacity="1.000000" stroke="none" 
	d="
M576.415894,971.516357 
	C546.455322,981.037476 516.169983,987.334351 485.554291,992.134399 
	C451.103424,997.535828 416.389221,999.896545 381.557770,999.863647 
	C310.680023,999.796753 241.070831,990.738037 173.687408,968.014404 
	C132.843185,954.240723 94.260811,935.893494 61.720387,906.854309 
	C39.963703,887.438477 23.748320,864.432251 18.411007,835.052307 
	C14.147316,811.582092 19.458357,789.786072 30.554316,769.102356 
	C40.835144,749.938110 55.734745,734.817932 72.575897,721.457886 
	C76.297379,718.505493 79.125816,715.305847 81.100006,710.794434 
	C105.472115,655.099365 129.897552,599.426392 154.653351,543.901062 
	C175.339554,497.503479 196.394684,451.269623 217.437149,405.031830 
	C251.521408,330.136627 285.670166,255.270599 319.908112,180.445526 
	C338.690247,139.398254 357.708679,98.459084 376.632812,57.476830 
	C377.241882,56.157799 377.598755,54.642101 378.956726,53.741226 
	C381.188782,54.377716 381.433685,56.423340 382.146454,57.967133 
	C415.448334,130.097000 448.693817,202.252869 481.980469,274.389771 
	C510.940765,337.150848 540.052490,399.842346 568.897949,462.656158 
	C605.665955,542.722412 641.160156,623.356018 675.769897,704.377319 
	C678.824829,711.528870 682.601501,717.463013 689.158508,722.272461 
	C706.670532,735.117188 721.437439,750.746216 731.257568,770.358032 
	C750.470276,808.728027 747.332397,845.664551 723.003296,880.801392 
	C707.115784,903.746643 685.444092,920.266602 661.797363,934.379211 
	C635.059204,950.336853 606.566040,962.350281 576.415894,971.516357 
M313.659943,243.099991 
	C312.489838,245.678619 311.336182,248.264862 310.147156,250.834717 
	C290.425598,293.459930 270.593781,336.034546 250.999832,378.718353 
	C223.068619,439.564209 195.157104,500.420044 167.531433,561.404907 
	C147.740402,605.094482 128.391693,648.984741 108.969826,692.840515 
	C107.072441,697.125000 104.681648,701.317627 103.624619,707.346802 
	C190.263824,660.823792 282.428986,640.127197 379.137604,639.359192 
	C475.975708,638.590149 568.684387,657.163513 655.346252,702.829224 
	C566.992615,501.260773 471.060181,303.565002 379.994476,103.622726 
	C379.416016,103.703979 378.837524,103.785233 378.259033,103.866486 
	C356.842377,150.054367 335.425720,196.242233 313.659943,243.099991 
M272.803680,972.636658 
	C320.521271,980.120667 368.474701,982.458557 416.725342,979.946106 
	C453.050018,978.054688 488.977997,973.419739 524.456787,965.553101 
	C565.424072,956.469666 605.199646,943.857727 642.071045,923.330750 
	C664.319946,910.944519 685.168091,896.649109 701.622070,876.846497 
	C714.207947,861.699280 723.325317,844.900024 724.771423,824.772705 
	C726.352173,802.772034 718.278992,783.906982 705.179810,766.959229 
	C690.326782,747.742493 670.848389,734.144531 649.716492,722.683044 
	C647.556641,721.511536 645.957214,722.231689 644.154480,723.229187 
	C621.708984,735.649414 599.248413,748.042358 576.807922,760.471619 
	C575.537598,761.175293 574.058899,761.770508 573.607910,763.645264 
	C575.501038,766.748901 578.729980,768.664185 581.316772,771.200867 
	C597.299561,786.873962 605.125854,805.175232 599.255798,827.695435 
	C595.734375,841.205139 587.671143,851.958496 577.402954,861.081787 
	C563.043335,873.840393 546.443970,883.020020 528.802307,890.314697 
	C484.054016,908.817566 437.117065,916.626587 388.997711,918.094116 
	C359.614502,918.990234 330.407166,916.522156 301.512756,911.176758 
	C268.095764,904.994690 235.760101,895.393921 206.135727,878.220581 
	C191.636276,869.815186 178.220230,859.948059 168.366318,846.053955 
	C159.567474,833.647522 154.871826,820.098877 157.777679,804.664978 
	C160.347672,791.015015 167.635803,780.087036 177.530609,770.692688 
	C180.132584,768.222351 182.806305,765.827698 185.500565,763.349060 
	C184.833817,762.642029 184.564072,762.181702 184.162445,761.955078 
	C161.530869,749.184021 138.885971,736.436462 116.251160,723.671143 
	C114.511742,722.690186 112.952698,722.696655 111.087288,723.601135 
	C85.405807,736.053589 63.351261,752.739502 48.311588,777.526306 
	C32.837261,803.029541 31.222799,829.152039 45.176445,855.889954 
	C55.279835,875.250000 70.294441,890.236328 87.529343,903.131470 
	C120.805000,928.028259 158.532516,943.678711 197.971603,955.672302 
	C222.225723,963.048096 246.973160,968.270142 272.803680,972.636658 
M267.602539,828.903503 
	C285.690430,849.331299 307.914185,863.473938 333.542206,872.541931 
	C337.843201,874.063782 339.878998,873.724792 341.270111,868.646484 
	C345.922333,851.663818 361.545959,840.013184 379.025635,839.742493 
	C396.390961,839.473572 412.102478,850.860229 417.634949,867.591797 
	C418.337311,869.715942 418.295837,872.213257 420.307220,874.036804 
	C422.063965,873.583618 423.869415,873.258972 425.576843,872.656555 
	C458.655762,860.984863 485.902771,841.661072 504.540527,811.464539 
	C513.641357,796.719482 519.791504,780.817322 520.876221,763.234985 
	C521.119934,759.284363 519.952576,757.293335 516.064758,755.910583 
	C484.173309,744.568604 451.203430,738.312561 417.606873,735.517822 
	C390.023773,733.223328 362.383850,733.540344 334.779999,736.156311 
	C306.348785,738.850708 278.441650,744.013184 251.268372,752.893311 
	C236.982971,757.561768 236.940048,757.829407 239.927353,772.949524 
	C244.060059,793.866882 253.386337,812.194702 267.602539,828.903503 
M237.693069,738.063110 
	C276.657959,724.411560 316.932098,717.553650 358.049347,715.888367 
	C386.017517,714.755676 413.957428,715.620300 441.791748,719.540894 
	C479.453278,724.845703 515.925476,734.077087 550.473389,750.228882 
	C552.993164,751.406982 554.988342,751.487000 557.447510,750.105286 
	C576.470337,739.417053 595.584106,728.890808 614.601929,718.193848 
	C618.420349,716.046021 622.798584,714.716980 626.342529,710.988892 
	C624.380371,709.933838 622.837158,709.013550 621.220337,708.248962 
	C607.509583,701.764709 593.550964,695.858826 579.247009,690.816528 
	C509.473602,666.220520 437.539856,656.440918 363.712555,658.899780 
	C333.358826,659.910706 303.286865,662.951843 273.429779,668.325745 
	C227.330826,676.622986 182.812149,690.000549 140.383545,710.019348 
	C138.845963,710.744812 136.783691,710.921265 136.146957,713.515930 
	C158.193924,725.923828 180.256836,738.313232 202.277237,750.777771 
	C204.389008,751.973083 206.036087,751.241699 207.892227,750.380493 
	C217.411331,745.963989 226.961456,741.616333 237.693069,738.063110 
M289.153320,871.409058 
	C250.644608,846.320068 225.685410,812.316101 219.893311,765.475281 
	C218.698898,765.826111 217.707764,765.952393 216.877350,766.386292 
	C206.359390,771.881226 196.262039,777.955811 187.978790,786.670471 
	C171.727997,803.767578 171.512283,822.406250 187.424149,839.905579 
	C197.672882,851.176758 210.182495,859.333557 223.607697,866.208374 
	C256.062805,882.828064 290.877136,891.256226 326.808014,895.734314 
	C331.942078,896.374146 337.064026,897.589478 342.609528,896.166870 
	C324.301880,889.356873 306.119934,882.512634 289.153320,871.409058 
M430.018951,890.612122 
	C425.756470,892.880554 420.099396,892.223450 416.818420,896.810303 
	C426.881073,896.224548 436.777496,895.246460 446.574615,893.656616 
	C480.143646,888.208984 512.645691,879.339539 542.563293,862.589355 
	C555.781555,855.188782 567.791687,846.271973 576.257141,833.428101 
	C584.340210,821.164429 585.019348,808.343628 577.110168,795.822815 
	C568.458130,782.125854 555.433350,773.521301 541.023132,766.813354 
	C540.791382,766.705444 540.404724,766.930176 539.815063,767.060669 
	C539.634888,767.893677 539.371521,768.823059 539.238098,769.770813 
	C536.502686,789.197632 529.797119,807.122314 519.205933,823.650391 
	C497.950531,856.820496 467.303223,877.483154 430.018951,890.612122 
M358.266754,877.796997 
	C356.488403,890.284790 368.910370,904.547302 385.631561,900.028259 
	C396.116882,897.194519 402.181549,887.157349 400.700562,876.066345 
	C399.414703,866.436462 390.343536,858.621155 380.091156,858.310242 
	C369.043762,857.975220 360.461884,865.313232 358.266754,877.796997 
z"/>
</svg>