<svg version="1.1" id="Layer_1" xmlns="http://www.w3.org/2000/svg" xmlns:xlink="http://www.w3.org/1999/xlink" x="0px" y="0px"
	 width="100%" viewBox="0 0 800 1024" enable-background="new 0 0 800 1024" xml:space="preserve">
<path fill="#000000" opacity="1.000000" stroke="none" 
	d="
M189.082123,931.104431 
	C157.384491,919.276733 127.278008,905.124695 99.897491,885.738647 
	C77.119583,869.611267 56.674332,850.961975 43.110859,826.182190 
	C19.821310,783.633301 26.854284,743.457947 54.079689,705.334534 
	C63.432583,692.237793 74.700439,680.919373 87.090111,670.695251 
	C88.639290,669.416870 89.998375,668.085999 90.954704,666.218994 
	C138.271271,573.843384 187.074524,482.245209 235.304413,390.347229 
	C281.289520,302.726471 327.427063,215.185745 373.485260,127.603317 
	C382.634766,110.204918 391.715454,92.770302 400.868774,75.373894 
	C401.699677,73.794762 402.161194,71.899925 404.225769,70.802284 
	C406.286194,71.665077 406.920471,73.805725 407.879761,75.639442 
	C436.682739,130.698761 465.407104,185.799316 494.286926,240.818268 
	C532.843811,314.272919 571.623291,387.610809 610.114929,461.099548 
	C645.204834,528.093628 680.626221,594.916077 714.883972,662.343201 
	C716.163940,664.862427 718.125305,666.478638 720.156006,668.197998 
	C737.466492,682.854797 752.580200,699.402771 763.315857,719.548889 
	C783.807129,758.002075 781.470581,795.758057 758.939026,832.478760 
	C739.851257,863.586975 712.251587,885.545776 680.856750,903.107483 
	C639.074402,926.479858 594.293701,941.609253 547.562927,951.487671 
	C518.851074,957.556946 489.876648,961.641174 460.671570,964.009033 
	C425.934601,966.825439 391.179993,967.038025 356.363434,964.521179 
	C312.906738,961.379822 270.102966,954.688232 228.029007,943.363892 
	C215.001617,939.857544 202.184372,935.681213 189.082123,931.104431 
M535.625732,377.786560 
	C491.950928,295.246490 448.276154,212.706406 404.338196,129.668930 
	C315.137573,298.243866 226.199463,466.322723 137.009308,634.877869 
	C140.078827,635.071350 141.425232,633.963074 142.882416,633.217102 
	C161.904373,623.479126 181.596970,615.313293 201.957153,608.888733 
	C243.331421,595.833191 285.532715,586.732910 328.782654,582.492188 
	C360.126465,579.418884 391.450897,577.525269 422.983887,578.476562 
	C448.813934,579.255859 474.488281,581.239746 500.093018,584.588379 
	C557.797791,592.135071 613.353394,607.001404 665.734436,632.815918 
	C666.786133,633.334167 667.826904,634.590027 669.672424,633.252258 
	C625.365540,548.179749 580.973450,463.151123 535.625732,377.786560 
M105.915070,855.568115 
	C129.480347,874.304504 155.922119,887.949524 183.679153,899.174194 
	C237.913849,921.106018 294.632568,932.215027 352.715027,936.459412 
	C388.783844,939.095032 424.941528,938.997070 461.048950,935.906860 
	C494.777039,933.020264 528.117981,927.905457 560.957642,919.628540 
	C604.513184,908.650879 646.174133,893.117798 683.987549,868.376648 
	C706.446594,853.681702 725.812622,835.947021 739.030334,812.163269 
	C745.695068,800.170898 749.952515,787.347900 750.450989,773.722961 
	C750.958496,759.851501 747.002625,746.742188 740.537476,734.434631 
	C727.861389,710.303589 708.440796,692.625122 686.402771,677.339355 
	C682.952942,674.946594 680.494568,675.001038 677.052856,677.095581 
	C657.843262,688.786438 638.501465,700.260010 619.225525,711.842407 
	C618.014099,712.570251 616.347351,712.917847 616.009644,715.187195 
	C620.745911,719.477600 625.579712,724.014648 629.963623,729.022156 
	C650.478271,752.455322 651.620789,781.638672 632.643433,806.241150 
	C620.046631,822.571838 603.419983,833.911804 585.181641,842.893433 
	C534.015442,868.090881 479.105255,877.457642 422.791504,880.090698 
	C390.091400,881.619629 357.587555,878.706177 325.291382,873.417908 
	C287.761383,867.272705 251.483398,857.168213 217.767654,839.156921 
	C201.069565,830.236633 185.416443,819.814941 173.653076,804.558655 
	C158.243896,784.574158 157.032928,761.861450 170.011276,740.246826 
	C174.342514,733.033508 179.900696,726.897644 185.878891,721.050049 
	C189.166931,717.833740 193.334579,715.553406 196.269058,711.583923 
	C195.392548,710.923645 194.801437,710.327087 194.090851,709.965027 
	C172.125076,698.773743 150.141388,687.617554 128.182129,676.413574 
	C126.103691,675.353088 124.443863,675.742737 122.678101,677.086426 
	C118.173546,680.514282 113.457581,683.675659 109.067696,687.241028 
	C89.566460,703.079468 72.937241,721.257751 62.957867,744.744141 
	C54.418629,764.841248 54.563694,784.838745 63.716270,804.713196 
	C73.146339,825.190247 88.114296,841.097778 105.915070,855.568115 
M306.162842,696.797546 
	C296.698700,699.000366 287.115265,700.784302 277.372162,704.498657 
	C283.456360,712.199646 288.697418,719.664856 293.367371,727.507874 
	C305.635559,748.111633 313.498871,770.584900 321.226410,793.122314 
	C325.756561,806.334351 329.505707,819.865295 336.591705,832.070129 
	C343.067505,843.223999 352.723419,849.382263 365.560608,850.848572 
	C391.139465,853.770386 416.747620,853.634644 442.357086,851.640137 
	C464.204468,849.938538 482.201752,840.552063 496.156189,823.594299 
	C509.487000,807.394287 516.720703,788.307861 521.704529,768.292969 
	C526.232727,750.107788 528.600891,731.678833 525.712341,712.904968 
	C524.543884,705.310181 520.432861,700.979187 512.819763,698.965515 
	C484.362762,691.438782 455.327332,687.777161 426.055573,686.553711 
	C385.999634,684.879395 346.211395,687.827576 306.162842,696.797546 
M386.373688,606.088135 
	C306.112854,608.152161 228.611923,622.388184 154.599625,657.693298 
	C157.288208,659.404724 158.619019,660.402222 160.075806,661.156433 
	C180.930679,671.953796 201.818298,682.688049 222.648026,693.533508 
	C224.941177,694.727417 226.726349,694.035095 228.745575,693.117493 
	C278.937805,670.307434 332.076141,660.778076 386.742523,658.827209 
	C414.035736,657.853210 441.306030,658.788147 468.468933,662.536377 
	C509.112579,668.144714 548.578552,677.622253 585.510193,696.023804 
	C588.466431,697.496765 590.569275,697.166626 593.287659,695.526367 
	C612.111572,684.168335 631.052246,673.003967 649.917114,661.713562 
	C651.513123,660.758362 653.692627,660.247925 654.290588,657.107971 
	C569.782837,616.662903 479.994415,603.973511 386.373688,606.088135 
M246.600983,715.413635 
	C228.801117,722.907898 212.129181,732.178650 199.071304,746.784363 
	C186.894455,760.404480 186.536865,774.273254 197.521454,788.821228 
	C203.328598,796.512329 210.674698,802.481384 218.640839,807.704895 
	C245.072144,825.036072 274.430206,834.983704 305.069305,841.604248 
	C306.355255,841.882141 307.869568,842.950684 309.435974,841.378723 
	C308.960999,839.890747 308.472168,838.325989 307.962494,836.768066 
	C303.770844,823.956116 299.561371,811.149902 295.383972,798.333252 
	C287.029510,772.701111 276.497070,748.151245 259.468536,726.900696 
	C255.969193,722.533691 252.628342,717.871704 246.600983,715.413635 
M608.241821,793.738342 
	C623.778625,775.317444 622.692505,763.076965 610.824463,748.079041 
	C595.737488,729.013245 574.050476,719.653320 551.399597,710.526001 
	C556.415649,756.418152 544.402222,797.581299 521.444092,835.960449 
	C523.663757,837.122620 525.075684,836.510620 526.501099,836.100708 
	C537.067993,833.061584 547.518433,829.647705 557.658569,825.403503 
	C576.018066,817.719116 593.716187,808.903870 608.241821,793.738342 
z"/>
</svg>