<svg version="1.1" id="Layer_1" xmlns="http://www.w3.org/2000/svg" xmlns:xlink="http://www.w3.org/1999/xlink" x="0px" y="0px"
	 width="100%" viewBox="0 0 800 1024" enable-background="new 0 0 800 1024" xml:space="preserve">
<path fill="#000000" opacity="1.000000" stroke="none" 
	d="
M214.783905,982.360168 
	C170.698807,969.868530 129.087143,952.749512 91.287239,927.243530 
	C67.073044,910.904663 45.249893,891.990784 29.653681,866.805664 
	C19.106812,849.774353 12.404812,831.340332 12.120993,811.247559 
	C11.612881,775.276062 22.526945,743.369080 48.209038,717.375183 
	C52.265163,713.269775 55.403461,708.778564 57.982956,703.665710 
	C97.151756,626.028503 137.605072,549.052612 177.462509,471.769775 
	C200.139923,427.798615 222.742416,383.788391 245.569916,339.895203 
	C286.229095,261.714935 327.001984,183.593719 367.796753,105.484070 
	C379.518524,83.040497 391.462708,60.712936 403.353760,38.358173 
	C404.571564,36.068764 405.414185,33.465443 407.666412,31.845449 
	C409.867554,32.474125 410.290710,34.454182 411.090759,36.001320 
	C433.814545,79.944626 456.590271,123.861458 479.168793,167.879395 
	C516.876770,241.392822 554.561462,314.918579 592.053284,388.542358 
	C621.911438,447.175720 651.506775,505.943085 681.145020,564.688232 
	C705.374084,612.711975 729.668518,660.704651 752.772583,709.285522 
	C754.334717,712.570312 756.915161,714.892029 759.357544,717.365234 
	C775.288208,733.496948 786.633484,752.231201 791.295654,774.585449 
	C802.171082,826.730408 785.102356,869.217285 746.173035,904.054688 
	C708.596069,937.682007 664.296204,959.083679 616.996521,974.961853 
	C583.772278,986.115112 549.678040,993.791748 515.079102,999.079346 
	C464.053955,1006.877319 412.733917,1009.243713 361.178253,1006.313721 
	C311.667145,1003.499817 262.953430,995.864441 214.783905,982.360168 
M560.251831,369.132202 
	C510.016327,270.866150 459.919586,172.528107 408.170807,74.723167 
	C398.492493,86.928642 91.442558,675.449036 90.246475,683.968323 
	C91.371063,683.325928 92.389481,682.781006 93.372032,682.177551 
	C120.319817,665.626831 148.981613,652.706360 178.713577,642.106812 
	C212.518677,630.055176 247.274261,621.708191 282.626007,615.677795 
	C311.693298,610.719360 340.938385,607.263062 370.381775,606.007568 
	C387.999695,605.256409 405.638123,604.756165 423.322723,605.519775 
	C441.788849,606.317200 460.249542,607.004761 478.628113,608.950500 
	C516.431641,612.952759 553.745911,619.597107 590.414246,629.791077 
	C631.851379,641.310791 671.620544,656.774231 708.721191,678.748596 
	C711.761169,680.549194 714.498291,683.024536 719.107666,684.342102 
	C667.184631,578.217285 613.475647,474.213409 560.251831,369.132202 
M578.660889,968.042847 
	C606.919067,960.643860 634.478821,951.253540 660.912659,938.760620 
	C692.630371,923.770630 722.165405,905.527466 745.976318,879.290039 
	C764.888428,858.450745 777.245789,834.780029 776.929871,805.638123 
	C776.671570,781.811157 771.526123,759.752136 756.329590,740.771484 
	C739.805298,720.132507 718.668701,705.169617 696.233398,691.770142 
	C693.588074,690.190308 691.912903,691.473389 689.959656,692.816040 
	C671.289429,705.650269 652.552002,718.387878 633.962769,731.338196 
	C629.685852,734.317688 624.971008,736.842407 620.878113,741.178650 
	C627.271729,746.020447 632.800781,751.020447 637.895630,756.485229 
	C661.273560,781.560425 660.900818,814.710876 637.329529,839.547241 
	C620.175476,857.622009 599.125916,869.477783 576.361206,878.547852 
	C525.765076,898.706604 472.792053,906.717407 418.684357,908.215210 
	C394.044983,908.897278 369.437103,908.195679 344.862793,905.489929 
	C314.997467,902.201477 285.562378,897.015808 256.870728,888.055054 
	C228.223938,879.108276 200.908096,867.431396 177.738174,847.704834 
	C168.488388,839.829712 160.783676,830.628967 155.879181,819.478394 
	C145.853271,796.683899 151.867996,776.617493 166.993317,758.279480 
	C172.294708,751.852051 178.683258,746.557190 185.406525,741.171204 
	C184.381882,740.221802 183.854141,739.604675 183.209854,739.154236 
	C160.818466,723.499634 138.402161,707.880676 116.039619,692.185059 
	C114.071976,690.804016 112.546638,690.979004 110.597260,692.138245 
	C89.285179,704.811401 69.216904,719.114990 53.428051,738.476379 
	C30.484207,766.611633 24.677902,798.928894 33.697487,833.446777 
	C40.239792,858.483948 57.055252,877.307312 76.244019,893.875122 
	C109.018600,922.172974 147.063538,941.149658 187.566101,955.432800 
	C256.113434,979.606018 327.149231,989.404297 399.501495,990.447571 
	C426.458923,990.836304 453.382507,988.861755 480.231628,985.958740 
	C513.223389,982.391541 545.789429,976.687073 578.660889,968.042847 
M293.618927,879.761780 
	C320.647919,885.861267 348.066345,889.394714 375.694275,890.521301 
	C410.166046,891.926880 444.597351,890.961609 478.832947,885.859985 
	C514.054138,880.611572 548.483398,872.594543 580.990417,857.647949 
	C597.292175,850.152344 612.560120,841.001282 624.696472,827.476379 
	C641.835205,808.376709 641.982605,787.494019 625.018372,768.302551 
	C612.032837,753.612183 595.258728,744.287781 577.623718,736.578918 
	C526.799194,714.361938 473.026794,706.244934 418.095337,704.311401 
	C391.271271,703.367249 364.518555,704.782837 337.853516,708.142944 
	C301.523926,712.720886 266.006378,720.473694 232.183914,734.783569 
	C212.726624,743.015625 194.518524,753.367615 180.286484,769.501465 
	C165.382431,786.397217 164.995300,807.031250 179.172134,824.475037 
	C191.141586,839.202576 206.972626,848.662537 223.717316,856.746643 
	C245.727402,867.372681 268.941650,874.478699 293.618927,879.761780 
M377.508179,623.161621 
	C291.792999,627.211975 208.877518,643.061340 130.998062,680.868591 
	C131.464508,681.874146 131.519455,682.286804 131.750122,682.448120 
	C153.999725,698.008118 176.278687,713.526245 198.499451,729.127258 
	C200.651245,730.637939 202.388855,730.271912 204.455612,729.151367 
	C211.631454,725.260620 218.915482,721.582947 226.470520,718.466003 
	C276.530121,697.812683 329.040741,689.047241 382.789246,686.986511 
	C420.479523,685.541382 457.996674,687.810242 495.210358,694.556030 
	C532.106812,701.244385 567.952332,711.009155 601.192078,728.865784 
	C603.900208,730.320496 605.789246,730.238525 608.359802,728.437012 
	C624.866882,716.868652 641.516541,705.503723 658.111145,694.060120 
	C664.081848,689.942749 670.029968,685.792542 676.145996,681.547913 
	C673.841614,679.098999 671.255249,678.297058 668.892639,677.184021 
	C613.237427,650.964539 554.477905,635.780884 493.612427,628.322510 
	C455.390747,623.638916 417.034821,621.164429 377.508179,623.161621 
z"/>
<path fill="#000000" opacity="1.000000" stroke="none" 
	d="
M456.787872,838.308960 
	C460.124084,843.168701 462.693176,848.019348 463.991241,853.417969 
	C465.373901,859.168457 463.004242,863.888550 458.360382,865.105835 
	C453.368347,866.414246 449.350342,864.057983 447.531097,858.153076 
	C441.289062,837.892151 417.696655,826.319214 397.756134,828.755676 
	C378.376160,831.123718 364.168579,840.505005 357.319061,859.566467 
	C355.529114,864.547607 350.533966,866.590149 345.951080,864.820496 
	C341.726868,863.189148 339.788788,859.103760 341.346710,854.105591 
	C348.350494,831.635437 364.471771,819.025269 386.505890,813.251709 
	C412.565979,806.423218 441.042084,816.629028 456.787872,838.308960 
z"/>
</svg>