<svg version="1.1" id="Layer_1" xmlns="http://www.w3.org/2000/svg" xmlns:xlink="http://www.w3.org/1999/xlink" x="0px" y="0px"
	 width="100%" viewBox="0 0 848 1024" enable-background="new 0 0 848 1024" xml:space="preserve">
<path fill="#000000" opacity="1.000000" stroke="none" 
	d="
M126.159714,77.755592 
	C129.594528,77.288895 130.065475,80.115601 131.168839,81.940880 
	C151.939224,116.301003 172.622284,150.713898 193.341949,185.104691 
	C228.590530,243.610748 263.846863,302.112122 299.115479,360.606110 
	C302.692200,366.538208 306.374908,372.406433 310.859924,379.686401 
	C352.879150,278.151367 394.549469,178.055130 435.941742,77.234413 
	C476.118622,177.381927 518.745239,276.255524 559.850281,377.479034 
	C620.013977,276.756500 679.513245,177.146393 739.087402,77.410812 
	C742.066956,79.413361 741.177185,81.791817 741.185486,83.768578 
	C741.299072,110.931419 740.980286,138.100479 741.442932,165.256500 
	C742.322998,216.907547 741.653809,268.569885 742.571289,320.210358 
	C743.154541,353.036133 742.632996,385.865021 743.477478,418.673889 
	C744.472412,457.328583 743.674744,495.990570 744.477173,534.635742 
	C745.131042,566.126038 744.916748,597.619385 745.510742,629.103210 
	C745.749451,641.759460 746.198547,654.416687 746.120239,667.075623 
	C746.098022,670.663513 747.355164,672.807556 750.315796,674.812805 
	C769.889771,688.069824 787.372925,703.580688 801.716003,722.539673 
	C837.052185,769.247925 837.350769,826.043030 802.325806,873.600281 
	C783.535706,899.113770 759.198181,918.344604 732.579346,934.942017 
	C691.381104,960.629883 646.228699,976.347656 599.219360,987.134033 
	C567.876404,994.325684 536.094727,998.715027 504.037445,1001.512329 
	C475.608765,1003.992981 447.167908,1004.733521 418.681427,1004.256470 
	C373.806946,1003.505005 329.364716,998.797119 285.375458,989.644958 
	C246.076859,981.468689 207.984467,969.761169 171.830124,952.213074 
	C139.882919,936.706970 109.793076,918.349365 85.003525,892.455505 
	C63.469810,869.962463 47.603703,844.382019 43.354252,812.803040 
	C40.038380,788.161743 45.186260,765.147583 56.847557,743.411682 
	C70.852264,717.307800 91.216385,696.907959 114.802155,679.553589 
	C119.343437,676.212036 120.977524,672.758179 121.105072,667.188416 
	C122.131470,622.369934 121.172501,577.539001 122.056839,532.726196 
	C123.164886,476.577209 122.187271,420.417389 123.136658,364.274536 
	C123.897423,319.286285 123.184135,274.291473 124.095917,229.313843 
	C125.058556,181.827042 124.543480,134.339325 124.988014,86.854218 
	C125.015739,83.892700 124.473717,80.838409 126.159714,77.755592 
M341.005707,473.446198 
	C275.750031,368.382965 213.512619,261.479279 147.967682,155.901367 
	C146.506638,164.795959 144.134598,656.559631 145.485519,659.504578 
	C149.131149,658.743103 152.035965,656.382996 155.210236,654.672241 
	C202.181885,629.356506 252.601151,614.327209 304.785370,604.697754 
	C338.537933,598.469421 372.570465,594.528137 406.919952,593.655701 
	C408.686737,593.610840 410.639526,594.000916 412.518188,591.768799 
	C388.884003,552.659729 365.136414,513.362976 341.005707,473.446198 
M532.869202,468.305542 
	C508.056122,509.463501 483.243011,550.621460 457.683319,593.017761 
	C551.177734,596.552734 640.341064,612.995117 722.751709,657.445068 
	C723.888123,655.329529 723.653931,653.473083 723.620605,651.707153 
	C723.457275,643.049438 723.213806,634.393311 723.000793,625.736572 
	C722.304016,597.421936 722.884277,569.099487 722.125610,540.776733 
	C721.153076,504.473206 721.874695,468.143768 721.104431,431.824219 
	C720.125977,385.685211 720.965393,339.527161 720.127014,293.377014 
	C719.334229,249.736374 719.313843,206.081711 718.934692,162.433395 
	C718.921326,160.894165 718.705688,159.356705 718.507996,156.850449 
	C717.045898,159.187912 716.130493,160.565765 715.299255,161.992661 
	C686.371643,211.650833 656.359985,260.661255 626.894348,309.997803 
	C595.549133,362.481293 564.448120,415.110626 532.869202,468.305542 
M414.622498,188.043808 
	C405.377472,210.530670 396.163025,233.030151 386.881104,255.501785 
	C367.236176,303.062195 347.576630,350.616608 327.849182,398.142822 
	C326.356232,401.739532 325.886749,404.761353 328.116455,408.436951 
	C362.590454,465.266235 396.920135,522.183044 431.322723,579.055725 
	C432.548157,581.081604 433.448181,583.470886 435.909424,585.023010 
	C437.178955,583.054260 438.302582,581.422424 439.315491,579.724487 
	C457.492676,549.253418 475.628418,518.757507 493.831543,488.301971 
	C510.070251,461.133026 526.334656,433.979095 542.717346,406.896973 
	C544.727844,403.573425 545.149231,400.714905 543.523315,397.106781 
	C540.858582,391.193481 538.753845,385.030884 536.265686,379.034546 
	C505.756989,305.512054 475.229462,231.997375 444.679291,158.492126 
	C441.963928,151.958878 439.055725,145.505814 435.649200,137.661835 
	C428.370117,155.151688 421.667877,171.255508 414.622498,188.043808 
M651.907288,699.397156 
	C666.672852,690.865234 681.438477,682.333252 697.447388,673.082886 
	C618.843750,635.508057 536.673157,619.978394 451.628235,618.381653 
	C355.958923,616.585327 263.368622,631.442627 176.061935,672.730835 
	C176.770126,674.752136 178.113174,675.173157 179.236664,675.813843 
	C200.214447,687.778198 221.233673,699.670532 242.145645,711.748657 
	C245.064697,713.434570 247.372513,713.625793 250.452850,712.176880 
	C299.897125,688.920898 352.548096,678.965576 406.610931,676.110046 
	C436.690338,674.521301 466.840332,675.187073 496.915527,678.503723 
	C540.452637,683.304810 582.509888,693.173340 622.083435,712.377197 
	C624.817505,713.703979 627.006531,713.568054 629.542664,712.084351 
	C636.728821,707.880493 644.008423,703.836426 651.907288,699.397156 
M650.512085,763.976257 
	C645.143433,757.985352 638.979736,752.931396 632.358398,748.388794 
	C612.920654,735.053223 591.330933,726.360229 569.050049,719.266663 
	C537.800049,709.317688 505.674896,704.151550 472.983276,702.083069 
	C435.971130,699.741211 399.115631,700.801880 362.416351,706.346130 
	C359.014832,706.860107 358.070221,708.257568 358.861420,711.781982 
	C362.574005,728.319336 370.697754,742.502686 381.881348,754.945251 
	C399.589844,774.647583 421.656036,788.246765 445.673065,798.734436 
	C475.613068,811.808594 507.026001,819.646057 539.351990,824.133423 
	C572.963745,828.799255 606.634644,830.302979 640.402161,826.465088 
	C645.156067,825.924744 650.748108,826.906555 654.488342,822.693787 
	C658.960022,817.657104 662.241882,811.867981 663.714294,805.200623 
	C667.245056,789.213074 661.315186,776.167542 650.512085,763.976257 
M396.376221,915.290039 
	C358.858948,912.631226 322.072845,906.097351 286.412689,893.973450 
	C281.736755,892.383728 278.770325,893.168274 275.386200,896.430420 
	C259.676483,911.574097 243.774597,926.518494 227.966980,941.560974 
	C226.807297,942.664368 225.214127,943.521851 225.101578,945.415039 
	C226.052353,946.859619 227.667816,946.990295 229.038147,947.460083 
	C285.718964,966.893860 344.246338,976.285767 403.926422,978.536072 
	C444.221985,980.055481 484.484894,978.729919 524.600403,973.955322 
	C570.238098,968.523499 614.891174,959.039307 657.947937,942.689819 
	C659.853149,941.966370 662.194885,941.749390 663.669067,938.650330 
	C662.746155,938.007507 661.586975,937.330505 660.576843,936.477112 
	C642.635559,921.319702 624.656067,906.206604 606.843323,890.899292 
	C604.008911,888.463440 601.625427,888.259277 598.305725,889.544373 
	C552.759399,907.175720 505.242126,914.360535 456.704620,916.320251 
	C436.873413,917.120972 417.095917,916.694397 396.376221,915.290039 
M98.970230,869.540283 
	C102.339050,872.999023 105.598251,876.572998 109.094261,879.898071 
	C133.697983,903.298340 162.694153,919.789490 193.454788,933.533752 
	C196.449951,934.872070 198.240005,934.172119 200.446579,932.072754 
	C216.379044,916.914307 232.443558,901.894653 248.410370,886.772156 
	C250.167496,885.107971 252.427414,883.794189 253.239349,881.304504 
	C252.348755,879.523865 250.557739,879.245850 249.130646,878.504456 
	C229.324036,868.213928 210.576935,856.474121 196.811264,838.394836 
	C182.942963,820.180664 177.008835,800.014221 183.841614,777.413757 
	C188.347137,762.511108 197.428650,750.441589 208.784073,740.020020 
	C212.542450,736.570862 216.509842,733.349487 220.422394,729.989014 
	C219.758514,729.188171 219.522522,728.686829 219.128464,728.459167 
	C196.624756,715.462036 174.099304,702.502502 151.606323,689.486816 
	C149.439667,688.233032 147.641525,688.393799 145.623230,689.790466 
	C140.556458,693.296753 135.281342,696.510132 130.298798,700.128723 
	C110.700394,714.362549 93.587509,731.010071 81.249718,752.078491 
	C68.267303,774.247681 64.369972,797.765442 71.614586,822.711060 
	C76.737404,840.350647 86.526764,855.326294 98.970230,869.540283 
M672.112183,912.366638 
	C675.632751,915.423523 679.557739,918.129150 682.585510,921.614197 
	C688.039917,927.892456 693.064392,927.635559 700.152649,923.627808 
	C728.740417,907.464294 755.632874,889.357788 777.243958,864.132935 
	C807.688049,828.597900 811.302734,784.823486 786.407532,745.414673 
	C771.266296,721.446289 749.413513,704.649292 725.973999,689.605957 
	C723.787231,688.202454 722.039185,688.727295 720.000244,689.902405 
	C701.968323,700.294739 683.893433,710.612244 665.836182,720.960632 
	C661.116882,723.665161 656.415222,726.400513 651.749878,729.096069 
	C652.635620,731.511292 654.315186,732.437317 655.732239,733.496399 
	C662.453796,738.519897 668.196289,744.526611 673.541565,750.937988 
	C694.747192,776.373108 696.548645,809.261353 677.789246,835.453735 
	C666.833862,850.749756 652.121887,861.885803 635.981079,871.255127 
	C633.873352,872.478699 631.344543,873.165039 629.589600,875.954590 
	C643.584900,887.931396 657.583923,899.911316 672.112183,912.366638 
M298.712097,826.249084 
	C285.670258,834.567566 273.416321,843.800232 262.824738,856.691345 
	C319.128876,881.980835 377.585663,891.385681 438.028473,891.025269 
	C498.484680,890.664795 557.093872,881.666992 612.003967,854.854065 
	C610.099731,854.338928 608.282410,854.328491 606.465210,854.340393 
	C568.012146,854.592651 530.058105,850.334045 492.692810,841.279175 
	C456.860626,832.595825 422.541412,820.158386 392.267456,798.461121 
	C388.203125,795.548157 384.403625,794.856262 379.726501,795.670044 
	C351.012573,800.666260 324.294617,810.916443 298.712097,826.249084 
M214.512512,818.974792 
	C219.203735,825.730103 224.923553,831.473694 231.348953,836.600647 
	C239.532227,843.130249 239.498810,843.253357 246.717941,835.788879 
	C273.394562,808.206116 305.881012,790.323792 342.078430,778.650574 
	C348.645782,776.532654 355.287506,774.645264 362.211426,772.555969 
	C361.545044,771.424683 361.294525,770.810120 360.885071,770.331665 
	C347.214569,754.355896 337.689392,736.288635 333.372681,715.622620 
	C332.569641,711.778198 330.211945,712.148743 327.353668,712.804626 
	C308.171906,717.206421 289.463318,723.060120 271.431274,730.977356 
	C252.881897,739.121582 235.198273,748.659546 221.142410,763.684082 
	C206.519699,779.314392 201.786240,799.365906 214.512512,818.974792 
z"/>
</svg>