<svg version="1.1" id="Layer_1" xmlns="http://www.w3.org/2000/svg" xmlns:xlink="http://www.w3.org/1999/xlink" x="0px" y="0px"
	 width="100%" viewBox="0 0 832 1024" enable-background="new 0 0 832 1024" xml:space="preserve">
<path fill="#000000" opacity="1.000000" stroke="none" 
	d="
M374.858948,188.915497 
	C391.173157,151.029312 407.337158,113.492393 423.501129,75.955475 
	C424.031128,75.996300 424.561127,76.037125 425.091125,76.077950 
	C471.983154,182.669815 515.621155,290.652191 561.723755,398.929535 
	C628.863098,291.655914 694.257751,184.593933 762.127930,78.691734 
	C765.086182,81.246536 764.183350,83.903740 764.183899,86.204269 
	C764.208313,183.702942 764.155334,281.201599 764.156128,378.700287 
	C764.157104,489.865448 764.224854,601.030640 764.134033,712.195740 
	C764.130310,716.739990 765.382080,719.882019 768.770447,722.998108 
	C785.601074,738.475586 799.036743,756.418457 805.256653,778.739868 
	C815.154358,814.260193 807.786987,846.545959 785.950256,875.932251 
	C765.635925,903.269714 738.915527,922.837280 709.668091,939.373779 
	C667.604797,963.156250 622.103394,977.368652 575.089783,987.175537 
	C536.396240,995.246887 497.274048,999.840393 457.754333,1001.492371 
	C418.223236,1003.144653 378.856354,1001.875122 339.551514,997.406799 
	C285.218018,991.229980 232.121658,979.931946 181.274338,959.384583 
	C152.626038,947.807861 124.976112,934.224243 100.011032,915.776245 
	C79.622307,900.710022 61.106529,883.650452 48.596844,861.265198 
	C25.828850,820.523560 30.436686,775.863892 60.742649,739.333069 
	C64.775574,734.471802 69.147850,729.830200 73.801941,725.565979 
	C77.401497,722.268005 78.824272,718.792053 78.820869,713.853699 
	C78.732239,585.355469 78.810814,456.857147 78.837189,328.358826 
	C78.853577,248.526550 78.823792,168.694275 78.866310,88.862022 
	C78.867569,86.492950 78.028221,83.846687 80.928574,80.982300 
	C149.648956,186.287003 216.573059,292.367645 284.900635,399.105011 
	C315.144012,328.440094 344.926361,258.852448 374.858948,188.915497 
M98.265526,320.499969 
	C98.265526,448.501251 98.265526,576.502502 98.265526,705.283325 
	C110.035469,696.971069 121.394737,690.041992 133.142914,683.761597 
	C168.152451,665.046021 205.156982,651.638611 243.656326,642.171082 
	C289.345764,630.935242 335.685028,624.176636 382.658447,621.666321 
	C388.881439,621.333801 395.094879,620.822510 402.677734,620.299927 
	C301.366272,461.374695 200.734512,303.515686 100.102760,145.656693 
	C99.490509,145.874344 98.878258,146.091995 98.266006,146.309647 
	C98.266006,204.039734 98.266006,261.769836 98.265526,320.499969 
M685.352112,237.792313 
	C647.322693,298.693146 609.344177,359.625854 571.249695,420.485962 
	C531.919067,483.320923 492.460052,546.075500 453.122467,608.906128 
	C450.891083,612.470154 448.234619,615.885986 446.826843,620.561523 
	C459.596375,620.851807 471.853241,621.677368 484.109894,622.567749 
	C525.542847,625.577332 566.478027,631.678528 606.772278,641.824951 
	C654.628845,653.875793 699.947571,671.809814 740.712402,700.176636 
	C741.720398,700.878113 742.611816,702.186157 744.299316,701.474915 
	C744.299316,515.842407 744.299316,330.206146 744.299316,143.120987 
	C724.279541,175.285843 705.015930,206.235687 685.352112,237.792313 
M518.857971,347.535767 
	C487.516113,273.122375 457.202271,198.271683 424.481384,123.303207 
	C423.142517,126.031082 422.348999,127.483009 421.699371,128.996704 
	C415.001862,144.602814 408.316895,160.214325 401.648682,175.832977 
	C367.588684,255.610748 333.544556,335.395294 299.438965,415.153564 
	C298.199585,418.052002 298.372314,420.335510 300.099121,423.042603 
	C339.241882,484.405853 378.283173,545.833801 417.427887,607.195801 
	C419.597412,610.596680 421.101288,614.576111 424.887146,617.505188 
	C426.018036,615.725281 426.991699,614.216675 427.942139,612.693604 
	C438.786682,595.315491 449.606781,577.922058 460.473572,560.557922 
	C489.188080,514.674866 517.902222,468.791565 546.702026,422.962067 
	C548.323059,420.382507 548.320374,418.300751 547.176514,415.579346 
	C537.755981,393.167145 528.474792,370.696381 518.857971,347.535767 
M361.695038,706.928223 
	C380.594727,705.138611 399.533081,703.958923 418.517853,703.838196 
	C445.844025,703.664429 473.069183,705.114014 500.206024,708.590393 
	C538.198059,713.457214 575.305054,721.630371 610.629028,736.807495 
	C613.355713,737.979004 615.437927,738.050598 618.015320,736.484375 
	C641.074158,722.472229 664.203857,708.576660 687.298035,694.622498 
	C687.957458,694.224121 688.454102,693.556396 688.968506,693.069214 
	C688.219482,691.178284 686.608948,690.931458 685.316895,690.302490 
	C657.196838,676.609741 627.686401,666.816528 597.392151,659.332825 
	C556.081238,649.127686 514.083435,643.618042 471.641998,640.932251 
	C437.997894,638.803101 404.377716,638.997192 370.811066,641.515503 
	C338.111115,643.968689 305.643433,648.345154 273.486542,655.067322 
	C235.871475,662.930481 199.298706,673.902161 164.210114,689.643860 
	C162.664536,690.337219 160.571777,690.508850 159.745956,693.388062 
	C160.057327,693.551331 160.675049,693.830505 161.248169,694.182312 
	C184.099747,708.208862 206.961975,722.218323 229.774536,736.308105 
	C232.274567,737.852234 234.427963,737.280945 236.828949,736.279419 
	C253.612183,729.278625 270.944122,723.973572 288.559326,719.516968 
	C312.322632,713.504944 336.493958,709.905701 361.695038,706.928223 
M247.082870,901.619507 
	C229.814835,915.514709 212.546799,929.409851 195.278778,943.305054 
	C195.505936,943.841858 195.733109,944.378662 195.960266,944.915466 
	C286.537354,978.065918 380.417328,987.438904 476.057861,981.437744 
	C537.027771,977.612061 596.787781,966.550598 653.858337,944.417358 
	C653.937500,942.505005 652.979553,941.996033 652.224304,941.406982 
	C633.702148,926.959473 615.138611,912.564697 596.673523,898.044678 
	C594.424377,896.276123 592.491516,896.668640 590.218018,897.530762 
	C548.927124,913.188049 505.980499,921.041382 462.107758,924.107361 
	C434.670593,926.024841 407.223785,925.669739 379.757782,923.498718 
	C338.237823,920.216919 297.555023,913.049622 258.243469,899.062256 
	C253.833252,897.493042 250.634491,897.743225 247.082870,901.619507 
M176.233261,778.781189 
	C185.729797,766.293945 198.066589,757.077942 211.224289,749.254944 
	C210.600052,746.895081 209.048004,746.436829 207.812943,745.675232 
	C188.818680,733.961975 169.386856,722.890686 150.985413,710.311646 
	C141.440186,703.786621 134.487442,703.864502 125.017967,710.349304 
	C104.288605,724.544800 84.094978,739.064636 69.782272,760.219788 
	C54.476658,782.842651 49.121017,807.258911 57.578053,833.760376 
	C63.761368,853.136841 75.768829,868.828918 90.311508,882.658142 
	C113.914223,905.102966 141.777283,920.926636 171.211746,934.277222 
	C173.728928,935.418884 175.427597,934.923157 177.471466,933.233704 
	C189.409012,923.366211 201.463776,913.640625 213.464142,903.848938 
	C219.478226,898.941650 225.460754,893.995728 231.382248,889.129272 
	C230.849808,888.264832 230.745483,887.860107 230.495880,887.726196 
	C227.564514,886.153748 224.595749,884.650940 221.666595,883.074463 
	C205.123672,874.171021 189.663437,863.829468 177.814011,848.940125 
	C160.271255,826.896667 159.630630,802.365051 176.233261,778.781189 
M662.404236,771.109131 
	C663.265930,772.125854 664.119324,773.149780 664.990417,774.158386 
	C684.956177,797.275452 685.401123,825.105408 666.194946,848.777161 
	C654.108826,863.673340 638.711731,874.317200 622.016785,883.324097 
	C619.879211,884.477295 617.310425,885.055908 615.743347,887.464172 
	C616.120605,888.010620 616.379028,888.663940 616.856567,889.036438 
	C635.769714,903.791016 654.708496,918.512695 673.624084,933.264160 
	C675.494690,934.722961 677.246521,934.405823 679.174500,933.422363 
	C685.552551,930.168823 692.092224,927.211243 698.342712,923.731812 
	C726.091675,908.284851 751.442566,889.856567 770.540222,863.980225 
	C782.458618,847.831299 790.325745,830.014343 790.614136,809.595398 
	C790.887207,790.261230 784.359924,772.999634 773.273499,757.403992 
	C757.299683,734.933350 735.592102,719.044495 712.458252,704.807739 
	C710.237488,703.440979 708.795532,704.375183 707.038696,705.430664 
	C684.195312,719.155823 661.329712,732.843811 638.487305,746.570679 
	C637.395508,747.226746 636.013733,747.697754 635.609009,749.868591 
	C644.878113,755.870178 653.970520,762.527344 662.404236,771.109131 
M387.140717,786.499146 
	C387.142242,790.663940 387.331360,794.839722 387.089874,798.990356 
	C386.869995,802.768677 387.796448,804.627258 392.090729,805.101196 
	C408.623688,806.926147 425.109772,809.175964 441.612518,811.273682 
	C463.564087,814.064026 485.513397,816.871704 507.466278,819.651489 
	C538.168030,823.539124 568.869080,827.432800 599.576660,831.273865 
	C614.601929,833.153320 629.636536,834.961121 644.678650,836.700012 
	C647.421265,837.017029 650.468201,837.692017 652.482117,834.829407 
	C658.298340,826.562012 662.101318,817.739197 660.132751,807.278442 
	C657.529541,793.446167 648.792847,783.721191 638.296753,775.451294 
	C612.727478,755.305542 582.601013,745.271606 551.639404,737.314026 
	C523.673889,730.126587 495.130493,726.507568 466.394257,724.424622 
	C441.788361,722.640991 417.146759,722.756836 392.498871,723.817261 
	C387.998230,724.010986 387.030670,725.955261 387.066498,730.024841 
	C387.229401,748.515198 387.138275,767.007690 387.140717,786.499146 
M500.358521,900.714722 
	C546.310120,893.507141 590.707153,881.887878 630.188049,855.971375 
	C629.319092,854.157532 628.386475,854.331787 627.605469,854.231628 
	C599.225281,850.593079 570.847595,846.933472 542.460571,843.348633 
	C514.406677,839.805847 486.339447,836.368835 458.284821,832.831848 
	C436.334381,830.064331 414.392151,827.231140 392.451813,824.384583 
	C389.123444,823.952759 387.047272,824.444214 387.061096,828.592346 
	C387.141602,852.750366 387.084503,876.908997 387.009247,901.067261 
	C386.999481,904.196472 388.235016,905.585815 391.422607,905.666748 
	C400.410980,905.894897 409.396027,906.594971 418.380646,906.566162 
	C445.535461,906.479004 472.607697,904.999146 500.358521,900.714722 
M192.868347,836.612122 
	C200.910614,847.106567 211.210907,854.998230 222.475769,861.606384 
	C265.791199,887.015686 313.717133,896.871460 362.758789,902.944275 
	C367.179474,903.491638 366.777313,900.859497 366.776398,898.117126 
	C366.769257,876.457092 366.778198,854.797119 366.774994,833.137085 
	C366.773315,821.716980 366.767151,821.714844 355.764557,819.860657 
	C354.617310,819.667358 353.465637,819.494690 352.311279,819.350037 
	C324.083649,815.811768 295.854004,812.289673 267.627686,808.741211 
	C242.372330,805.566284 217.110641,802.437927 191.877258,799.096375 
	C187.852768,798.563416 186.270493,799.910095 185.218552,803.646484 
	C181.791061,815.820618 185.469055,826.260010 192.868347,836.612122 
M366.777283,779.500000 
	C366.777283,761.742554 366.777283,743.985107 366.777283,726.102783 
	C365.189941,726.102783 364.371521,726.033325 363.567810,726.112732 
	C332.188568,729.213074 301.311066,734.891174 271.157562,744.231567 
	C251.680420,750.264893 232.928589,757.957520 215.646301,768.927124 
	C210.508911,772.188049 205.533936,775.672241 201.164474,780.208801 
	C203.219177,781.368347 205.045151,781.468872 206.858246,781.698730 
	C234.751083,785.234436 262.638824,788.810303 290.532806,792.336792 
	C314.631897,795.383423 338.741241,798.349670 362.835083,801.436768 
	C365.737488,801.808655 366.807251,800.820007 366.773224,797.991089 
	C366.703156,792.161560 366.766693,786.330383 366.777283,779.500000 
z"/>
</svg>