<svg version="1.1" id="Layer_1" xmlns="http://www.w3.org/2000/svg" xmlns:xlink="http://www.w3.org/1999/xlink" x="0px" y="0px"
	 width="100%" viewBox="0 0 800 1024" enable-background="new 0 0 800 1024" xml:space="preserve">
<path fill="#000000" opacity="1.000000" stroke="none" 
	d="
M190.869781,931.291992 
	C165.198975,921.625977 140.534927,910.672363 117.580254,896.305359 
	C89.259056,878.579651 64.548119,856.956238 48.133823,827.282104 
	C25.121838,785.680481 28.193960,745.292908 54.765335,706.307190 
	C64.786827,691.603577 76.944374,678.865051 90.649803,667.575928 
	C92.753098,665.843567 94.335953,663.828735 95.572899,661.397095 
	C138.248734,577.500854 182.441803,494.393921 226.015274,410.965118 
	C270.358551,326.062408 315.137970,241.387558 359.702484,156.600342 
	C373.963318,129.468079 388.147949,102.295753 402.367584,75.141815 
	C403.202301,73.547798 403.753418,71.743454 405.634247,70.657928 
	C408.361023,72.656563 409.343567,75.773201 410.767670,78.486526 
	C448.237823,149.878143 485.587280,221.333145 523.082703,292.711456 
	C570.184082,382.376251 617.433167,471.963440 664.542480,561.624084 
	C682.439697,595.686829 700.233521,629.805237 717.799072,664.039673 
	C720.642883,669.582275 725.517334,672.651611 729.744080,676.524231 
	C749.043152,694.206909 765.112061,714.170105 774.144714,739.071106 
	C787.117188,774.833618 781.000488,808.033875 759.252502,838.435913 
	C738.247925,867.798706 709.722961,888.450378 678.303772,905.397766 
	C634.373169,929.093872 587.423584,943.961060 538.576172,953.463501 
	C508.788330,959.258301 478.770172,963.111267 448.523285,965.016418 
	C418.243958,966.923584 387.965820,966.678284 357.657043,964.492371 
	C322.396667,961.949341 287.532043,957.109680 253.035324,949.437744 
	C232.040588,944.768555 211.515457,938.531738 190.869781,931.291992 
M460.716156,233.719177 
	C442.494904,199.159943 424.273651,164.600693 405.755463,129.478210 
	C317.056458,297.898438 227.602707,465.038727 140.823074,633.783813 
	C225.041473,592.583618 314.730499,577.798767 407.061798,578.242737 
	C499.275879,578.686218 588.860718,593.863892 673.145752,634.823242 
	C602.448730,501.342224 531.751648,367.861237 460.716156,233.719177 
M251.184311,854.405518 
	C240.368958,850.449524 229.886353,845.735535 219.794022,840.204102 
	C201.941132,830.419250 185.573196,818.794312 174.110077,801.493408 
	C166.729767,790.354492 162.816055,778.081177 164.052322,764.632080 
	C165.349106,750.524963 171.818970,738.670532 180.890610,728.006775 
	C184.981415,723.198059 189.976624,719.318970 194.190170,714.968140 
	C193.967484,714.341064 193.959976,714.108765 193.849060,714.037598 
	C173.248169,700.808899 152.084427,688.513062 130.989044,676.103271 
	C128.838821,674.838318 126.949913,675.156799 124.955238,676.508240 
	C103.909752,690.767334 85.237968,707.374817 72.197502,729.586731 
	C58.860001,752.304626 55.426605,775.971252 65.583549,800.837708 
	C72.827438,818.572266 83.987015,833.641479 97.966026,846.578430 
	C124.815369,871.426331 156.653290,888.068848 190.402771,901.139648 
	C250.962418,924.593689 314.113312,935.322815 378.783447,937.689880 
	C412.106140,938.909546 445.432098,938.223938 478.608673,934.587708 
	C510.579651,931.083496 542.192017,925.511597 573.236572,916.908264 
	C611.470276,906.312683 648.243530,892.249878 681.994995,871.096680 
	C706.117249,855.978333 727.488220,837.905579 742.042053,812.870972 
	C755.768433,789.259521 757.212341,765.046326 745.219849,740.351379 
	C732.084534,713.303162 710.978210,693.525513 686.690918,676.675598 
	C684.169800,674.926392 682.315002,676.178772 680.266724,677.214966 
	C660.348755,687.291565 640.428589,697.364014 620.535095,707.488892 
	C618.228149,708.662903 615.792908,709.745544 613.724731,712.047668 
	C615.323486,713.408325 616.685364,714.585327 618.066101,715.739746 
	C626.941589,723.160583 634.874695,731.400696 640.763062,741.467773 
	C646.454529,751.198486 649.503906,761.682922 648.872498,772.929871 
	C648.051941,787.546997 641.490723,799.737488 631.631470,810.260132 
	C617.136475,825.730347 599.319885,836.456604 580.307373,845.223816 
	C528.609741,869.062927 473.581329,877.801514 417.285492,880.162292 
	C389.434845,881.330261 361.681915,879.340942 334.123077,875.164001 
	C306.087219,870.914856 278.489929,864.806641 251.184311,854.405518 
M398.502563,686.244934 
	C390.672394,686.262756 382.866516,686.644104 375.046204,687.154907 
	C348.913635,688.862122 323.102386,692.372131 297.667969,698.814880 
	C289.529907,700.876282 285.465088,705.509644 284.238586,713.437195 
	C282.491058,724.732056 282.815033,736.023987 284.335388,747.277710 
	C287.554718,771.107178 294.057892,793.912903 307.055115,814.392395 
	C320.058319,834.881226 338.285492,848.109741 362.729065,851.005371 
	C388.438965,854.051086 414.225891,853.359802 440.045837,851.417847 
	C458.644226,850.018982 470.528931,840.730469 477.538055,823.923157 
	C483.059113,810.684082 487.281677,797.004578 492.019531,783.497498 
	C499.861450,761.141296 508.455139,739.114807 521.794983,719.311584 
	C525.112732,714.386414 528.687683,709.634521 532.616760,704.142700 
	C488.702087,691.253296 444.504425,685.842590 398.502563,686.244934 
M652.608215,656.445801 
	C597.807983,630.066162 539.608093,615.937927 479.466644,609.587158 
	C448.688477,606.337097 417.762146,604.813232 386.703186,605.879822 
	C352.021759,607.070862 317.609741,610.171387 283.466797,616.308167 
	C241.317963,623.883911 200.516205,635.776855 161.837830,654.421692 
	C159.686905,655.458557 157.175552,656.084595 155.616318,658.416626 
	C156.275833,659.029602 156.692337,659.573853 157.238693,659.901733 
	C177.523605,672.074829 197.834442,684.204773 218.095963,696.416565 
	C220.334457,697.765747 222.071030,697.062378 224.132141,696.096375 
	C231.065674,692.846680 237.974136,689.503845 245.080963,686.670166 
	C289.013306,669.152588 334.957458,661.125916 381.944641,658.948486 
	C412.414154,657.536499 442.881134,658.722534 473.158813,662.972717 
	C510.613007,668.230164 546.952332,677.479126 581.457397,693.256287 
	C583.796448,694.325867 585.635437,694.284241 587.974121,693.068726 
	C607.339966,683.003723 626.791077,673.103149 646.203613,663.127930 
	C648.721313,661.834167 651.190125,660.439819 653.637085,659.015564 
	C655.609131,657.867676 654.175781,657.318970 652.608215,656.445801 
M505.352966,841.580872 
	C506.488037,841.318298 507.623810,841.058777 508.758057,840.792786 
	C538.100525,833.910461 566.385559,824.344482 591.684937,807.461853 
	C601.573547,800.863037 610.607483,793.312561 616.542786,782.644226 
	C621.570068,773.608032 621.703369,764.682373 616.885742,755.534485 
	C613.567078,749.233154 609.001465,744.025024 603.668396,739.415894 
	C592.734924,729.966248 580.246033,723.061218 567.284485,716.846985 
	C563.504333,715.034729 561.011536,715.519531 558.091675,718.441711 
	C545.664551,730.879150 537.000305,745.789551 529.253723,761.342102 
	C520.157654,779.604004 514.664917,799.192810 508.236298,818.436523 
	C505.720398,825.967834 503.235840,833.509583 500.816864,840.805725 
	C502.265686,842.151367 503.458099,841.699219 505.352966,841.580872 
M271.048920,832.354492 
	C276.996918,834.062256 282.761108,836.535889 289.720642,837.311462 
	C265.536652,798.179993 253.808609,756.754150 258.514648,710.704102 
	C254.872269,712.109009 251.760971,713.179443 248.754379,714.490051 
	C230.636917,722.387329 213.296341,731.486389 200.070770,746.758484 
	C187.747971,760.988159 187.395355,775.375793 198.881546,790.192078 
	C202.370117,794.692017 206.284546,798.736938 210.781631,802.236389 
	C228.644775,816.136841 249.099777,824.852661 271.048920,832.354492 
z"/>
</svg>