<svg version="1.1" id="Layer_1" xmlns="http://www.w3.org/2000/svg" xmlns:xlink="http://www.w3.org/1999/xlink" x="0px" y="0px"
	 width="100%" viewBox="0 0 752 1024" enable-background="new 0 0 752 1024" xml:space="preserve">
<path fill="#000000" opacity="1.000000" stroke="none" 
	d="
M578.689270,970.867981 
	C536.379822,984.134827 493.467804,992.178833 449.754547,996.491211 
	C414.023926,1000.016113 378.243958,1000.751160 342.461151,998.913452 
	C284.865051,995.955444 228.344971,986.389587 173.560242,968.025757 
	C136.233963,955.514099 100.874596,938.922180 69.892159,914.115723 
	C50.909119,898.916687 34.856094,881.178040 25.538443,858.395508 
	C11.393911,823.810913 15.994898,790.928284 35.886570,759.795349 
	C46.364483,743.396118 60.366856,730.409302 75.930779,719.017029 
	C78.888916,716.851807 80.925598,714.335083 82.334099,711.004822 
	C107.573227,651.327637 133.957779,592.149109 160.180283,532.902405 
	C174.741364,500.003326 189.944473,467.387329 204.967987,434.694214 
	C227.571640,385.505798 250.251968,336.352539 272.935394,287.200836 
	C302.388367,223.380447 331.875122,159.575653 361.350586,95.765625 
	C367.148193,83.214653 372.946838,70.664093 378.782959,58.130997 
	C379.520599,56.546856 379.769562,54.569305 381.760529,53.754749 
	C383.671844,54.661896 383.971008,56.649208 384.696289,58.229988 
	C416.159393,126.806183 447.572754,195.405212 478.997284,263.999115 
	C500.571472,311.091492 522.211121,358.153961 543.718750,405.276733 
	C581.682007,488.453339 619.055176,571.895508 655.976990,655.539246 
	C664.315247,674.428894 672.405029,693.428589 680.537781,712.408203 
	C681.823242,715.408081 683.674744,717.708130 686.268860,719.742432 
	C705.731750,735.004761 722.672546,752.376587 733.462219,775.130737 
	C750.058533,810.130554 746.758301,843.600586 726.215088,875.780640 
	C708.779968,903.092041 683.560913,921.720032 656.004639,937.569458 
	C631.645691,951.579895 605.808716,962.224792 578.689270,970.867981 
M474.919250,302.504730 
	C444.205994,236.253067 413.492737,170.001404 382.779480,103.749741 
	C382.195831,103.719322 381.612183,103.688904 381.028534,103.658478 
	C290.089905,303.666565 193.946747,501.276215 105.749573,702.817383 
	C192.300247,657.033630 284.936615,638.582642 381.585236,639.315857 
	C478.385803,640.050232 570.754639,660.716003 657.276428,707.281189 
	C657.109741,703.623352 655.789368,701.660217 654.914917,699.585144 
	C640.036499,664.278564 623.961060,629.503479 608.352112,594.520020 
	C584.733582,541.585022 560.562195,488.904053 536.404358,436.215881 
	C516.063171,391.851593 495.642639,347.523682 474.919250,302.504730 
M273.739868,972.653503 
	C298.615082,976.345032 323.577148,978.973755 348.723022,980.160278 
	C383.238647,981.789001 417.678589,981.011292 452.006470,977.429688 
	C480.816772,974.423706 509.388733,969.660583 537.529785,962.640381 
	C576.317505,952.964172 613.773010,939.767822 648.490540,919.625488 
	C671.443970,906.308533 692.332886,890.471619 708.007690,868.630493 
	C718.540894,853.953735 725.332642,837.740967 725.498413,819.527039 
	C725.631409,804.916504 720.989502,791.301941 713.521301,778.782227 
	C698.303040,753.269836 675.886963,736.015198 649.485046,723.364807 
	C647.033386,722.190063 645.353210,723.290710 643.482178,724.342224 
	C621.992676,736.418762 600.501221,748.492126 579.031616,760.604065 
	C577.803284,761.296936 576.193420,761.710571 576.530884,762.833801 
	C580.627930,766.750366 584.237305,771.116455 588.048035,775.299133 
	C609.164368,798.476074 609.246460,828.144653 588.409607,851.553772 
	C576.816589,864.577820 562.866333,874.426941 547.508423,882.306641 
	C503.912598,904.674377 456.994751,914.011902 408.560974,917.306091 
	C383.730255,918.994934 358.988373,918.163147 334.266449,915.438293 
	C301.354950,911.810852 269.227844,904.897583 238.353226,892.767029 
	C216.340408,884.118225 195.558029,873.327637 178.733170,856.209778 
	C154.006592,831.052490 153.422562,799.582397 177.215073,773.768066 
	C180.565521,770.132935 184.430756,766.972168 188.283615,763.381287 
	C187.460007,762.699707 186.907166,762.078796 186.221054,761.698120 
	C162.771439,748.687195 139.305222,735.706238 115.857620,722.691650 
	C114.229599,721.788025 112.841087,721.838318 111.189903,722.738342 
	C89.942268,734.320618 70.480743,748.141296 55.435932,767.427612 
	C31.973026,797.505249 29.754520,830.774292 49.149307,862.800049 
	C58.605713,878.415039 71.438499,890.976562 85.872322,901.940918 
	C117.601006,926.042725 153.462570,941.798706 191.214569,953.618347 
	C217.947937,961.988220 245.236572,968.042236 273.739868,972.653503 
M359.768250,734.378357 
	C348.827911,735.334839 337.852478,735.998718 326.954041,737.304810 
	C298.784576,740.680725 271.169556,746.570312 244.373016,756.097839 
	C240.798767,757.368591 239.927460,759.304382 240.122406,762.758240 
	C240.837509,775.426453 244.372574,787.337952 249.647400,798.753723 
	C264.317017,830.501465 288.988922,851.968445 320.134857,866.573181 
	C326.841827,869.718140 333.675629,872.812378 341.373657,874.022156 
	C341.905121,872.298035 342.364075,870.895020 342.770660,869.477051 
	C347.795959,851.951599 363.397675,839.797363 380.964691,839.731689 
	C399.151398,839.663818 414.924194,851.334290 419.889984,869.124023 
	C421.178925,873.741760 423.099182,874.038574 426.988464,872.646851 
	C439.587860,868.138550 451.724426,862.694153 462.836029,855.195740 
	C495.886597,832.892151 518.079468,803.594543 522.363953,762.708923 
	C522.765747,758.874573 521.882629,756.867371 518.160156,755.633301 
	C506.463715,751.755737 494.704193,748.135925 482.711517,745.272461 
	C442.576599,735.689758 401.814606,733.187012 359.768250,734.378357 
M239.019440,738.458252 
	C278.107330,724.699036 318.495056,717.555969 359.780823,715.893494 
	C387.905121,714.760986 416.003510,715.617065 444.009033,719.517029 
	C481.682983,724.763367 518.149719,733.930725 552.667114,750.161682 
	C555.082336,751.297485 557.007935,751.819092 559.602539,750.328308 
	C577.073975,740.289429 594.651184,730.434753 612.185791,720.505615 
	C616.475464,718.076599 620.733826,715.592163 626.098877,712.504517 
	C542.143799,672.692261 454.446045,656.751282 363.418427,658.565613 
	C283.786896,660.152893 206.966171,675.474121 134.190704,710.928711 
	C135.696838,712.106628 136.398483,712.821350 137.238068,713.287781 
	C159.511108,725.661743 181.815353,737.979797 204.058731,750.406738 
	C206.473404,751.755737 208.366333,751.187744 210.587616,750.135742 
	C219.620651,745.857605 228.846115,742.027466 239.019440,738.458252 
M512.625977,835.076843 
	C505.839447,843.562378 498.269836,851.294250 489.930908,858.245728 
	C470.195312,874.697510 447.785217,886.098694 423.220337,893.430176 
	C421.426270,893.965576 418.730804,893.820435 418.588623,896.682678 
	C419.486603,897.603027 420.300018,897.490540 421.135773,897.378723 
	C430.371338,896.143188 439.642487,895.130981 448.838684,893.652100 
	C481.262146,888.437561 512.597290,879.676453 541.636963,863.938660 
	C554.889771,856.756409 567.264587,848.280029 576.631104,836.172668 
	C589.131165,820.014893 588.306641,803.246948 574.609558,788.239014 
	C567.430908,780.373413 558.798218,774.502136 549.588867,769.372620 
	C546.899292,767.874512 544.393799,765.821716 540.677856,765.895447 
	C538.691589,791.774231 528.316101,814.139221 512.625977,835.076843 
M291.072052,889.401367 
	C308.599731,892.907776 326.173553,896.067566 344.612213,896.251099 
	C279.618317,875.378906 232.900650,837.354614 220.738861,766.036926 
	C207.892395,772.624023 196.177277,779.834045 187.372177,790.868347 
	C175.810822,805.356689 175.527054,820.817932 186.427902,835.849670 
	C194.504562,846.987122 205.292480,855.033508 217.052277,861.858398 
	C239.900131,875.118286 264.768188,883.000122 291.072052,889.401367 
M402.729828,881.202332 
	C404.903595,867.309204 388.797241,852.467896 372.032288,860.492004 
	C362.904205,864.861023 358.198029,875.153625 360.616211,884.747375 
	C363.136932,894.748047 371.908905,901.165527 382.505707,900.761230 
	C392.923187,900.363892 400.656830,893.198425 402.729828,881.202332 
z"/>
</svg>