<svg version="1.1" id="Layer_1" xmlns="http://www.w3.org/2000/svg" xmlns:xlink="http://www.w3.org/1999/xlink" x="0px" y="0px"
	 width="100%" viewBox="0 0 800 1024" enable-background="new 0 0 800 1024" xml:space="preserve">
<path fill="#000000" opacity="1.000000" stroke="none" 
	d="
M70.206009,710.214844 
	C81.605743,698.412048 93.972694,688.305542 107.160034,679.185303 
	C109.265930,677.728821 110.771965,676.006775 111.891357,673.606323 
	C130.545898,633.603333 149.274475,593.634766 168.048691,553.687744 
	C196.672714,492.782623 225.370728,431.912231 253.987976,371.003937 
	C277.930420,320.045319 301.896271,269.097321 325.678650,218.063934 
	C349.177673,167.638565 372.480316,117.121574 395.802795,66.614159 
	C397.980530,61.897991 400.847931,58.136173 406.408905,58.117489 
	C412.039062,58.098576 415.313385,61.459450 417.635620,66.499146 
	C448.375366,133.209930 479.098969,199.928772 510.095306,266.520508 
	C532.237122,314.089508 554.773499,361.474945 577.150391,408.934448 
	C609.185974,476.878967 641.259644,544.805481 673.267700,612.763000 
	C683.486267,634.458496 693.561462,656.221619 703.659119,677.973816 
	C704.624939,680.054443 706.276123,681.338989 707.999573,682.672668 
	C728.669922,698.669128 747.946716,716.014709 761.226135,738.973572 
	C784.714478,779.582764 783.680054,819.746704 758.716187,859.356995 
	C739.137939,890.421814 710.883118,911.828064 679.650330,929.769836 
	C635.399475,955.189819 587.436279,970.309265 537.650513,980.186462 
	C502.478363,987.164307 466.968140,991.006592 431.120117,992.472290 
	C393.392731,994.014893 355.915100,991.944580 318.478668,987.483704 
	C273.165802,982.084412 228.864761,972.364197 186.126892,956.293640 
	C146.860214,941.528381 110.043343,922.269958 79.185616,893.236145 
	C56.653316,872.035706 39.471382,847.391479 33.677177,816.265808 
	C27.506870,783.119690 36.625301,753.669556 56.177341,726.935120 
	C60.408890,721.149109 64.940414,715.600830 70.206009,710.214844 
M234.721130,620.085144 
	C384.370148,580.437195 529.844910,588.821899 670.984619,657.998474 
	C582.898804,470.499969 493.409912,284.181732 406.796936,94.879219 
	C320.354706,282.951660 231.949570,468.610260 145.024155,655.186951 
	C173.893784,640.886719 203.375534,629.212708 234.721130,620.085144 
M559.082214,953.529114 
	C595.987976,944.051331 631.847229,931.789795 665.295654,913.227722 
	C691.577698,898.642700 715.764343,881.419189 734.141479,857.131775 
	C747.285767,839.760254 756.258911,820.669067 756.728088,798.467163 
	C757.136353,779.147278 750.334290,761.868469 740.247559,745.825745 
	C728.171387,726.618958 711.506409,711.843384 693.473206,698.422607 
	C690.170410,695.964661 686.915771,694.958008 682.888245,695.134888 
	C664.880249,695.925781 649.366272,703.036194 635.219543,713.660278 
	C627.253357,719.642639 619.780640,726.168884 613.039612,734.245789 
	C619.192688,739.215454 624.700134,744.274170 629.564148,749.954590 
	C642.955566,765.593750 649.628052,783.339844 645.089783,804.002014 
	C641.521973,820.245300 631.895691,832.946289 619.621643,843.711365 
	C599.062622,861.742798 574.650085,872.682190 549.052002,881.206421 
	C520.835571,890.602539 491.825500,896.359192 462.254974,899.509521 
	C441.366882,901.734802 420.427795,903.225586 399.448303,902.775391 
	C368.960999,902.121277 338.630676,899.422302 308.696503,893.234070 
	C278.440765,886.979370 248.785782,878.862000 221.140182,864.643188 
	C203.317215,855.476379 187.129608,844.145020 175.270752,827.649109 
	C160.624039,807.275269 158.659302,785.718506 170.304321,763.251465 
	C175.048569,754.098267 181.823975,746.520264 189.589478,739.871399 
	C192.483948,737.393005 192.537537,735.587952 189.887436,733.047852 
	C186.402176,729.707336 183.265289,726.000305 179.745285,722.699707 
	C165.132782,708.997681 148.804703,698.502808 128.422226,695.741577 
	C125.259445,695.313171 122.134682,694.789490 119.267487,696.806702 
	C96.135231,713.081604 75.342995,731.556030 62.643501,757.536560 
	C52.079647,779.148071 49.835430,801.415527 57.788364,824.388245 
	C65.573868,846.877502 79.506584,865.137207 97.154610,880.677063 
	C126.600014,906.605164 160.950500,924.068726 197.449921,937.523438 
	C239.374908,952.978027 282.820312,961.983337 327.150421,967.011536 
	C367.950043,971.639221 408.789703,972.817566 449.805542,970.035522 
	C486.443390,967.550415 522.557495,962.087036 559.082214,953.529114 
M263.947327,789.552734 
	C301.647980,826.974548 345.674835,854.436768 395.321289,873.078369 
	C398.544037,874.288452 401.483582,874.712158 404.918732,873.463928 
	C452.130798,856.308594 493.307526,829.535278 529.871155,795.369324 
	C547.802979,778.613403 563.374634,759.701050 579.306763,741.120117 
	C579.838379,740.500061 580.387451,739.827148 580.004944,738.507019 
	C575.681946,735.588684 570.612610,733.478394 565.638367,731.227173 
	C536.000610,717.813660 504.766571,710.132507 472.753876,705.023499 
	C448.022308,701.076538 423.141754,699.183655 398.166870,699.587158 
	C372.696472,699.998657 347.374207,702.662903 322.282440,707.337769 
	C289.867920,713.376892 258.529633,722.587280 229.293015,738.156860 
	C227.321426,739.206726 224.884705,739.774231 223.688583,742.423462 
	C235.831741,758.879333 248.843414,774.637817 263.947327,789.552734 
M505.233612,689.139160 
	C534.980103,695.645142 563.699097,705.072632 590.507935,719.708984 
	C594.482178,721.878723 596.752441,721.395996 599.856384,718.204895 
	C616.416138,701.180359 634.877136,686.916016 658.070007,679.913086 
	C658.816162,679.687744 659.735901,679.530212 659.571350,677.433899 
	C573.057007,630.969910 479.455475,615.116577 382.117859,618.552612 
	C299.889832,621.455261 220.974335,638.783752 147.887680,678.895935 
	C148.550766,679.647400 148.718872,680.020813 148.984436,680.112854 
	C172.194016,688.151855 190.407547,703.175598 206.356903,721.297791 
	C208.740540,724.006226 210.723999,723.885254 213.673645,722.241760 
	C223.422195,716.810303 233.360321,711.721191 243.751785,707.598572 
	C300.332184,685.151245 359.206757,676.817688 419.816040,678.532410 
	C448.381500,679.340515 476.507080,683.123596 505.233612,689.139160 
M544.613037,860.014099 
	C557.431030,855.715942 569.852539,850.479370 581.704773,843.970825 
	C594.788879,836.785889 606.988220,828.423279 616.061157,816.274658 
	C622.191772,808.065674 626.271973,799.020447 624.956177,788.488037 
	C622.950806,772.435547 612.832764,761.555176 600.977844,751.850647 
	C598.580627,749.888306 597.240845,751.076965 595.655334,752.926331 
	C586.118103,764.050720 576.658325,775.246582 566.906311,786.180969 
	C539.894836,816.467468 509.176300,842.327515 474.315887,863.206543 
	C464.755066,868.932922 454.812592,873.965942 443.727142,879.679688 
	C478.776093,876.725098 511.818878,871.024719 544.613037,860.014099 
M233.036407,786.444275 
	C223.819641,775.953186 215.379471,764.824524 206.644058,753.735474 
	C200.443069,757.367737 196.538635,762.772522 192.610077,768.112122 
	C181.271667,783.522827 181.295761,799.768799 192.547638,815.227051 
	C203.908859,830.835632 219.845276,840.468628 236.817139,848.477112 
	C265.039307,861.794434 295.040710,869.361389 325.662109,874.613708 
	C335.163940,876.243469 344.768341,877.275146 354.325775,878.580688 
	C308.100891,855.586365 267.544861,825.611877 233.036407,786.444275 
z"/>
</svg>