<svg version="1.1" id="Layer_1" xmlns="http://www.w3.org/2000/svg" xmlns:xlink="http://www.w3.org/1999/xlink" x="0px" y="0px"
	 width="100%" viewBox="0 0 800 1024" enable-background="new 0 0 800 1024" xml:space="preserve">
<path fill="#000000" opacity="1.000000" stroke="none" 
	d="
M213.675781,982.453369 
	C179.970398,973.035217 147.743546,960.937256 117.382187,944.244507 
	C87.827599,927.995361 60.515339,908.783447 39.307919,882.077881 
	C21.361242,859.478271 11.002681,834.101379 11.674850,804.700500 
	C12.233456,780.266846 16.725746,757.070679 30.857342,736.517517 
	C36.255638,728.666138 42.437954,721.466980 49.172276,714.748779 
	C51.098042,712.827576 52.570522,710.709229 53.736176,708.270142 
	C83.043251,646.946228 113.866280,586.374756 144.476898,525.699036 
	C174.189514,466.803314 203.944138,407.928131 233.913956,349.163086 
	C271.906525,274.666962 310.093262,200.269791 348.281921,125.873924 
	C363.572266,96.086693 379.084290,66.413216 394.521667,36.701603 
	C395.419769,34.973083 395.971375,32.951759 398.201172,31.702003 
	C400.430023,33.232620 401.246094,35.854008 402.427490,38.098980 
	C426.784821,84.384903 450.984833,130.753830 475.421265,176.997849 
	C521.027283,263.303619 565.622803,350.134369 610.567444,436.783600 
	C643.239929,499.773254 675.723389,562.861023 708.239807,625.931580 
	C721.901733,652.431030 735.600830,678.914307 748.901489,705.595154 
	C752.224365,712.260681 757.663147,716.840454 762.267090,722.248901 
	C777.359741,739.979126 787.680176,759.813354 791.756897,783.022766 
	C798.995178,824.230652 787.059875,859.330750 759.147156,889.581177 
	C730.594849,920.524658 695.330811,941.755066 657.311646,958.727295 
	C610.760742,979.508118 561.750977,991.690247 511.518982,999.396729 
	C470.433075,1005.700073 429.101593,1008.047485 387.563629,1007.348877 
	C361.400055,1006.908875 335.394562,1004.696777 309.428192,1001.500732 
	C277.157196,997.528687 245.400223,991.158569 213.675781,982.453369 
M544.141846,350.286194 
	C495.756866,258.434448 447.371887,166.582687 398.305542,73.437477 
	C292.071960,277.277191 188.510620,480.378113 85.954659,685.559814 
	C88.900719,683.865784 90.622215,682.963440 92.255836,681.923096 
	C109.877617,670.700256 128.487564,661.322571 147.722916,653.301758 
	C221.787506,622.418396 299.316620,608.207703 379.248505,605.641602 
	C394.576843,605.149536 409.875793,605.157410 425.199493,605.653381 
	C442.349792,606.208435 459.464264,607.244751 476.509277,609.119751 
	C504.155609,612.160889 531.571472,616.648254 558.745911,622.653748 
	C613.132812,634.673157 664.928223,653.319397 712.780945,682.214233 
	C713.801819,682.830811 714.710815,684.135315 716.546082,683.419312 
	C714.210205,678.735291 711.974121,674.106873 709.614746,669.542236 
	C675.572266,603.682922 641.543518,537.816528 607.446960,471.985229 
	C586.529663,431.599518 565.502563,391.270630 544.141846,350.286194 
M543.994507,889.586853 
	C503.985992,901.378418 463.008209,906.953247 421.423187,908.225586 
	C389.414001,909.204956 357.480194,907.799500 325.748901,903.233948 
	C292.692902,898.477844 260.267761,891.122253 229.265350,878.414734 
	C206.429749,869.054810 184.905640,857.468018 168.139359,838.789001 
	C157.629211,827.079773 150.506607,813.679260 150.763397,797.398315 
	C151.094147,776.428345 162.155716,761.037476 177.079330,747.761414 
	C179.655228,745.469849 182.382645,743.348572 185.274078,740.954956 
	C184.375626,740.117004 183.852615,739.491455 183.205719,739.045715 
	C160.566193,723.448853 137.878494,707.921387 115.310883,692.221313 
	C112.431854,690.218445 110.465622,691.310669 108.099838,692.712280 
	C92.427216,701.997559 77.744720,712.608032 64.243393,724.868958 
	C33.730766,752.577942 23.979492,787.218567 31.326502,826.847473 
	C35.970108,851.894470 50.972958,871.399658 68.979576,888.582703 
	C94.768570,913.192017 125.213364,930.605591 157.764603,944.481567 
	C216.113174,969.354431 277.469360,981.862854 340.324615,987.514832 
	C374.840881,990.618530 409.439545,991.396912 444.118896,989.028809 
	C474.889801,986.927551 505.452393,983.530518 535.699341,977.588501 
	C587.126770,967.485718 636.856079,952.333862 682.800903,926.462952 
	C710.597717,910.810974 736.191711,892.339417 755.442627,866.377991 
	C767.042419,850.734497 775.199768,833.580994 775.932617,813.650085 
	C776.875610,788.003235 772.294739,763.871887 756.203430,742.979980 
	C739.748962,721.616577 718.541199,705.945190 695.576111,692.363831 
	C692.939758,690.804749 690.967773,691.563843 688.743408,693.121216 
	C668.134338,707.550049 647.464539,721.892151 626.884766,736.362488 
	C624.945984,737.725586 622.353943,738.598755 621.372192,741.809631 
	C627.433472,746.309143 633.047485,751.503052 638.064453,757.268738 
	C657.733337,779.873047 661.557678,805.747192 643.120972,831.659668 
	C636.262268,841.299500 627.538025,848.971436 618.008789,855.784241 
	C595.764160,871.687927 570.734436,881.562805 543.994507,889.586853 
M628.523254,772.984436 
	C626.580872,770.704407 624.765625,768.299988 622.675720,766.164246 
	C608.292297,751.466125 590.657898,741.775513 571.908447,734.064880 
	C522.739868,713.844421 471.057800,706.166382 418.333130,704.292725 
	C391.333374,703.333313 364.410400,704.918457 337.573700,708.166199 
	C301.526611,712.528564 266.411835,720.570923 232.823883,734.543579 
	C214.579391,742.133362 197.251007,751.429871 183.232712,765.744019 
	C163.705917,785.682922 163.421204,808.254700 182.361847,828.677856 
	C195.308365,842.637695 211.492615,851.935486 228.712051,859.397888 
	C275.822571,879.814087 325.634644,888.063293 376.479919,890.507751 
	C410.610809,892.148621 444.728577,890.956421 478.639038,885.847107 
	C510.357758,881.068054 541.471924,874.126709 571.175964,861.724548 
	C588.487976,854.496399 604.987427,845.809265 618.883606,832.977234 
	C638.112244,815.221252 643.739685,794.528076 628.523254,772.984436 
M293.492523,697.774597 
	C323.368774,691.501953 353.575378,687.784424 384.074860,686.905701 
	C417.078918,685.954712 449.961487,687.405518 482.664215,692.554260 
	C523.854797,699.039307 563.922424,708.992188 600.947266,728.890686 
	C603.885315,730.469727 605.919495,730.201904 608.589844,728.322510 
	C629.565735,713.559631 650.658203,698.962341 671.683167,684.268982 
	C672.797546,683.490295 674.500000,683.071533 674.530579,680.161377 
	C561.364990,628.367188 442.396973,613.988586 319.361511,627.466187 
	C253.307068,634.701965 189.704346,651.152466 129.248169,680.885193 
	C130.610901,682.053284 131.189697,682.647217 131.859390,683.109375 
	C153.106766,697.770508 174.434784,712.316650 195.553131,727.161072 
	C199.454651,729.903625 202.516586,730.686279 206.594482,727.811279 
	C209.418716,725.820129 212.775436,724.565308 215.940002,723.078918 
	C240.481705,711.552063 266.247009,703.751526 293.492523,697.774597 
z"/>
<path fill="#000000" opacity="1.000000" stroke="none" 
	d="
M383.477905,832.453674 
	C371.114288,837.880615 362.306702,846.101013 358.233185,858.962219 
	C356.602051,864.112244 352.436737,866.285583 347.747864,865.149353 
	C343.381134,864.091064 340.786652,859.841187 341.827118,854.523010 
	C343.366913,846.652832 347.341522,839.901062 352.544434,833.910156 
	C379.167175,803.255249 428.893860,803.832092 454.794830,835.070190 
	C459.319611,840.527344 462.528992,846.710388 464.508850,853.515015 
	C466.139771,859.120300 464.265289,863.535034 459.710846,864.989319 
	C454.929749,866.515869 450.198822,864.114380 448.326691,858.716614 
	C443.946869,846.088745 435.353760,837.489807 423.218933,832.471924 
	C410.192352,827.085144 396.981201,827.008118 383.477905,832.453674 
z"/>
</svg>