<svg version="1.1" id="Layer_1" xmlns="http://www.w3.org/2000/svg" xmlns:xlink="http://www.w3.org/1999/xlink" x="0px" y="0px"
	 width="100%" viewBox="0 0 1764 2292" enable-background="new 0 0 1764 2292" xml:space="preserve">
<path fill="#FEFEFE" opacity="1.000000" stroke="none" 
	d="
M581.000000,2293.000000 
	C387.676971,2293.000000 194.353912,2293.000000 1.015436,2293.000000 
	C1.015436,1529.050903 1.015436,765.101929 1.015436,1.076434 
	C588.917786,1.076434 1176.835571,1.076434 1764.876709,1.076434 
	C1764.876709,764.877075 1764.876709,1528.754272 1764.876709,2293.000000 
	C1590.631958,2293.000000 1416.263550,2293.000000 1241.495483,2292.626709 
	C1241.579102,2291.856201 1242.006470,2291.228516 1242.554077,2291.095459 
	C1255.226807,2288.015869 1267.879883,2284.844727 1280.604126,2281.991211 
	C1295.270142,2278.702393 1310.232544,2276.508057 1324.644165,2272.368164 
	C1341.936157,2267.401367 1358.770142,2260.846191 1375.828735,2255.056152 
	C1382.235229,2252.881836 1388.835205,2251.235107 1395.136475,2248.802490 
	C1407.888062,2243.879395 1420.521118,2238.644531 1433.140869,2233.388916 
	C1435.614502,2232.358398 1437.806885,2230.652100 1440.462158,2229.162109 
	C1442.088379,2228.574951 1443.381470,2228.083008 1445.042603,2227.689453 
	C1447.671753,2226.310059 1449.932861,2224.832275 1452.500000,2223.248047 
	C1453.421265,2222.938232 1454.036499,2222.735107 1455.024902,2222.651367 
	C1459.938477,2220.189209 1464.478760,2217.607666 1469.334106,2214.853027 
	C1483.953491,2208.715332 1498.371216,2203.002197 1512.493774,2196.634521 
	C1516.764160,2194.709229 1520.217041,2190.969971 1524.308838,2187.915771 
	C1525.280640,2187.390381 1525.988037,2187.010986 1527.053223,2186.679443 
	C1529.294800,2185.513916 1531.178223,2184.300049 1533.371094,2182.925781 
	C1538.683105,2180.051025 1543.685913,2177.336670 1549.055664,2174.691406 
	C1552.985352,2172.561523 1556.548218,2170.362549 1560.364014,2168.000488 
	C1561.314819,2167.445312 1562.012695,2167.053223 1563.065552,2166.732910 
	C1565.660767,2165.275635 1567.901123,2163.746826 1570.392578,2162.052246 
	C1571.338379,2161.486816 1572.033203,2161.087158 1573.049072,2160.751221 
	C1573.944092,2160.253906 1574.518066,2159.692871 1575.379761,2158.948242 
	C1589.176880,2149.004639 1602.816650,2139.419189 1616.171631,2129.452148 
	C1655.590698,2100.032471 1689.085693,2065.205322 1713.526855,2022.158569 
	C1745.938354,1965.074341 1754.647217,1904.939209 1736.574951,1841.485352 
	C1723.943726,1797.136108 1699.625488,1759.443604 1669.159546,1725.415405 
	C1642.980591,1696.175415 1612.132446,1672.374146 1580.228394,1649.863525 
	C1577.024902,1647.603394 1575.816284,1645.293091 1575.751831,1641.386353 
	C1574.363037,1557.237915 1572.671387,1473.094238 1571.353271,1388.944824 
	C1568.466553,1204.645386 1565.762573,1020.343201 1562.969727,836.042297 
	C1559.560669,611.081665 1556.130371,386.121368 1552.740479,161.160461 
	C1552.578857,150.432434 1552.719604,139.699860 1552.719604,128.969391 
	C1552.248413,128.905212 1551.777100,128.841019 1551.305908,128.776825 
	C1550.520508,130.163025 1549.710693,131.536041 1548.953247,132.937363 
	C1489.534302,242.865631 1430.121582,352.797302 1370.703369,462.725952 
	C1271.865112,645.585022 1173.072632,828.468872 1074.138672,1011.276123 
	C1056.001465,1044.789429 1037.297363,1077.996216 1018.806152,1111.317383 
	C1017.359741,1113.923828 1016.070435,1117.421875 1013.751770,1118.563721 
	C1009.589111,1120.613892 1007.309753,1123.845581 1005.341003,1127.515381 
	C998.206970,1140.813354 991.445984,1154.317871 984.045715,1167.463623 
	C981.174866,1172.563354 976.369019,1176.571655 973.483887,1181.665649 
	C956.864502,1211.008179 940.318542,1240.397583 924.201965,1270.018188 
	C903.040222,1308.911255 882.261353,1348.012817 861.403137,1387.070312 
	C855.378784,1398.351074 849.647644,1409.788330 843.592529,1421.521118 
	C842.637512,1419.820312 841.855225,1418.559082 841.197083,1417.236084 
	C816.561340,1367.712769 788.462952,1320.106079 760.883118,1272.214478 
	C744.120117,1243.105957 726.920959,1214.244385 710.490234,1184.950684 
	C701.728821,1169.330322 691.795532,1154.658447 681.309570,1140.150391 
	C666.355103,1119.459717 652.003113,1098.195679 639.138367,1076.158203 
	C601.549927,1011.768738 564.718811,946.935730 527.787659,882.164307 
	C464.718842,771.551514 401.786896,660.860657 338.821442,550.189026 
	C262.534271,416.102234 186.273270,282.000580 109.992615,147.910095 
	C107.877838,144.192596 105.668091,140.529144 103.502632,136.840485 
	C102.359856,139.975723 102.387032,142.915085 102.355934,145.853806 
	C101.063309,268.008545 99.769539,390.163269 98.467232,512.317932 
	C96.795410,669.133362 95.116798,825.948608 93.439903,982.763977 
	C92.112267,1106.918091 90.851830,1231.072876 89.434509,1355.225952 
	C88.057144,1475.878174 86.531967,1596.528442 84.957603,1717.178223 
	C84.923698,1719.776123 84.084305,1722.741089 82.647652,1724.881958 
	C73.013046,1739.239258 61.899387,1752.742432 53.519882,1767.778931 
	C23.291233,1822.022583 13.533977,1879.646484 28.689901,1940.486450 
	C45.849213,2009.368286 88.581001,2060.888672 141.832520,2105.466309 
	C142.636490,2106.161865 143.328781,2106.565430 144.012604,2106.984375 
	C144.004135,2107.000000 144.033203,2106.976807 144.153320,2107.288574 
	C152.854553,2114.392334 161.435699,2121.184082 170.047302,2128.327393 
	C170.843048,2129.012695 171.608307,2129.346680 172.617142,2129.790771 
	C173.247101,2130.257812 173.633499,2130.614746 174.011597,2131.326172 
	C176.122726,2133.018555 178.242157,2134.356445 180.532623,2135.758301 
	C180.703674,2135.822021 180.954193,2136.087646 180.962006,2136.433105 
	C181.849091,2137.736572 182.579773,2138.918457 183.631348,2139.617676 
	C191.459427,2144.822266 199.311722,2149.993652 207.252106,2155.024170 
	C209.109695,2156.201172 211.333527,2156.800537 213.558029,2157.727539 
	C213.727188,2157.789795 213.970413,2158.055664 213.998718,2158.413574 
	C214.819122,2159.062744 215.611206,2159.354248 216.573730,2159.701172 
	C216.744156,2159.756836 216.989273,2160.018555 216.985046,2160.366699 
	C220.225830,2163.217041 223.189774,2166.256592 226.765274,2168.127686 
	C241.412689,2175.793213 256.252960,2183.089844 271.009705,2190.547363 
	C285.022491,2197.628906 298.990387,2204.800049 313.045593,2211.796143 
	C316.254211,2213.393555 319.740234,2214.433594 323.397400,2215.936279 
	C325.056793,2216.581055 326.417389,2217.019775 327.937408,2217.717529 
	C329.009949,2218.378418 329.923065,2218.780273 330.940460,2219.508789 
	C335.556427,2221.838867 339.930817,2224.284912 344.613373,2225.736816 
	C350.932892,2227.696289 357.785614,2228.143555 363.886719,2230.559814 
	C379.909180,2236.905029 396.094055,2242.538818 412.718658,2247.188721 
	C429.779999,2251.960449 446.291901,2258.674805 463.304932,2263.647461 
	C484.281372,2269.779297 505.430481,2275.394287 526.686829,2280.471191 
	C543.742859,2284.544434 561.075073,2287.458008 578.263794,2290.988037 
	C579.271118,2291.194824 580.092224,2292.308350 581.000000,2293.000000 
z"/>
<path fill="#030505" opacity="1.000000" stroke="none" 
	d="
M141.720825,2105.174072 
	C88.581001,2060.888672 45.849213,2009.368286 28.689901,1940.486450 
	C13.533977,1879.646484 23.291233,1822.022583 53.519882,1767.778931 
	C61.899387,1752.742432 73.013046,1739.239258 82.647652,1724.881958 
	C84.084305,1722.741089 84.923698,1719.776123 84.957603,1717.178223 
	C86.531967,1596.528442 88.057144,1475.878174 89.434509,1355.225952 
	C90.851830,1231.072876 92.112267,1106.918091 93.439903,982.763977 
	C95.116798,825.948608 96.795410,669.133362 98.467232,512.317932 
	C99.769539,390.163269 101.063309,268.008545 102.355934,145.853806 
	C102.387032,142.915085 102.359856,139.975723 103.502632,136.840485 
	C105.668091,140.529144 107.877838,144.192596 109.992615,147.910095 
	C186.273270,282.000580 262.534271,416.102234 338.821442,550.189026 
	C401.786896,660.860657 464.718842,771.551514 527.787659,882.164307 
	C564.718811,946.935730 601.549927,1011.768738 639.138367,1076.158203 
	C652.003113,1098.195679 666.355103,1119.459717 681.309570,1140.150391 
	C691.795532,1154.658447 701.728821,1169.330322 710.490234,1184.950684 
	C726.920959,1214.244385 744.120117,1243.105957 760.883118,1272.214478 
	C788.462952,1320.106079 816.561340,1367.712769 841.197083,1417.236084 
	C841.855225,1418.559082 842.637512,1419.820312 843.592529,1421.521118 
	C849.647644,1409.788330 855.378784,1398.351074 861.403137,1387.070312 
	C882.261353,1348.012817 903.040222,1308.911255 924.201965,1270.018188 
	C940.318542,1240.397583 956.864502,1211.008179 973.483887,1181.665649 
	C976.369019,1176.571655 981.174866,1172.563354 984.045715,1167.463623 
	C991.445984,1154.317871 998.206970,1140.813354 1005.341003,1127.515381 
	C1007.309753,1123.845581 1009.589111,1120.613892 1013.751770,1118.563721 
	C1016.070435,1117.421875 1017.359741,1113.923828 1018.806152,1111.317383 
	C1037.297363,1077.996216 1056.001465,1044.789429 1074.138672,1011.276123 
	C1173.072632,828.468872 1271.865112,645.585022 1370.703369,462.725952 
	C1430.121582,352.797302 1489.534302,242.865631 1548.953247,132.937363 
	C1549.710693,131.536041 1550.520508,130.163025 1551.305908,128.776825 
	C1551.777100,128.841019 1552.248413,128.905212 1552.719604,128.969391 
	C1552.719604,139.699860 1552.578857,150.432434 1552.740479,161.160461 
	C1556.130371,386.121368 1559.560669,611.081665 1562.969727,836.042297 
	C1565.762573,1020.343201 1568.466553,1204.645386 1571.353271,1388.944824 
	C1572.671387,1473.094238 1574.363037,1557.237915 1575.751831,1641.386353 
	C1575.816284,1645.293091 1577.024902,1647.603394 1580.228394,1649.863525 
	C1612.132446,1672.374146 1642.980591,1696.175415 1669.159546,1725.415405 
	C1699.625488,1759.443604 1723.943726,1797.136108 1736.574951,1841.485352 
	C1754.647217,1904.939209 1745.938354,1965.074341 1713.526855,2022.158569 
	C1689.085693,2065.205322 1655.590698,2100.032471 1616.171631,2129.452148 
	C1602.816650,2139.419189 1589.176880,2149.004639 1575.066895,2158.915527 
	C1573.886841,2159.606445 1573.307373,2160.146729 1572.728027,2160.687500 
	C1572.033203,2161.087158 1571.338379,2161.486816 1570.041748,2162.007324 
	C1567.196777,2163.639160 1564.953735,2165.150146 1562.710693,2166.661133 
	C1562.012695,2167.053223 1561.314819,2167.445312 1560.002197,2167.942383 
	C1555.821167,2170.239014 1552.254883,2172.430664 1548.688721,2174.622314 
	C1543.685913,2177.336670 1538.683105,2180.051025 1533.020752,2182.889893 
	C1530.472412,2184.219727 1528.583862,2185.425537 1526.695312,2186.631348 
	C1525.988037,2187.010986 1525.280640,2187.390381 1523.938599,2187.855957 
	C1500.174683,2198.104980 1477.090576,2208.372070 1453.900391,2218.393311 
	C1438.833008,2224.904297 1423.610962,2231.057373 1408.183716,2237.388672 
	C1407.589233,2237.575928 1407.269409,2237.745361 1406.523682,2237.857422 
	C1391.963623,2242.228027 1377.776001,2246.494385 1363.713501,2251.139404 
	C1353.988403,2254.351318 1344.597412,2258.652100 1334.768799,2261.454834 
	C1319.648560,2265.767334 1304.280640,2269.211426 1288.607788,2272.930664 
	C1286.097778,2273.303711 1283.990723,2273.740479 1281.898926,2274.240967 
	C1272.247925,2276.550049 1262.674194,2279.263916 1252.934692,2281.100586 
	C1240.385864,2283.467041 1227.705322,2285.136230 1214.675537,2287.120117 
	C1207.783691,2288.069824 1201.296753,2288.997314 1194.812378,2289.942383 
	C1187.873657,2290.953125 1180.937378,2291.980225 1174.000000,2293.000000 
	C997.312439,2293.000000 820.624878,2293.000000 643.133911,2292.798828 
	C630.519470,2291.174316 618.708435,2289.751465 606.483276,2288.290527 
	C593.379333,2286.169434 580.689453,2284.086182 567.682129,2281.788818 
	C558.911804,2280.072266 550.458984,2278.570312 541.639038,2276.940918 
	C540.941772,2276.799316 540.598511,2276.839844 540.283508,2276.763184 
	C526.252075,2273.355957 512.223206,2269.938232 497.891357,2266.317871 
	C490.450317,2264.374268 483.311981,2262.634766 475.928711,2260.625488 
	C473.780151,2259.938721 471.876465,2259.521973 469.690186,2258.876465 
	C442.498108,2250.335449 415.595123,2242.002441 388.673157,2233.731445 
	C383.790192,2232.231201 378.828979,2230.986084 373.531555,2229.430176 
	C371.799683,2228.915283 370.440125,2228.593750 368.845825,2228.104248 
	C368.067627,2227.990234 367.524170,2228.044434 366.759857,2228.058350 
	C366.539001,2228.018311 366.095367,2227.949951 365.992462,2227.647461 
	C362.291046,2226.044922 358.692535,2224.745117 354.822510,2223.254150 
	C345.731934,2219.627686 336.912872,2216.192627 327.867188,2212.520020 
	C326.191284,2211.814697 324.742035,2211.346924 323.034363,2210.612305 
	C316.633881,2207.677734 310.466736,2205.065674 304.358093,2202.323486 
	C299.864380,2200.306152 295.447113,2198.118652 290.946716,2195.664551 
	C289.864990,2194.545898 288.915985,2193.610352 287.786987,2193.017090 
	C272.095764,2184.773926 256.363983,2176.607910 240.673431,2168.363281 
	C211.251190,2152.903564 183.313583,2135.134521 156.995453,2114.804199 
	C153.027206,2111.738770 148.371124,2109.563721 144.033188,2106.976807 
	C144.033203,2106.976807 144.004135,2107.000000 143.983368,2106.640137 
	C143.215347,2105.911621 142.468094,2105.542725 141.720825,2105.174072 
M779.795532,2249.733398 
	C780.870850,2249.562012 781.946167,2249.390625 783.728088,2249.298096 
	C784.167358,2249.167236 784.606628,2249.036377 785.641968,2249.455078 
	C796.409607,2250.198730 807.168640,2251.365479 817.946899,2251.582764 
	C832.593933,2251.878174 847.342102,2250.381348 861.892029,2251.561768 
	C887.855469,2253.668457 913.769714,2254.151123 939.773743,2253.343506 
	C985.693359,2251.917725 1031.681885,2252.121338 1077.371338,2246.039062 
	C1086.565063,2244.814941 1096.056396,2245.934814 1105.296631,2244.928955 
	C1131.110596,2242.118652 1156.915771,2239.123535 1182.630737,2235.531250 
	C1220.202271,2230.283203 1257.178833,2221.995117 1293.668213,2211.683350 
	C1321.298584,2203.875488 1348.749390,2195.432373 1377.525513,2186.902832 
	C1375.042358,2184.990723 1373.677246,2183.890869 1372.263184,2182.857666 
	C1329.248901,2151.434326 1286.149414,2120.126221 1243.299316,2088.480469 
	C1236.938965,2083.783203 1231.984741,2081.965820 1223.573608,2084.809082 
	C1182.516235,2098.687744 1140.239258,2107.712646 1097.457153,2114.707275 
	C1041.779541,2123.810303 985.863525,2128.636963 929.417053,2129.642334 
	C865.525452,2130.780029 801.930664,2127.909180 738.522705,2120.626465 
	C681.691528,2114.099121 625.838379,2102.604248 571.226135,2085.390869 
	C568.449646,2084.515625 566.244202,2084.100342 563.506531,2086.321289 
	C532.139526,2111.767578 500.666412,2137.083252 469.127777,2162.316406 
	C458.256683,2171.014160 447.125031,2179.386230 435.224670,2188.593994 
	C442.962830,2191.105469 449.609741,2193.074219 456.125244,2195.409668 
	C487.685944,2206.721680 520.354248,2213.808594 553.518921,2221.411377 
	C554.381470,2221.520508 555.244019,2221.629639 556.721924,2221.922363 
	C557.148132,2221.945557 557.574402,2221.968750 558.587280,2222.480957 
	C560.196777,2222.842529 561.792786,2223.285889 563.417786,2223.553467 
	C584.287415,2226.992188 605.161133,2230.405518 626.617859,2234.344727 
	C634.423767,2235.522705 642.229675,2236.700439 650.082397,2238.530762 
	C650.227905,2238.818848 650.333191,2239.328857 650.524475,2239.363525 
	C664.226196,2241.841553 677.928345,2244.321289 691.664429,2246.594727 
	C692.281372,2246.697021 693.212524,2244.900879 694.795654,2243.940918 
	C696.880249,2244.243896 698.964905,2244.546631 701.038635,2245.656494 
	C701.703430,2246.418457 702.434204,2247.880127 703.022034,2247.824707 
	C706.054993,2247.539307 708.828796,2248.280029 711.778809,2248.770508 
	C721.169189,2250.332031 730.708069,2251.029541 740.203491,2251.910645 
	C742.478088,2252.121826 744.815979,2251.845215 747.108398,2251.623535 
	C750.079712,2251.336670 753.048889,2250.964355 755.992493,2250.471191 
	C758.699341,2250.017822 761.371033,2249.354736 764.903809,2248.779541 
	C766.595093,2248.889160 768.286316,2248.999023 770.057373,2249.674805 
	C770.372742,2249.979248 770.688110,2250.283936 771.003479,2250.588379 
	C771.347900,2250.126709 771.692322,2249.665283 772.452820,2248.995850 
	C772.790649,2248.896484 772.982361,2248.672363 773.650452,2248.400391 
	C774.427429,2248.617432 775.204407,2248.834473 776.067932,2249.719238 
	C777.080444,2249.734131 778.093018,2249.749023 779.795532,2249.733398 
M992.655396,1470.585083 
	C1012.559998,1472.358887 1032.469849,1474.076660 1052.366577,1475.933960 
	C1060.296021,1476.674194 1068.196655,1477.723145 1076.736328,1478.821655 
	C1077.168457,1478.816528 1077.600586,1478.811279 1078.676636,1479.242676 
	C1108.390503,1483.984131 1138.345825,1487.573242 1167.760986,1493.739502 
	C1210.858887,1502.773926 1253.590210,1513.569214 1296.431885,1523.806396 
	C1307.087646,1526.352539 1317.567383,1529.635620 1328.830933,1532.903564 
	C1389.546875,1553.197021 1449.501221,1575.384766 1506.350342,1604.440430 
	C1500.126709,1200.864258 1493.903076,797.297607 1487.659302,392.414886 
	C1486.385986,394.379303 1485.818970,395.135620 1485.373779,395.957855 
	C1465.805298,432.094269 1446.203735,468.212921 1426.695923,504.382080 
	C1341.150635,662.990662 1255.886963,821.751831 1169.982544,980.165588 
	C1134.817749,1045.012207 1101.330200,1110.839478 1058.650024,1171.417114 
	C1046.499146,1188.663330 1038.308472,1208.682739 1028.106079,1227.323120 
	C1016.608459,1248.330322 1004.835327,1269.186646 993.281250,1290.163208 
	C979.794434,1314.648560 966.166748,1339.061157 953.050232,1363.744385 
	C935.721680,1396.354126 918.830017,1429.196167 901.146545,1462.213379 
	C900.514343,1463.103638 899.882202,1463.994019 898.402527,1466.077881 
	C902.407593,1466.077881 905.334229,1465.977783 908.252319,1466.094116 
	C929.186890,1466.928101 950.119690,1467.806274 971.765808,1468.877563 
	C972.501221,1468.861084 973.236572,1468.844604 974.784363,1469.126587 
	C980.505676,1469.480835 986.226929,1469.835083 992.655396,1470.585083 
M526.460022,1502.685913 
	C538.703796,1500.369141 550.994751,1498.268066 563.163391,1495.607544 
	C566.961731,1494.777100 570.429565,1492.435547 574.547729,1490.477173 
	C575.125122,1490.408936 575.702515,1490.340820 576.971130,1490.666748 
	C577.655334,1490.408691 578.339539,1490.150635 579.607117,1489.542114 
	C580.497986,1489.438843 581.388855,1489.335571 582.934692,1489.646606 
	C583.621399,1489.439697 584.308105,1489.232788 585.767944,1488.737183 
	C594.573425,1486.835571 603.310913,1484.501221 612.195679,1483.104004 
	C664.077637,1474.944824 716.392883,1470.828491 768.707092,1466.758057 
	C775.083496,1466.261841 781.489319,1466.143677 788.389893,1465.826904 
	C787.746643,1464.339844 787.443359,1463.426270 786.981567,1462.601318 
	C747.514160,1392.098267 708.532043,1321.316772 668.353271,1251.221313 
	C647.134155,1214.202637 626.687622,1176.675415 600.620178,1142.511597 
	C586.262268,1123.694214 574.030396,1103.120483 562.118530,1082.596558 
	C530.216187,1027.629761 498.969513,972.281982 467.523438,917.050781 
	C376.719086,757.564026 285.944214,598.060486 195.159424,438.562622 
	C186.981720,424.195435 178.815613,409.821625 170.644135,395.450897 
	C170.293701,395.533813 169.943268,395.616760 169.592834,395.699677 
	C164.744629,815.403992 159.896423,1235.108276 155.033600,1656.076538 
	C189.682449,1630.114990 225.458023,1608.646118 263.545502,1589.926147 
	C294.743378,1577.169800 325.604980,1563.498779 357.219116,1551.874390 
	C403.041656,1535.025635 449.734497,1520.730225 497.202362,1509.121216 
	C506.806549,1506.772339 516.419434,1504.458984 526.460022,1502.685913 
M549.058838,1682.415283 
	C550.128357,1682.729736 551.342896,1683.543701 552.245056,1683.281738 
	C561.313538,1680.648193 570.221130,1677.386353 579.383301,1675.163696 
	C605.458130,1668.837891 631.637695,1662.944946 657.747437,1656.760620 
	C659.292725,1656.394653 660.585510,1654.962891 662.745605,1653.786865 
	C663.146667,1653.524658 663.520447,1653.094727 663.952820,1653.024170 
	C705.065002,1646.318726 746.310364,1640.657227 787.922058,1638.184937 
	C889.120789,1632.172241 989.796997,1636.634399 1089.578735,1655.082397 
	C1162.832520,1668.625854 1234.125732,1688.815186 1301.317383,1721.844238 
	C1303.164795,1722.752319 1306.301636,1722.749146 1308.101929,1721.790283 
	C1346.307251,1701.440552 1384.423950,1680.924072 1422.513672,1660.357788 
	C1430.501343,1656.044678 1438.313599,1651.406494 1446.206787,1646.918213 
	C1446.267700,1646.356934 1446.328735,1645.795654 1446.389771,1645.234497 
	C1418.537842,1633.832031 1390.937988,1621.759155 1362.780029,1611.170532 
	C1309.208618,1591.025391 1253.957520,1576.402588 1198.118286,1564.177124 
	C1104.415771,1543.661865 1009.359680,1534.122192 913.611816,1531.070557 
	C829.691528,1528.395874 746.101624,1533.196533 662.712585,1542.733032 
	C550.707764,1555.542236 442.326477,1582.638794 337.465454,1623.944824 
	C334.781769,1625.001953 332.118500,1626.110840 329.004974,1627.374512 
	C330.433929,1628.176025 331.286713,1628.686523 332.167236,1629.143555 
	C380.313324,1654.137695 428.482971,1679.086548 476.564972,1704.203369 
	C479.978394,1705.986572 482.519379,1705.986328 486.137299,1704.616943 
	C506.978394,1696.729126 527.980164,1689.265503 549.058838,1682.415283 
M474.374390,1978.157959 
	C517.876160,2003.031372 564.479492,2020.335205 612.508362,2033.872803 
	C647.959351,2043.865112 684.164124,2050.542236 720.584595,2056.004883 
	C786.483704,2065.888672 852.729248,2070.113525 919.360046,2068.754395 
	C957.182556,2067.982910 995.049622,2067.645752 1032.526123,2061.984375 
	C1064.120483,2057.211670 1095.608276,2051.658447 1127.031982,2045.848267 
	C1179.555298,2036.136597 1229.800293,2019.271484 1277.724976,1995.730957 
	C1302.018921,1983.797852 1325.041748,1969.700684 1344.509888,1950.595947 
	C1358.002197,1937.355591 1369.174927,1922.421753 1372.828857,1903.326294 
	C1377.041626,1881.309326 1370.236816,1861.790527 1357.592651,1844.077393 
	C1340.472046,1820.093262 1317.101440,1803.308350 1291.988647,1788.802734 
	C1252.715332,1766.117920 1210.905151,1749.457764 1167.338745,1737.012329 
	C1076.062012,1710.937256 982.835083,1699.348267 888.057251,1697.963135 
	C781.359131,1696.403931 676.644653,1709.279541 574.142822,1739.081543 
	C529.141052,1752.165649 486.235809,1770.136841 447.591248,1797.159668 
	C431.234985,1808.597046 416.603821,1821.926025 405.528992,1838.730225 
	C395.133728,1854.503418 390.599091,1871.713501 393.964355,1890.555298 
	C397.407043,1909.831055 407.544128,1925.451416 421.304962,1938.885132 
	C437.009155,1954.215820 454.803314,1966.793579 474.374390,1978.157959 
M401.199371,1737.279419 
	C355.482544,1713.382568 309.750092,1689.515503 264.085968,1665.518433 
	C261.204041,1664.003784 259.059967,1663.897217 256.360352,1665.706299 
	C235.755249,1679.514282 214.436920,1692.355957 194.585007,1707.166382 
	C166.199066,1728.343506 140.117691,1752.101318 120.603653,1782.258545 
	C77.344955,1849.111206 76.148918,1916.579956 118.019882,1984.269653 
	C141.695862,2022.545288 174.464050,2052.352051 210.421631,2078.755615 
	C257.002899,2112.960449 307.994995,2139.154297 361.348419,2160.996582 
	C365.308136,2162.617432 368.072296,2161.982178 371.304810,2159.391357 
	C405.217834,2132.210205 439.252075,2105.180420 473.202271,2078.045654 
	C480.767975,2071.998779 488.135742,2065.704346 495.243683,2059.814697 
	C473.649414,2048.359131 452.263611,2037.585327 431.431885,2025.829712 
	C399.716339,2007.932373 372.242249,1984.906494 351.342926,1954.807251 
	C324.413330,1916.023560 318.548096,1874.339233 336.201294,1830.136597 
	C346.300018,1804.850098 363.312988,1784.399292 383.548065,1766.611206 
	C392.735199,1758.535278 402.675171,1751.315674 412.491699,1743.534790 
	C409.014191,1741.614380 405.426025,1739.632812 401.199371,1737.279419 
M1373.885498,1768.585205 
	C1389.279907,1781.005981 1403.010742,1795.044312 1414.170532,1811.396240 
	C1435.310181,1842.371582 1444.876343,1876.171143 1437.968262,1913.693359 
	C1432.758911,1941.988525 1418.245728,1965.366699 1399.156372,1986.274658 
	C1376.023560,2011.611572 1347.814453,2030.032837 1317.835938,2046.056885 
	C1313.053955,2048.613037 1308.329590,2051.276855 1303.113892,2054.146484 
	C1306.004395,2056.394287 1308.197754,2058.173340 1310.465942,2059.851318 
	C1322.651611,2068.865479 1334.899780,2077.795410 1347.043823,2086.864990 
	C1364.875732,2100.182861 1382.616455,2113.623047 1400.436890,2126.956055 
	C1414.021973,2137.120117 1427.731812,2147.118896 1441.237305,2157.386719 
	C1443.799927,2159.334961 1445.804810,2159.260742 1448.482544,2158.013184 
	C1493.135742,2137.207764 1536.127075,2113.679199 1574.747070,2082.708252 
	C1605.918823,2057.710205 1633.812988,2029.818726 1654.179443,1995.099365 
	C1681.387939,1948.715698 1688.336670,1900.134155 1669.779053,1848.819336 
	C1657.384888,1814.547607 1637.468994,1785.072021 1612.418335,1758.934814 
	C1585.020264,1730.348633 1553.176514,1707.391846 1519.795410,1686.388672 
	C1515.734009,1683.833130 1512.766235,1683.756226 1508.559814,1686.067017 
	C1470.016235,1707.240479 1431.337891,1728.168213 1392.704590,1749.178223 
	C1384.277832,1753.760986 1375.873779,1758.385986 1367.140381,1763.166138 
	C1369.464111,1765.025146 1371.399292,1766.573364 1373.885498,1768.585205 
z"/>
<path fill="#C0C0C0" opacity="1.000000" stroke="none" 
	d="
M366.095367,2227.949951 
	C366.095367,2227.949951 366.539001,2228.018311 366.820190,2228.377930 
	C367.761078,2228.582764 368.420776,2228.427490 369.080536,2228.272461 
	C370.440125,2228.593750 371.799683,2228.915283 373.609344,2229.743164 
	C379.342163,2232.828613 384.413025,2236.051270 389.945404,2237.871094 
	C410.523529,2244.640869 431.238434,2250.997559 451.936310,2257.398438 
	C457.562714,2259.138672 463.309509,2260.489746 469.254639,2262.293945 
	C471.730072,2262.010742 473.951874,2261.453125 476.173645,2260.895508 
	C483.311981,2262.634766 490.450317,2264.374268 497.838318,2266.742188 
	C498.785767,2268.527832 499.267303,2270.461182 500.214294,2270.724854 
	C512.496277,2274.148438 524.813965,2277.464111 537.222107,2280.383789 
	C538.486816,2280.681152 540.395996,2278.239014 542.006165,2277.068115 
	C550.458984,2278.570312 558.911804,2280.072266 567.678955,2282.188477 
	C568.945435,2284.133789 569.651611,2286.263428 570.895447,2286.646729 
	C574.644653,2287.801270 578.654114,2288.079590 582.466248,2289.068604 
	C586.699219,2290.166992 590.826599,2291.672119 595.000000,2293.000000 
	C590.643127,2293.000000 586.286194,2293.000000 581.464661,2293.000000 
	C580.092224,2292.308350 579.271118,2291.194824 578.263794,2290.988037 
	C561.075073,2287.458008 543.742859,2284.544434 526.686829,2280.471191 
	C505.430481,2275.394287 484.281372,2269.779297 463.304932,2263.647461 
	C446.291901,2258.674805 429.779999,2251.960449 412.718658,2247.188721 
	C396.094055,2242.538818 379.909180,2236.905029 363.886719,2230.559814 
	C357.785614,2228.143555 350.932892,2227.696289 344.613373,2225.736816 
	C339.930817,2224.284912 335.556427,2221.838867 331.326111,2219.471191 
	C336.336548,2220.478271 341.065704,2221.850098 345.883484,2223.483887 
	C346.657379,2223.894531 347.342682,2224.043701 348.375244,2224.178711 
	C349.417023,2224.176758 350.111542,2224.188477 350.903442,2224.498535 
	C351.673035,2225.186523 352.345215,2225.576172 353.347839,2225.985107 
	C354.119568,2226.012451 354.560822,2226.020508 355.268982,2226.304688 
	C359.055695,2227.037109 362.575531,2227.493652 366.095367,2227.949951 
z"/>
<path fill="#D2D1D0" opacity="1.000000" stroke="none" 
	d="
M1406.949585,2237.914551 
	C1407.269409,2237.745361 1407.589233,2237.575928 1408.561768,2237.569824 
	C1419.519287,2234.908203 1429.824219,2232.083008 1440.129028,2229.257568 
	C1437.806885,2230.652100 1435.614502,2232.358398 1433.140869,2233.388916 
	C1420.521118,2238.644531 1407.888062,2243.879395 1395.136475,2248.802490 
	C1388.835205,2251.235107 1382.235229,2252.881836 1375.828735,2255.056152 
	C1358.770142,2260.846191 1341.936157,2267.401367 1324.644165,2272.368164 
	C1310.232544,2276.508057 1295.270142,2278.702393 1280.604126,2281.991211 
	C1267.879883,2284.844727 1255.226807,2288.015869 1242.554077,2291.095459 
	C1242.006470,2291.228516 1241.579102,2291.856201 1241.047852,2292.626709 
	C1234.978882,2293.000000 1228.957642,2293.000000 1222.487061,2292.601318 
	C1225.488403,2291.442871 1228.952515,2290.737549 1232.387817,2289.912354 
	C1242.236938,2287.546875 1252.074463,2285.133057 1262.239258,2282.763184 
	C1262.980591,2282.697754 1263.399292,2282.607422 1264.223877,2282.653320 
	C1271.518433,2280.969971 1278.406982,2279.150391 1285.574341,2277.306641 
	C1286.223022,2277.235107 1286.592773,2277.188232 1287.238037,2277.371582 
	C1289.293335,2277.362305 1291.108643,2277.272217 1292.847412,2276.859131 
	C1305.867676,2273.767822 1318.952148,2270.901123 1331.848145,2267.351562 
	C1338.029053,2265.649902 1343.758301,2262.374756 1349.841064,2260.235107 
	C1365.597412,2254.693359 1381.488525,2249.531250 1397.202271,2243.873779 
	C1400.711670,2242.610352 1403.713867,2239.938232 1406.949585,2237.914551 
z"/>
<path fill="#B0B0B0" opacity="1.000000" stroke="none" 
	d="
M595.468506,2293.000000 
	C590.826599,2291.672119 586.699219,2290.166992 582.466248,2289.068604 
	C578.654114,2288.079590 574.644653,2287.801270 570.895447,2286.646729 
	C569.651611,2286.263428 568.945435,2284.133789 567.996460,2282.402832 
	C580.689453,2284.086182 593.379333,2286.169434 606.691650,2288.565430 
	C610.209473,2290.252441 613.104736,2291.626221 616.000000,2293.000000 
	C609.312378,2293.000000 602.624695,2293.000000 595.468506,2293.000000 
z"/>
<path fill="#3A3A3C" opacity="1.000000" stroke="none" 
	d="
M1174.468628,2293.000000 
	C1180.937378,2291.980225 1187.873657,2290.953125 1194.812378,2289.942383 
	C1201.296753,2288.997314 1207.783691,2288.069824 1214.619751,2287.446533 
	C1214.938110,2288.619385 1214.906372,2289.480225 1214.482910,2290.460938 
	C1211.060791,2291.387207 1208.030396,2292.193604 1205.000000,2293.000000 
	C1194.979126,2293.000000 1184.958130,2293.000000 1174.468628,2293.000000 
z"/>
<path fill="#939393" opacity="1.000000" stroke="none" 
	d="
M1261.916626,2282.738281 
	C1252.074463,2285.133057 1242.236938,2287.546875 1232.387817,2289.912354 
	C1228.952515,2290.737549 1225.488403,2291.442871 1222.018799,2292.601318 
	C1220.933350,2293.000000 1219.866577,2293.000000 1218.295776,2292.704102 
	C1217.478027,2292.132324 1217.164551,2291.856201 1217.005249,2291.254883 
	C1217.727539,2290.639648 1218.266479,2290.197510 1218.868042,2290.081543 
	C1228.574463,2288.212158 1238.274414,2286.301514 1248.007935,2284.582275 
	C1252.609131,2283.769531 1257.278320,2283.341064 1261.916626,2282.738281 
z"/>
<path fill="#6E6E6A" opacity="1.000000" stroke="none" 
	d="
M616.468628,2293.000000 
	C613.104736,2291.626221 610.209473,2290.252441 607.105774,2288.603516 
	C618.708435,2289.751465 630.519470,2291.174316 642.665283,2292.798828 
	C634.312439,2293.000000 625.624817,2293.000000 616.468628,2293.000000 
z"/>
<path fill="#939393" opacity="1.000000" stroke="none" 
	d="
M1205.454102,2293.000000 
	C1208.030396,2292.193604 1211.060791,2291.387207 1214.536255,2290.791260 
	C1214.985107,2291.221924 1214.988770,2291.442139 1214.987549,2291.996582 
	C1214.988403,2292.553955 1214.994263,2292.777100 1215.000000,2293.000000 
	C1211.969360,2293.000000 1208.938843,2293.000000 1205.454102,2293.000000 
z"/>
<path fill="#D2D1D0" opacity="1.000000" stroke="none" 
	d="
M1215.375000,2293.000000 
	C1214.994263,2292.777100 1214.988403,2292.553955 1215.298584,2292.046631 
	C1216.026611,2291.701416 1216.438843,2291.640869 1216.850952,2291.580078 
	C1217.164551,2291.856201 1217.478027,2292.132324 1217.895752,2292.704102 
	C1217.250000,2293.000000 1216.500000,2293.000000 1215.375000,2293.000000 
z"/>
<path fill="#3A3A3C" opacity="1.000000" stroke="none" 
	d="
M144.153290,2107.288574 
	C148.371124,2109.563721 153.027206,2111.738770 156.995453,2114.804199 
	C183.313583,2135.134521 211.251190,2152.903564 240.673431,2168.363281 
	C256.363983,2176.607910 272.095764,2184.773926 287.786987,2193.017090 
	C288.915985,2193.610352 289.864990,2194.545898 290.579315,2195.679443 
	C274.956055,2188.734375 259.602203,2181.532715 244.364471,2174.092773 
	C235.146332,2169.592041 226.108276,2164.722412 216.989273,2160.018555 
	C216.989273,2160.018555 216.744156,2159.756836 216.475098,2159.394043 
	C215.460831,2158.706299 214.715622,2158.380859 213.970413,2158.055664 
	C213.970413,2158.055664 213.727188,2157.789795 213.460022,2157.399902 
	C202.446609,2150.035889 191.700394,2143.061768 180.954178,2136.087646 
	C180.954193,2136.087646 180.703674,2135.822021 180.436478,2135.435547 
	C178.119476,2133.689941 176.069672,2132.330566 174.019882,2130.971436 
	C173.633499,2130.614746 173.247101,2130.257812 172.517136,2129.490234 
	C171.454636,2128.711426 170.735718,2128.343506 170.016815,2127.975830 
	C161.435699,2121.184082 152.854553,2114.392334 144.153290,2107.288574 
z"/>
<path fill="#939393" opacity="1.000000" stroke="none" 
	d="
M1440.462158,2229.162109 
	C1429.824219,2232.083008 1419.519287,2234.908203 1408.836426,2237.552246 
	C1423.610962,2231.057373 1438.833008,2224.904297 1453.900391,2218.393311 
	C1477.090576,2208.372070 1500.174683,2198.104980 1523.674072,2188.001953 
	C1520.217041,2190.969971 1516.764160,2194.709229 1512.493774,2196.634521 
	C1498.371216,2203.002197 1483.953491,2208.715332 1468.968018,2214.855469 
	C1463.741943,2217.531250 1459.196899,2220.031494 1454.651733,2222.531738 
	C1454.036499,2222.735107 1453.421265,2222.938232 1452.140625,2223.156250 
	C1449.208374,2224.644287 1446.941528,2226.117676 1444.674561,2227.590820 
	C1443.381470,2228.083008 1442.088379,2228.574951 1440.462158,2229.162109 
z"/>
<path fill="#C0C0C0" opacity="1.000000" stroke="none" 
	d="
M216.985046,2160.366699 
	C226.108276,2164.722412 235.146332,2169.592041 244.364471,2174.092773 
	C259.602203,2181.532715 274.956055,2188.734375 290.628357,2196.021973 
	C295.447113,2198.118652 299.864380,2200.306152 304.358093,2202.323486 
	C310.466736,2205.065674 316.633881,2207.677734 322.721954,2210.772949 
	C322.811493,2212.710205 322.955048,2214.219971 323.098572,2215.729980 
	C319.740234,2214.433594 316.254211,2213.393555 313.045593,2211.796143 
	C298.990387,2204.800049 285.022491,2197.628906 271.009705,2190.547363 
	C256.252960,2183.089844 241.412689,2175.793213 226.765274,2168.127686 
	C223.189774,2166.256592 220.225830,2163.217041 216.985046,2160.366699 
z"/>
<path fill="#939393" opacity="1.000000" stroke="none" 
	d="
M355.002075,2226.028809 
	C354.560822,2226.020508 354.119568,2226.012451 353.293579,2225.657715 
	C352.207916,2224.940918 351.506958,2224.570801 350.806030,2224.200195 
	C350.111542,2224.188477 349.417023,2224.176758 348.204834,2223.886719 
	C347.056396,2223.479736 346.425629,2223.350830 345.794861,2223.222168 
	C341.065704,2221.850098 336.336548,2220.478271 331.221802,2219.144043 
	C329.923065,2218.780273 329.009949,2218.378418 328.003601,2217.244629 
	C327.971558,2215.260742 328.032715,2214.009033 328.093842,2212.757324 
	C336.912872,2216.192627 345.731934,2219.627686 354.804962,2223.685547 
	C355.039978,2224.881592 355.021027,2225.455078 355.002075,2226.028809 
z"/>
<path fill="#C0C0C0" opacity="1.000000" stroke="none" 
	d="
M180.962006,2136.433105 
	C191.700394,2143.061768 202.446609,2150.035889 213.290863,2157.337891 
	C211.333527,2156.800537 209.109695,2156.201172 207.252106,2155.024170 
	C199.311722,2149.993652 191.459427,2144.822266 183.631348,2139.617676 
	C182.579773,2138.918457 181.849091,2137.736572 180.962006,2136.433105 
z"/>
<path fill="#D2D1D0" opacity="1.000000" stroke="none" 
	d="
M1455.024902,2222.651367 
	C1459.196899,2220.031494 1463.741943,2217.531250 1468.653076,2215.028564 
	C1464.478760,2217.607666 1459.938477,2220.189209 1455.024902,2222.651367 
z"/>
<path fill="#A2A2A2" opacity="1.000000" stroke="none" 
	d="
M327.867188,2212.520020 
	C328.032715,2214.009033 327.971558,2215.260742 327.844177,2216.985352 
	C326.417389,2217.019775 325.056793,2216.581055 323.397400,2215.936279 
	C322.955048,2214.219971 322.811493,2212.710205 322.980408,2211.039551 
	C324.742035,2211.346924 326.191284,2211.814697 327.867188,2212.520020 
z"/>
<path fill="#939393" opacity="1.000000" stroke="none" 
	d="
M1549.055664,2174.691406 
	C1552.254883,2172.430664 1555.821167,2170.239014 1559.749268,2168.105469 
	C1556.548218,2170.362549 1552.985352,2172.561523 1549.055664,2174.691406 
z"/>
<path fill="#D2D1D0" opacity="1.000000" stroke="none" 
	d="
M1445.042603,2227.689453 
	C1446.941528,2226.117676 1449.208374,2224.644287 1451.834717,2223.262695 
	C1449.932861,2224.832275 1447.671753,2226.310059 1445.042603,2227.689453 
z"/>
<path fill="#939393" opacity="1.000000" stroke="none" 
	d="
M1563.065552,2166.732910 
	C1564.953735,2165.150146 1567.196777,2163.639160 1569.790527,2162.173096 
	C1567.901123,2163.746826 1565.660767,2165.275635 1563.065552,2166.732910 
z"/>
<path fill="#C0C0C0" opacity="1.000000" stroke="none" 
	d="
M174.011597,2131.326172 
	C176.069672,2132.330566 178.119476,2133.689941 180.265427,2135.371582 
	C178.242157,2134.356445 176.122726,2133.018555 174.011597,2131.326172 
z"/>
<path fill="#939393" opacity="1.000000" stroke="none" 
	d="
M1527.053223,2186.679443 
	C1528.583862,2185.425537 1530.472412,2184.219727 1532.711304,2183.050293 
	C1531.178223,2184.300049 1529.294800,2185.513916 1527.053223,2186.679443 
z"/>
<path fill="#C0C0C0" opacity="1.000000" stroke="none" 
	d="
M213.998718,2158.413574 
	C214.715622,2158.380859 215.460831,2158.706299 216.304657,2159.338379 
	C215.611206,2159.354248 214.819122,2159.062744 213.998718,2158.413574 
z"/>
<path fill="#C0C0C0" opacity="1.000000" stroke="none" 
	d="
M170.047302,2128.327393 
	C170.735718,2128.343506 171.454636,2128.711426 172.273560,2129.379883 
	C171.608307,2129.346680 170.843048,2129.012695 170.047302,2128.327393 
z"/>
<path fill="#939393" opacity="1.000000" stroke="none" 
	d="
M1573.049072,2160.750977 
	C1573.307373,2160.146729 1573.886841,2159.606445 1574.779175,2159.098877 
	C1574.518066,2159.692871 1573.944092,2160.253906 1573.049072,2160.750977 
z"/>
<path fill="#3A3A3C" opacity="1.000000" stroke="none" 
	d="
M141.832535,2105.466309 
	C142.468094,2105.542725 143.215347,2105.911621 143.991821,2106.624756 
	C143.328781,2106.565430 142.636490,2106.161865 141.832535,2105.466309 
z"/>
<path fill="#FEFEFE" opacity="1.000000" stroke="none" 
	d="
M582.279724,1489.232422 
	C581.388855,1489.335571 580.497986,1489.438843 579.097900,1489.609863 
	C577.819153,1489.875854 577.049561,1490.074341 576.279907,1490.272705 
	C575.702515,1490.340820 575.125122,1490.408936 573.984375,1490.506592 
	C567.281494,1491.686157 561.142090,1492.836182 554.665894,1493.841064 
	C544.632141,1495.489502 534.800842,1496.753662 525.262634,1499.173218 
	C493.009033,1507.354492 460.690155,1515.354858 428.710022,1524.519409 
	C382.078003,1537.882568 336.889526,1555.413208 292.340057,1574.527710 
	C282.186432,1578.884399 272.639099,1584.653931 262.812683,1589.773071 
	C225.458023,1608.646118 189.682449,1630.114990 155.033600,1656.076538 
	C159.896423,1235.108276 164.744629,815.403992 169.592834,395.699677 
	C169.943268,395.616760 170.293701,395.533813 170.644135,395.450897 
	C178.815613,409.821625 186.981720,424.195435 195.159424,438.562622 
	C285.944214,598.060486 376.719086,757.564026 467.523438,917.050781 
	C498.969513,972.281982 530.216187,1027.629761 562.118530,1082.596558 
	C574.030396,1103.120483 586.262268,1123.694214 600.620178,1142.511597 
	C626.687622,1176.675415 647.134155,1214.202637 668.353271,1251.221313 
	C708.532043,1321.316772 747.514160,1392.098267 786.981567,1462.601318 
	C787.443359,1463.426270 787.746643,1464.339844 788.389893,1465.826904 
	C781.489319,1466.143677 775.083496,1466.261841 768.707092,1466.758057 
	C716.392883,1470.828491 664.077637,1474.944824 612.195679,1483.104004 
	C603.310913,1484.501221 594.573425,1486.835571 585.210327,1488.695435 
	C583.861755,1488.846558 583.070740,1489.039429 582.279724,1489.232422 
z"/>
<path fill="#FEFEFE" opacity="1.000000" stroke="none" 
	d="
M901.750610,1461.938232 
	C918.830017,1429.196167 935.721680,1396.354126 953.050232,1363.744385 
	C966.166748,1339.061157 979.794434,1314.648560 993.281250,1290.163208 
	C1004.835327,1269.186646 1016.608459,1248.330322 1028.106079,1227.323120 
	C1038.308472,1208.682739 1046.499146,1188.663330 1058.650024,1171.417114 
	C1101.330200,1110.839478 1134.817749,1045.012207 1169.982544,980.165588 
	C1255.886963,821.751831 1341.150635,662.990662 1426.695923,504.382080 
	C1446.203735,468.212921 1465.805298,432.094269 1485.373779,395.957855 
	C1485.818970,395.135620 1486.385986,394.379303 1487.659302,392.414886 
	C1493.903076,797.297607 1500.126709,1200.864258 1506.350342,1604.440430 
	C1449.501221,1575.384766 1389.546875,1553.197021 1328.466797,1532.396484 
	C1325.290039,1530.310669 1322.636963,1528.279541 1319.640259,1527.224243 
	C1293.439209,1517.997192 1267.039673,1509.526978 1239.959106,1503.048462 
	C1216.094971,1497.339478 1192.008667,1493.312866 1167.754639,1490.021118 
	C1154.690674,1488.248169 1141.575195,1486.850220 1128.519775,1485.020630 
	C1115.707275,1483.225342 1102.957886,1480.978760 1090.145020,1479.186279 
	C1086.167725,1478.629883 1082.073486,1478.909424 1078.032715,1478.806152 
	C1077.600586,1478.811279 1077.168457,1478.816528 1076.311523,1478.380127 
	C1064.781860,1475.656982 1053.770752,1472.474976 1042.549805,1471.305176 
	C1025.845825,1469.563599 1008.993469,1469.243164 991.771423,1468.213135 
	C986.403015,1467.463867 981.477356,1466.691406 976.521667,1466.307007 
	C975.741638,1466.246582 974.825317,1467.943604 973.972046,1468.828003 
	C973.236572,1468.844604 972.501221,1468.861084 971.476013,1468.440186 
	C972.090515,1465.980469 971.575623,1465.107178 969.227173,1464.831543 
	C962.356628,1464.025269 955.531921,1462.346802 948.657349,1462.155029 
	C933.031860,1461.719360 917.387329,1461.967896 901.750610,1461.938232 
z"/>
<path fill="#FEFEFE" opacity="1.000000" stroke="none" 
	d="
M474.045685,1977.996948 
	C454.803314,1966.793579 437.009155,1954.215820 421.304962,1938.885132 
	C407.544128,1925.451416 397.407043,1909.831055 393.964355,1890.555298 
	C390.599091,1871.713501 395.133728,1854.503418 405.528992,1838.730225 
	C416.603821,1821.926025 431.234985,1808.597046 447.591248,1797.159668 
	C486.235809,1770.136841 529.141052,1752.165649 574.142822,1739.081543 
	C676.644653,1709.279541 781.359131,1696.403931 888.057251,1697.963135 
	C982.835083,1699.348267 1076.062012,1710.937256 1167.338745,1737.012329 
	C1210.905151,1749.457764 1252.715332,1766.117920 1291.988647,1788.802734 
	C1317.101440,1803.308350 1340.472046,1820.093262 1357.592651,1844.077393 
	C1370.236816,1861.790527 1377.041626,1881.309326 1372.828857,1903.326294 
	C1369.174927,1922.421753 1358.002197,1937.355591 1344.509888,1950.595947 
	C1325.041748,1969.700684 1302.018921,1983.797852 1277.724976,1995.730957 
	C1229.800293,2019.271484 1179.555298,2036.136597 1127.031982,2045.848267 
	C1095.608276,2051.658447 1064.120483,2057.211670 1032.526123,2061.984375 
	C995.049622,2067.645752 957.182556,2067.982910 919.360046,2068.754395 
	C852.729248,2070.113525 786.483704,2065.888672 720.584595,2056.004883 
	C684.164124,2050.542236 647.959351,2043.865112 612.508362,2033.872803 
	C564.479492,2020.335205 517.876160,2003.031372 474.045685,1977.996948 
M657.436218,1968.713623 
	C660.222046,1968.713623 663.007812,1968.713623 666.258484,1968.713623 
	C666.258484,1953.358765 666.202026,1938.557495 666.277466,1923.756836 
	C666.331482,1913.166260 666.410828,1913.121094 676.977600,1913.220947 
	C812.766724,1914.505005 948.555603,1915.802490 1084.344482,1917.110107 
	C1085.463501,1917.120850 1086.580566,1917.320190 1088.149292,1917.476318 
	C1088.149292,1919.502808 1088.151367,1921.296265 1088.148926,1923.089844 
	C1088.129028,1938.085815 1088.260498,1953.084473 1087.988647,1968.075806 
	C1087.914062,1972.194214 1089.331665,1973.136719 1093.141357,1973.136475 
	C1111.802002,1973.135498 1130.462524,1973.383667 1149.123291,1973.518677 
	C1150.577881,1973.529297 1152.033936,1973.348511 1154.101807,1973.218018 
	C1154.101807,1907.981079 1154.101807,1843.090942 1154.101807,1777.712891 
	C1132.350830,1777.712891 1110.615967,1777.712891 1088.372314,1777.712891 
	C1088.372314,1803.083374 1088.372314,1828.332275 1088.372314,1854.051636 
	C947.507202,1852.886719 807.152161,1851.725830 666.547302,1850.562988 
	C666.547302,1824.463745 666.547302,1799.226074 666.547302,1773.409180 
	C644.605713,1773.409180 622.918152,1773.409180 601.305664,1773.409180 
	C601.305664,1838.280396 601.305664,1903.030640 601.305664,1968.707397 
	C619.881470,1968.707397 638.165955,1968.707397 657.436218,1968.713623 
z"/>
<path fill="#FEFEFD" opacity="1.000000" stroke="none" 
	d="
M548.927429,1681.658203 
	C527.980164,1689.265503 506.978394,1696.729126 486.137299,1704.616943 
	C482.519379,1705.986328 479.978394,1705.986572 476.564972,1704.203369 
	C428.482971,1679.086548 380.313324,1654.137695 332.167236,1629.143555 
	C331.286713,1628.686523 330.433929,1628.176025 329.004974,1627.374512 
	C332.118500,1626.110840 334.781769,1625.001953 337.465454,1623.944824 
	C442.326477,1582.638794 550.707764,1555.542236 662.712585,1542.733032 
	C746.101624,1533.196533 829.691528,1528.395874 913.611816,1531.070557 
	C1009.359680,1534.122192 1104.415771,1543.661865 1198.118286,1564.177124 
	C1253.957520,1576.402588 1309.208618,1591.025391 1362.780029,1611.170532 
	C1390.937988,1621.759155 1418.537842,1633.832031 1446.389771,1645.234497 
	C1446.328735,1645.795654 1446.267700,1646.356934 1446.206787,1646.918213 
	C1438.313599,1651.406494 1430.501343,1656.044678 1422.513672,1660.357788 
	C1384.423950,1680.924072 1346.307251,1701.440552 1308.101929,1721.790283 
	C1306.301636,1722.749146 1303.164795,1722.752319 1301.317383,1721.844238 
	C1234.125732,1688.815186 1162.832520,1668.625854 1089.578735,1655.082397 
	C989.796997,1636.634399 889.120789,1632.172241 787.922058,1638.184937 
	C746.310364,1640.657227 705.065002,1646.318726 663.952820,1653.024170 
	C663.520447,1653.094727 663.146667,1653.524658 662.108521,1653.682251 
	C639.375549,1658.344849 617.170593,1662.665894 595.220581,1668.030151 
	C579.611572,1671.844727 564.346191,1677.065186 548.927429,1681.658203 
z"/>
<path fill="#FEFEFE" opacity="1.000000" stroke="none" 
	d="
M401.518616,1737.465332 
	C405.426025,1739.632812 409.014191,1741.614380 412.491699,1743.534790 
	C402.675171,1751.315674 392.735199,1758.535278 383.548065,1766.611206 
	C363.312988,1784.399292 346.300018,1804.850098 336.201294,1830.136597 
	C318.548096,1874.339233 324.413330,1916.023560 351.342926,1954.807251 
	C372.242249,1984.906494 399.716339,2007.932373 431.431885,2025.829712 
	C452.263611,2037.585327 473.649414,2048.359131 495.243683,2059.814697 
	C488.135742,2065.704346 480.767975,2071.998779 473.202271,2078.045654 
	C439.252075,2105.180420 405.217834,2132.210205 371.304810,2159.391357 
	C368.072296,2161.982178 365.308136,2162.617432 361.348419,2160.996582 
	C307.994995,2139.154297 257.002899,2112.960449 210.421631,2078.755615 
	C174.464050,2052.352051 141.695862,2022.545288 118.019882,1984.269653 
	C76.148918,1916.579956 77.344955,1849.111206 120.603653,1782.258545 
	C140.117691,1752.101318 166.199066,1728.343506 194.585007,1707.166382 
	C214.436920,1692.355957 235.755249,1679.514282 256.360352,1665.706299 
	C259.059967,1663.897217 261.204041,1664.003784 264.085968,1665.518433 
	C309.750092,1689.515503 355.482544,1713.382568 401.518616,1737.465332 
z"/>
<path fill="#FDFDFC" opacity="1.000000" stroke="none" 
	d="
M558.000610,2221.991943 
	C557.574402,2221.968750 557.148132,2221.945557 556.371643,2221.528564 
	C555.014771,2221.085693 554.008179,2221.036621 553.001587,2220.987549 
	C520.354248,2213.808594 487.685944,2206.721680 456.125244,2195.409668 
	C449.609741,2193.074219 442.962830,2191.105469 435.224670,2188.593994 
	C447.125031,2179.386230 458.256683,2171.014160 469.127777,2162.316406 
	C500.666412,2137.083252 532.139526,2111.767578 563.506531,2086.321289 
	C566.244202,2084.100342 568.449646,2084.515625 571.226135,2085.390869 
	C625.838379,2102.604248 681.691528,2114.099121 738.522705,2120.626465 
	C801.930664,2127.909180 865.525452,2130.780029 929.417053,2129.642334 
	C985.863525,2128.636963 1041.779541,2123.810303 1097.457153,2114.707275 
	C1140.239258,2107.712646 1182.516235,2098.687744 1223.573608,2084.809082 
	C1231.984741,2081.965820 1236.938965,2083.783203 1243.299316,2088.480469 
	C1286.149414,2120.126221 1329.248901,2151.434326 1372.263184,2182.857666 
	C1373.677246,2183.890869 1375.042358,2184.990723 1377.525513,2186.902832 
	C1348.749390,2195.432373 1321.298584,2203.875488 1293.668213,2211.683350 
	C1257.178833,2221.995117 1220.202271,2230.283203 1182.630737,2235.531250 
	C1156.915771,2239.123535 1131.110596,2242.118652 1105.296631,2244.928955 
	C1096.056396,2245.934814 1086.565063,2244.814941 1077.371338,2246.039062 
	C1031.681885,2252.121338 985.693359,2251.917725 939.773743,2253.343506 
	C913.769714,2254.151123 887.855469,2253.668457 861.892029,2251.561768 
	C847.342102,2250.381348 832.593933,2251.878174 817.946899,2251.582764 
	C807.168640,2251.365479 796.409607,2250.198730 785.392944,2248.892090 
	C784.431641,2248.194092 783.719238,2248.059082 782.608643,2247.886719 
	C781.148560,2247.764648 780.086609,2247.679932 778.931152,2247.265625 
	C776.900635,2246.895020 774.963684,2246.854004 772.628418,2246.809082 
	C770.905945,2246.747559 769.581848,2246.689697 768.082275,2246.294922 
	C762.937500,2245.581299 757.968201,2245.204590 752.712219,2244.801758 
	C752.049561,2244.697998 751.673584,2244.620361 751.132935,2244.255371 
	C749.311157,2243.946533 747.654175,2243.925293 745.565063,2243.878906 
	C742.874695,2243.650635 740.616455,2243.447510 738.216858,2243.040039 
	C737.383179,2242.877441 736.690857,2242.919434 735.550415,2242.935059 
	C731.399475,2242.651611 727.696594,2242.394531 723.877197,2241.900879 
	C723.173096,2241.753662 722.585449,2241.842773 721.547485,2241.902832 
	C712.511658,2241.049072 703.926208,2240.224854 695.222412,2239.174561 
	C694.402344,2238.951660 693.700439,2238.954834 692.637207,2238.916992 
	C690.845642,2238.665283 689.415527,2238.454346 687.876099,2237.994141 
	C687.177795,2237.829590 686.588867,2237.914795 685.621460,2237.961914 
	C683.491699,2237.675781 681.740417,2237.427490 679.842651,2236.909668 
	C678.797119,2236.707031 677.898071,2236.774170 676.639221,2236.805664 
	C674.849243,2236.577393 673.419006,2236.384277 671.841370,2235.921387 
	C670.795227,2235.721436 669.896484,2235.791260 668.656494,2235.843750 
	C667.638306,2235.746826 666.961426,2235.666992 666.157043,2235.289795 
	C664.685425,2234.945801 663.341370,2234.898926 661.708618,2234.816895 
	C661.036438,2234.725342 660.652832,2234.668945 660.108887,2234.286621 
	C657.584656,2233.342041 655.245850,2232.595947 652.852905,2232.125244 
	C635.559692,2228.725586 617.754578,2231.553467 600.413757,2227.226318 
	C588.116028,2224.157715 575.306091,2223.121338 562.705078,2221.315186 
	C561.200195,2221.099365 559.571777,2221.745361 558.000610,2221.991943 
z"/>
<path fill="#FEFEFE" opacity="1.000000" stroke="none" 
	d="
M1373.609985,1768.353271 
	C1371.399292,1766.573364 1369.464111,1765.025146 1367.140381,1763.166138 
	C1375.873779,1758.385986 1384.277832,1753.760986 1392.704590,1749.178223 
	C1431.337891,1728.168213 1470.016235,1707.240479 1508.559814,1686.067017 
	C1512.766235,1683.756226 1515.734009,1683.833130 1519.795410,1686.388672 
	C1553.176514,1707.391846 1585.020264,1730.348633 1612.418335,1758.934814 
	C1637.468994,1785.072021 1657.384888,1814.547607 1669.779053,1848.819336 
	C1688.336670,1900.134155 1681.387939,1948.715698 1654.179443,1995.099365 
	C1633.812988,2029.818726 1605.918823,2057.710205 1574.747070,2082.708252 
	C1536.127075,2113.679199 1493.135742,2137.207764 1448.482544,2158.013184 
	C1445.804810,2159.260742 1443.799927,2159.334961 1441.237305,2157.386719 
	C1427.731812,2147.118896 1414.021973,2137.120117 1400.436890,2126.956055 
	C1382.616455,2113.623047 1364.875732,2100.182861 1347.043823,2086.864990 
	C1334.899780,2077.795410 1322.651611,2068.865479 1310.465942,2059.851318 
	C1308.197754,2058.173340 1306.004395,2056.394287 1303.113892,2054.146484 
	C1308.329590,2051.276855 1313.053955,2048.613037 1317.835938,2046.056885 
	C1347.814453,2030.032837 1376.023560,2011.611572 1399.156372,1986.274658 
	C1418.245728,1965.366699 1432.758911,1941.988525 1437.968262,1913.693359 
	C1444.876343,1876.171143 1435.310181,1842.371582 1414.170532,1811.396240 
	C1403.010742,1795.044312 1389.279907,1781.005981 1373.609985,1768.353271 
z"/>
<path fill="#C0C0C0" opacity="1.000000" stroke="none" 
	d="
M1078.354736,1479.024414 
	C1082.073486,1478.909424 1086.167725,1478.629883 1090.145020,1479.186279 
	C1102.957886,1480.978760 1115.707275,1483.225342 1128.519775,1485.020630 
	C1141.575195,1486.850220 1154.690674,1488.248169 1167.754639,1490.021118 
	C1192.008667,1493.312866 1216.094971,1497.339478 1239.959106,1503.048462 
	C1267.039673,1509.526978 1293.439209,1517.997192 1319.640259,1527.224243 
	C1322.636963,1528.279541 1325.290039,1530.310669 1328.115234,1532.234619 
	C1317.567383,1529.635620 1307.087646,1526.352539 1296.431885,1523.806396 
	C1253.590210,1513.569214 1210.858887,1502.773926 1167.760986,1493.739502 
	C1138.345825,1487.573242 1108.390503,1483.984131 1078.354736,1479.024414 
z"/>
<path fill="#7A7A7B" opacity="1.000000" stroke="none" 
	d="
M263.179077,1589.849609 
	C272.639099,1584.653931 282.186432,1578.884399 292.340057,1574.527710 
	C336.889526,1555.413208 382.078003,1537.882568 428.710022,1524.519409 
	C460.690155,1515.354858 493.009033,1507.354492 525.262634,1499.173218 
	C534.800842,1496.753662 544.632141,1495.489502 554.391968,1494.114746 
	C548.533264,1495.763184 542.563354,1496.802734 536.707886,1498.291748 
	C533.058716,1499.219727 529.582275,1500.826904 526.028320,1502.129272 
	C516.419434,1504.458984 506.806549,1506.772339 497.202362,1509.121216 
	C449.734497,1520.730225 403.041656,1535.025635 357.219116,1551.874390 
	C325.604980,1563.498779 294.743378,1577.169800 263.179077,1589.849609 
z"/>
<path fill="#939393" opacity="1.000000" stroke="none" 
	d="
M1406.523682,2237.857422 
	C1403.713867,2239.938232 1400.711670,2242.610352 1397.202271,2243.873779 
	C1381.488525,2249.531250 1365.597412,2254.693359 1349.841064,2260.235107 
	C1343.758301,2262.374756 1338.029053,2265.649902 1331.848145,2267.351562 
	C1318.952148,2270.901123 1305.867676,2273.767822 1292.847412,2276.859131 
	C1291.108643,2277.272217 1289.293335,2277.362305 1287.392944,2277.093750 
	C1287.729980,2275.337402 1292.006470,2275.960938 1289.017822,2273.023926 
	C1304.280640,2269.211426 1319.648560,2265.767334 1334.768799,2261.454834 
	C1344.597412,2258.652100 1353.988403,2254.351318 1363.713501,2251.139404 
	C1377.776001,2246.494385 1391.963623,2242.228027 1406.523682,2237.857422 
z"/>
<path fill="#6E6E6A" opacity="1.000000" stroke="none" 
	d="
M738.358154,2243.244141 
	C740.616455,2243.447510 742.874695,2243.650635 745.828613,2244.175293 
	C748.115295,2244.512451 749.706482,2244.527832 751.297607,2244.542969 
	C751.673584,2244.620361 752.049561,2244.697998 752.907837,2245.114746 
	C754.936890,2246.030029 756.483582,2246.605957 757.729797,2247.415039 
	C756.607605,2247.694824 755.781738,2247.820557 754.964844,2247.776611 
	C736.992493,2246.812500 719.021057,2245.829346 701.049500,2244.849609 
	C698.964905,2244.546631 696.880249,2244.243896 693.993286,2243.868652 
	C689.759155,2243.321045 686.328064,2242.841309 682.895630,2242.371338 
	C671.942505,2240.871826 660.988953,2239.375732 650.035522,2237.878418 
	C642.229675,2236.700439 634.423767,2235.522705 626.621155,2233.793945 
	C633.408997,2233.426025 640.195679,2233.553467 646.977356,2233.811523 
	C651.411682,2233.980225 655.838867,2234.338867 660.269226,2234.612305 
	C660.652832,2234.668945 661.036438,2234.725342 661.932190,2235.138672 
	C663.724426,2235.525879 665.004456,2235.556396 666.284546,2235.586914 
	C666.961426,2235.666992 667.638306,2235.746826 668.804077,2236.113525 
	C670.191528,2236.330811 671.090149,2236.261230 671.988708,2236.191406 
	C673.419006,2236.384277 674.849243,2236.577393 676.784058,2237.077393 
	C678.188843,2237.316162 679.088989,2237.247803 679.989136,2237.179443 
	C681.740417,2237.427490 683.491699,2237.675781 685.741089,2238.190430 
	C686.821228,2238.385986 687.403320,2238.314697 687.985413,2238.243652 
	C689.415527,2238.454346 690.845642,2238.665283 692.849976,2239.178711 
	C694.063049,2239.454346 694.701843,2239.427246 695.340698,2239.400391 
	C703.926208,2240.224854 712.511658,2241.049072 721.674561,2242.125488 
	C722.832520,2242.297607 723.413086,2242.217773 723.993652,2242.137695 
	C727.696594,2242.394531 731.399475,2242.651611 735.775513,2243.191650 
	C737.085144,2243.397705 737.721619,2243.320801 738.358154,2243.244141 
z"/>
<path fill="#292929" opacity="1.000000" stroke="none" 
	d="
M548.993164,1682.036743 
	C564.346191,1677.065186 579.611572,1671.844727 595.220581,1668.030151 
	C617.170593,1662.665894 639.375549,1658.344849 661.733643,1653.802246 
	C660.585510,1654.962891 659.292725,1656.394653 657.747437,1656.760620 
	C631.637695,1662.944946 605.458130,1668.837891 579.383301,1675.163696 
	C570.221130,1677.386353 561.313538,1680.648193 552.245056,1683.281738 
	C551.342896,1683.543701 550.128357,1682.729736 548.993164,1682.036743 
z"/>
<path fill="#DEDEDE" opacity="1.000000" stroke="none" 
	d="
M901.448547,1462.075806 
	C917.387329,1461.967896 933.031860,1461.719360 948.657349,1462.155029 
	C955.531921,1462.346802 962.356628,1464.025269 969.227173,1464.831543 
	C971.575623,1465.107178 972.090515,1465.980469 971.119629,1468.336670 
	C950.119690,1467.806274 929.186890,1466.928101 908.252319,1466.094116 
	C905.334229,1465.977783 902.407593,1466.077881 898.402527,1466.077881 
	C899.882202,1463.994019 900.514343,1463.103638 901.448547,1462.075806 
z"/>
<path fill="#A2A2A2" opacity="1.000000" stroke="none" 
	d="
M469.001038,2262.019531 
	C463.309509,2260.489746 457.562714,2259.138672 451.936310,2257.398438 
	C431.238434,2250.997559 410.523529,2244.640869 389.945404,2237.871094 
	C384.413025,2236.051270 379.342163,2232.828613 373.981689,2229.936523 
	C378.828979,2230.986084 383.790192,2232.231201 388.673157,2233.731445 
	C415.595123,2242.002441 442.498108,2250.335449 469.676239,2259.187012 
	C469.630280,2260.490967 469.315674,2261.255371 469.001038,2262.019531 
z"/>
<path fill="#C0C0C0" opacity="1.000000" stroke="none" 
	d="
M992.204224,1468.317871 
	C1008.993469,1469.243164 1025.845825,1469.563599 1042.549805,1471.305176 
	C1053.770752,1472.474976 1064.781860,1475.656982 1075.998657,1478.285034 
	C1068.196655,1477.723145 1060.296021,1476.674194 1052.366577,1475.933960 
	C1032.469849,1474.076660 1012.559998,1472.358887 992.343140,1470.073486 
	C992.088623,1469.147095 992.146423,1468.732544 992.204224,1468.317871 
z"/>
<path fill="#B0B0B0" opacity="1.000000" stroke="none" 
	d="
M660.108887,2234.286621 
	C655.838867,2234.338867 651.411682,2233.980225 646.977356,2233.811523 
	C640.195679,2233.553467 633.408997,2233.426025 626.329163,2233.534180 
	C605.161133,2230.405518 584.287415,2226.992188 563.417786,2223.553467 
	C561.792786,2223.285889 560.196777,2222.842529 558.293945,2222.236328 
	C559.571777,2221.745361 561.200195,2221.099365 562.705078,2221.315186 
	C575.306091,2223.121338 588.116028,2224.157715 600.413757,2227.226318 
	C617.754578,2231.553467 635.559692,2228.725586 652.852905,2232.125244 
	C655.245850,2232.595947 657.584656,2233.342041 660.108887,2234.286621 
z"/>
<path fill="#161816" opacity="1.000000" stroke="none" 
	d="
M701.044067,2245.252930 
	C719.021057,2245.829346 736.992493,2246.812500 754.964844,2247.776611 
	C755.781738,2247.820557 756.607605,2247.694824 758.107605,2247.456299 
	C760.539368,2247.435547 762.292786,2247.606201 764.044434,2248.028809 
	C764.047852,2248.448486 764.053101,2248.616455 764.058289,2248.784180 
	C761.371033,2249.354736 758.699341,2250.017822 755.992493,2250.471191 
	C753.048889,2250.964355 750.079712,2251.336670 747.108398,2251.623535 
	C744.815979,2251.845215 742.478088,2252.121826 740.203491,2251.910645 
	C730.708069,2251.029541 721.169189,2250.332031 711.778809,2248.770508 
	C708.828796,2248.280029 706.054993,2247.539307 703.022034,2247.824707 
	C702.434204,2247.880127 701.703430,2246.418457 701.044067,2245.252930 
z"/>
<path fill="#6E6E6A" opacity="1.000000" stroke="none" 
	d="
M1288.607788,2272.930664 
	C1292.006470,2275.960938 1287.729980,2275.337402 1287.117554,2276.863281 
	C1286.592773,2277.188232 1286.223022,2277.235107 1285.144287,2277.196289 
	C1277.562866,2278.912354 1270.690430,2280.714600 1263.817871,2282.516846 
	C1263.399292,2282.607422 1262.980591,2282.697754 1262.239258,2282.763184 
	C1257.278320,2283.341064 1252.609131,2283.769531 1248.007935,2284.582275 
	C1238.274414,2286.301514 1228.574463,2288.212158 1218.868042,2290.081543 
	C1218.266479,2290.197510 1217.727539,2290.639648 1217.005249,2291.254883 
	C1216.438843,2291.640869 1216.026611,2291.701416 1215.303467,2291.712402 
	C1214.988770,2291.442139 1214.985107,2291.221924 1214.927979,2290.671387 
	C1214.906372,2289.480225 1214.938110,2288.619385 1215.025757,2287.432129 
	C1227.705322,2285.136230 1240.385864,2283.467041 1252.934692,2281.100586 
	C1262.674194,2279.263916 1272.247925,2276.550049 1281.898926,2274.240967 
	C1283.990723,2273.740479 1286.097778,2273.303711 1288.607788,2272.930664 
z"/>
<path fill="#B0B0B0" opacity="1.000000" stroke="none" 
	d="
M541.639038,2276.940918 
	C540.395996,2278.239014 538.486816,2280.681152 537.222107,2280.383789 
	C524.813965,2277.464111 512.496277,2274.148438 500.214294,2270.724854 
	C499.267303,2270.461182 498.785767,2268.527832 498.140961,2266.946289 
	C512.223206,2269.938232 526.252075,2273.355957 540.283508,2276.763184 
	C540.598511,2276.839844 540.941772,2276.799316 541.639038,2276.940918 
z"/>
<path fill="#292929" opacity="1.000000" stroke="none" 
	d="
M526.244141,1502.407593 
	C529.582275,1500.826904 533.058716,1499.219727 536.707886,1498.291748 
	C542.563354,1496.802734 548.533264,1495.763184 554.728699,1494.260010 
	C561.142090,1492.836182 567.281494,1491.686157 573.734802,1490.660889 
	C570.429565,1492.435547 566.961731,1494.777100 563.163391,1495.607544 
	C550.994751,1498.268066 538.703796,1500.369141 526.244141,1502.407593 
z"/>
<path fill="#161816" opacity="1.000000" stroke="none" 
	d="
M650.058960,2238.204590 
	C660.988953,2239.375732 671.942505,2240.871826 682.895630,2242.371338 
	C686.328064,2242.841309 689.759155,2243.321045 693.594116,2243.892578 
	C693.212524,2244.900879 692.281372,2246.697021 691.664429,2246.594727 
	C677.928345,2244.321289 664.226196,2241.841553 650.524475,2239.363525 
	C650.333191,2239.328857 650.227905,2238.818848 650.058960,2238.204590 
z"/>
<path fill="#DEDEDE" opacity="1.000000" stroke="none" 
	d="
M991.771423,1468.213135 
	C992.146423,1468.732544 992.088623,1469.147095 991.989563,1469.875488 
	C986.226929,1469.835083 980.505676,1469.480835 974.378174,1468.977295 
	C974.825317,1467.943604 975.741638,1466.246582 976.521667,1466.307007 
	C981.477356,1466.691406 986.403015,1467.463867 991.771423,1468.213135 
z"/>
<path fill="#B0B0B0" opacity="1.000000" stroke="none" 
	d="
M469.254669,2262.293945 
	C469.315674,2261.255371 469.630280,2260.490967 469.958862,2259.416016 
	C471.876465,2259.521973 473.780151,2259.938721 475.928741,2260.625244 
	C473.951874,2261.453125 471.730072,2262.010742 469.254669,2262.293945 
z"/>
<path fill="#A2A2A2" opacity="1.000000" stroke="none" 
	d="
M355.268982,2226.304688 
	C355.021027,2225.455078 355.039978,2224.881592 355.076477,2223.876465 
	C358.692535,2224.745117 362.291046,2226.044922 365.992462,2227.647461 
	C362.575531,2227.493652 359.055695,2227.037109 355.268982,2226.304688 
z"/>
<path fill="#6E6E6A" opacity="1.000000" stroke="none" 
	d="
M764.481079,2248.781738 
	C764.053101,2248.616455 764.047852,2248.448486 764.317566,2247.784668 
	C765.814270,2247.069824 767.036011,2246.850830 768.257812,2246.631836 
	C769.581848,2246.689697 770.905945,2246.747559 772.624573,2247.187012 
	C773.022095,2247.820068 773.025024,2248.071533 773.027954,2248.323242 
	C772.982361,2248.672363 772.790649,2248.896484 771.908997,2248.998047 
	C770.902649,2249.036377 770.440125,2249.072510 769.977600,2249.108887 
	C768.286316,2248.999023 766.595093,2248.889160 764.481079,2248.781738 
z"/>
<path fill="#B0B0B0" opacity="1.000000" stroke="none" 
	d="
M773.339233,2248.361816 
	C773.025024,2248.071533 773.022095,2247.820068 773.022949,2247.190674 
	C774.963684,2246.854004 776.900635,2246.895020 778.915527,2247.557129 
	C778.995300,2248.372803 778.997131,2248.567627 778.615967,2248.763672 
	C777.482483,2248.860352 776.731934,2248.956055 775.981384,2249.051514 
	C775.204407,2248.834473 774.427429,2248.617432 773.339233,2248.361816 
z"/>
<path fill="#6E6E6A" opacity="1.000000" stroke="none" 
	d="
M778.998962,2248.762207 
	C778.997131,2248.567627 778.995300,2248.372803 779.009155,2247.886719 
	C780.086609,2247.679932 781.148560,2247.764648 782.610901,2248.210693 
	C783.014709,2248.787842 783.018127,2249.003662 783.021484,2249.219482 
	C781.946167,2249.390625 780.870850,2249.562012 779.413208,2249.500000 
	C779.020203,2249.098145 779.009583,2248.930176 778.998962,2248.762207 
z"/>
<path fill="#B0B0B0" opacity="1.000000" stroke="none" 
	d="
M553.260254,2221.199463 
	C554.008179,2221.036621 555.014771,2221.085693 556.063965,2221.436768 
	C555.244019,2221.629639 554.381470,2221.520508 553.260254,2221.199463 
z"/>
<path fill="#161816" opacity="1.000000" stroke="none" 
	d="
M778.615967,2248.763672 
	C779.009583,2248.930176 779.020203,2249.098145 779.068176,2249.515137 
	C778.093018,2249.749023 777.080444,2249.734131 776.024658,2249.385254 
	C776.731934,2248.956055 777.482483,2248.860352 778.615967,2248.763672 
z"/>
<path fill="#161816" opacity="1.000000" stroke="none" 
	d="
M770.017456,2249.391846 
	C770.440125,2249.072510 770.902649,2249.036377 771.700928,2249.102051 
	C771.692322,2249.665283 771.347900,2250.126709 771.003418,2250.588379 
	C770.688110,2250.283936 770.372742,2249.979248 770.017456,2249.391846 
z"/>
<path fill="#292929" opacity="1.000000" stroke="none" 
	d="
M576.625488,1490.469727 
	C577.049561,1490.074341 577.819153,1489.875854 578.806274,1489.785034 
	C578.339539,1490.150635 577.655334,1490.408691 576.625488,1490.469727 
z"/>
<path fill="#292929" opacity="1.000000" stroke="none" 
	d="
M582.607178,1489.439453 
	C583.070740,1489.039429 583.861755,1488.846558 584.823730,1488.839844 
	C584.308105,1489.232788 583.621399,1489.439697 582.607178,1489.439453 
z"/>
<path fill="#B0B0B0" opacity="1.000000" stroke="none" 
	d="
M783.374756,2249.258789 
	C783.018127,2249.003662 783.014709,2248.787842 783.009155,2248.247803 
	C783.719238,2248.059082 784.431641,2248.194092 785.094971,2248.617676 
	C784.606628,2249.036377 784.167358,2249.167236 783.374756,2249.258789 
z"/>
<path fill="#A2A2A2" opacity="1.000000" stroke="none" 
	d="
M368.845795,2228.104492 
	C368.420776,2228.427490 367.761078,2228.582764 367.041016,2228.417969 
	C367.524170,2228.044434 368.067627,2227.990234 368.845795,2228.104492 
z"/>
<path fill="#A2A2A2" opacity="1.000000" stroke="none" 
	d="
M345.883484,2223.483643 
	C346.425629,2223.350830 347.056396,2223.479736 347.857544,2223.900879 
	C347.342682,2224.043701 346.657379,2223.894531 345.883484,2223.483643 
z"/>
<path fill="#A2A2A2" opacity="1.000000" stroke="none" 
	d="
M350.903412,2224.498779 
	C351.506958,2224.570801 352.207916,2224.940918 352.963135,2225.638672 
	C352.345215,2225.576172 351.673035,2225.186523 350.903412,2224.498779 
z"/>
<path fill="#939393" opacity="1.000000" stroke="none" 
	d="
M1264.223877,2282.653320 
	C1270.690430,2280.714600 1277.562866,2278.912354 1284.865479,2277.220703 
	C1278.406982,2279.150391 1271.518433,2280.969971 1264.223877,2282.653320 
z"/>
<path fill="#030505" opacity="1.000000" stroke="none" 
	d="
M656.943359,1968.710449 
	C638.165955,1968.707397 619.881470,1968.707397 601.305664,1968.707397 
	C601.305664,1903.030640 601.305664,1838.280396 601.305664,1773.409180 
	C622.918152,1773.409180 644.605713,1773.409180 666.547302,1773.409180 
	C666.547302,1799.226074 666.547302,1824.463745 666.547302,1850.562988 
	C807.152161,1851.725830 947.507202,1852.886719 1088.372314,1854.051636 
	C1088.372314,1828.332275 1088.372314,1803.083374 1088.372314,1777.712891 
	C1110.615967,1777.712891 1132.350830,1777.712891 1154.101807,1777.712891 
	C1154.101807,1843.090942 1154.101807,1907.981079 1154.101807,1973.218018 
	C1152.033936,1973.348511 1150.577881,1973.529297 1149.123291,1973.518677 
	C1130.462524,1973.383667 1111.802002,1973.135498 1093.141357,1973.136475 
	C1089.331665,1973.136719 1087.914062,1972.194214 1087.988647,1968.075806 
	C1088.260498,1953.084473 1088.129028,1938.085815 1088.148926,1923.089844 
	C1088.151367,1921.296265 1088.149292,1919.502808 1088.149292,1917.476318 
	C1086.580566,1917.320190 1085.463501,1917.120850 1084.344482,1917.110107 
	C948.555603,1915.802490 812.766724,1914.505005 676.977600,1913.220947 
	C666.410828,1913.121094 666.331482,1913.166260 666.277466,1923.756836 
	C666.202026,1938.557495 666.258484,1953.358765 666.258484,1968.713623 
	C663.007812,1968.713623 660.222046,1968.713623 656.943359,1968.710449 
z"/>
<path fill="#B0B0B0" opacity="1.000000" stroke="none" 
	d="
M768.082275,2246.294922 
	C767.036011,2246.850830 765.814270,2247.069824 764.319397,2247.532959 
	C762.292786,2247.606201 760.539368,2247.435547 758.408081,2247.223145 
	C756.483582,2246.605957 754.936890,2246.030029 753.194580,2245.141113 
	C757.968201,2245.204590 762.937500,2245.581299 768.082275,2246.294922 
z"/>
<path fill="#B0B0B0" opacity="1.000000" stroke="none" 
	d="
M751.132935,2244.255371 
	C749.706482,2244.527832 748.115295,2244.512451 746.260620,2244.200439 
	C747.654175,2243.925293 749.311157,2243.946533 751.132935,2244.255371 
z"/>
<path fill="#B0B0B0" opacity="1.000000" stroke="none" 
	d="
M666.157043,2235.289551 
	C665.004456,2235.556396 663.724426,2235.525879 662.220825,2235.173828 
	C663.341370,2234.898926 664.685425,2234.945801 666.157043,2235.289551 
z"/>
<path fill="#B0B0B0" opacity="1.000000" stroke="none" 
	d="
M671.841370,2235.921631 
	C671.090149,2236.261230 670.191528,2236.330811 669.145325,2236.130859 
	C669.896484,2235.791260 670.795227,2235.721436 671.841370,2235.921631 
z"/>
<path fill="#B0B0B0" opacity="1.000000" stroke="none" 
	d="
M679.842651,2236.909668 
	C679.088989,2237.247803 678.188843,2237.316162 677.143799,2237.112793 
	C677.898071,2236.774170 678.797119,2236.707031 679.842651,2236.909668 
z"/>
<path fill="#B0B0B0" opacity="1.000000" stroke="none" 
	d="
M687.876099,2237.994141 
	C687.403320,2238.314697 686.821228,2238.385986 686.119568,2238.228516 
	C686.588867,2237.914795 687.177795,2237.829590 687.876099,2237.994141 
z"/>
<path fill="#B0B0B0" opacity="1.000000" stroke="none" 
	d="
M738.216858,2243.040039 
	C737.721619,2243.320801 737.085144,2243.397705 736.223572,2243.218018 
	C736.690857,2242.919434 737.383179,2242.877441 738.216858,2243.040039 
z"/>
<path fill="#B0B0B0" opacity="1.000000" stroke="none" 
	d="
M723.877197,2241.900879 
	C723.413086,2242.217773 722.832520,2242.297607 722.124878,2242.154785 
	C722.585449,2241.842773 723.173096,2241.753662 723.877197,2241.900879 
z"/>
<path fill="#B0B0B0" opacity="1.000000" stroke="none" 
	d="
M695.222412,2239.174561 
	C694.701843,2239.427246 694.063049,2239.454346 693.211426,2239.219727 
	C693.700439,2238.954834 694.402344,2238.951660 695.222412,2239.174561 
z"/>
</svg>