<svg version="1.1" id="Layer_1" xmlns="http://www.w3.org/2000/svg" xmlns:xlink="http://www.w3.org/1999/xlink" x="0px" y="0px"
	 width="100%" viewBox="0 0 848 1024" enable-background="new 0 0 848 1024" xml:space="preserve">
<path fill="#000000" opacity="1.000000" stroke="none" 
	d="
M75.155632,704.156921 
	C86.069405,693.048035 97.771301,683.421692 110.446205,675.030029 
	C113.595192,672.945251 114.893646,670.664307 114.924538,666.909180 
	C115.202797,633.083435 115.699516,599.259460 116.015404,565.433960 
	C116.432457,520.774780 116.386635,476.107880 117.227295,431.457275 
	C117.785782,401.794067 117.195816,372.129456 117.939171,342.478180 
	C119.238289,290.658661 118.239639,238.822968 119.170700,187.008194 
	C119.793549,152.345428 119.463112,117.688232 119.806892,83.030373 
	C119.824181,81.287163 119.472298,79.425385 121.385635,76.638557 
	C181.331055,177.002304 240.848587,276.649658 301.128265,377.572968 
	C342.067444,276.495850 384.718872,177.602173 425.026978,77.297501 
	C466.444702,177.870941 507.904236,278.023712 550.192566,379.726562 
	C611.712402,277.837219 671.942566,176.989029 733.290955,76.520462 
	C736.744812,79.208046 735.960144,81.897644 735.969971,84.241432 
	C736.151489,127.573380 735.753052,170.914886 736.537231,214.235184 
	C737.327637,257.897339 736.649841,301.561401 737.448120,345.212555 
	C738.508728,403.203430 737.565247,461.206024 738.604065,519.185425 
	C739.311768,558.682068 738.890625,598.172302 739.422424,637.661499 
	C739.570496,648.655579 739.967957,659.647766 739.986511,670.641235 
	C739.992432,674.137695 741.654297,676.028076 744.241150,677.925598 
	C766.604431,694.329102 786.141968,713.390869 800.755554,737.251770 
	C825.893127,778.296387 824.085449,827.528442 796.694763,867.238220 
	C774.318115,899.678955 744.013489,922.503723 710.216309,941.359375 
	C664.062012,967.109131 614.343933,982.570496 562.612183,992.312988 
	C508.173462,1002.565247 453.244293,1005.712585 398.001556,1004.073547 
	C367.541168,1003.169678 337.249298,1000.172424 307.079620,995.581848 
	C259.928223,988.407471 214.100632,976.724060 170.502655,957.154541 
	C132.915756,940.283264 98.533409,918.571533 70.519226,887.907776 
	C52.466312,868.147461 39.165661,845.752197 34.492722,818.865601 
	C29.747709,791.564331 34.284966,765.888611 47.229713,741.537659 
	C54.562962,727.742615 63.868996,715.433838 75.155632,704.156921 
M638.757324,625.645447 
	C665.518616,634.820068 691.179077,646.516052 717.084167,660.815674 
	C715.105530,491.871948 714.876892,324.243744 712.592529,156.371902 
	C624.554565,301.546722 536.516602,446.721558 447.658997,593.247925 
	C513.446228,595.436096 576.587158,605.492859 638.757324,625.645447 
M325.688263,463.798126 
	C264.840363,361.717926 203.992432,259.637756 143.144501,157.557571 
	C140.203033,324.250244 139.814590,490.586395 137.392242,657.423218 
	C142.449448,656.152222 145.898026,653.449829 149.658020,651.501892 
	C189.745819,630.733887 232.341995,617.204651 276.309875,607.762634 
	C314.962219,599.462158 354.099426,594.887573 393.622803,593.688538 
	C396.543457,593.599915 399.479462,593.577942 402.813782,592.033813 
	C397.301392,582.862305 392.087128,574.178223 386.864594,565.499084 
	C366.592773,531.810242 346.318268,498.123016 325.688263,463.798126 
M425.843536,139.706757 
	C422.796783,139.787857 423.217896,142.646011 422.528168,144.280746 
	C386.983368,228.526550 351.768250,312.909729 317.264465,397.588715 
	C315.931000,400.861298 316.088226,403.308350 317.921478,406.362305 
	C348.447937,457.215698 378.848358,508.144775 409.287079,559.050903 
	C414.476624,567.730042 419.713226,576.381042 424.907837,585.011353 
	C427.054749,584.137817 427.608551,582.461975 428.448029,581.088623 
	C434.878021,570.569214 441.282288,560.033936 447.650421,549.476990 
	C475.272644,503.685760 502.765350,457.815674 530.634827,412.175537 
	C534.187683,406.357208 534.915527,401.865265 532.191772,395.345490 
	C505.675415,331.874786 479.611023,268.215454 453.321381,204.649750 
	C444.410492,183.104080 435.225189,161.671890 425.843536,139.706757 
M485.697266,678.710938 
	C528.790527,683.776062 570.664856,693.447754 610.140381,711.984070 
	C613.598572,713.607910 616.140198,713.351257 619.356689,711.483704 
	C640.104858,699.437622 660.975403,687.602478 681.781677,675.656189 
	C682.832886,675.052612 684.409851,674.876038 684.592346,672.950256 
	C683.659790,672.413269 682.709045,671.763916 681.678223,671.287781 
	C668.519226,665.208618 655.233948,659.416870 641.613708,654.445251 
	C576.019165,630.502075 508.014984,619.966003 438.468018,618.317444 
	C402.951233,617.475647 367.561554,619.479431 332.331818,624.169678 
	C275.018555,631.800049 219.694305,646.374023 167.332306,671.320312 
	C166.330261,671.797729 165.052078,672.018433 164.950531,673.717041 
	C165.367676,674.066345 165.813843,674.567627 166.365982,674.883728 
	C187.617432,687.054871 208.911819,699.151611 230.105728,711.421936 
	C233.639862,713.468079 236.556244,713.606201 240.297852,711.754150 
	C258.416443,702.786072 277.401459,696.030884 296.899963,690.773438 
	C326.581421,682.770142 356.833649,678.256592 387.513123,676.603027 
	C419.987244,674.852600 452.435394,674.678528 485.697266,678.710938 
M453.995087,701.602966 
	C421.517151,700.438721 389.117554,700.740295 356.809387,705.084595 
	C320.940735,709.907593 286.265198,718.778503 253.438461,734.197510 
	C236.289917,742.252258 220.407059,752.173218 207.950653,766.871643 
	C193.649017,783.747253 192.437943,803.856384 204.634140,820.515137 
	C207.042831,823.805115 209.920120,825.255615 213.763489,825.676819 
	C236.286880,828.145081 258.791107,829.379395 281.503845,828.010620 
	C314.850342,826.000916 347.623077,821.142029 379.681732,811.648254 
	C409.308624,802.874634 437.180786,790.518005 461.611328,771.274475 
	C481.052917,755.960632 495.731506,737.307739 501.951324,712.763245 
	C503.082855,708.298035 501.927856,706.877014 497.582825,706.222473 
	C483.420532,704.089172 469.177216,702.855957 453.995087,701.602966 
M476.696564,914.294739 
	C447.463165,917.018982 418.235718,917.460205 388.900543,915.502075 
	C345.447510,912.601562 303.009216,905.198303 262.276306,889.372192 
	C259.072266,888.127380 256.750183,888.546265 254.138580,890.782959 
	C236.680786,905.734985 219.089752,920.531311 201.612167,935.460388 
	C200.099670,936.752319 197.789871,937.680420 197.885025,941.087219 
	C298.593536,978.566895 402.802704,985.085754 508.709564,974.515198 
	C552.239624,970.170471 594.871094,960.851807 636.603760,945.648193 
	C635.507996,944.257019 635.075134,943.544495 634.491638,942.990540 
	C617.574646,926.929321 600.586487,910.942322 583.766541,894.780151 
	C580.850952,891.978577 578.226074,892.818787 575.140015,893.869141 
	C543.465027,904.649841 510.850769,910.961731 476.696564,914.294739 
M684.217896,925.631775 
	C688.204102,923.552551 692.228210,921.542358 696.170471,919.382935 
	C725.962524,903.063782 752.774170,883.291748 773.176697,855.494751 
	C797.733643,822.037720 799.419373,782.259705 777.031860,747.627502 
	C761.320251,723.322693 739.819031,705.234192 715.622925,689.958984 
	C712.665588,688.092041 710.445557,688.856689 707.844482,690.361572 
	C686.513550,702.702576 665.143372,714.975769 643.808167,727.309326 
	C642.737854,727.928101 641.213806,728.222778 641.015442,730.331543 
	C642.315491,731.459473 643.771118,732.788940 645.295715,734.033875 
	C652.805847,740.166199 659.638062,746.945923 665.526367,754.678772 
	C683.403198,778.155579 684.870728,806.169189 669.268372,831.219421 
	C657.175415,850.635071 639.294922,863.504822 619.700684,874.346802 
	C615.679260,876.571838 611.599792,878.691895 607.358459,880.961365 
	C608.025085,881.975647 608.289246,882.606201 608.743530,883.035828 
	C626.286499,899.630920 643.866028,916.187500 661.377686,932.815552 
	C663.294861,934.635986 665.091187,934.575134 667.247620,933.554321 
	C672.665344,930.989746 678.113281,928.488831 684.217896,925.631775 
M60.969986,821.563660 
	C66.410042,841.726868 77.590187,858.454468 91.944679,873.275513 
	C113.527596,895.559814 139.252731,912.044861 166.412079,926.544617 
	C169.442566,928.162476 171.529633,927.445923 173.972855,925.322754 
	C187.549988,913.524353 201.255066,901.873230 214.908340,890.162415 
	C220.430496,885.425842 225.932281,880.665527 231.468903,875.893982 
	C230.847763,875.059875 230.637085,874.547607 230.255066,874.304260 
	C228.711929,873.321106 227.125259,872.404663 225.538162,871.492310 
	C212.910385,864.232361 201.231628,855.743774 191.205109,845.096619 
	C174.617523,827.482056 167.238892,806.869507 171.788422,782.811035 
	C175.392914,763.750122 186.893906,749.408752 201.049026,736.926331 
	C203.753372,734.541565 206.616684,732.337158 209.597000,729.893433 
	C208.659286,729.017273 208.253662,728.467529 207.711197,728.155884 
	C185.183777,715.212952 162.634430,702.308105 140.122131,689.338867 
	C138.053375,688.147095 136.439301,688.582458 134.607956,689.769958 
	C115.098282,702.420837 96.579330,716.243164 82.159843,734.790955 
	C62.351925,760.269897 53.286808,788.487915 60.969986,821.563660 
M444.776184,813.407410 
	C434.742126,818.687195 424.426270,823.340088 413.811493,827.328186 
	C364.609009,845.814392 313.503082,853.550415 261.169922,854.339783 
	C257.311340,854.397949 253.451126,854.347412 249.591675,854.347412 
	C256.059418,858.890625 262.891357,861.909241 269.834930,864.655457 
	C311.337036,881.069946 354.754517,888.335449 399.038879,890.526428 
	C432.340424,892.173889 465.626465,891.138000 498.657074,885.721985 
	C527.822083,880.939758 556.434998,874.151367 583.804260,862.774536 
	C588.446289,860.845032 593.350952,859.261780 597.703308,855.901550 
	C596.075745,854.064331 594.944092,852.627197 593.652283,851.352295 
	C561.653809,819.774170 522.351501,803.161621 478.767395,795.340515 
	C475.479370,794.750488 472.687103,795.543091 469.938049,797.639404 
	C462.243683,803.506958 453.917847,808.424927 444.776184,813.407410 
M601.117004,823.370911 
	C607.204346,828.570923 613.139282,833.939636 618.183594,840.182007 
	C620.049805,842.491394 621.644226,842.646118 624.023560,840.874390 
	C632.214172,834.775574 639.851257,828.180420 645.825562,819.766357 
	C656.697693,804.454285 656.516968,785.577759 645.327087,770.406494 
	C637.676880,760.034363 627.946228,752.050110 617.093445,745.344727 
	C591.141113,729.309814 562.685181,719.692932 533.208069,712.655334 
	C529.006714,711.652222 528.057129,713.603638 527.304321,717.039490 
	C523.163147,735.937683 514.726746,752.746216 502.366180,767.620667 
	C501.166870,769.063965 499.390717,770.286987 499.399078,772.860535 
	C502.599182,773.772095 505.779968,774.675842 508.959442,775.584229 
	C542.671814,785.215271 573.737183,799.974609 601.117004,823.370911 
z"/>
</svg>