<svg version="1.1" id="Layer_1" xmlns="http://www.w3.org/2000/svg" xmlns:xlink="http://www.w3.org/1999/xlink" x="0px" y="0px"
	 width="100%" viewBox="0 0 832 1024" enable-background="new 0 0 832 1024" xml:space="preserve">
<path fill="#000000" opacity="1.000000" stroke="none" 
	d="
M435.846008,114.198303 
	C451.105133,149.564117 466.266724,184.559052 481.272369,219.620743 
	C506.108978,277.653137 530.842712,335.729523 555.637085,393.779999 
	C556.219849,395.144348 557.007019,396.421387 558.258179,398.804657 
	C626.306396,292.515259 693.238892,186.372818 762.029724,81.084496 
	C764.967896,83.895798 764.130310,86.551857 764.131042,88.919472 
	C764.158020,177.915436 764.100708,266.911438 764.117188,355.907410 
	C764.139282,474.735474 764.256287,593.563599 764.138306,712.391479 
	C764.132324,718.403137 765.873535,722.573792 770.242737,726.653687 
	C787.920776,743.160706 800.866028,762.778503 806.190857,786.619812 
	C813.625000,819.905029 805.104675,849.659485 784.504944,876.203979 
	C764.435425,902.065186 738.618286,921.018127 710.149780,936.580688 
	C658.890015,964.602417 603.875183,981.396912 546.528625,991.321289 
	C498.620178,999.612427 450.366272,1003.272461 401.799469,1002.123291 
	C330.303802,1000.431702 260.181305,990.181946 192.529175,966.147766 
	C152.494568,951.925110 115.228714,932.508240 83.155426,904.205078 
	C65.367157,888.507690 50.154488,870.570435 41.393883,848.201355 
	C27.419409,812.519409 31.780821,778.685364 53.134880,746.972717 
	C59.120541,738.083435 66.138657,730.033203 74.186974,722.997437 
	C77.669495,719.953064 78.867264,716.747681 78.865089,712.205261 
	C78.765495,504.214478 78.773872,296.223633 78.798859,88.232780 
	C78.799210,85.329567 78.235863,82.307365 80.316185,77.829353 
	C148.593048,184.410172 213.857834,291.420197 281.262054,398.878906 
	C327.498596,290.445526 370.958405,182.483139 417.947998,76.034225 
	C418.455566,76.020432 418.963104,76.006630 419.470673,75.992836 
	C424.873230,88.614365 430.275818,101.235901 435.846008,114.198303 
M548.683044,631.664490 
	C618.482239,643.617798 685.049988,664.312927 744.409058,704.820984 
	C744.409058,517.897400 744.409058,331.720703 744.409058,145.544037 
	C744.030396,145.409119 743.651672,145.274200 743.273010,145.139282 
	C642.517151,303.212860 541.761292,461.286469 440.356506,620.378174 
	C459.540375,621.699524 477.278564,622.373657 494.919281,624.320435 
	C512.620361,626.273865 530.307373,628.264587 548.683044,631.664490 
M377.867462,621.137939 
	C383.880798,620.531982 390.011078,621.362732 397.064270,620.003723 
	C296.793304,461.669891 198.724960,302.999756 99.752602,144.896103 
	C99.384247,145.095352 99.015900,145.294586 98.647552,145.493835 
	C98.647552,330.865753 98.647552,516.237671 98.647552,701.639343 
	C101.081581,701.911133 102.248215,700.224304 103.672813,699.241455 
	C115.484077,691.092529 127.803719,683.793762 140.522675,677.176086 
	C172.029373,660.783264 205.384399,649.420593 239.782944,640.941223 
	C268.576874,633.843384 297.746613,628.932983 327.206940,625.542664 
	C343.752380,623.638733 360.337158,622.407654 377.867462,621.137939 
M356.862518,519.698120 
	C377.251678,552.262939 397.640869,584.827698 417.961029,617.282288 
	C420.403961,616.507202 420.837585,614.749084 421.704376,613.386719 
	C438.068970,587.664856 454.413757,561.930481 470.777191,536.207825 
	C494.920959,498.254761 519.062927,460.300446 543.260132,422.381409 
	C544.666138,420.178131 544.858521,418.243896 543.825012,415.849335 
	C540.591553,408.357880 537.587097,400.767883 534.384399,393.262787 
	C497.905212,307.778015 461.410675,222.299805 424.896179,136.830109 
	C423.091431,132.605759 421.064819,128.476151 418.763519,123.482307 
	C417.493347,126.053558 416.605865,127.640594 415.902191,129.305328 
	C399.301514,168.577469 382.627991,207.819183 366.158447,247.146317 
	C342.805786,302.909363 319.631805,358.747253 296.281067,414.511139 
	C294.782898,418.088959 294.919006,420.837372 297.041351,424.201630 
	C316.953339,455.765289 336.686249,487.441925 356.862518,519.698120 
M459.869263,640.809998 
	C448.390167,640.341675 436.913055,639.542053 425.431610,639.474365 
	C401.949799,639.335876 378.500122,640.223022 355.074829,642.102112 
	C325.675140,644.460510 296.510956,648.377991 267.632416,654.327881 
	C229.838104,662.114807 193.095078,673.185120 158.254501,690.042603 
	C156.691910,690.798645 154.697357,691.042358 153.913712,693.303284 
	C154.301697,693.590393 154.676147,693.916565 155.094620,694.170044 
	C178.738266,708.494080 202.396637,722.793884 226.012726,737.163147 
	C228.032120,738.391785 229.650024,737.910034 231.615250,737.119324 
	C239.645355,733.888123 247.634323,730.499268 255.835297,727.757263 
	C303.786285,711.724976 353.341064,705.311279 403.641205,703.976379 
	C438.821808,703.042664 473.844116,705.269714 508.675354,710.575439 
	C542.040710,715.657959 574.670044,723.417725 605.953491,736.264343 
	C609.319031,737.646362 611.833313,737.204956 614.760620,735.394775 
	C632.610046,724.357483 650.555176,713.474915 668.428650,702.476135 
	C673.454895,699.383179 678.347656,696.073303 683.257446,692.891541 
	C682.089355,690.625427 680.315430,690.344666 678.854431,689.666199 
	C663.124573,682.361145 646.889038,676.334290 630.397217,671.036316 
	C575.239624,653.316772 518.518738,644.296997 459.869263,640.809998 
M614.205688,916.310425 
	C607.585571,910.982971 600.865417,905.773254 594.392761,900.272217 
	C591.670898,897.958862 589.308105,897.507568 585.854797,898.732422 
	C533.167664,917.420166 478.576111,924.597046 422.947937,925.280334 
	C399.770538,925.565002 376.689453,924.171753 353.661224,921.420227 
	C319.632141,917.354187 286.392975,910.023865 254.286575,897.967773 
	C250.267624,896.458618 247.570938,896.974304 244.371292,899.497070 
	C226.580261,913.525146 208.661514,927.391174 190.798691,941.328247 
	C189.930328,942.005859 188.695724,942.511780 189.154587,944.946045 
	C295.405243,983.110413 405.007385,990.696045 516.630371,976.555420 
	C561.352661,970.889954 605.158508,960.910034 648.484253,944.007874 
	C636.493103,934.316467 625.628723,925.535706 614.205688,916.310425 
M650.623840,736.173584 
	C644.145630,740.173096 637.667358,744.172546 630.693604,748.477905 
	C632.610840,749.731628 633.947083,750.667236 635.341187,751.506775 
	C643.655884,756.514954 651.304504,762.382935 658.304993,769.108337 
	C685.057129,794.809631 685.678772,828.182373 660.040833,854.917786 
	C647.750427,867.734253 633.079163,877.078247 617.431885,885.111267 
	C615.444031,886.131714 612.998291,886.613831 611.805420,889.097961 
	C612.268982,889.620300 612.638977,890.170288 613.130371,890.571716 
	C630.550781,904.801270 648.004700,918.989868 665.385681,933.267395 
	C667.640076,935.119202 669.614685,935.191162 672.198425,934.003845 
	C683.863098,928.643555 695.419250,923.072693 706.492615,916.567688 
	C732.728821,901.155090 756.741760,883.164001 773.910034,857.426453 
	C784.147827,842.078613 790.130310,825.224670 789.449219,806.663025 
	C788.695496,786.117920 780.453125,768.278198 767.612915,752.466736 
	C751.161072,732.207886 730.187378,717.586914 707.886047,704.598511 
	C705.008728,702.922791 702.950867,703.871338 700.578552,705.340332 
	C684.147644,715.514954 667.684204,725.637085 650.623840,736.173584 
M81.093872,743.592529 
	C74.815445,750.095398 69.373596,757.258606 64.867210,765.071594 
	C55.115131,781.979553 50.380405,799.960815 53.244411,819.639099 
	C56.153938,839.630127 65.582161,856.446167 78.338173,871.553955 
	C101.250893,898.690796 130.385651,917.409485 162.002869,932.730652 
	C165.847366,934.593628 168.509720,934.176880 171.831970,931.543823 
	C187.886642,918.819946 204.178406,906.395752 220.304520,893.761108 
	C222.719437,891.869019 225.638092,890.404907 227.353226,887.312805 
	C224.771210,884.859680 221.612991,883.716187 218.748962,882.113708 
	C202.343903,872.934998 187.323868,862.085205 175.510071,847.179932 
	C160.030136,827.649231 158.608246,803.627014 171.848480,782.505310 
	C179.734222,769.925415 190.952698,760.881958 203.065750,752.738831 
	C204.609070,751.701294 206.849594,751.239136 207.281525,748.709534 
	C206.661423,748.174988 206.107727,747.541565 205.421326,747.128662 
	C182.016312,733.047791 158.586731,719.007629 135.205811,704.886902 
	C133.346634,703.764099 131.975113,703.914551 130.205048,705.005066 
	C112.563599,715.873657 95.742752,727.776062 81.093872,743.592529 
M234.108826,832.585327 
	C235.253815,832.367920 236.390976,832.088684 237.544968,831.942139 
	C275.004028,827.185547 312.463959,822.435730 349.925446,817.697937 
	C383.592590,813.440002 417.250092,809.100708 450.944061,805.066162 
	C455.311340,804.543274 455.968170,802.668884 455.948517,798.962280 
	C455.834595,777.470520 455.914673,755.977783 455.877655,734.485474 
	C455.859222,723.790466 455.812897,723.589478 444.992310,723.409668 
	C415.848145,722.925354 386.737793,722.963379 357.670227,726.077271 
	C325.795502,729.491943 294.434662,735.133972 263.972137,745.241943 
	C240.900101,752.897705 219.052750,762.937622 200.358292,778.909363 
	C181.346191,795.152466 177.407745,815.244995 189.546417,833.727417 
	C191.169861,836.199280 192.842072,837.396301 196.038239,836.983032 
	C208.410248,835.383179 220.820084,834.076050 234.108826,832.585327 
M293.653564,890.729126 
	C345.459686,904.323669 398.174591,908.271729 451.519226,905.705872 
	C455.102905,905.533447 456.005981,903.852173 455.995789,900.657227 
	C455.919464,876.677856 455.867676,852.698059 455.962097,828.718994 
	C455.977997,824.679138 454.083252,823.877319 450.679718,824.349670 
	C445.740112,825.035339 440.792572,825.665649 435.844025,826.284607 
	C405.652496,830.060974 375.456329,833.800171 345.268311,837.604126 
	C309.138855,842.156677 273.014893,846.753296 236.891159,851.351013 
	C228.919922,852.365540 220.959503,853.465027 212.994110,854.525452 
	C237.075684,872.936218 264.665649,882.423828 293.653564,890.729126 
M566.723816,885.170227 
	C576.894226,881.964294 586.886658,878.274963 596.634277,873.950745 
	C615.177979,865.724365 632.828857,856.027161 646.595642,840.730469 
	C655.820435,830.480469 661.862610,818.986816 657.953064,804.370117 
	C656.842957,800.219788 655.111511,798.543823 650.682861,799.154602 
	C635.194397,801.290649 619.673767,803.196045 604.158447,805.134583 
	C563.228577,810.248413 522.299316,815.368164 481.356323,820.375122 
	C477.392700,820.859802 476.117859,822.538757 476.144104,826.496887 
	C476.301941,850.315125 476.217743,874.134888 476.262573,897.954041 
	C476.265564,899.546936 475.758423,901.300781 477.462646,903.159790 
	C507.340759,900.174500 536.969543,894.407043 566.723816,885.170227 
M630.532349,770.995361 
	C621.227661,764.783081 611.415833,759.494263 601.151733,755.062805 
	C572.552917,742.715576 542.536865,735.470154 511.937042,730.302673 
	C500.322388,728.341309 488.636627,727.107910 477.120972,725.875671 
	C476.727753,726.578796 476.431244,726.861816 476.430389,727.145691 
	C476.360443,750.956543 476.317261,774.767395 476.259827,798.578308 
	C476.252838,801.475525 477.896210,801.660828 480.250031,801.368835 
	C498.900452,799.055664 517.570129,796.896729 536.216187,794.550293 
	C567.396729,790.626587 598.574829,786.678101 629.723450,782.512512 
	C633.477173,782.010498 637.668030,782.538879 641.301331,779.869507 
	C638.237122,776.287109 634.584534,773.954102 630.532349,770.995361 
z"/>
</svg>