<svg version="1.1" id="Layer_1" xmlns="http://www.w3.org/2000/svg" xmlns:xlink="http://www.w3.org/1999/xlink" x="0px" y="0px"
	 width="100%" viewBox="0 0 800 1024" enable-background="new 0 0 800 1024" xml:space="preserve">
<path fill="#000000" opacity="1.000000" stroke="none" 
	d="
M427.914978,59.922424 
	C500.522156,63.274952 571.140137,74.315491 638.397827,101.839119 
	C671.699402,115.467003 703.311218,132.205048 730.463684,156.274689 
	C747.670776,171.528137 762.561279,188.547150 771.912781,210.041428 
	C785.941528,242.286499 782.710876,273.351776 766.584290,303.680145 
	C755.789978,323.980377 740.368835,340.500824 722.934509,355.235413 
	C720.971130,356.894806 719.525696,358.769684 718.362488,361.039856 
	C674.914307,445.835236 630.202332,529.970154 585.911255,614.324890 
	C536.510559,708.411133 486.982788,802.430664 437.522308,896.485535 
	C428.529205,913.586975 419.608948,930.726685 410.615204,947.827698 
	C409.250458,950.422668 407.667786,952.902893 406.269867,955.292664 
	C403.714813,954.702515 403.426575,952.860229 402.692719,951.459351 
	C360.645416,871.189453 318.643280,790.895935 276.582397,710.633179 
	C233.361969,628.157654 190.044861,545.732727 146.854889,463.241241 
	C129.549118,430.187744 112.446655,397.027557 95.331657,363.874664 
	C93.966858,361.230927 91.909050,359.453308 89.742729,357.622223 
	C69.649261,340.638611 52.841415,321.055023 42.096283,296.767792 
	C28.156828,265.260406 29.958712,234.125824 45.361843,203.763199 
	C62.859474,169.271927 91.031548,145.179825 123.761528,126.022949 
	C166.571457,100.966286 212.866913,85.018463 261.238617,74.772873 
	C293.179230,68.007538 325.448395,63.830605 358.028107,61.476013 
	C381.167206,59.803703 404.275696,59.580406 427.914978,59.922424 
M317.969818,730.588501 
	C346.935181,785.793335 376.804810,840.515930 405.491913,896.604065 
	C494.917297,727.582947 583.824341,559.541504 672.886658,391.206665 
	C670.300476,390.740906 669.089417,391.771881 667.813538,392.426422 
	C645.520447,403.863617 622.298096,412.976074 598.331604,420.219055 
	C545.116150,436.301453 490.598602,444.560272 435.164398,447.231689 
	C410.515625,448.419556 385.889404,447.993713 361.253998,446.451752 
	C332.973755,444.681671 304.879486,441.493591 277.038574,436.268219 
	C232.664642,427.939819 189.649933,415.284912 148.940277,395.413513 
	C146.352402,394.150360 143.947937,392.279816 140.823227,391.941986 
	C140.770462,393.985596 141.790741,395.349731 142.543457,396.794647 
	C167.480637,444.666229 192.284775,492.607880 217.410004,540.380615 
	C250.678268,603.636292 284.198853,666.759399 317.969818,730.588501 
M59.440418,257.149231 
	C60.928677,272.507874 65.911629,286.598389 74.166481,299.671021 
	C86.973503,319.952576 104.422119,335.402100 123.937469,348.871613 
	C126.997231,350.983490 129.249329,351.158020 132.420273,349.229218 
	C150.783646,338.059143 169.278992,327.106201 187.679733,315.997070 
	C189.896210,314.658936 192.482162,313.731476 194.411667,311.052887 
	C189.475861,306.783630 184.749130,302.378265 180.537537,297.465637 
	C170.113708,285.306702 163.318512,271.542053 163.859314,255.260254 
	C164.364258,240.057846 170.665390,226.923676 180.726242,215.604614 
	C197.299347,196.958878 218.432800,185.096390 241.065308,175.673096 
	C287.464203,156.354431 336.261383,148.322495 386.121307,145.940918 
	C419.685425,144.337708 453.022797,147.364868 486.123627,152.829819 
	C522.809753,158.886673 558.299561,168.914307 591.329712,186.409744 
	C608.809937,195.668655 625.293884,206.430313 637.238831,222.670074 
	C650.796692,241.102646 652.714478,260.793274 642.411316,281.407837 
	C638.036865,290.160095 631.841309,297.551147 624.713684,304.183685 
	C621.118958,307.528778 617.456787,310.801453 613.675659,314.242981 
	C614.592285,315.017426 615.034363,315.551086 615.600708,315.846222 
	C637.611816,327.318237 659.579956,338.874939 682.007568,349.526825 
	C683.872070,350.412354 685.410278,350.213806 687.107605,349.037262 
	C708.989197,333.869934 728.228638,316.100861 741.484253,292.685883 
	C751.169617,275.577332 756.230713,257.439331 751.800598,237.589661 
	C747.365295,217.716354 736.389832,201.621643 722.590210,187.224197 
	C700.915100,164.610138 674.633728,148.673157 646.478271,135.645279 
	C579.847168,104.814133 509.135773,91.644089 436.347717,88.453148 
	C395.202362,86.649384 354.120026,88.243431 313.230927,94.068016 
	C263.182678,101.197319 214.482941,113.009926 168.425171,134.283997 
	C137.973312,148.349686 109.346703,165.239716 86.970589,190.923706 
	C70.666115,209.638474 59.971283,230.852722 59.440418,257.149231 
M360.672577,175.243607 
	C336.788940,179.192169 318.782959,192.088699 306.560181,212.538681 
	C289.191650,241.598053 281.700500,273.425842 283.516998,307.170441 
	C284.172424,319.345734 286.467712,325.151367 300.131348,327.787292 
	C302.250519,328.196106 304.297485,328.969666 306.410736,329.420044 
	C347.981293,338.279602 389.932068,341.434418 432.414307,338.929596 
	C464.442780,337.041138 495.849884,331.954895 526.771179,323.592743 
	C528.570984,323.106049 530.806152,323.224335 531.989746,320.920471 
	C529.078064,316.898956 526.086487,312.928680 523.264038,308.841644 
	C509.113953,288.351501 500.079956,265.457062 491.992096,242.119217 
	C486.654846,226.718369 482.339447,210.928818 474.896332,196.321228 
	C469.084198,184.914612 460.011292,177.218399 447.242981,175.576813 
	C418.734253,171.911575 390.129425,171.935333 360.672577,175.243607 
M322.915985,360.838013 
	C288.540680,354.624268 255.029495,345.641418 223.698914,329.733124 
	C221.301605,328.515869 219.425003,328.929169 217.218521,330.251190 
	C198.070923,341.723755 178.853210,353.079285 159.695404,364.534912 
	C158.236343,365.407349 156.300949,366.038300 155.985535,368.423615 
	C157.891098,369.454010 159.750992,370.550903 161.686523,371.492371 
	C184.061264,382.375702 207.258713,391.080109 231.229599,397.742889 
	C293.144165,414.952362 356.278168,421.695221 420.426086,420.048706 
	C456.920471,419.111908 493.153687,416.031769 529.052002,409.060516 
	C568.093445,401.478943 606.114441,390.747131 642.406860,374.291321 
	C646.586182,372.396393 650.910645,370.768799 655.116577,367.903870 
	C653.846985,367.147827 653.041016,366.609344 652.185425,366.166901 
	C631.173950,355.301422 610.123291,344.510986 589.178650,333.518372 
	C586.079834,331.891968 583.625366,331.725006 580.385071,333.188934 
	C529.354492,356.243988 475.388428,365.652405 419.806366,367.304993 
	C387.602509,368.262482 355.570038,366.328125 322.915985,360.838013 
M589.577454,216.952820 
	C562.271179,199.942093 532.365601,189.973404 500.774811,183.492447 
	C500.764038,187.317978 502.332520,189.959351 503.299591,192.729446 
	C511.194458,215.343811 517.072998,238.679459 527.269958,260.469971 
	C535.279114,277.585266 544.609009,293.844727 558.058899,307.433990 
	C560.901245,310.305786 563.361877,311.130646 567.217834,309.220276 
	C575.286560,305.222870 583.324768,301.189545 590.823730,296.204407 
	C599.729553,290.283997 608.250305,283.866547 614.309143,274.810791 
	C622.874573,262.008545 622.414612,250.152267 613.149231,237.910324 
	C606.817993,229.545151 598.732239,223.201492 589.577454,216.952820 
M288.931427,190.357529 
	C287.143188,188.889038 287.138458,188.872269 283.823425,189.804398 
	C269.707214,193.773605 255.921906,198.669464 242.622894,204.857224 
	C228.692047,211.338974 215.227524,218.630630 204.240631,229.636520 
	C185.933182,247.975632 186.138596,266.178314 204.689072,284.200256 
	C215.211365,294.422760 227.658768,301.726807 240.826828,307.910187 
	C246.327942,310.493378 251.778931,313.254730 258.290344,314.816895 
	C254.368164,269.663910 264.746063,228.587769 288.931427,190.357529 
z"/>
</svg>