<svg version="1.1" id="Layer_1" xmlns="http://www.w3.org/2000/svg" xmlns:xlink="http://www.w3.org/1999/xlink" x="0px" y="0px"
	 width="100%" viewBox="0 0 736 1024" enable-background="new 0 0 736 1024" xml:space="preserve">
<path fill="#000000" opacity="1.000000" stroke="none" 
	d="
M616.623840,123.301743 
	C643.411682,138.855576 667.284119,157.307037 685.622009,182.154068 
	C701.152527,203.197220 710.415710,226.670532 710.737671,253.024857 
	C711.089600,281.832733 700.914978,307.092926 683.183167,329.507690 
	C675.918640,338.690857 667.685059,346.924438 658.594727,354.288635 
	C656.335205,356.119141 654.631409,358.223663 653.416016,360.871429 
	C616.726013,440.799774 579.802612,520.621704 543.338867,600.653076 
	C497.552155,701.146484 452.157440,801.818420 406.544281,902.390930 
	C398.632599,919.835388 390.469635,937.165894 382.438751,954.556396 
	C380.548676,958.649292 378.313965,962.346375 373.070343,962.254456 
	C367.790833,962.161926 365.870087,958.264893 364.047333,954.163574 
	C337.123505,893.582886 310.248047,832.980530 283.196960,772.456665 
	C252.407455,703.568604 221.493546,634.736145 190.559814,565.912659 
	C165.430481,510.003265 140.182602,454.147217 115.009621,398.257446 
	C109.674133,386.411469 104.376701,374.547394 99.192963,362.634583 
	C97.884621,359.627899 95.986542,357.350769 93.447075,355.301025 
	C75.580826,340.880371 60.818951,323.862274 51.050323,302.923157 
	C34.317993,267.057251 36.707951,231.795883 55.387867,197.426010 
	C70.671425,169.305237 93.800858,148.656891 120.206795,131.409363 
	C160.353134,105.187035 204.748856,89.407425 251.177429,78.781670 
	C301.019653,67.374657 351.580353,63.804707 402.533417,66.025848 
	C456.433594,68.375458 509.022491,78.039619 559.757874,96.747726 
	C579.319336,103.960800 598.255615,112.618713 616.623840,123.301743 
M298.479675,433.285126 
	C237.248566,425.072418 178.622147,408.766876 123.710403,376.300964 
	C207.384705,561.682190 289.994385,745.933960 372.989929,930.232544 
	C458.674622,745.516602 542.163757,560.339233 628.370300,374.985443 
	C624.379150,377.346039 621.700439,379.017090 618.943665,380.547546 
	C589.532410,396.875275 558.494202,409.178650 526.078735,418.083618 
	C481.559967,430.313568 436.190796,436.842346 390.073273,438.073944 
	C359.731506,438.884277 329.483734,437.306610 298.479675,433.285126 
M173.515839,290.885071 
	C166.950531,278.725830 163.595306,265.945770 165.308090,251.981873 
	C167.782959,231.804733 178.355804,216.283920 193.046524,203.152420 
	C219.257004,179.723801 250.854752,166.701859 284.458984,159.341995 
	C325.059265,150.449860 366.299805,146.718704 408.027283,150.514740 
	C439.035339,153.335632 469.417297,158.907288 498.726227,169.360687 
	C524.073914,178.401291 547.456848,191.020828 566.036438,211.119797 
	C591.555115,238.725281 592.761719,272.350769 569.490112,301.719757 
	C565.054688,307.317352 559.546997,311.848358 554.569397,316.669159 
	C554.964417,317.438660 555.038940,317.824463 555.272217,318.003906 
	C576.894226,334.635834 600.292542,347.663116 627.254822,353.464508 
	C629.928528,354.039795 632.077271,353.133759 634.255615,351.677917 
	C649.496155,341.492493 662.981873,329.387543 673.654968,314.457275 
	C692.575500,287.989777 700.227417,259.165588 690.577393,227.119751 
	C684.575317,207.188431 673.347717,190.383621 658.732483,175.832764 
	C630.565002,147.789307 596.390381,129.382462 559.789246,115.038872 
	C501.993683,92.389458 441.668060,83.287659 379.955872,82.414261 
	C346.436493,81.939865 313.075134,84.665565 280.000122,90.334251 
	C232.060349,98.550591 186.033463,112.554161 143.478958,136.569473 
	C118.156578,150.859970 95.325798,168.372253 78.110153,192.172394 
	C57.834103,220.203430 49.983303,250.822159 61.240158,284.622498 
	C69.881752,310.570129 87.434349,329.889862 108.520164,346.434113 
	C116.749992,352.891357 125.261269,353.995728 135.331268,350.372284 
	C152.760849,344.100677 168.570663,335.049469 183.780930,324.754120 
	C187.555710,322.199097 191.749115,320.053345 194.699081,315.810364 
	C186.535980,308.570862 179.198059,300.888458 173.515839,290.885071 
M447.310242,343.708496 
	C467.104828,339.712280 486.457642,334.267181 505.081085,326.349609 
	C508.759796,324.785614 510.425201,323.273987 508.004333,318.999969 
	C489.369690,286.101166 470.911987,253.101944 452.466217,220.096542 
	C450.964020,217.408646 448.936646,215.980362 445.989471,215.189957 
	C410.368744,205.636871 374.602905,205.609741 338.675385,213.257080 
	C335.700653,213.890274 333.674774,215.342392 331.963287,217.871964 
	C307.693359,253.742584 283.336487,289.554321 259.030182,325.400360 
	C258.041748,326.858093 256.500824,328.129486 256.809387,330.491974 
	C257.859680,331.042633 258.964020,331.812653 260.188324,332.234985 
	C279.757599,338.985626 299.812347,343.767120 320.294678,346.698944 
	C347.243530,350.556366 374.297913,351.788544 401.484314,349.792664 
	C416.602448,348.682739 431.626129,346.969208 447.310242,343.708496 
M371.499176,367.413025 
	C349.265228,367.745117 327.287354,365.130768 305.468506,361.229614 
	C273.293549,355.476898 242.371552,345.925293 214.004471,329.271515 
	C210.538010,327.236420 208.183548,327.353088 205.118347,329.781067 
	C194.782303,337.968231 183.622589,344.953308 172.216827,351.544159 
	C162.306198,357.271057 152.092224,362.370270 140.123108,366.091858 
	C147.015686,370.714905 153.487122,373.724152 159.899750,376.783142 
	C219.979492,405.442810 283.938385,417.606476 349.885925,420.582977 
	C396.630493,422.692780 443.050049,419.323364 488.945099,409.721710 
	C528.265015,401.495605 566.129822,389.099670 601.976074,370.820251 
	C604.276794,369.647003 606.805725,368.750519 608.781677,366.681213 
	C608.074585,366.212494 607.698730,365.854156 607.251282,365.682343 
	C583.764587,356.663086 561.930359,344.697144 542.194641,329.038239 
	C539.844604,327.173676 538.102112,327.899170 535.924133,329.181152 
	C523.548523,336.465515 510.572449,342.487549 497.044708,347.313385 
	C456.767395,361.681641 415.197357,368.044037 371.499176,367.413025 
M308.101257,223.634659 
	C311.622375,218.413513 315.143524,213.192383 318.679840,207.948730 
	C318.034546,207.152374 317.705231,206.544891 317.205170,206.158310 
	C305.475525,197.090744 293.709412,188.070282 282.000977,178.975494 
	C280.105225,177.502930 278.265137,178.005417 276.330627,178.552505 
	C258.950684,183.467697 242.217010,190.001282 226.588806,199.102127 
	C214.295563,206.260941 203.004364,214.667969 193.922394,225.868210 
	C176.212112,247.709259 176.618683,272.358612 195.214294,293.432983 
	C205.091095,304.626343 217.305237,312.668365 230.419586,319.366852 
	C241.521164,325.037292 238.734222,325.703949 245.654510,315.594971 
	C266.449585,285.218048 287.032349,254.695816 308.101257,223.634659 
M472.528931,223.043472 
	C474.651825,226.812973 476.769501,230.585403 478.898407,234.351517 
	C493.634094,260.419464 508.390686,286.475586 523.078735,312.570312 
	C524.448853,315.004425 525.658203,316.042328 528.508484,314.369690 
	C539.951294,307.654449 550.353455,299.746582 558.497437,289.146362 
	C573.864868,269.144196 573.746643,246.450531 558.049377,226.761612 
	C542.910645,207.773102 522.305054,196.815170 500.375244,187.838547 
	C498.481964,187.063553 497.268738,187.852722 495.883392,188.926849 
	C489.309723,194.023697 482.721558,199.103348 476.070160,204.098068 
	C466.061401,211.613937 466.037231,211.581741 472.528931,223.043472 
M303.562408,173.543472 
	C303.620667,175.569687 305.449921,176.109268 306.668518,177.065857 
	C314.135681,182.927689 321.758270,188.595367 329.128387,194.575073 
	C331.856628,196.788620 334.425964,197.312592 337.811218,196.559433 
	C372.651581,188.808167 407.597290,188.693420 442.225098,197.167694 
	C451.552734,199.450394 458.379822,198.475693 465.029480,191.900940 
	C468.953278,188.021408 474.241913,185.639206 478.369537,180.888123 
	C465.096924,176.512772 452.162262,173.552170 439.080292,171.326126 
	C408.074554,166.050140 376.863953,164.716614 345.521545,167.374359 
	C331.599915,168.554855 317.733490,170.283829 303.562408,173.543472 
z"/>
</svg>