<svg version="1.1" id="Layer_1" xmlns="http://www.w3.org/2000/svg" xmlns:xlink="http://www.w3.org/1999/xlink" x="0px" y="0px"
	 width="100%" viewBox="0 0 800 1024" enable-background="new 0 0 800 1024" xml:space="preserve">
<path fill="#000000" opacity="1.000000" stroke="none" 
	d="
M161.083130,61.977222 
	C204.611984,44.501701 249.438889,33.578487 295.354767,26.522835 
	C339.455048,19.746176 383.787628,17.721546 428.294830,18.844185 
	C455.934174,19.541353 483.395477,22.487566 510.773315,26.450090 
	C548.779419,31.950909 586.065613,40.415108 622.370850,52.893414 
	C664.085449,67.230942 703.388794,86.289223 737.644043,114.576286 
	C761.288635,134.101379 780.531128,156.946991 789.794983,186.894974 
	C793.370239,198.453033 794.488037,210.310486 794.300842,222.395844 
	C793.887634,249.075165 787.701782,273.829315 770.955627,295.229706 
	C768.698059,298.114716 766.652344,301.295776 763.916138,303.651733 
	C755.568237,310.839386 751.126160,320.388367 746.413086,330.005219 
	C727.941833,367.695435 709.131287,405.219421 690.430847,442.797241 
	C643.450806,537.201904 595.450012,631.090271 547.467041,724.986206 
	C504.791046,808.497314 461.785645,891.840088 418.903015,975.245544 
	C415.648865,981.574768 412.214264,987.811279 408.947266,993.934021 
	C405.794342,993.604126 405.484009,991.287781 404.621948,989.650085 
	C377.540558,938.202271 350.573395,886.694214 323.445953,835.270752 
	C278.207520,749.515442 233.944687,663.253662 189.326752,577.176331 
	C163.031677,526.447693 136.819855,475.675659 110.649666,424.882385 
	C92.262009,389.194122 73.991524,353.445374 55.723988,317.695374 
	C54.244926,314.800812 52.085758,312.573029 49.891891,310.283386 
	C31.870153,291.474854 19.196871,269.970306 14.460203,243.888794 
	C6.497568,200.044098 20.225430,163.556732 50.670448,132.335495 
	C78.215813,104.087845 111.401962,84.293861 146.972610,68.080566 
	C151.518433,66.008553 156.139999,64.102737 161.083130,61.977222 
M640.754944,498.297302 
	C667.292847,446.223846 693.464172,393.968781 719.777466,340.285522 
	C714.690735,343.425903 710.905823,345.828156 707.055969,348.121277 
	C703.048889,350.508087 699.035217,352.893829 694.928406,355.101288 
	C642.436707,383.315491 586.125366,400.059418 527.711609,410.223999 
	C499.992004,415.047485 472.053162,418.108093 443.906708,419.609161 
	C412.577362,421.279938 381.296936,421.024689 350.054810,418.778656 
	C325.827484,417.036926 301.780884,413.583740 277.823608,409.424286 
	C215.974014,398.685944 156.870010,380.096832 102.027557,349.037323 
	C98.020309,346.767853 94.107437,344.331726 90.150688,341.973083 
	C193.934204,546.162109 299.468292,749.171936 407.836243,951.955139 
	C487.312103,800.851624 563.615540,649.778198 640.754944,498.297302 
M647.842651,200.755966 
	C654.153015,212.025131 656.764954,223.990097 654.585449,236.840820 
	C651.702881,253.836258 641.861389,266.580505 629.491699,277.755951 
	C626.819336,280.170258 624.039917,282.466034 621.584839,284.579651 
	C621.777344,286.330902 622.664795,286.865509 623.476807,287.424713 
	C645.840393,302.826294 668.237488,318.179565 690.540100,333.668793 
	C693.064697,335.422150 694.916077,335.051575 697.299438,333.621796 
	C713.631104,323.824371 729.053833,312.855469 742.995361,299.797058 
	C774.058594,270.701508 782.786255,234.983795 773.542603,194.490997 
	C768.368225,171.824005 754.315918,154.093521 737.900085,138.266907 
	C711.729187,113.035339 680.725281,95.293518 647.506653,81.290192 
	C579.304443,52.539566 507.574341,39.960831 434.103058,36.469471 
	C381.042969,33.948048 328.263550,37.531010 275.987396,47.317528 
	C225.494446,56.770218 176.571991,71.076607 130.963760,95.262497 
	C102.362762,110.429497 75.863235,128.482590 55.054165,153.746445 
	C39.854374,172.200226 29.911688,192.764999 29.886276,217.417465 
	C29.860586,242.342010 35.536873,265.310699 51.365807,285.044312 
	C67.652885,305.349091 88.143562,320.627441 110.446350,333.684418 
	C113.136620,335.259399 115.062546,334.345428 117.251633,332.812805 
	C135.402161,320.105408 153.612671,307.483643 171.752426,294.760956 
	C176.203110,291.639374 180.999863,288.955566 185.411133,284.706268 
	C178.890244,279.847839 173.065002,274.661438 167.976334,268.754639 
	C155.973495,254.822098 148.722580,239.229034 151.719940,220.246643 
	C153.941772,206.175659 161.215668,194.716354 170.887451,184.762634 
	C186.237320,168.965332 205.021896,158.206589 225.082199,149.686844 
	C275.917206,128.096878 329.495789,119.656296 384.255920,117.802376 
	C427.823944,116.327377 471.093353,119.558975 513.809998,128.745682 
	C543.057739,135.035767 571.593262,143.473877 598.158569,157.550003 
	C617.805847,167.960480 635.629578,180.607559 647.842651,200.755966 
M295.565948,310.818573 
	C323.617218,316.875763 352.017700,320.465271 380.657257,321.568512 
	C423.053864,323.201782 465.184814,320.309692 506.774933,311.596954 
	C535.534912,305.572021 563.615173,297.315338 589.785034,283.563171 
	C603.422852,276.396515 616.311829,268.135468 626.318054,256.136597 
	C635.934692,244.605026 640.657715,231.794983 635.691956,216.775864 
	C632.177551,206.146545 625.210754,197.925949 616.894165,190.777618 
	C599.150024,175.526077 578.238098,166.091141 556.423767,158.486145 
	C515.870178,144.348175 473.863373,137.583099 431.148468,135.562164 
	C387.954071,133.518524 344.930969,135.764404 302.404358,144.374374 
	C271.597748,150.611465 241.565048,159.195862 213.804245,174.355804 
	C200.440048,181.653870 187.905136,190.126297 178.433167,202.417160 
	C166.726959,217.607193 165.562836,233.427719 175.490005,249.719543 
	C184.191086,263.999207 197.652710,273.056061 211.773254,281.080505 
	C237.666229,295.794952 265.872070,304.201630 295.565948,310.818573 
M582.672363,306.283722 
	C577.117249,308.533844 571.628784,310.967987 565.996582,313.004974 
	C520.165955,329.580933 472.617523,337.123505 424.136963,339.039459 
	C387.790344,340.475861 351.573486,338.485046 315.654327,332.287842 
	C277.079163,325.632477 239.493179,315.866699 204.831985,296.990356 
	C201.770798,295.323242 199.678680,295.985840 197.171494,297.746613 
	C182.177979,308.276398 167.117599,318.710846 152.100296,329.206818 
	C145.048874,334.135254 138.043533,339.129669 130.019638,344.799133 
	C219.706177,387.838043 314.073730,404.128479 411.513947,403.321503 
	C503.456329,402.560089 592.470520,386.152771 676.410278,345.315430 
	C675.475647,344.245972 675.141174,343.665863 674.643494,343.322174 
	C652.166260,327.799225 629.656799,312.322693 607.213989,296.750275 
	C605.114441,295.293457 603.632568,296.042969 601.763977,296.988251 
	C595.674561,300.068726 589.507996,302.996887 582.672363,306.283722 
z"/>
<path fill="#000000" opacity="1.000000" stroke="none" 
	d="
M443.497070,176.445892 
	C445.413208,173.451370 446.555817,170.516022 447.602875,167.516083 
	C449.498291,162.085434 453.408844,159.699707 458.242615,160.865677 
	C462.807770,161.966843 465.329865,166.404205 464.120422,171.965179 
	C462.529877,179.278275 458.834625,185.627136 454.049774,191.279633 
	C422.870789,228.112503 363.677460,219.689056 344.451294,179.957306 
	C343.153381,177.275024 342.089813,174.434937 341.294342,171.563782 
	C339.925385,166.622803 342.013580,162.528351 346.331512,161.062958 
	C350.704712,159.578796 355.567627,161.698547 357.279419,166.406296 
	C360.814697,176.129059 366.552948,183.951431 375.286926,189.656555 
	C397.469360,204.146317 428.453827,198.325027 443.497070,176.445892 
z"/>
</svg>