<svg version="1.1" id="Layer_1" xmlns="http://www.w3.org/2000/svg" xmlns:xlink="http://www.w3.org/1999/xlink" x="0px" y="0px"
	 width="100%" viewBox="0 0 848 1024" enable-background="new 0 0 848 1024" xml:space="preserve">
<path fill="#000000" opacity="1.000000" stroke="none" 
	d="
M738.138062,619.000000 
	C737.757202,678.990479 737.766785,738.486755 736.872559,797.969482 
	C736.166016,844.962646 736.417175,891.953430 735.969971,938.943054 
	C735.939514,942.145569 736.894653,945.604126 733.695251,949.865417 
	C702.499023,899.259338 672.463562,848.780151 642.058716,798.531311 
	C611.650574,748.276978 581.445374,697.899841 550.267334,646.108215 
	C508.072174,747.829163 466.413910,848.029297 425.046448,948.755859 
	C384.853638,848.312073 342.061035,749.368225 301.170319,648.379272 
	C241.131058,748.926453 181.539871,848.723206 121.811630,948.749512 
	C118.933968,946.747742 119.830727,944.394287 119.822769,942.445007 
	C119.709846,914.779602 120.016541,887.108276 119.553726,859.449524 
	C118.697723,808.292847 119.367554,757.125122 118.457710,705.979187 
	C117.873726,673.151062 118.402908,640.318665 117.535492,607.508850 
	C116.557503,570.516541 117.332336,533.518127 116.518906,496.535583 
	C115.785934,463.210602 115.907990,429.884125 115.573936,396.559082 
	C115.445374,383.732483 114.999283,370.908752 114.912941,358.082245 
	C114.890755,354.786346 113.407600,353.015076 110.858856,351.277710 
	C88.926125,336.327118 69.378944,318.891296 54.554844,296.603790 
	C23.999004,250.664108 25.403101,197.411133 58.293270,152.893250 
	C77.013580,127.554733 101.017838,108.207375 127.488297,91.644882 
	C168.214066,66.162888 212.815765,50.500362 259.280487,39.460865 
	C288.808960,32.445221 318.757751,28.042643 348.894775,25.031229 
	C385.073944,21.416058 421.401123,20.642908 457.717072,22.085491 
	C497.516602,23.666456 536.980469,28.249237 576.031311,36.443810 
	C635.152466,48.849995 690.935425,69.257385 740.957336,103.807022 
	C765.650818,120.862564 787.028137,141.257263 801.907104,167.609360 
	C826.392212,210.974930 824.138672,253.519104 796.802795,294.877716 
	C782.843689,315.997650 764.685791,333.070007 744.356445,347.892761 
	C741.128540,350.246368 740.041931,352.680817 739.956360,356.555359 
	C738.947998,402.210602 739.870728,447.881500 738.929810,493.530334 
	C738.071228,535.187866 738.594299,576.845154 738.138062,619.000000 
M553.278625,421.986084 
	C518.691711,427.875427 483.891998,431.803619 447.566467,432.612518 
	C536.351257,579.031250 624.481506,724.370605 712.611755,869.709961 
	C714.893311,701.564453 715.116943,533.913574 717.062500,364.877808 
	C665.432800,394.989990 610.740967,411.203308 553.278625,421.986084 
M276.745117,644.294739 
	C318.209381,573.723267 360.459778,503.619263 403.497742,432.861633 
	C309.863098,429.776093 220.712936,412.855835 137.716217,368.393066 
	C139.173325,535.662598 140.620956,701.842651 142.068573,868.022705 
	C142.365295,868.094971 142.662018,868.167175 142.958740,868.239441 
	C187.432190,793.802002 231.905624,719.364624 276.745117,644.294739 
M504.145599,697.752991 
	C514.032043,673.908875 523.900269,650.057190 533.830933,626.231506 
	C534.906067,623.652100 535.350464,621.494995 533.702759,618.774780 
	C499.440582,562.211670 465.297424,505.576538 431.059357,448.998840 
	C429.392273,446.244049 428.097809,443.128784 425.211945,440.650604 
	C424.060699,442.449371 423.050354,443.935394 422.132111,445.476318 
	C403.882660,476.100189 385.686035,506.755615 367.390320,537.351807 
	C351.147095,564.515564 334.864807,591.656616 318.412323,618.693665 
	C316.176239,622.368286 315.784821,625.397522 317.622620,629.311218 
	C320.378357,635.179810 322.498993,641.343567 324.985718,647.341980 
	C355.211945,720.253662 385.444122,793.162964 415.714020,866.056458 
	C418.612823,873.037170 421.775513,879.908386 424.815735,886.830383 
	C425.274323,886.817810 425.732880,886.805237 426.191467,886.792725 
	C452.079803,824.015930 477.968140,761.239197 504.145599,697.752991 
M198.156799,368.226288 
	C264.919098,393.969879 334.373779,405.733246 405.629272,407.642609 
	C447.309357,408.759430 488.803131,406.148743 530.059570,399.796967 
	C578.848633,392.285522 626.074951,379.423553 671.298645,359.493134 
	C675.902588,357.464142 680.405090,355.205139 685.490723,352.799225 
	C684.162170,351.796204 683.683105,351.345245 683.127625,351.027985 
	C661.433167,338.637909 639.711609,326.295013 618.058838,313.832520 
	C615.581482,312.406647 613.594788,312.581818 611.079224,313.680084 
	C601.925598,317.676514 592.799805,321.800598 583.418884,325.201904 
	C533.384644,343.343231 481.402222,350.218170 428.495422,350.793274 
	C401.355835,351.088257 374.286865,349.274658 347.346527,345.465851 
	C310.004517,340.186432 273.978516,330.596771 239.943512,314.151520 
	C236.553070,312.513336 233.929733,312.442139 230.683273,314.328186 
	C214.699448,323.614075 198.602692,332.705505 182.556274,341.883881 
	C176.584183,345.299866 170.640518,348.765472 163.815552,352.710358 
	C175.420776,358.785278 186.365067,363.502045 198.156799,368.226288 
M370.832123,211.729233 
	C369.215118,211.344254 367.590057,210.990128 365.982300,210.569717 
	C333.620941,202.107849 300.600677,198.525482 267.269714,197.343964 
	C249.421829,196.711319 231.679504,198.299805 213.973221,200.339096 
	C210.818298,200.702454 207.844238,201.274750 205.645981,204.119980 
	C196.657333,215.754089 193.597977,228.467255 198.539047,242.578430 
	C203.863251,257.783722 215.201309,268.031036 227.847183,277.003723 
	C250.175995,292.846802 275.525024,302.072784 301.507996,309.621460 
	C330.233826,317.967041 359.671600,322.213196 389.525177,324.003571 
	C426.213837,326.203796 462.725555,324.981842 499.095459,319.620209 
	C502.143463,319.170868 503.107300,317.715515 502.245422,314.812073 
	C501.157349,311.146545 500.383270,307.372223 499.076599,303.789703 
	C491.079773,281.865112 476.121368,265.371826 457.746490,251.709320 
	C431.835449,232.443268 402.463074,220.577942 370.832123,211.729233 
M230.971313,115.509865 
	C238.753983,122.045753 246.636124,128.468567 254.264572,135.179749 
	C256.883667,137.483917 259.150238,137.879288 262.357361,136.608917 
	C291.938263,124.891724 322.709412,117.839195 354.191589,113.814583 
	C389.786987,109.264160 425.468384,108.107140 461.331207,110.543159 
	C500.577301,113.209000 538.963928,119.880463 576.231750,132.573807 
	C579.310608,133.622467 581.396057,133.199219 583.782288,130.924591 
	C600.301208,115.177956 616.966309,99.584679 633.545349,83.900887 
	C634.539612,82.960342 636.153625,82.215622 635.606873,79.967293 
	C588.776428,63.094711 540.135864,53.842999 490.597198,49.559521 
	C440.881744,45.260757 391.082886,45.909019 341.459930,51.486393 
	C292.125763,57.031311 243.752365,66.810501 196.356522,86.105583 
	C208.389755,96.323357 219.411972,105.682640 230.971313,115.509865 
M651.576843,173.909683 
	C654.289734,176.615494 657.167175,179.176895 659.688782,182.050598 
	C675.720581,200.320877 684.017334,221.055618 678.090698,245.520798 
	C674.168091,261.713287 664.499695,274.660767 652.389771,285.825531 
	C648.635010,289.287201 644.690735,292.543213 640.595398,296.099945 
	C641.638367,296.986237 642.185730,297.612305 642.867126,298.006989 
	C665.068298,310.866364 687.294006,323.683533 709.476929,336.574341 
	C711.731995,337.884766 713.547058,337.329468 715.493347,336.105438 
	C740.749878,320.221497 763.091492,301.249207 778.799927,275.454041 
	C792.034912,253.720551 796.498596,230.516632 789.972168,205.506271 
	C783.996155,182.605515 770.594055,164.341339 754.122253,148.162964 
	C728.915039,123.404747 698.675171,106.321899 666.635010,92.111320 
	C663.740295,90.827431 662.341187,92.393440 660.622986,94.009857 
	C646.546753,107.252441 632.403381,120.424294 618.397827,133.741104 
	C614.716980,137.240921 610.620544,140.398529 607.278015,145.078339 
	C623.060181,153.230988 638.117981,161.728836 651.576843,173.909683 
M178.896667,262.446594 
	C164.843567,235.094849 168.530716,206.208542 189.025681,183.241806 
	C199.333954,171.690308 211.563141,162.566391 224.911957,154.845810 
	C227.121353,153.567963 229.764160,152.785217 231.579102,149.782913 
	C230.575821,149.022034 229.618896,148.370712 228.744934,147.622482 
	C212.299072,133.542847 195.876877,119.435532 179.419525,105.369354 
	C170.314453,97.587196 170.226761,97.501610 159.613907,103.298332 
	C130.935928,118.962212 104.177109,137.174179 83.168388,162.674820 
	C68.521950,180.452820 58.936764,200.409393 58.212383,223.929657 
	C57.425972,249.463989 66.731796,271.399872 82.131020,291.158630 
	C96.577492,309.694885 115.131226,323.452026 134.548218,336.227753 
	C137.153732,337.942108 139.022766,337.217407 141.351120,335.876343 
	C162.705215,323.576813 184.114166,311.372528 205.485916,299.103607 
	C206.845673,298.322998 208.646469,297.869537 208.983215,295.492798 
	C197.198944,286.556030 186.667084,276.238068 178.896667,262.446594 
M522.547852,218.956253 
	C551.078979,208.246002 576.836731,193.328247 597.551941,170.422073 
	C595.330566,167.861343 592.869263,167.170258 590.628723,166.181351 
	C546.459106,146.686401 499.768402,138.121033 451.953125,135.512680 
	C415.976990,133.550156 380.032410,135.208359 344.410431,141.282303 
	C314.271881,146.421280 284.845398,154.017365 256.976227,166.904785 
	C254.398361,168.096863 251.891754,169.443039 249.352051,170.717667 
	C252.496368,171.622009 255.308670,171.618912 258.120972,171.622452 
	C299.296448,171.674271 339.812408,176.905365 379.554504,187.642441 
	C411.577667,196.294098 442.195160,208.301666 469.302094,227.919022 
	C472.910156,230.530182 476.371582,231.205322 480.481262,230.522141 
	C494.647888,228.167130 508.399017,224.300751 522.547852,218.956253 
M635.844055,266.348419 
	C637.027710,265.176361 638.248230,264.039032 639.389465,262.827057 
	C657.754028,243.325241 658.746399,221.185883 642.139771,201.376511 
	C638.488525,197.021118 634.299438,193.224228 629.926208,189.604462 
	C621.573730,182.691132 621.625977,182.684311 614.192932,190.316010 
	C584.181946,221.129028 547.347656,239.862564 506.336700,251.198257 
	C504.011230,251.841034 501.377655,251.867035 499.589935,254.246124 
	C500.214539,255.264984 500.695557,256.333923 501.423187,257.194305 
	C514.575500,272.746674 523.542603,290.358215 527.630127,310.368744 
	C528.231873,313.314758 529.746277,313.994812 532.650818,313.344330 
	C543.707397,310.868286 554.643860,307.978149 565.348083,304.268463 
	C590.653870,295.498413 615.078247,285.055878 635.844055,266.348419 
z"/>
</svg>