<svg version="1.1" id="Layer_1" xmlns="http://www.w3.org/2000/svg" xmlns:xlink="http://www.w3.org/1999/xlink" x="0px" y="0px"
	 width="100%" viewBox="0 0 832 1024" enable-background="new 0 0 832 1024" xml:space="preserve">
<path fill="#000000" opacity="1.000000" stroke="none" 
	d="
M764.238159,347.000000 
	C764.238647,546.343628 764.238647,745.187256 764.238647,944.030823 
	C763.482788,944.233154 762.726929,944.435425 761.971008,944.637756 
	C693.315979,839.562866 626.458313,733.322937 558.150085,626.961487 
	C511.721619,735.249146 465.700928,842.585754 419.680206,949.922363 
	C419.109131,949.941833 418.538025,949.961304 417.966949,949.980835 
	C371.083496,843.329773 327.442627,735.289734 281.277802,627.069702 
	C214.153229,734.317810 148.673660,841.345703 80.921661,947.303467 
	C77.945961,944.977417 78.814224,942.480530 78.813622,940.347717 
	C78.780800,824.355469 78.800705,708.363159 78.804695,592.370911 
	C78.807899,499.377136 78.775047,406.383301 78.868187,313.389618 
	C78.872345,309.238159 77.788109,306.294922 74.636993,303.417877 
	C59.299767,289.414490 46.659962,273.289062 39.833298,253.474380 
	C27.012196,216.260559 33.673199,181.992981 56.711258,150.518723 
	C75.589073,124.728127 100.426712,105.903191 127.636436,89.889809 
	C168.410797,65.893425 212.678497,51.170498 258.590790,40.877316 
	C289.978485,33.840435 321.714813,29.291628 353.772919,26.496489 
	C382.203003,24.017675 410.647369,23.032646 439.122894,23.974262 
	C515.515747,26.500397 590.284302,38.030334 661.655518,66.633339 
	C695.009155,80.000298 726.977966,96.104301 754.749146,119.424301 
	C773.684448,135.324692 790.563660,153.038696 800.224854,176.250244 
	C815.882080,213.867752 809.859253,248.883621 786.365845,281.444519 
	C780.888916,289.035278 774.437378,295.797791 767.555786,302.116577 
	C765.135437,304.338928 764.182678,306.748444 764.216309,310.003998 
	C764.342163,322.168091 764.248779,334.334473 764.238159,347.000000 
M702.904480,817.666870 
	C716.463440,838.699585 730.022339,859.732300 743.581238,880.764954 
	C743.867920,880.617004 744.154541,880.469055 744.441162,880.321106 
	C744.441162,694.042664 744.441162,507.764282 744.441162,320.868225 
	C733.729614,328.319427 723.349792,334.931061 712.532227,340.833221 
	C669.911926,364.087189 624.328735,379.086761 577.004395,389.041077 
	C538.194031,397.204498 498.989685,402.595703 459.326019,404.359436 
	C453.434540,404.621429 447.557617,405.210724 440.473419,405.737915 
	C528.228821,543.496277 615.363953,680.280945 702.904480,817.666870 
M98.326721,536.499939 
	C98.326721,651.392761 98.326721,766.285645 98.326721,881.178467 
	C198.426483,723.071350 296.730621,564.258667 397.054413,405.811493 
	C394.859558,405.541107 393.907013,405.343140 392.949860,405.317719 
	C370.635925,404.725494 348.415863,402.987122 326.239441,400.411957 
	C289.309998,396.123718 252.865601,389.419128 217.161606,378.995758 
	C182.155716,368.776184 148.605637,355.179352 117.552727,335.759644 
	C111.401802,331.913025 105.490486,327.659180 98.326920,323.229340 
	C98.326920,394.674805 98.326920,465.087341 98.326721,536.499939 
M310.019836,644.543152 
	C346.146362,730.212830 381.096680,816.380005 418.162079,902.025696 
	C420.412872,899.983398 420.980896,897.839966 421.816254,895.898499 
	C437.083038,860.417236 452.372742,824.945679 467.528442,789.416931 
	C492.876068,729.995911 518.109802,670.526306 543.490967,611.119690 
	C544.831726,607.981567 544.589539,605.617188 542.789673,602.792358 
	C503.949921,541.835632 465.202087,480.820312 426.362732,419.863312 
	C423.983276,416.128906 422.053345,412.026184 418.851776,408.832031 
	C416.984436,409.382294 416.496796,410.896576 415.729034,412.123871 
	C376.071747,475.516205 336.435181,538.921509 296.723114,602.279541 
	C294.955963,605.098938 294.607788,607.513062 295.942535,610.629333 
	C300.660980,621.645569 305.131500,632.768005 310.019836,644.543152 
M539.268372,376.664215 
	C540.739746,376.380402 542.205566,376.063232 543.683289,375.817596 
	C587.031982,368.611664 629.274292,357.452881 669.818726,340.313293 
	C674.336365,338.403473 679.166443,336.972015 683.020752,333.920319 
	C682.789612,332.474976 681.913696,331.942841 681.072205,331.425995 
	C658.503906,317.563995 635.914795,303.735657 613.378662,289.821655 
	C611.098999,288.414215 609.129517,288.633789 606.816956,289.567322 
	C550.426208,312.331512 491.279755,320.506927 431.012115,322.081238 
	C396.677826,322.978119 362.477020,320.705078 328.473267,315.453125 
	C295.434631,310.350250 263.167603,302.592377 232.428070,289.221191 
	C229.452805,287.926910 227.313675,288.123596 224.617371,289.763306 
	C201.705582,303.696655 178.710144,317.492401 155.754868,331.354401 
	C154.974396,331.825684 153.857788,332.185852 154.147781,333.863953 
	C163.037094,338.692902 172.510193,342.759033 182.081924,346.557709 
	C239.932297,369.516418 300.480194,379.989105 362.175842,384.519928 
	C387.562378,386.384247 413.022644,387.057251 438.552826,386.140533 
	C472.050232,384.937744 505.304688,381.866669 539.268372,376.664215 
M645.005249,84.687737 
	C645.737000,83.848122 646.964233,83.347702 646.868164,80.918610 
	C546.170715,45.084484 442.286804,36.300343 336.294617,47.432182 
	C285.758270,52.739769 236.338577,63.264130 188.274384,81.870323 
	C189.347672,83.149429 189.691299,83.738533 190.190613,84.128151 
	C208.968781,98.781189 227.786087,113.384300 246.517151,128.097198 
	C248.603683,129.736130 250.402100,129.350449 252.526276,128.604645 
	C260.065948,125.957451 267.558197,123.142029 275.200317,120.825455 
	C312.336365,109.568352 350.361511,103.687912 389.084930,101.514969 
	C428.163330,99.322105 466.955658,101.619110 505.593109,107.337067 
	C533.166260,111.417618 560.135742,118.047943 586.378235,127.491890 
	C589.195984,128.505905 591.274170,128.285385 593.642151,126.349525 
	C610.535156,112.539246 627.526978,98.849831 645.005249,84.687737 
M697.943420,104.602135 
	C689.413574,100.442284 680.838867,96.370651 672.379150,92.072685 
	C669.577637,90.649384 667.540710,91.070892 665.189941,93.003036 
	C648.340393,106.852196 631.398865,120.589478 614.528687,134.413666 
	C613.469116,135.281967 611.838013,135.934845 612.094299,138.279800 
	C613.962708,139.221725 616.017395,140.256577 618.071228,141.293091 
	C634.393982,149.530853 649.610474,159.354843 661.892944,173.094376 
	C675.791504,188.641800 682.683838,206.325699 676.840698,227.325775 
	C672.493713,242.948578 661.974915,254.215836 649.948914,264.315735 
	C644.248596,269.103027 637.798523,272.870667 631.401733,277.191071 
	C632.226807,278.056732 632.590637,278.635315 633.112610,278.957764 
	C655.780396,292.961121 678.482117,306.909760 701.117004,320.965973 
	C703.929077,322.712280 706.207092,322.424133 708.925354,320.817505 
	C718.110352,315.388641 727.140015,309.724915 735.678467,303.328491 
	C753.014893,290.341370 768.602905,275.710266 778.969727,256.297424 
	C786.082520,242.977936 790.168579,228.803314 789.399353,213.661392 
	C788.185486,189.762939 777.345642,170.046814 761.690674,152.594193 
	C743.758667,132.603119 721.909729,117.813614 697.943420,104.602135 
M176.444977,250.008759 
	C157.784103,225.677078 158.066742,200.258499 177.392990,176.514069 
	C186.756607,165.009827 198.324982,156.063110 210.958023,148.448257 
	C216.330246,145.210007 221.828598,142.181000 227.242767,139.072327 
	C226.737488,136.972717 225.368637,136.221329 224.224472,135.331070 
	C206.218048,121.320450 188.162933,107.372002 170.217819,93.283394 
	C167.662262,91.277039 165.524338,91.583549 162.920242,92.853683 
	C153.638840,97.380676 144.439194,102.049896 135.589554,107.387711 
	C110.858200,122.304886 88.343987,139.767288 71.321938,163.500244 
	C60.420609,178.699402 53.222279,195.435318 52.454727,214.274567 
	C51.646763,234.105789 58.066429,251.955078 69.454208,268.051758 
	C85.470863,290.691437 107.177299,306.819366 130.445892,321.156769 
	C132.352509,322.331543 133.748047,321.938629 135.460876,320.907471 
	C158.716217,306.907288 182.000900,292.955841 205.268768,278.976440 
	C206.097580,278.478516 207.081924,278.048401 207.293091,276.227173 
	C196.483047,268.816986 185.354156,261.228149 176.444977,250.008759 
M343.054901,298.322052 
	C358.255341,300.182556 373.498840,301.774536 388.792694,302.326996 
	C409.756836,303.084259 430.741180,303.474670 451.710968,302.001801 
	C455.030334,301.768707 455.891571,300.288544 455.885132,297.262970 
	C455.834473,273.439240 455.845917,249.615189 455.935608,225.791580 
	C455.947357,222.675415 454.852570,221.449493 451.670624,221.090759 
	C440.265228,219.804901 428.896912,218.192307 417.509460,216.743576 
	C392.755280,213.594299 367.999969,210.453964 343.241394,207.339569 
	C315.182465,203.810043 287.121399,200.297821 259.057678,196.806625 
	C237.930603,194.178360 216.794708,191.620789 195.672623,188.953415 
	C193.484558,188.677078 191.987427,188.993637 190.514740,190.868790 
	C180.943497,203.055756 179.856796,218.704315 187.885345,231.979004 
	C190.217300,235.834747 192.923584,239.411179 196.072617,242.665619 
	C208.100342,255.095901 222.739853,263.656982 238.294952,270.672333 
	C271.374817,285.591370 306.364471,293.471405 343.054901,298.322052 
M316.315063,129.959641 
	C314.198914,130.411270 312.074188,130.826141 309.967926,131.320038 
	C277.571686,138.916550 246.061447,148.816757 217.723358,166.922195 
	C215.999924,168.023315 213.957458,168.853867 212.964813,171.136887 
	C217.769577,172.637604 222.444153,172.653854 227.026123,173.244095 
	C261.841797,177.729065 296.657288,182.215485 331.479736,186.647064 
	C357.226471,189.923645 382.982941,193.124069 408.736420,196.347397 
	C422.768433,198.103638 436.802917,199.839798 450.837158,201.578079 
	C453.526123,201.911148 455.898163,201.941711 455.896149,198.114807 
	C455.883331,173.624298 455.924957,149.133743 455.977783,124.643250 
	C455.984039,121.746361 454.710907,120.426170 451.770508,120.362335 
	C440.280884,120.112915 428.787506,119.360687 417.306274,119.529144 
	C383.632599,120.023232 350.176239,122.940987 316.315063,129.959641 
M528.005371,211.335861 
	C549.298340,214.037888 570.589233,216.755783 591.884766,219.437347 
	C611.862061,221.952942 631.847290,224.405365 651.819946,226.956696 
	C654.221313,227.263458 656.174133,227.169739 656.972595,224.459106 
	C658.425293,219.527954 659.855835,214.697098 658.958191,209.338577 
	C657.292175,199.393448 652.421509,191.300446 645.665039,184.110703 
	C633.707092,171.386093 619.014771,162.622147 603.467834,155.170013 
	C574.101135,141.093643 542.847595,133.167923 510.985382,127.420425 
	C499.743042,125.392471 488.437134,123.516014 476.732025,122.966530 
	C476.530853,124.282700 476.258636,125.236740 476.257599,126.191086 
	C476.230713,151.015442 476.296509,175.840164 476.163879,200.663834 
	C476.142090,204.741776 478.579742,205.218918 481.546204,205.580811 
	C496.739716,207.434357 511.932190,209.296616 528.005371,211.335861 
M500.480835,227.241211 
	C494.372528,226.489914 488.191162,226.097656 482.178986,224.873978 
	C477.352051,223.891541 476.090912,225.274506 476.133667,230.025497 
	C476.329956,251.849380 476.216431,273.675964 476.251373,295.501556 
	C476.253662,296.927765 475.757507,298.522583 477.059265,299.692810 
	C478.592865,299.692810 480.092224,299.821564 481.563873,299.673828 
	C511.274872,296.691406 540.534546,291.283875 569.119629,282.615173 
	C592.323730,275.578247 614.682373,266.574615 634.453613,252.117142 
	C636.922791,250.311600 639.547852,248.623337 641.157654,245.888306 
	C639.390137,244.478561 637.698547,244.505600 636.048889,244.298721 
	C615.750488,241.753220 595.454651,239.187973 575.158630,236.623840 
	C550.566284,233.516907 525.974365,230.406219 500.480835,227.241211 
z"/>
</svg>