<svg version="1.1" id="Layer_1" xmlns="http://www.w3.org/2000/svg" xmlns:xlink="http://www.w3.org/1999/xlink" x="0px" y="0px"
	 width="100%" viewBox="0 0 800 1024" enable-background="new 0 0 800 1024" xml:space="preserve">
<path fill="#000000" opacity="1.000000" stroke="none" 
	d="
M643.402344,104.517487 
	C673.055481,117.446182 701.033936,132.425491 725.074768,153.884003 
	C747.216003,173.647064 765.021179,196.484421 773.173645,225.509125 
	C783.200684,261.208069 774.303284,293.267303 753.089417,322.675690 
	C743.473450,336.006012 732.093323,347.645081 719.582581,358.226776 
	C717.661743,359.851410 715.960632,361.516113 714.778503,363.844299 
	C681.666382,429.057465 647.475769,493.710327 613.504395,558.476624 
	C575.046021,631.797363 536.430725,705.035828 497.954315,778.347107 
	C467.839417,835.726807 437.835541,893.164856 407.759735,950.565063 
	C406.932831,952.143188 406.477814,954.044189 404.601440,954.963745 
	C402.207153,954.469116 401.901245,952.192566 401.035400,950.541199 
	C371.327576,893.882202 341.765320,837.146729 311.977692,780.529846 
	C271.873016,704.303345 231.494370,628.220886 191.431763,551.972473 
	C158.110992,488.555176 125.065735,424.993164 91.954865,361.465820 
	C90.611908,358.889191 88.949997,356.804108 86.733955,354.921997 
	C63.651836,335.317993 44.561905,312.751801 34.743256,283.508850 
	C23.245913,249.266266 29.755224,217.610260 49.990639,188.679459 
	C69.569794,160.686905 96.211136,140.529495 125.732094,123.937424 
	C171.362885,98.290909 220.417511,82.445694 271.615021,72.549103 
	C296.472107,67.744171 321.484955,64.161812 346.694672,62.087467 
	C381.431885,59.229153 416.178162,58.787483 450.996643,61.446392 
	C480.071594,63.666698 508.932983,67.058807 537.575195,72.559845 
	C573.848022,79.526390 609.087097,89.804276 643.402344,104.517487 
M654.378357,421.944031 
	C659.460876,412.145020 664.543396,402.346008 670.229858,391.382538 
	C667.779358,392.397614 666.705200,392.773041 665.691956,393.272156 
	C592.939331,429.111755 515.128296,443.347656 434.913330,447.268829 
	C410.768433,448.449066 386.643921,447.942535 362.515625,446.425171 
	C330.578949,444.416718 298.884308,440.698547 267.535339,434.192413 
	C223.350693,425.022369 180.356583,412.317688 140.099823,391.438538 
	C139.426895,391.089569 138.599243,390.576263 137.308105,391.796692 
	C226.146729,559.706787 315.062988,727.763672 404.002838,895.865112 
	C405.935944,894.928467 406.285278,893.177002 407.023895,891.770325 
	C421.349701,864.486267 435.557556,837.140076 449.947327,809.889893 
	C482.849792,747.581543 515.920654,685.362061 548.767395,623.024414 
	C583.944214,556.264465 618.942627,489.410492 654.378357,421.944031 
M445.029816,147.278183 
	C452.307892,148.082275 459.601562,148.766266 466.861359,149.710861 
	C502.174561,154.305557 536.745972,161.939453 569.626953,175.960129 
	C592.005737,185.502594 613.025635,197.253555 629.440613,215.823608 
	C651.962463,241.302338 651.544373,273.349915 628.646912,298.411560 
	C624.542969,302.903442 619.650146,306.640594 615.270569,311.892700 
	C637.239441,324.998962 658.671997,337.779297 680.093872,350.577332 
	C681.668762,351.518219 682.912231,350.901886 684.224976,350.022247 
	C705.771667,335.584961 724.877625,318.722412 738.033508,295.939545 
	C748.275085,278.203461 753.336731,259.465027 748.670715,238.977905 
	C743.335632,215.552841 730.234131,196.668442 713.183289,180.423340 
	C692.318420,160.544479 667.735291,146.179504 641.673645,134.299347 
	C575.971741,104.349251 506.311035,91.696609 434.762756,88.465782 
	C382.381500,86.100471 330.220123,89.231178 278.635895,99.355125 
	C227.651413,109.361366 178.622650,124.897308 133.598038,151.456223 
	C109.844452,165.467865 88.514854,182.357178 72.699394,205.347794 
	C54.087246,232.403839 51.177734,260.570526 67.047165,290.010254 
	C80.356377,314.700439 100.156517,333.187317 122.808357,349.038971 
	C125.396751,350.850342 127.475655,349.952454 129.742981,348.802582 
	C150.544846,338.253143 171.350815,327.711731 192.134125,317.125793 
	C193.550415,316.404358 195.295837,315.955902 195.911209,314.084442 
	C194.885437,312.056122 192.904129,311.033813 191.275345,309.662628 
	C182.152512,301.982513 174.131622,293.358612 168.372955,282.820465 
	C163.152328,273.266907 160.475433,263.106842 161.318512,252.147644 
	C162.669708,234.583206 171.775558,221.164337 184.379578,209.802261 
	C203.750137,192.340393 226.685928,180.981308 250.856918,171.919937 
	C284.744263,159.216019 319.924713,152.410919 355.833069,148.533478 
	C385.258362,145.356079 414.643890,144.912537 445.029816,147.278183 
M506.009460,216.473419 
	C492.567352,192.863998 472.981018,177.716324 445.596100,174.728516 
	C420.224945,171.960403 394.759460,172.584671 369.287659,174.608307 
	C350.397491,176.109039 338.884064,186.150131 331.963287,203.065186 
	C326.407471,216.644180 322.135773,230.653412 317.286346,244.468079 
	C308.821869,268.581116 299.112244,292.073914 283.974854,312.932495 
	C281.961761,315.706421 279.908661,318.451294 277.660645,321.498962 
	C279.401215,322.227051 280.567719,322.859344 281.813232,323.215027 
	C316.712311,333.180420 352.394653,338.295990 388.590027,339.561066 
	C408.707001,340.264191 428.838806,339.859528 448.939514,337.833710 
	C471.155426,335.594696 493.139160,332.272278 514.714783,326.483215 
	C519.721436,325.139862 523.159119,321.934296 524.682800,316.878906 
	C525.838928,313.042816 526.566650,309.126343 526.700928,305.112915 
	C527.742920,273.974091 520.880127,244.661072 506.009460,216.473419 
M180.688980,354.248016 
	C172.372406,358.666687 163.713165,362.472015 154.673386,368.270660 
	C232.150436,405.776917 313.694672,419.595978 397.601593,420.362701 
	C486.793762,421.177795 573.643188,408.326233 654.775757,368.494141 
	C654.323914,366.651703 653.290100,366.328278 652.472534,365.839539 
	C632.603821,353.962555 612.692322,342.156708 592.879272,330.187714 
	C590.161133,328.545685 588.065491,328.986694 585.497559,330.272583 
	C569.824585,338.120911 553.487122,344.330048 536.684692,349.248810 
	C503.990997,358.819672 470.642517,364.559265 436.597290,366.520111 
	C397.888031,368.749603 359.423981,367.119202 321.183044,360.619812 
	C289.041473,355.157104 257.916687,346.316895 228.261490,332.621216 
	C226.090149,331.618439 224.347168,331.720367 222.196350,332.846497 
	C208.624680,339.952545 194.969543,346.899078 180.688980,354.248016 
M201.187729,232.691833 
	C184.966782,250.922699 185.679993,266.003540 203.647873,284.074402 
	C205.287262,285.723175 207.065338,287.247284 208.873260,288.713074 
	C219.288696,297.157471 230.952148,303.502838 242.993698,309.287689 
	C246.657135,311.047577 249.005707,310.475769 251.735245,307.694489 
	C264.019592,295.177307 272.923798,280.413971 280.674438,264.861481 
	C290.293793,245.559219 296.020691,224.826157 302.789093,204.476624 
	C305.015106,197.783997 307.268799,191.100586 309.754547,183.682587 
	C306.763824,184.191010 304.653351,184.473267 302.576874,184.915115 
	C288.232513,187.967316 274.171692,192.068909 260.510040,197.351120 
	C238.987595,205.672729 218.278824,215.494843 201.187729,232.691833 
M619.205078,252.365738 
	C616.563660,240.720215 609.412964,232.073761 600.444946,224.799500 
	C581.757385,209.641296 559.898132,200.701675 537.356262,193.207306 
	C532.048340,191.442627 526.775635,189.415421 520.243958,188.634598 
	C544.444763,227.544693 556.145996,268.955444 551.608093,314.602142 
	C556.708069,313.933319 560.493042,311.752625 564.395386,310.031708 
	C580.967712,302.723389 596.704773,294.044464 608.932068,280.298340 
	C615.732849,272.652710 620.369873,263.927185 619.205078,252.365738 
z"/>
</svg>