<svg version="1.1" id="Layer_1" xmlns="http://www.w3.org/2000/svg" xmlns:xlink="http://www.w3.org/1999/xlink" x="0px" y="0px"
	 width="100%" viewBox="0 0 736 1024" enable-background="new 0 0 736 1024" xml:space="preserve">
<path fill="#000000" opacity="1.000000" stroke="none" 
	d="
M662.857483,351.886688 
	C656.616882,355.966827 653.294067,361.608307 650.418213,368.036469 
	C616.885376,442.988129 582.956116,517.762634 549.487122,592.742615 
	C509.975830,681.259094 469.684479,769.426453 430.801819,858.224731 
	C416.505554,890.873840 401.736206,923.315613 387.206696,955.862671 
	C385.599213,959.463501 383.259277,962.092957 379.071411,962.246033 
	C374.358032,962.418335 371.884064,959.435364 370.098602,955.555298 
	C355.406891,923.628052 340.568939,891.767395 326.034546,859.768799 
	C307.781158,819.582520 289.873444,779.239258 271.636932,739.045166 
	C239.427795,668.054810 207.179962,597.081604 174.763412,526.185852 
	C149.759293,471.501251 124.461723,416.950867 99.335205,362.322174 
	C97.773384,358.926575 95.683144,356.180817 92.780174,353.721680 
	C66.430244,331.400665 47.251652,304.603516 42.428074,269.514069 
	C38.631119,241.892914 44.909756,216.207352 59.416538,192.537354 
	C76.190384,165.168289 100.036407,145.124039 126.935234,128.427048 
	C168.936691,102.355377 214.988220,86.848450 263.069031,76.693573 
	C309.795044,66.824821 357.116516,63.855015 404.653351,66.061729 
	C474.049530,69.283180 540.995239,83.404816 603.490417,114.988419 
	C633.058044,129.931259 659.813171,148.714462 681.091492,174.479324 
	C700.111206,197.509369 711.706360,223.684357 712.067627,253.890305 
	C712.440125,285.041077 700.150757,311.505188 680.069458,334.705688 
	C674.833374,340.755096 669.082520,346.312622 662.857483,351.886688 
M301.376160,433.300201 
	C239.163269,424.876892 179.675537,407.987793 123.769829,375.288940 
	C210.040924,560.770752 293.342743,745.902161 379.040192,930.233765 
	C461.901733,745.732849 544.634644,561.629517 627.227051,377.362396 
	C624.454712,378.358887 622.158081,379.670227 619.876526,381.007294 
	C608.216125,387.840729 596.099609,393.757477 583.669128,399.044708 
	C535.258911,419.635773 484.551239,430.576416 432.341980,435.515961 
	C388.880188,439.627960 345.545166,439.102203 301.376160,433.300201 
M587.245300,255.708969 
	C587.950623,281.066193 575.648499,300.088562 556.933350,316.188202 
	C563.693481,322.205536 570.712097,326.665344 577.765442,331.025116 
	C593.393005,340.684814 609.322021,349.693756 627.809631,352.880035 
	C630.074402,353.270325 631.881348,353.183746 633.935608,352.005646 
	C653.765808,340.633148 669.322998,324.829071 681.029907,305.415009 
	C698.911255,275.761414 700.792847,244.864716 686.386780,213.241852 
	C675.224976,188.740372 656.982727,170.152466 635.696472,154.434723 
	C588.653015,119.697868 534.626038,101.991829 477.957581,91.454651 
	C436.423767,83.731674 394.453705,81.002846 352.172974,83.054893 
	C321.515350,84.542816 291.136963,87.964935 261.140747,94.435020 
	C218.053650,103.728775 176.815430,118.114899 138.860870,140.842255 
	C113.503738,156.026215 90.400078,173.984940 74.370056,199.468475 
	C58.465023,224.753311 52.287975,251.847351 61.432831,281.043060 
	C71.204445,312.239716 92.201698,334.649261 118.840805,352.414459 
	C121.168594,353.966797 123.490211,353.694580 126.011925,353.157593 
	C150.460770,347.951782 171.696289,335.995728 191.893845,321.861969 
	C193.871033,320.478394 196.067459,319.253357 197.515289,316.812775 
	C190.333893,310.248383 183.514465,303.686920 178.106613,295.799042 
	C169.734741,283.587799 165.166824,270.117615 166.039948,255.372177 
	C167.246429,234.996918 177.176620,218.702393 191.841278,205.085663 
	C210.753159,187.525208 233.171127,175.892685 257.424011,167.888321 
	C300.200531,153.770447 344.169586,147.711807 389.238281,149.601273 
	C421.273285,150.944290 452.930756,154.658417 483.780914,163.717102 
	C507.280518,170.617401 529.546143,180.323166 549.215759,195.113770 
	C569.253662,210.181320 584.630554,228.469604 587.245300,255.708969 
M296.423523,225.852509 
	C279.217133,256.504425 262.001434,287.151123 244.812180,317.812653 
	C241.386063,323.924011 241.455856,323.951477 247.930267,326.674652 
	C286.071899,342.717133 326.122864,349.349457 367.207001,350.652710 
	C386.379089,351.260834 405.503326,350.055267 424.528198,347.645386 
	C447.544037,344.729950 470.120605,339.823486 492.019958,332.039795 
	C493.244232,331.604645 494.637451,331.365875 495.256775,329.904419 
	C495.304962,328.290863 494.201050,327.164917 493.381348,325.956940 
	C468.868408,289.831696 444.319916,253.730560 419.835724,217.585846 
	C418.334503,215.369659 416.548798,213.972015 413.943451,213.400635 
	C380.082855,205.974548 346.267731,205.920059 312.368225,213.389587 
	C305.032379,215.005997 299.242218,217.650009 296.423523,225.852509 
M431.025238,363.681976 
	C419.666260,365.445465 408.235291,366.803650 396.765137,367.142670 
	C371.279297,367.895874 345.860565,367.440826 320.534729,363.514954 
	C283.691833,357.803772 248.322845,347.924438 215.869186,329.063110 
	C213.399933,327.628052 211.667252,327.493164 209.232086,329.436310 
	C194.316284,341.338531 177.996063,350.996796 160.660126,358.932678 
	C154.964920,361.539734 149.153610,363.893158 143.238708,366.429779 
	C144.708969,368.419006 146.653244,369.045166 148.385406,369.935852 
	C159.500565,375.651428 170.808975,380.934784 182.404984,385.628510 
	C235.787506,407.236267 291.580597,417.714081 348.808960,420.516266 
	C393.497925,422.704468 438.018951,419.894379 482.096619,411.666748 
	C525.580322,403.550018 567.343567,390.342529 606.504639,369.483887 
	C608.010986,368.681580 609.974792,368.267700 610.589111,366.156494 
	C610.123230,365.851501 609.753357,365.494812 609.312317,365.337097 
	C586.146362,357.052979 565.714355,343.954437 546.217102,329.279419 
	C543.198303,327.007263 541.045715,327.596497 538.165710,329.260620 
	C505.210693,348.303162 469.330322,358.335327 431.025238,363.681976 
M546.645508,303.139587 
	C553.088745,298.006866 558.622131,291.994995 563.023193,285.067047 
	C568.763367,276.031219 572.164185,266.236267 571.042114,255.306870 
	C569.374084,239.060501 560.494446,226.743484 548.928345,216.204529 
	C527.586243,196.757736 501.661072,186.093826 474.372131,178.171036 
	C472.056427,177.498718 470.651459,178.423492 469.002228,179.705139 
	C458.347534,187.985245 447.706635,196.286835 436.894928,204.358688 
	C433.870697,206.616501 433.340973,208.320389 435.582825,211.597229 
	C460.325836,247.763718 484.974335,283.995300 509.494507,320.313171 
	C511.625854,323.470001 513.401489,323.452118 516.407715,321.952393 
	C526.872131,316.732056 537.000793,311.007019 546.645508,303.139587 
M183.068863,267.377869 
	C188.998886,291.056305 206.354126,304.407806 226.106033,315.807861 
	C228.272827,314.064240 229.141647,312.059937 230.193329,310.202484 
	C234.377808,302.811798 238.538406,295.407623 242.714890,288.012421 
	C256.227173,264.086487 269.685516,240.129730 283.317780,216.272385 
	C285.381714,212.660385 285.037415,210.688065 281.505707,208.191345 
	C272.943756,202.138535 264.749329,195.564972 256.425537,189.176849 
	C254.946930,188.042068 253.634613,186.943283 251.502106,187.820572 
	C230.996735,196.255951 211.600632,206.470917 196.712845,223.435623 
	C185.935379,235.716568 179.958954,249.773987 183.068863,267.377869 
M403.816895,194.536819 
	C407.574554,195.246719 411.327606,195.982346 415.091888,196.655212 
	C416.858276,196.970963 418.642822,197.653290 420.358154,196.326172 
	C429.888214,188.953094 439.438812,181.606552 450.003693,173.463776 
	C389.707977,162.145615 331.484009,163.505722 272.645081,180.960281 
	C280.573883,186.968430 287.508484,192.089355 294.276428,197.421738 
	C296.766479,199.383606 299.050171,199.586853 302.087708,198.797897 
	C335.385864,190.149200 369.020935,188.468109 403.816895,194.536819 
z"/>
</svg>