<svg version="1.1" id="Layer_1" xmlns="http://www.w3.org/2000/svg" xmlns:xlink="http://www.w3.org/1999/xlink" x="0px" y="0px"
	 width="100%" viewBox="0 0 848 1024" enable-background="new 0 0 848 1024" xml:space="preserve">
<path fill="#000000" opacity="1.000000" stroke="none" 
	d="
M745.729858,396.592133 
	C745.433105,423.885162 745.486633,450.718719 744.863892,477.536591 
	C743.939148,517.359375 744.855835,557.196533 743.830261,597.006042 
	C742.997498,629.332214 743.836548,661.659912 742.968689,693.976135 
	C741.724915,740.292114 742.738586,786.626526 741.876770,832.940430 
	C741.191589,869.765442 741.441528,906.587524 741.187622,943.410278 
	C741.176880,944.972961 741.725525,946.763000 739.320251,948.739929 
	C679.687805,848.917847 620.171143,749.289490 559.911682,648.417725 
	C518.985596,749.498047 476.172089,848.332031 436.013702,948.725708 
	C394.597992,848.041382 353.043915,747.812622 310.835052,646.255371 
	C249.340897,748.207275 188.696548,848.750244 127.830864,949.660217 
	C124.302948,946.851135 124.999565,944.014465 124.989777,941.523315 
	C124.834633,902.026733 125.218590,862.521484 124.516457,823.035339 
	C123.683876,776.212708 124.358101,729.385193 123.529762,682.572388 
	C122.503685,624.583801 123.451378,566.585510 122.416504,508.608032 
	C121.669930,466.782074 122.051102,424.961060 121.585503,383.140656 
	C121.485382,374.147797 121.044220,365.156219 121.083496,356.165466 
	C121.099945,352.400757 119.654793,350.099976 116.677834,347.914734 
	C95.015465,332.013367 75.813507,313.695557 61.563488,290.645660 
	C49.681908,271.426849 42.072903,250.714203 42.219864,227.952225 
	C42.382069,202.829132 50.230865,179.903656 64.264214,159.011459 
	C86.335526,126.152756 117.083221,103.427658 151.042542,84.523819 
	C197.366730,58.736950 247.262604,43.275764 299.182404,33.591621 
	C350.143219,24.086359 401.540802,20.719675 453.279205,21.735926 
	C486.765198,22.393661 520.048340,25.342207 553.202209,30.287428 
	C587.890564,35.461514 621.876587,43.332695 654.980957,54.841900 
	C705.816223,72.515518 752.378418,97.399864 789.681763,137.154495 
	C807.638733,156.291428 820.982056,178.238205 826.097168,204.392578 
	C832.494568,237.103333 825.621826,267.221466 807.607605,295.007660 
	C792.757629,317.912903 772.848145,335.698151 750.566223,351.008789 
	C747.466064,353.139008 746.090210,355.353638 746.110474,359.132446 
	C746.176514,371.462585 745.913818,383.794434 745.729858,396.592133 
M318.927673,423.695923 
	C257.918518,413.698914 199.168686,396.847961 144.186722,365.103210 
	C145.286713,533.999756 146.378632,701.657104 147.470551,869.314514 
	C147.817581,869.359131 148.164627,869.403809 148.511658,869.448425 
	C236.582550,724.197510 324.653442,578.946655 413.318817,432.715271 
	C381.342590,431.723785 350.438721,428.966003 318.927673,423.695923 
M561.252563,605.297791 
	C612.545227,693.293091 665.885925,780.061951 718.293640,867.604736 
	C720.826111,701.325745 721.146179,535.202026 723.589600,368.153564 
	C640.224854,413.110474 550.930908,429.593292 457.769592,432.932678 
	C492.505463,490.772461 526.703125,547.716064 561.252563,605.297791 
M530.333618,661.849792 
	C534.772888,650.719238 539.086182,639.535767 543.726074,628.489441 
	C545.174072,625.042114 544.977783,622.371948 542.924622,619.244995 
	C539.089050,613.403564 535.672852,607.286682 532.085999,601.282104 
	C501.769318,550.530396 471.467651,499.769684 441.099304,449.048889 
	C439.438690,446.275391 438.196838,443.134430 435.215057,440.477875 
	C429.656036,449.618011 424.283569,458.388672 418.971558,467.195770 
	C389.212555,516.534790 359.544678,565.929321 329.600952,615.156006 
	C326.584991,620.114197 326.130768,624.092529 328.384521,629.449280 
	C344.328583,667.345459 359.984131,705.363098 375.704773,743.353149 
	C394.863281,789.651245 413.995667,835.960205 433.138367,882.264832 
	C433.799408,883.863770 434.297241,885.578918 436.359131,886.953003 
	C445.182190,866.137878 453.931458,845.808472 462.434326,825.376587 
	C485.012756,771.122009 507.484802,716.823242 530.333618,661.849792 
M185.072754,357.347839 
	C196.571671,362.650024 208.239304,367.557861 220.137802,371.883148 
	C284.800629,395.389099 351.822815,405.866180 420.348389,407.661652 
	C461.711243,408.745392 502.875763,406.097015 543.776672,399.707916 
	C589.540588,392.559204 633.941589,380.519562 676.637268,362.448975 
	C683.304199,359.627228 689.987793,356.755310 696.398743,352.941162 
	C695.729309,352.110657 695.502991,351.601166 695.112915,351.378601 
	C673.122803,338.831421 651.105042,326.332733 629.136475,313.748108 
	C626.684631,312.343567 624.640564,312.469818 622.137024,313.676239 
	C615.839294,316.711029 609.473206,319.633759 602.997986,322.265564 
	C558.799744,340.229462 512.434692,347.817596 465.114899,350.042755 
	C430.485687,351.671173 395.929932,350.573364 361.494659,345.531952 
	C322.866821,339.876740 285.465942,330.340027 250.048340,313.685669 
	C247.363083,312.423035 245.263046,312.475159 242.630905,313.993591 
	C221.421402,326.229187 200.115921,338.298340 178.860779,350.455078 
	C177.810532,351.055756 176.238846,351.334229 176.321716,353.414520 
	C178.961395,354.592896 181.679184,355.806183 185.072754,357.347839 
M661.862549,244.356003 
	C667.255005,230.460709 665.113403,217.650238 656.550293,205.618958 
	C654.457703,202.678802 651.963379,200.856201 648.433899,200.543762 
	C636.009521,199.443848 623.594543,197.708237 611.150757,197.455765 
	C570.510559,196.631210 530.375427,201.029709 491.069061,211.544739 
	C456.185242,220.876617 423.205994,234.476501 395.244019,258.086121 
	C377.539062,273.035248 364.325836,291.034912 358.910370,314.091797 
	C358.002136,317.958771 359.223663,319.140320 362.776489,319.705780 
	C378.903381,322.272339 395.147583,323.951996 411.427856,324.562439 
	C452.789185,326.113342 493.972412,324.499878 534.627075,315.729614 
	C566.216675,308.914886 596.753296,299.173035 624.649597,282.511047 
	C640.102966,273.280975 654.018738,262.226257 661.862549,244.356003 
M468.128235,110.137833 
	C469.782043,110.318336 471.431641,110.570992 473.090302,110.668800 
	C516.231934,113.212914 558.293823,121.008659 598.725769,136.624329 
	C601.736328,137.787109 603.882751,137.540298 606.397095,135.396591 
	C622.240784,121.888206 638.287781,108.617645 654.088684,95.059975 
	C657.281311,92.320580 661.151550,90.129456 663.831055,85.433716 
	C574.499817,51.344074 482.103333,43.392944 388.074280,48.395306 
	C332.274872,51.363838 277.705902,61.363712 224.425430,80.255180 
	C225.408173,81.636642 225.708679,82.242882 226.169479,82.680229 
	C243.205292,98.849617 260.289612,114.968155 277.266876,131.198685 
	C279.708984,133.533371 281.979889,133.514160 284.936218,132.484039 
	C311.281708,123.303993 338.422668,117.484711 366.027588,113.776672 
	C399.619659,109.264397 433.358887,108.320442 468.128235,110.137833 
M127.527657,323.948914 
	C133.172470,327.795776 138.876953,331.558929 144.437866,335.523468 
	C147.386078,337.625336 149.943237,337.641541 153.116470,335.788879 
	C174.267166,323.440399 195.513351,311.255585 216.716904,298.997437 
	C217.969681,298.273193 219.478699,297.757019 220.024582,295.630005 
	C218.678406,294.471405 217.225677,293.150146 215.699661,291.919769 
	C208.404648,286.037903 201.770889,279.493805 196.108521,272.022614 
	C175.617706,244.986099 176.252426,212.850739 197.596176,186.451996 
	C209.664307,171.525650 224.984833,160.776718 241.568665,151.589142 
	C245.455200,149.435974 249.382538,147.356461 253.103058,145.344742 
	C252.941605,142.861008 251.347839,141.996033 250.187729,140.898743 
	C233.602234,125.211517 216.934692,109.610527 200.425598,93.843559 
	C197.946289,91.475716 195.931061,91.276649 192.936844,92.693916 
	C182.245041,97.754669 171.506485,102.710091 161.201233,108.540779 
	C133.265274,124.346886 107.654732,142.921143 88.644379,169.379059 
	C63.717258,204.071655 60.302021,242.912201 84.894859,279.757172 
	C96.328316,296.886810 110.786385,311.002350 127.527657,323.948914 
M678.080811,108.602959 
	C661.907654,122.404793 645.734497,136.206619 629.578369,149.993896 
	C631.211670,152.696747 633.555847,153.364655 635.523132,154.504837 
	C648.561523,162.061752 660.698303,170.774933 670.874512,181.998505 
	C688.967407,201.953629 695.128113,224.832382 687.185486,250.879532 
	C682.778992,265.330139 673.421631,276.592651 662.566711,286.694122 
	C659.072815,289.945557 655.313538,292.911835 651.491943,296.164917 
	C652.345337,296.979706 652.740173,297.535065 653.276917,297.843414 
	C675.659485,310.702850 698.066589,323.519440 720.429626,336.412628 
	C722.634338,337.683685 724.438843,337.413940 726.435547,336.124146 
	C748.395935,321.938599 768.949097,306.185272 783.903503,284.257294 
	C800.010437,260.639496 807.073547,234.932556 800.572754,206.565567 
	C795.543823,184.620590 783.164368,166.786575 767.516479,151.064972 
	C746.743774,130.194366 722.346802,114.410744 696.573914,100.507568 
	C692.186890,98.141006 689.088135,98.008331 685.722778,101.863411 
	C683.663208,104.222565 680.997498,106.052536 678.080811,108.602959 
M375.856598,138.433945 
	C374.376862,138.670044 372.901672,138.940659 371.416687,139.137207 
	C335.925873,143.834564 301.392395,152.071503 268.661865,166.954651 
	C266.909851,167.751343 264.822479,168.148911 263.851410,170.148392 
	C264.598083,172.186371 266.175415,173.477188 267.580048,174.854355 
	C299.919586,206.561340 339.420380,223.439819 383.506439,230.864563 
	C386.066467,231.295685 387.962585,230.585281 389.944061,229.124893 
	C411.628845,213.142593 435.779114,202.048660 461.236298,193.697388 
	C506.857391,178.731308 553.800537,171.998459 601.731079,171.602463 
	C604.386536,171.580536 607.239990,172.200851 610.013000,170.403595 
	C609.237610,169.722229 608.927307,169.313095 608.515320,169.110809 
	C606.573242,168.157059 604.614258,167.235428 602.641541,166.346252 
	C557.620056,146.053345 509.871826,137.937592 461.027405,135.502197 
	C432.912567,134.100388 404.739868,134.441528 375.856598,138.433945 
M265.912903,207.602798 
	C257.603302,201.151215 249.913773,194.015564 243.081345,186.029938 
	C240.794540,183.357193 239.076981,183.340897 236.454865,185.337402 
	C230.480392,189.886459 224.691986,194.624878 219.697571,200.253265 
	C203.431488,218.584106 202.884933,239.477997 218.107071,258.676697 
	C222.902924,264.725372 228.523682,269.926666 234.761230,274.402985 
	C262.304474,294.169159 293.589294,305.054535 326.181854,312.904968 
	C330.976257,314.059784 332.857025,313.174286 333.933411,308.089630 
	C336.852478,294.300018 342.514801,281.579346 350.206207,269.706421 
	C353.799103,264.160217 358.432068,259.389984 362.079651,253.777161 
	C361.268188,253.307190 360.870392,252.969940 360.412354,252.830154 
	C358.504852,252.247971 356.583221,251.710617 354.659637,251.182922 
	C322.540039,242.371780 292.738983,228.820724 265.912903,207.602798 
z"/>
</svg>