<svg version="1.1" id="Layer_1" xmlns="http://www.w3.org/2000/svg" xmlns:xlink="http://www.w3.org/1999/xlink" x="0px" y="0px"
	 width="100%" viewBox="0 0 832 1024" enable-background="new 0 0 832 1024" xml:space="preserve">
<path fill="#000000" opacity="1.000000" stroke="none" 
	d="
M78.823776,569.000000 
	C78.792931,482.834900 78.734863,397.169800 78.812401,311.504791 
	C78.816330,307.160126 77.624031,304.074127 74.388214,301.082520 
	C57.050259,285.053131 43.823730,266.255463 37.791203,243.135498 
	C29.800632,212.511307 35.216503,183.988785 52.730209,157.834808 
	C68.970062,133.583115 90.778732,115.101311 115.312912,99.800468 
	C161.630356,70.914436 212.230728,52.731453 265.251953,40.817158 
	C294.347260,34.279209 323.792938,29.798033 353.457489,26.975986 
	C392.484619,23.263268 431.622070,22.468533 470.748505,24.971426 
	C524.586243,28.415394 577.624878,36.774212 629.292603,52.707867 
	C670.004578,65.262924 708.428040,82.607269 742.895874,108.003372 
	C764.587463,123.985870 783.413940,142.647705 796.384766,166.587296 
	C817.538391,205.629272 812.836670,252.123962 784.478394,286.352203 
	C779.467834,292.399963 774.181946,298.187531 768.329163,303.380280 
	C765.129211,306.219391 764.156494,309.283051 764.158386,313.419403 
	C764.220947,449.250183 764.172058,585.080994 764.165405,720.911804 
	C764.161743,794.077087 764.211548,867.242371 764.194641,940.407654 
	C764.194153,942.459778 764.902283,944.751160 762.252869,947.336731 
	C694.431335,841.443726 629.111755,734.351868 561.777100,627.083984 
	C515.759888,735.220764 471.963226,843.232239 425.120422,949.939819 
	C424.567413,950.015930 424.014404,950.092041 423.461395,950.168152 
	C377.446014,842.798767 331.430664,735.429382 284.917328,626.898132 
	C216.761459,733.341919 149.774155,839.514709 81.345734,944.416443 
	C80.334732,944.160339 80.171837,944.137939 80.025284,944.076660 
	C79.873558,944.013123 79.692207,943.943848 79.604378,943.820007 
	C79.414955,943.552612 79.215714,943.265259 79.132286,942.955872 
	C79.003380,942.477722 78.913986,941.975647 78.902534,941.481445 
	C78.856209,939.482300 78.825584,937.482361 78.825539,935.482666 
	C78.822800,813.488464 78.823639,691.494202 78.823776,569.000000 
M98.144882,425.500000 
	C98.144882,577.103394 98.144882,728.706787 98.144882,880.310181 
	C98.691490,880.436035 99.238091,880.561829 99.784698,880.687622 
	C200.593475,722.524292 301.402252,564.360901 402.647827,405.512238 
	C399.724640,405.339447 398.077606,405.206482 396.427979,405.149933 
	C371.962921,404.311279 347.585938,402.228394 323.344452,398.960968 
	C295.644165,395.227295 268.153534,390.208405 241.056488,383.232574 
	C191.702164,370.526794 144.682449,352.399445 102.319511,323.458771 
	C101.280960,322.749268 100.330162,321.585876 98.144096,322.401794 
	C98.144096,356.299744 98.144096,390.399872 98.144882,425.500000 
M744.669067,864.498230 
	C744.669067,684.441833 744.669067,504.385406 744.669067,323.264313 
	C741.501953,325.304382 739.271240,326.660675 737.123230,328.137177 
	C712.124146,345.321136 685.157288,358.726410 656.672180,368.924591 
	C590.208923,392.719604 521.250916,402.737640 450.999664,405.299774 
	C449.625549,405.349945 447.958496,404.685059 446.616638,406.931213 
	C546.403076,564.496155 644.637085,723.341797 744.667480,881.344238 
	C744.667480,876.061707 744.667480,870.779175 744.669067,864.498230 
M302.836029,618.743530 
	C319.316010,657.501343 335.768829,696.270813 352.282745,735.014160 
	C373.367828,784.481934 394.488037,833.934692 415.633545,883.376648 
	C418.255066,889.506226 421.124176,895.529846 424.304626,902.541931 
	C426.471680,897.876770 428.175323,894.454956 429.674133,890.945557 
	C450.404846,842.406128 470.806244,793.729614 490.922913,744.931335 
	C509.387726,700.140198 528.211731,655.496887 546.966431,610.825806 
	C548.245117,607.780090 548.324341,605.346252 546.456482,602.476929 
	C541.642090,595.081055 537.160950,587.469299 532.475403,579.988403 
	C499.499146,527.338318 466.504517,474.699799 433.517059,422.056763 
	C430.618958,417.431824 427.730591,412.800751 424.569061,407.742767 
	C423.485992,409.267242 422.685425,410.287994 421.996948,411.379425 
	C414.889313,422.647461 407.847656,433.957367 400.697052,445.197968 
	C368.695526,495.503998 336.828583,545.897278 304.468781,595.971985 
	C299.554932,603.575806 297.198120,610.141663 302.836029,618.743530 
M354.479431,318.228882 
	C352.836609,317.963745 351.201569,317.629974 349.549866,317.443542 
	C310.663086,313.053955 272.831879,304.341156 236.479919,289.671448 
	C233.488678,288.464355 231.238617,288.829437 228.599625,290.459747 
	C210.464340,301.663269 192.236465,312.716797 174.076538,323.880707 
	C169.205399,326.875305 164.466614,330.085266 159.718521,333.162994 
	C160.847763,335.255615 162.415527,335.594574 163.728714,336.190826 
	C180.273361,343.703308 197.231476,350.172516 214.542496,355.661743 
	C251.458023,367.367432 289.218384,375.208588 327.633698,379.996002 
	C366.504150,384.840149 405.459412,387.269836 444.679535,386.144958 
	C479.346741,385.150696 513.774841,382.224030 547.995117,376.715210 
	C589.888611,369.971161 630.740784,359.440247 669.885986,342.818146 
	C676.408264,340.048584 682.943970,337.255524 689.016296,333.674164 
	C688.420715,331.574707 686.841980,331.157349 685.609192,330.410614 
	C665.524841,318.244781 645.235291,306.402649 625.429382,293.800262 
	C618.249084,289.231506 612.544373,288.155334 604.166748,291.708099 
	C566.600830,307.638794 526.817627,314.940277 486.458496,319.102600 
	C442.764526,323.608826 399.038513,323.343903 354.479431,318.228882 
M343.205109,106.629517 
	C363.445190,103.365395 383.857147,101.735764 404.309174,100.973854 
	C429.626434,100.030693 454.910583,100.907944 480.140381,103.553169 
	C517.723938,107.493637 554.457153,115.066551 589.863892,128.478302 
	C592.894104,129.626114 594.966614,129.318359 597.527710,127.291527 
	C611.765503,116.024086 626.177551,104.977104 640.500610,93.817017 
	C645.161865,90.185066 649.734802,86.439674 655.415283,81.891792 
	C565.696411,48.943920 474.198517,38.992847 380.696838,44.297230 
	C317.325104,47.892338 255.351410,58.905266 195.703140,81.391861 
	C196.406067,83.959862 197.979523,84.746681 199.234283,85.763084 
	C215.933228,99.289856 232.707550,112.724327 249.324905,126.350327 
	C251.955872,128.507690 254.167053,128.340439 257.059021,127.308784 
	C284.746277,117.431908 313.174316,110.573555 343.205109,106.629517 
M228.662003,139.417923 
	C233.140259,137.396530 230.156357,135.763855 228.315613,134.257233 
	C211.435318,120.440956 194.486816,106.707611 177.665665,92.819939 
	C175.202255,90.786110 173.181732,90.800301 170.455643,92.089310 
	C156.150299,98.853485 141.934738,105.776222 128.520706,114.219940 
	C105.069931,128.981491 83.702942,146.027145 68.392197,169.611786 
	C58.830750,184.340225 53.269592,200.461105 53.605286,218.089478 
	C53.993500,238.476059 61.953651,256.218994 74.416924,272.081604 
	C90.332527,292.338165 110.877670,306.939148 132.711853,320.034790 
	C136.649261,322.396393 139.603287,322.486694 143.547028,320.005432 
	C162.854568,307.857727 182.353180,296.013885 201.770554,284.040405 
	C204.984085,282.058838 208.129532,279.966858 211.210724,277.987396 
	C210.427460,275.695526 208.694550,275.230164 207.318939,274.373230 
	C195.208557,266.829163 184.116669,258.077393 175.709671,246.414291 
	C166.822830,234.085464 162.374634,220.444168 164.789764,205.067230 
	C166.715057,192.809036 172.586548,182.537918 180.756210,173.423096 
	C193.998566,158.648727 210.459290,148.396042 228.662003,139.417923 
M636.473083,275.398163 
	C633.897644,277.240845 635.916809,278.032715 637.311218,278.867981 
	C658.019958,291.272766 679.104004,303.103058 699.282349,316.316711 
	C707.843018,321.922638 713.611572,321.169739 721.582825,315.662750 
	C743.410278,300.583038 764.021912,284.413727 777.884949,261.280273 
	C787.530884,245.183807 792.321594,227.794205 790.108032,208.807587 
	C787.383789,185.440277 775.910400,166.420807 760.470642,149.517136 
	C737.754639,124.647430 709.806641,107.093964 679.696838,92.637230 
	C676.588074,91.144608 674.453735,91.988602 672.047485,93.873428 
	C658.548462,104.447441 644.922852,114.860909 631.484131,125.510437 
	C626.198975,129.698593 620.427185,133.348129 615.247314,138.752792 
	C618.612793,140.657822 621.455322,142.287048 624.316406,143.882950 
	C638.500916,151.795166 651.698669,161.004471 662.714417,173.081207 
	C684.479370,196.942413 686.221619,224.828018 667.193115,249.186325 
	C658.906250,259.794434 648.413696,268.007874 636.473083,275.398163 
M521.020569,204.618805 
	C514.921265,205.463913 508.829651,206.370316 502.721283,207.144089 
	C465.905365,211.807785 429.094757,216.516693 392.254272,220.978546 
	C388.145447,221.476181 387.020996,222.915756 387.051208,226.867477 
	C387.215668,248.364456 387.028961,269.864075 387.186951,291.361176 
	C387.273529,303.144073 384.772980,302.029388 398.368256,302.506439 
	C436.030518,303.827942 473.618591,302.533569 510.950256,296.733215 
	C542.982605,291.756226 574.355530,284.369232 604.021667,270.946716 
	C620.658936,263.419159 636.365723,254.377731 648.805054,240.600098 
	C662.354370,225.593140 664.164734,209.256821 654.298706,193.518906 
	C652.196228,190.164978 649.849243,188.605255 645.758484,189.129517 
	C627.603943,191.456085 609.419006,193.544357 591.253601,195.787445 
	C568.132629,198.642456 545.019775,201.563705 521.020569,204.618805 
M387.049866,124.940445 
	C387.068329,148.771362 387.149506,172.602570 387.044678,196.432953 
	C387.026794,200.501282 388.181183,202.188354 392.505524,201.635849 
	C422.043579,197.861832 451.602295,194.250137 481.146057,190.520081 
	C522.740906,185.268539 564.329956,179.971008 605.918030,174.665787 
	C613.918152,173.645218 621.902161,172.498428 630.106262,171.380890 
	C629.050354,168.923447 627.223083,168.278015 625.740112,167.296783 
	C604.378235,153.162552 580.647217,144.446304 556.282104,137.309341 
	C525.496704,128.291748 493.970245,123.503021 462.016663,121.078461 
	C438.881439,119.323013 415.755798,119.629433 392.612518,120.384628 
	C390.100159,120.466606 387.411896,120.545723 387.049866,124.940445 
M291.864960,214.167145 
	C304.078766,212.648819 316.292694,211.131271 328.506378,209.611954 
	C339.401276,208.256683 350.290588,206.854630 361.193665,205.568985 
	C364.697723,205.155792 366.903870,204.324219 366.865448,199.879959 
	C366.658081,175.889816 366.713715,151.896667 366.830109,127.905281 
	C366.848389,124.137093 365.500854,122.718834 361.822601,123.234070 
	C356.717194,123.949203 351.585541,124.480522 346.485107,125.226997 
	C309.435638,130.649460 273.225830,139.157440 239.213120,155.324310 
	C222.727051,163.160431 207.201279,172.528046 195.136627,186.635330 
	C187.631866,195.410690 182.836014,205.224594 184.245453,217.212128 
	C185.330536,226.440994 186.962036,227.716827 195.953064,226.559174 
	C227.630310,222.480515 259.310577,218.425293 291.864960,214.167145 
M238.808411,269.636597 
	C263.122375,280.463501 288.570190,287.542572 314.613678,292.706757 
	C329.479706,295.654541 344.445587,297.928314 359.510559,299.476746 
	C362.253510,299.758667 366.759583,301.910583 366.761810,295.925354 
	C366.770233,273.267334 366.748169,250.609314 366.786896,227.951370 
	C366.791840,225.056900 365.639709,224.241699 362.781067,224.610764 
	C343.641602,227.081848 324.482056,229.397217 305.334869,231.809265 
	C274.963531,235.635315 244.589920,239.445114 214.235840,243.404175 
	C209.976990,243.959641 205.485733,243.810059 201.044769,245.925949 
	C212.322342,256.166077 225.055817,263.007965 238.808411,269.636597 
z"/>
</svg>